<?xml version="1.0" encoding="UTF-8" standalone="no"?>
<svg width="41px" height="41px" viewBox="0 0 41 41" version="1.1" xmlns="http://www.w3.org/2000/svg" xmlns:xlink="http://www.w3.org/1999/xlink">
    <!-- Generator: Sketch 3.6.1 (26313) - http://www.bohemiancoding.com/sketch -->
    <title>Soccer Goal</title>
    <desc>Created with Sketch.</desc>
    <defs>
        <linearGradient x1="27.1994797%" y1="24.3246377%" x2="87.3997806%" y2="80.784741%" id="linearGradient-1">
            <stop stop-color="#F8F8F8" offset="0%"></stop>
            <stop stop-color="#D7D7D7" offset="100%"></stop>
        </linearGradient>
    </defs>
    <g id="Page-1" stroke="none" stroke-width="1" fill="none" fill-rule="evenodd">
        <g id="Scoreboard-Alerts" transform="translate(-50.000000, -50.000000)">
            <g id="Soccer-Goal" transform="translate(50.000000, 50.000000)">
                <path d="M40.7922999,20.2159727 C40.7922999,31.1551292 31.8655407,40.0201774 20.8506836,40.0201774 C18.7485772,40.0201774 14.8198185,39.0979726 14.8198185,39.0979726 C14.8198185,39.0979726 10.0099577,36.7372147 8.00254426,34.9778104 C3.88317123,31.3673719 0.913880446,26.1667038 0.913880446,20.2159727 C0.913880446,9.27762741 9.84063961,0.412579149 20.8506836,0.412579149 C31.8655407,0.412579149 40.7922999,9.27762741 40.7922999,20.2159727 Z" id="Fill-1" fill="url(#linearGradient-1)"></path>
                <path d="M34.4059372,18.0808686 C34.4059372,18.0808686 32.6870111,16.5072917 29.524154,15.007154 C26.8348531,13.7322844 22.947538,12.927755 22.947538,12.927755 M17.9195339,16.4759357 C17.9195339,16.4759357 17.5157649,19.4819874 17.9195339,21.9500359 C18.3199797,24.4147837 19.70077,27.4191851 19.70077,27.4191851 M24.7944073,31.1901585 C24.7944073,31.1901585 28.5828571,31.40635 31.4815198,29.4119423 C34.3801824,27.4191851 35.7900507,25.2704729 35.7900507,25.2704729 M3.6870922,18.7938054 C3.6870922,18.7938054 4.81199595,16.2572688 7.26451874,14.6638881 C9.71621074,13.0696823 13.1798176,12.552308 13.1798176,12.552308 M5.40352584,26.1599935 C5.40352584,26.1599935 6.67049645,28.492716 9.2168997,29.7642849 C11.7616413,31.0333784 14.9145289,31.1975849 14.9145289,31.1975849 M23.5340831,36.118829 L24.8715017,39.1633396 M16.7325467,35.3861634 L15.1280486,38.8056223" id="Stroke-2" stroke="#9E9E9E" stroke-width="0.6" stroke-linecap="round"></path>
                <path d="M9.4295846,4.58953045 C12.8042958,5.16796642 15.213617,8.42899201 15.213617,8.42899201" id="Path" stroke="#B8B8B8" stroke-width="0.6" stroke-linecap="round"></path>
                <path d="M25.1682675,3.91950191 L21.6473354,7.49408766" id="Path" stroke="#B8B8B8" stroke-width="0.6" stroke-linecap="round"></path>
                <path d="M26.1713487,31.1847788 L19.0821629,26.0291511 L13.1798176,30.8823744 L15.6968946,37.2162897 L24.0034853,37.2162895 L26.1713487,31.1847788 Z" id="Fill-4" fill="#1A1A1A"></path>
                <path d="M4.40407295,17.3456526 L5.85132725,26.8052673 L3.70018549,30.0080822 C3.70018549,30.0080822 2.23724977,27.9476104 1.4803906,23.9934518 C0.864767504,20.7901873 1.15148936,17.3456526 1.15148936,17.3456526 L4.40407295,17.3456526 Z" id="Fill-5" fill="#1A1A1A"></path>
                <path d="M33.7354813,17.447147 L35.5294146,25.6737849 L40.2235586,24.7140548 C40.2235586,24.7140548 40.8836879,21.8543175 40.488227,18.4851962 C40.1849848,15.9775401 39.0368186,13.3296071 39.0368186,13.3296071 L33.7354813,17.447147 Z" id="Fill-6" fill="#1A1A1A"></path>
                <path d="M24.5342905,0.977505543 L24.5342905,4.58953045 L30.7769012,3.30388384 C30.7769012,3.30388384 29.7882605,2.56194022 27.6555959,1.78134047" id="Fill-7" fill="#1A1A1A"></path>
                <path d="M24.5342905,13.2327511 L17.9054103,18.0808686 L11.8363907,12.8882636 L14.1161297,7.07078145 L22.218926,7.0262229 L24.5342905,13.2327511 Z" id="Fill-3" fill="#1A1A1A"></path>
                <path d="M20.8506779,0.818273086 C31.6247825,0.818273086 40.3902511,9.52077389 40.3902511,20.2159718 C40.3902511,30.9119827 31.6247825,39.6136705 20.8506779,39.6136705 C10.0789856,39.6136705 1.31592928,30.9119827 1.31592928,20.2159718 C1.31592928,9.52077389 10.0789856,0.818273086 20.8506779,0.818273086 M20.8506779,0.412579149 C9.84016859,0.412579149 0.913880446,9.27686972 0.913880446,20.2159718 C0.913880446,31.1534478 9.84016859,40.0201774 20.8506779,40.0201774 C31.8668158,40.0201774 40.7922999,31.1534478 40.7922999,20.2159718 C40.7922999,9.27686972 31.8668158,0.412579149 20.8506779,0.412579149" id="Fill-8" fill="#979797"></path>
            </g>
        </g>
    </g>
</svg>