<?xml version="1.0" encoding="UTF-8" standalone="no"?>
<svg width="39px" height="153px" viewBox="0 0 39 153" version="1.1" xmlns="http://www.w3.org/2000/svg" xmlns:xlink="http://www.w3.org/1999/xlink">
    <!-- Generator: Sketch 3.8.3 (29802) - http://www.bohemiancoding.com/sketch -->
    <title>Product Icons</title>
    <desc>Created with Sketch.</desc>
    <defs>
        <path d="M9,13.5 C11.4852814,13.5 13.5,11.4852814 13.5,9 C13.5,6.51471863 11.4852814,4.5 9,4.5 C6.51471863,4.5 4.5,6.51471863 4.5,9 C4.5,11.4852814 6.51471863,13.5 9,13.5 Z M9,10.75 L6.94275162,11.8315595 L7.3356511,9.54077974 L5.67130219,7.91844052 L7.97137581,7.58422026 L9,5.5 L10.0286242,7.58422026 L12.3286978,7.91844052 L10.6643489,9.54077974 L11.0572484,11.8315595 L9,10.75 Z" id="path-1"></path>
        <mask id="mask-2" maskContentUnits="userSpaceOnUse" maskUnits="objectBoundingBox" x="0" y="0" width="9" height="9" fill="white">
            <use xlink:href="#path-1"></use>
        </mask>
    </defs>
    <g id="Page-1" stroke="none" stroke-width="1" fill="none" fill-rule="evenodd">
        <g id="Product-Icons">
            <g id="Games" transform="translate(9.000000, 48.000000)">
                <g id="Group" stroke="#4ACFA5" stroke-width="1.1">
                    <path d="M10.3240389,14.6450557 L10.8899748,15.2158296 C11.8354184,16.1694361 13.3680043,16.1694361 14.3132446,15.2158296 L19.7901916,9.69206263 C20.7354319,8.73845608 20.7354319,7.19265459 19.7901916,6.23904804 L14.3132446,0.715077941 C13.3680043,-0.238325452 11.8354184,-0.238325452 10.8899748,0.714874787 L10.3238654,1.28586568 L14.7271922,5.72699213 C15.9525313,6.96317711 15.9525313,8.96759273 14.7271922,10.2037777 L14.7271437,10.2038266 L10.3240389,14.6450557 Z" id="Stroke-3"></path>
                    <path d="M15.0860917,9.69179874 L9.60933031,15.2159808 C8.66368051,16.1693857 7.13108967,16.1693857 6.18584634,15.2159808 L0.709084925,9.69179874 C-0.236361642,8.73839383 -0.236361642,7.19238671 0.709084925,6.2389818 L6.18584634,0.715206051 C7.13108967,-0.238402017 8.66368051,-0.238402017 9.60933031,0.715206051 L15.0860917,6.2389818 C16.0311318,7.19238671 16.0311318,8.73839383 15.0860917,9.69179874 Z" id="Stroke-9"></path>
                </g>
                <path d="M12.0559782,7.82909863 C12.4334229,8.22394408 12.4334229,8.86339563 12.0559782,9.25824108 C11.6787138,9.65271281 11.0666511,9.65271281 10.6892064,9.25824108 C10.3117617,8.86339563 10.3117617,8.22394408 10.6892064,7.82909863 C11.0666511,7.43462691 11.6787138,7.43462691 12.0559782,7.82909863" id="Fill-15-Copy" fill="#4ACFA5"></path>
                <path d="M10.0292294,5.69073639 C10.4064718,6.08534025 10.4064718,6.7250768 10.0292294,7.11968065 C9.65144609,7.51447134 9.03977969,7.51447134 8.662357,7.11968065 C8.28493431,6.7250768 8.28475398,6.08534025 8.662357,5.69073639 C9.03977969,5.29631938 9.65144609,5.29631938 10.0292294,5.69073639" id="Fill-13-Copy" fill="#4ACFA5"></path>
                <path d="M8.00203127,3.55280865 C8.37962988,3.94704794 8.37962988,4.58679928 8.00203127,4.9815991 C7.62461297,5.37621207 7.01277338,5.37621207 6.63535509,4.9815991 C6.2579368,4.58679928 6.2579368,3.94704794 6.63535509,3.55280865 C7.01277338,3.15800884 7.62461297,3.15800884 8.00203127,3.55280865" id="Fill-11-Copy" fill="#4ACFA5"></path>
                <path d="M9.34986376,10.6582887 C9.72730846,11.0531341 9.72730846,11.6925857 9.34986376,12.0874311 C8.97259939,12.4819029 8.36053665,12.4819029 7.98309195,12.0874311 C7.60564725,11.6925857 7.60564725,11.0531341 7.98309195,10.6582887 C8.36053665,10.263817 8.97259939,10.263817 9.34986376,10.6582887" id="Fill-15" fill="#4ACFA5"></path>
                <path d="M7.32311504,8.51992645 C7.7003574,8.9145303 7.7003574,9.55426685 7.32311504,9.94887071 C6.94533169,10.3436614 6.3336653,10.3436614 5.9562426,9.94887071 C5.57881991,9.55426685 5.57863958,8.9145303 5.9562426,8.51992645 C6.3336653,8.12550943 6.94533169,8.12550943 7.32311504,8.51992645" id="Fill-13" fill="#4ACFA5"></path>
                <path d="M5.29591687,6.38199871 C5.67351548,6.776238 5.67351548,7.41598934 5.29591687,7.81078916 C4.91849858,8.20540213 4.30665899,8.20540213 3.92924069,7.81078916 C3.5518224,7.41598934 3.5518224,6.776238 3.92924069,6.38199871 C4.30665899,5.98719889 4.91849858,5.98719889 5.29591687,6.38199871" id="Path" fill="#4ACFA5"></path>
            </g>
            <g id="Casino" transform="translate(10.000000, 10.000000)" stroke="#4ACFA5">
                <circle id="Oval-378" cx="9" cy="9" r="9"></circle>
                <circle id="Oval-378" stroke-width="1.5" stroke-dasharray="2,3.75" cx="9" cy="9" r="8.1"></circle>
                <use id="Combined-Shape" mask="url(#mask-2)" stroke-width="2" fill="#4ACFA5" xlink:href="#path-1"></use>
            </g>
            <path d="M29.75,88.5 C30.7164983,88.5 31.5,87.7164983 31.5,86.75 C31.5,85.7835017 30.7164983,85 29.75,85 C28.7835017,85 28,85.7835017 28,86.75 C28,87.7164983 28.7835017,88.5 29.75,88.5 Z M29.75,87.625 C30.2332492,87.625 30.625,87.2332492 30.625,86.75 C30.625,86.2667508 30.2332492,85.875 29.75,85.875 C29.2667508,85.875 28.875,86.2667508 28.875,86.75 C28.875,87.2332492 29.2667508,87.625 29.75,87.625 Z" id="Combined-Shape" fill="#4ACFA5"></path>
            <path d="M10.5761719,84 L24.5336914,84 C24.5336914,84 26.0469971,87.4753906 26.0469971,91.2037109 C26.0469971,94.9320312 24.5336914,98 24.5336914,98 L10.5761719,98 C10.5761719,98 9.07055664,95.8623047 9.07055664,91.2037109 C9.07055664,86.5451172 10.5761719,84 10.5761719,84 Z M19.3257416,85 C18.204205,85 16.955904,85 15.6952545,85 C15.4011068,86.1405946 15,88.237984 15,91.1945801 C15,94.0409433 15.3717548,95.9463021 15.661934,97 L19.3590621,97 C19.6492413,95.9463021 20.0209961,94.0409433 20.0209961,91.1945801 C20.0209961,88.237984 19.6198893,86.1405946 19.3257416,85 Z M20.2772026,85 C22.2686493,85 23.6691668,85 23.6691668,85 C23.6691668,85 25,87.9789063 25,91.1746094 C25,94.3703125 23.6691668,97 23.6691668,97 L20.3027532,97 C20.5919762,95.8340391 21,93.7383665 21,91.1945801 C21,88.5749152 20.5672713,86.258484 20.2772026,85 Z M14.7437934,85 C13.5836817,85 12.4374981,85 11.3946267,85 C10.2305908,87.145874 10.0705566,89.5582275 10.0705566,91.1746094 C10.0705566,95.1676897 11.3946268,97 11.3946268,97 L14.7182429,97 C14.4290199,95.8340391 14.0209961,93.7383665 14.0209961,91.1945801 C14.0209961,88.5749152 14.4537248,86.258484 14.7437934,85 Z" id="Combined-Shape" fill="#4ACFA5"></path>
            <g id="Live-Dealer-Icon" transform="translate(11.000000, 119.000000)" stroke="#4ACFA5">
                <path d="M7.67628301,10.45 C6.28378876,10.45 4.29627922,8.55138176 4.28900391,5.76708677 C4.28900391,5.76708677 4.25067757,3.94459031 5.59582029,3.8157135 C7.12212883,3.66947937 5.97600668,4.75701598 10.6369338,4.75701598 C10.7216017,4.75701595 11.1480471,5.26837156 11.0775002,6.04413146 C10.8639698,8.82182625 9.06877727,10.45 7.67628301,10.45 Z" id="Imported-Layers"></path>
                <path d="M5.50762121,9.51882679 C2.77529337,10.30108 0,11.2521469 0,13.7379111 C0,13.7379111 1.59391613,15.4561697 1.78219594,16.0950256 C2.6411571,19.008158 4.45758574,18.9999997 5.7930101,18.9999997 L9.12056763,18.9999997 C10.4563413,18.9999997 12.7195415,19.008158 13.5774547,16.0950256 C13.7650359,15.4561697 15.36,13.7379111 15.36,13.7379111 C15.36,11.2521469 12.607412,10.2819395 9.87333758,9.5" id="Imported-Layers"></path>
                <path d="M13.8601508,10.925 C14.9762077,9.90208642 14.014812,7.25739842 14.0206063,5.77237175 C14.0090178,2.58507137 11.9253254,0.0080836108 7.67994129,0 C3.43901432,0.0080836108 1.34952765,2.58507137 1.34105917,5.77237175 C1.34507056,7.25605115 0.383229213,9.90208642 1.50062321,10.9233159" id="Imported-Layers"></path>
                <path d="M9.92525402,9.77988586 C9.92525402,9.77988586 10.9728905,10.77368 10.4286329,12.0575317 C10.0940736,12.8463523 9.12475234,14.1359338 7.67421828,14.2997369 C6.27996718,14.1359338 5.26252182,12.7855678 4.91970703,11.9772827 C4.37544947,10.6934309 5.42396487,9.64901733 5.42396487,9.64901733" id="Imported-Layers"></path>
            </g>
            <path d="M29.038086,87.9823608 L30.0307007,87.9823608 L30.0307007,92.4967811 C30.0307007,92.7723924 29.8149995,92.9958196 29.5354296,92.9958196 L27.5266858,92.9958195 C27.2531552,92.9958195 27.0314148,92.7644801 27.0314148,92.4971003 L27.0314148,92.4971003 C27.0314148,92.2216654 27.2461637,91.9983812 27.5377826,91.9983812 L29.038086,91.9983811 L29.038086,87.9823608 Z" id="Path-1566" fill="#4ACFA5"></path>
        </g>
    </g>
</svg>