<?xml version="1.0" encoding="UTF-8" standalone="no"?>
<svg width="18px" height="19px" viewBox="0 0 18 19" version="1.1" xmlns="http://www.w3.org/2000/svg" xmlns:xlink="http://www.w3.org/1999/xlink">
    <!-- Generator: Sketch 41 (35326) - http://www.bohemiancoding.com/sketch -->
    <title>soccer ball icon</title>
    <desc>Created with Sketch.</desc>
    <defs></defs>
    <g id="Tablet" stroke="none" stroke-width="1" fill="none" fill-rule="evenodd">
        <g id="Portrait-[Design-Example]" transform="translate(-156.000000, -766.000000)">
            <g id="soccer-ball-icon" transform="translate(156.000000, 767.000000)">
                <path d="M0.600641711,8.46825867 C0.600641711,3.79128968 4.37887554,0 9.03962984,0 C13.7003841,0 17.478618,3.79132119 17.478618,8.46825867 C17.478618,13.1452592 13.7004155,16.9365803 9.03962984,16.9365803 C4.37884414,16.9365803 0.600641711,13.1452592 0.600641711,8.46825867 L0.600641711,8.46825867 Z" id="Ellipse" stroke="#CCCCCC" fill="#FFFFFF"></path>
                <path d="M2.0713321,13.1402393 C2.80203914,13.0703293 5.75633688,12.6486713 5.96859255,12.4779928 L5.96859255,11.973554 L1.8057625,12.6551381 C1.80573125,12.6551381 2.0169869,13.0405068 2.0713321,13.1402393 L2.0713321,13.1402393 Z" id="Shape" fill="#545454"></path>
                <path d="M6.54095161,16.5139425 C6.72423776,15.7999932 6.9930887,14.8924491 6.90564886,14.6337473 L6.43344873,14.4617817 L6.08837723,16.4058693 C6.08837723,16.4059329 6.24378213,16.4631255 6.37914297,16.4949024 C6.44420371,16.5101759 6.50463384,16.5195778 6.54095161,16.5139425 L6.54095161,16.5139425 Z" id="Shape" fill="#545454"></path>
                <polygon id="Shape" fill="#545454" points="0.91705124 9.90415895 2.93260513 4.75184531 2.52650052 4.46476506 0.75998454 9.33002983"></polygon>
                <polygon id="Shape" fill="#545454" points="6.81836527 9.55200298 4.68330819 4.7065152 4.19601391 4.76697628 6.39204138 9.70777031"></polygon>
                <polygon id="Shape" fill="#545454" points="3.04804572 3.53303546 2.33380787 3.40801463 2.06098808 3.77670213 2.8192271 3.92268963"></polygon>
                <polygon id="Shape" fill="#545454" points="9.59172068 10.2554045 13.5673582 6.51171477 13.1907544 6.27103196 9.2896501 9.94496861"></polygon>
                <path d="M12.4071085,0.71702571 C12.1740085,0.583075852 12.0617242,0.593686364 11.8152176,0.482244602 L14.2887838,2.9085044 L14.9505827,2.9085044 C14.9505827,2.9085358 13.1032208,1.46582017 12.4071085,0.71702571 L12.4071085,0.71702571 Z" id="Shape" fill="#545454"></path>
                <path d="M6.54010784,0.392212216 C6.54010784,0.392212216 5.97393645,0.870218892 5.61617688,1.4822696 L5.82049484,1.69385199 L7.03290226,0.247620455 L6.54010784,0.392212216 L6.54010784,0.392212216 Z" id="Shape" fill="#545454"></path>
                <polygon id="Shape" fill="#545454" points="16.1119888 6.25527315 15.730041 6.58887642 15.3207801 12.34533 15.7601356 11.9713565"></polygon>
                <path d="M14.604636,14.0894092 C14.6855131,14.004431 14.7645465,13.9178831 14.8419548,13.8296087 L9.50543712,13.0218286 L9.41546596,13.4361094 C9.41540346,13.4361094 14.3287848,14.2244892 14.604636,14.0894092 L14.604636,14.0894092 Z" id="Shape" fill="#545454"></path>
                <path d="M12.0346922,4.04172585 C12.0346922,4.04172585 11.9573777,3.79124872 12.0346922,3.70297429 L6.52870128,2.19442955 L6.32453957,2.51566435 L12.0346922,4.04172585 L12.0346922,4.04172585 Z" id="Shape" fill="#545454"></path>
                <path d="M9.71203639,9.8238267 C9.71203639,9.8238267 8.80307459,9.67948608 7.79845398,9.43861491 C6.79380212,9.19790071 6.26747555,9.05343452 6.26747555,9.05343452 C6.26747555,9.05343452 5.64552142,9.77554574 5.11925735,10.5941875 C4.59302453,11.4126095 4.35383063,12.5199639 4.35383063,12.5199639 L6.65023578,14.8310463 L10.0948279,13.2904503 L9.71203639,9.8238267 L9.71203639,9.8238267 Z" id="Shape" fill="#111111"></path>
                <path d="M16.8460084,11.6018408 L15.5376922,11.5685652 L13.512013,13.7132384 C13.512013,13.7132384 13.4256993,15.3814891 13.5935152,15.5408205 C14.453485,15.1831429 16.2705354,13.4227818 16.8460084,11.6018408 Z" id="Shape" fill="#111111"></path>
                <path d="M12.9634358,6.74241491 L15.8641696,7.69419034 C15.8641696,7.69419034 16.4243721,6.68471634 16.5155933,6.27790682 C16.5939079,5.92816804 16.7764128,5.15551563 16.7764128,5.15551563 C16.7764128,5.15551563 16.4061216,4.19495043 15.624007,3.22041577 C15.4784718,3.05042784 13.7288625,2.12025014 13.7288625,2.12025014 L11.8153114,3.66100313 L12.9634358,6.74241491 L12.9634358,6.74241491 Z" id="Shape" fill="#111111"></path>
                <path d="M4.73649711,5.23305398 L7.03287101,2.50539915 L6.26741304,0.964677557 L3.89675591,1.81326733 L3.2532387,2.39668849 C3.2532387,2.39668849 2.67925461,3.17954332 2.44006071,3.66097173 C2.20083556,4.14246293 2.44006071,5.20169332 2.44006071,5.20169332 L4.73649711,5.20166193 L4.73649711,5.23305398 Z" id="Shape" fill="#111111"></path>
                <path d="M2.35116916,13.6261099 L1.76007378,11.3644541 C1.76007378,11.3644541 1.51391095,10.8356237 1.17899574,9.9209223 C1.06605522,9.61255824 0.760390801,9.28391491 0.645918991,8.93803736 C0.631606108,10.3272609 1.26304681,12.2519415 2.35116916,13.6261099 Z" id="Shape" fill="#111111"></path>
            </g>
        </g>
    </g>
</svg>