<?xml version="1.0" encoding="UTF-8" standalone="no"?>
<svg width="16px" height="16px" viewBox="0 0 16 16" version="1.1" xmlns="http://www.w3.org/2000/svg" xmlns:xlink="http://www.w3.org/1999/xlink">
    <!-- Generator: Sketch 41 (35326) - http://www.bohemiancoding.com/sketch -->
    <title>13 Tennis</title>
    <desc>Created with Sketch.</desc>
    <defs></defs>
    <g id="Classification-Icons" stroke="none" stroke-width="1" fill="none" fill-rule="evenodd">
        <g id="Classification-Icons---Event-View/LHS-x1" transform="translate(-34.000000, -109.000000)">
            <g id="13-Tennis" transform="translate(34.000000, 108.200000)">
                <path d="M0,8.32142857 C0,4.16739127 3.36739745,0.8 7.52141475,0.8 C11.675432,0.8 15.0428571,4.16739127 15.0428571,8.32142857 C15.0428571,12.4754382 11.6754873,15.8428571 7.52141475,15.8428571 C3.36739745,15.8428571 0,12.4754382 0,8.32142857 L0,8.32142857 Z" id="Ellipse_1_" fill="#BABF4C"></path>
                <path d="M13.8965182,7.29977069 C11.4345225,7.82742463 8.73138791,12.6691067 5.70197523,12.6691067 C2.77141405,12.6072301 1.5880605,9.4793524 1.63972745,7.80857809 C1.66179465,7.09513672 1.57268059,5.5897736 3.54827494,3.56224377 C5.30491275,1.75942654 8.09964447,1.5693495 9.9861679,1.43319227 C9.81925819,1.31292098 8.55145536,1.23256881 7.83177822,1.27238459 C3.22217372,1.69348031 1.06181615,5.21701735 1.06181615,7.86125824 C1.06181615,10.4771922 2.73603227,13.3854983 5.77629289,13.3854983 C8.28604462,13.3854983 11.1118545,9.58814479 13.3225666,8.17503807 C13.8523369,7.83640417 14.5791281,7.58176744 14.9839245,7.60378427 C15.0017215,7.60479429 14.9955972,7.45330955 14.9095864,7.07276756 C14.9095864,7.07276756 14.2723523,7.2192221 13.8965182,7.29977069 Z" id="Shape" fill="#FFFFFF"></path>
            </g>
        </g>
    </g>
</svg>