<?xml version="1.0" encoding="UTF-8" standalone="no"?>
<svg width="15px" height="15px" viewBox="0 0 15 15" version="1.1" xmlns="http://www.w3.org/2000/svg" xmlns:xlink="http://www.w3.org/1999/xlink">
    <!-- Generator: Sketch 39.1 (31720) - http://www.bohemiancoding.com/sketch -->
    <title>15x15_Yellow</title>
    <desc>Created with Sketch.</desc>
    <defs></defs>
    <g id="Bet-Slip" stroke="none" stroke-width="1" fill="none" fill-rule="evenodd">
        <g id="Bet-Slip---Processing" transform="translate(-1181.000000, -344.000000)">
            <g id="15x15_Yellow" transform="translate(1181.000000, 344.000000)">
                <path d="M13.25,7.5 C13.25,10.6756373 10.6756373,13.25 7.5,13.25 C4.32436269,13.25 1.75,10.6756373 1.75,7.5 C1.75,4.32436269 4.32436269,1.75 7.5,1.75 L9.25,1 L7.5,0 C3.35786438,0 0,3.35786438 0,7.5 C0,11.6421356 3.35786438,15 7.5,15 C11.6421356,15 15,11.6421356 15,7.5 L14,5.75 L13.25,7.5 Z" id="Oval-Copy" fill="#D4BB24"></path>
                <path d="M9.25,7.5 C9.25,4.32436269 11.8243627,1.75 15,1.75 L15,0 C10.8578644,0 7.5,3.35786438 7.5,7.5 C8.38208008,7.5 8.10314941,7.5 9.25,7.5 Z" id="Oval-Copy-2" fill="#444444" transform="translate(11.250000, 3.750000) scale(-1, 1) translate(-11.250000, -3.750000) "></path>
            </g>
        </g>
    </g>
</svg>