<svg width="24" height="24" viewBox="0 0 24 24" xmlns="http://www.w3.org/2000/svg">
  <g fill="#FFF" fill-rule="evenodd">
    <path d="M12 22.13a10.13 10.13 0 1 0 0-20.26 10.13 10.13 0 0 0 0 20.26zM12 24a12 12 0 1 1 0-24 12 12 0 0 1 0 24z" fill-rule="nonzero"/>
    <path d="M11 11.76c-.67-.34-1-.86-1-1.55 0-1.15.93-1.98 2.19-1.98 1.25 0 2.13.83 2.13 1.99 0 .7-.32 1.19-1.02 1.54.82.32 1.24.91 1.24 1.73 0 1.23-1 2.12-2.36 2.12-1.4 0-2.41-.89-2.41-2.1 0-.5.18-.99.51-1.32.2-.18.35-.29.71-.43zm1.16-2.53a.98.98 0 0 0-.95.98c0 .55.42.99.96.99.52 0 .95-.44.95-.98a.98.98 0 0 0-.96-.99zm-.01 3.1c-.57 0-1.04.49-1.04 1.08 0 .6.46 1.11 1.05 1.11.56 0 1.04-.5 1.04-1.1 0-.61-.46-1.1-1.05-1.1zM6.43 15.6v-5.12H4.6v-1.1c.3 0 .93-.03 1.47-.33.53-.3.74-.7.74-.82h1.1v7.38H6.43zM16.49 11.18h-1.47v1.47h1.47v1.47h1.47v-1.47h1.47v-1.47h-1.47V9.72h-1.47z"/>
  </g>
</svg>
