<?xml version="1.0" encoding="UTF-8" standalone="no"?>
<svg width="23px" height="19px" viewBox="0 0 23 19" version="1.1" xmlns="http://www.w3.org/2000/svg" xmlns:xlink="http://www.w3.org/1999/xlink">
    <!-- Generator: Sketch 3.8.3 (29802) - http://www.bohemiancoding.com/sketch -->
    <title>91 - Volleyball</title>
    <desc>Created with Sketch.</desc>
    <defs>
        <path d="M0.388734654,4.25939593 C0.388734654,2.03938895 2.17691406,0.23969029 4.38286691,0.23969029 C6.58881975,0.23969029 8.37696708,2.03938895 8.37696708,4.25939593 C8.37696708,6.47956334 6.58878767,8.27929408 4.38286691,8.27929408 C2.17694615,8.27929408 0.388734654,6.47956334 0.388734654,4.25939593 L0.388734654,4.25939593 Z" id="path-1"></path>
        <radialGradient cx="17.5225158%" cy="77.8070969%" fx="17.5225158%" fy="77.8070969%" r="1.51019184%" id="radialGradient-3">
            <stop stop-color="#FFFFFF" offset="0%"></stop>
            <stop stop-color="#DDDDDD" offset="100%"></stop>
        </radialGradient>
        <radialGradient cx="0.014225641%" cy="99.9434492%" fx="0.014225641%" fy="99.9434492%" r="2.65620513%" id="radialGradient-4">
            <stop stop-color="#FFFFFF" offset="0%"></stop>
            <stop stop-color="#DDDDDD" offset="94.44%"></stop>
        </radialGradient>
    </defs>
    <g id="Page-1" stroke="none" stroke-width="1" fill="none" fill-rule="evenodd">
        <g id="Icons---Colour" transform="translate(-1197.000000, -1745.000000)">
            <g id="91---Volleyball" transform="translate(1197.000000, 1745.000000)">
                <g id="Volleyball-and-Beach-Volleyball" transform="translate(0.090909, 0.090909)">
                    <g id="SVGID_1_" transform="translate(6.468750, 0.000000)">
                        <g id="Group" transform="translate(0.506975, 0.487723)">
                            <mask id="mask-2" fill="white">
                                <use xlink:href="#path-1"></use>
                            </mask>
                            <use id="SVGID_1_" fill="#FFDF1B" xlink:href="#path-1"></use>
                            <path d="M8.69648996,9.8872726 C5.50113281,8.96265206 3.22455636,6.18898298 3.22455636,6.18898298 C3.22455636,6.18898298 2.38576869,5.10341378 1.98641323,4.09857561 C1.58692941,3.09383371 1.17085658,-0.791106306 1.17085658,-0.791106306" id="Shape" stroke="#326299" stroke-width="0.3" mask="url(#mask-2)"></path>
                            <path d="M4.59858817,5.49346401 L1.28890485,-1.43246233" id="Shape" stroke="#326299" stroke-width="0.3" mask="url(#mask-2)"></path>
                            <path d="M7.0375572,4.10627651 C6.94062221,3.7781543 6.91905971,2.48260742 6.20608538,1.40624721 C5.56697545,0.441261161 3.50342494,-1.36617048 3.50342494,-1.36617048" id="Shape" stroke="#326299" stroke-width="0.3" mask="url(#mask-2)"></path>
                            <path d="M5.78888951,4.79765625 C5.67494838,4.35729353 5.52433175,3.21570033 4.81135742,2.13937221 C4.17227958,1.17441825 2.79080357,-0.811000279 2.79080357,-0.811000279" id="Shape" stroke="#326299" stroke-width="0.3" mask="url(#mask-2)"></path>
                            <path d="M1.85001116,3.82744001 C1.85001116,3.82744001 0.716664342,4.53540876 0.10421875,5.48136719" id="Shape" stroke="#326299" stroke-width="0.3" mask="url(#mask-2)"></path>
                            <path d="M2.38198242,5.02220145 C2.38198242,5.02220145 1.18154157,5.67982561 0.636222098,6.67612863" id="Shape" stroke="#326299" stroke-width="0.3" mask="url(#mask-2)"></path>
                            <path d="M4.33412667,8.48599888 C4.33412667,8.48599888 3.27916853,7.77212612 2.27619141,6.76263532" id="Shape" stroke="#326299" stroke-width="0.3" fill="url(#radialGradient-3)" mask="url(#mask-2)"></path>
                            <path d="M1.57755999,2.46162249 C1.57755999,2.46162249 0.532580915,3.28796038 0.0133161272,3.89074777" id="Shape" stroke="#326299" stroke-width="0.3" fill="url(#radialGradient-4)" mask="url(#mask-2)"></path>
                            <path d="M8.53066406,4.76787946 C8.53066406,4.76787946 6.0273284,6.71691127 4.04810268,7.05344029" id="Shape" stroke="#326299" stroke-width="0.3" mask="url(#mask-2)"></path>
                            <path d="M9.62390206,5.54226842 C9.62390206,5.54226842 7.04904436,7.56288644 5.06981864,7.89935128" id="Shape" stroke="#326299" stroke-width="0.3" mask="url(#mask-2)"></path>
                            <path d="M8.33400251,3.41563477 C6.63111049,4.4374149 0.86750558,7.51934431 0.86750558,7.51934431" id="Shape" stroke="#326299" stroke-width="0.3" mask="url(#mask-2)"></path>
                        </g>
                    </g>
                    <g id="Group" transform="translate(0.000000, 8.182199)" fill="#FFFFFF">
                        <g transform="translate(0.000000, 1.572266)" id="Shape">
                            <polygon points="0.669222309 0.913360339 22.1920948 7.08482379 22.2911502 6.73936985 0.768277691 0.567906402"></polygon>
                            <polygon points="0.669385204 2.69215278 20.6274684 8.39456768 20.7261979 8.04902049 0.768114796 2.34660559"></polygon>
                            <polygon points="0.671424764 4.47150044 15.2388829 8.44862656 15.3335334 8.10193985 0.766075236 4.12481373"></polygon>
                            <polygon points="0.669185185 6.24965131 7.24565142 8.13691554 7.34478105 7.7914829 0.768314815 5.90421867"></polygon>
                            <polygon points="0.669182045 8.02842831 2.79648952 8.63894868 2.89562543 8.29351784 0.768317955 7.68299747"></polygon>
                        </g>
                        <g id="Shape">
                            <polygon points="21.4184098 6.65070307 20.4938856 9.78060262 20.8385391 9.88240798 21.7630634 6.75250843"></polygon>
                            <polygon points="19.774482 6.18043726 18.7340593 9.78163146 19.079314 9.88137915 20.1197367 6.28018495"></polygon>
                            <polygon points="18.2056521 5.42050948 16.9491231 9.79006026 17.2945014 9.88937891 18.5510304 5.51982813"></polygon>
                            <polygon points="16.4390032 5.40382387 15.1824742 9.77334257 15.5278523 9.8726619 16.7843813 5.5031432"></polygon>
                            <polygon points="14.8430661 4.76814597 13.4445839 9.78864681 13.7907788 9.88508087 15.1892609 4.86458003"></polygon>
                            <polygon points="13.1995113 4.29662412 11.6638891 9.77767044 12.009939 9.87462309 13.5455613 4.39357677"></polygon>
                            <polygon points="8.26882314 2.88210339 6.33878687 9.68414161 6.68451391 9.78223952 8.61455019 2.9802013"></polygon>
                            <polygon points="9.91211419 3.35439909 8.18765967 9.56414239 8.53393073 9.66030236 10.2583853 3.45055906"></polygon>
                            <polygon points="6.62515689 2.4108011 4.53006481 9.79852432 4.87580572 9.89657334 6.9708978 2.50885013"></polygon>
                            <polygon points="3.33781248 1.46818953 0.96141321 9.84374477 1.30714148 9.94183838 3.68354075 1.56628313"></polygon>
                            <polygon points="4.98142796 1.93963897 2.76523934 9.77725476 3.1110553 9.87503876 5.32724392 2.03742297"></polygon>
                            <polygon points="1.76491453 0.683980278 0.546023627 4.93464853 0.891476373 5.03370806 2.11036728 0.783039811"></polygon>
                        </g>
                    </g>
                    <polygon id="Shape" fill="#DDDDDD" points="22.2632171 12.4392843 0.71875 6.16251116 0.71875 8.99720982 22.2632171 15.3751535"></polygon>
                    <path d="M11.6123047,10.2539314 C11.741808,9.79646624 11.6015876,9.34480887 11.4732715,8.89559012 C11.3449233,8.44637137 11.349993,7.9682101 11.141716,7.29123744 C11.0449735,6.97681641 11.0280957,6.68649275 10.7994434,6.27513672 C10.717493,6.12772879 10.606921,5.68152623 10.9919657,5.76174386 C11.3770103,5.8419615 11.9706208,7.49444475 12.2112737,7.62279297 C12.4519266,7.75114118 13.128418,6.29384347 13.4813756,5.2349707 C13.8343331,4.17609794 13.9867467,3.38996512 14.3076172,3.46216099 C14.7334124,3.55797294 14.3958566,4.47290318 14.2354213,5.19486189 C14.074986,5.91682059 13.9081975,6.44997907 13.9867467,6.51043108 C14.0652958,6.57088309 14.6605748,5.41947126 14.9654018,4.85794782 C15.2702288,4.29642439 15.5092132,3.54327706 15.8798828,3.68677037 C16.2114383,3.81511858 15.8585128,4.71355608 15.5376423,5.25903599 C15.2167718,5.8045159 14.788923,6.69226842 14.8530971,6.73504046 C14.9679367,6.81160017 14.8828739,6.91854632 15.5696973,5.69753767 C16.1472642,4.67075195 16.2950572,4.3853697 16.532341,4.4996317 C16.8210924,4.6386649 16.2756445,5.70825474 15.997546,6.21093052 C15.7971303,6.57328962 15.398577,7.32868304 15.4627511,7.37681362 C15.5269252,7.4249442 15.8905678,6.79388811 16.018916,6.58532227 C16.1472642,6.37675642 16.478178,5.54855748 16.7355483,5.69756975 C16.9387556,5.81523298 16.008231,7.59070592 15.8798828,7.81531529 C15.7515346,8.03992467 14.4199219,10.1523437 13.8423549,10.7459542 C13.2647879,11.3395647 12.077567,15.5269252 11.3235212,16.5055804 C10.5694754,17.4842355 10.0721582,18.0404325 10.0721582,18.0404325 L5.01312081,18.0350739 C5.01312081,18.0350739 7.93833705,15.9280134 8.62820871,14.5803571 C9.31808036,13.2327009 11.2658287,11.4777958 11.6123047,10.2539314 L11.6123047,10.2539314 Z" id="Shape" fill="#F3BFA3"></path>
                </g>
            </g>
        </g>
    </g>
</svg>