<?xml version="1.0" encoding="UTF-8" standalone="no"?>
<svg width="26px" height="26px" viewBox="0 0 26 26" version="1.1" xmlns="http://www.w3.org/2000/svg" xmlns:xlink="http://www.w3.org/1999/xlink">
    <!-- Generator: Sketch 41 (35326) - http://www.bohemiancoding.com/sketch -->
    <title>94 Badminton</title>
    <desc>Created with Sketch.</desc>
    <defs>
        <radialGradient cx="49.0017279%" cy="30.2265686%" fx="49.0017279%" fy="30.2265686%" r="77.9793134%" id="radialGradient-1">
            <stop stop-color="#FFFFFF" offset="0%"></stop>
            <stop stop-color="#FFFFFF" offset="53.4558355%"></stop>
            <stop stop-color="#AAAAAA" offset="100%"></stop>
        </radialGradient>
    </defs>
    <g id="Classification-Icons" stroke="none" stroke-width="1" fill="none" fill-rule="evenodd">
        <g id="Classification-Icons---Event-View/LHS-x1" transform="translate(-29.000000, -1222.000000)">
            <g id="94---Badminton" transform="translate(33.000000, 1226.000000)">
                <g id="Group" transform="translate(0.222222, 0.600000)">
                    <path d="M15.5062957,7.67946896 C15.5062957,7.67946896 12.4941901,6.98316906 10.1485315,5.47214078 C7.81044043,3.96567088 6.44093047,2.9816866 5.58758993,2.12107649 C4.74053579,1.26705071 2.52519321,-1.09845026 0.70079869,0.741287825 C-1.12359583,2.58102591 1.09174676,4.9463779 2.00392912,5.93194123 C2.91614127,6.91753436 4.61024956,10.1371207 5.13145406,11.4512449 C5.65271815,12.7653988 6.15914516,15.5014096 6.43127743,15.8093535 C6.68898973,16.1009706 7.92657483,16.2776152 8.24196701,16.0496963 C8.45621085,15.8950093 9.06640802,15.1000041 9.06640802,15.1000041 C9.06640802,15.1000041 10.3541949,15.1692736 10.6329413,14.9922416 C10.8853206,14.8320727 11.2134941,13.8380183 11.2134941,13.8380183 C11.2134941,13.8380183 12.5255625,13.5697293 12.6934479,13.4172173 C12.9313477,13.201305 13.1617097,12.0701417 13.1617097,12.0701417 C13.1617097,12.0701417 14.3041647,11.6712686 14.4212227,11.4395957 C14.5620259,11.161326 14.6099634,9.9941425 14.6099634,9.9941425 C14.6099634,9.9941425 15.6049712,9.27281621 15.7108865,8.85082349 C15.8348864,8.35652237 15.5062957,7.67946896 15.5062957,7.67946896 L15.5062957,7.67946896 Z M6.47575887,3.23829654 L7.80171099,4.27146961 C7.64809658,4.54092048 7.46054758,4.82026274 7.32507731,5.02807121 L6.11952003,3.90167481 C6.25204076,3.68915899 6.37973497,3.47574938 6.47575887,3.23829654 L6.47575887,3.23829654 Z M5.73765893,4.43434974 C5.79554737,4.36645075 5.96527997,4.14592052 5.96527997,4.14592052 L7.15063736,5.28664751 L6.92033493,5.61449331 L6.67745971,5.93492056 L5.45861461,4.76469818 C5.4586444,4.76481735 5.68093243,4.50087825 5.73765893,4.43434974 L5.73765893,4.43434974 Z M4.9776311,5.24118289 C5.03581747,5.18752511 5.2023026,5.02515146 5.2023026,5.02515146 L6.42993673,6.24077888 L6.16227346,6.54919943 L5.90369716,6.81027837 L4.68961899,5.47178326 C4.85586577,5.34316546 4.88583786,5.32585554 4.9776311,5.24118289 L4.9776311,5.24118289 Z M4.12044723,5.90935789 C4.21012515,5.8454214 4.4492762,5.67598674 4.4492762,5.67598674 L5.65885558,7.02371778 C5.65885558,7.02371778 5.33601506,7.27547141 5.23564133,7.34462173 C5.06486597,7.46233517 4.88050485,7.56112985 4.88050485,7.56112985 L3.77946257,6.13346331 C3.77943278,6.1334931 4.02528733,5.97731647 4.12044723,5.90935789 L4.12044723,5.90935789 Z M3.22760074,7.31816525 C3.04830448,7.03962742 2.76395695,6.61605566 2.76395695,6.61605566 C3.03638715,6.52405386 3.32371402,6.39293342 3.49776665,6.28800131 L4.61072625,7.7454016 C4.40309654,7.87690935 3.95652433,8.04318592 3.71743286,8.14773071 C3.71746266,8.14770092 3.44261919,7.65211868 3.22760074,7.31816525 L3.22760074,7.31816525 Z M5.13631037,10.7786902 C5.13631037,10.7786902 4.74712011,9.99393395 4.59472724,9.70526638 C4.43580962,9.40423458 3.89118756,8.42051844 3.89118756,8.42051844 C4.10736796,8.30563536 4.61227551,8.16614299 4.84573603,8.01786159 L6.27962938,10.2419634 C6.03574119,10.3991828 5.36613612,10.6520984 5.13631037,10.7786902 L5.13631037,10.7786902 Z M7.50139423,9.62834 C7.37575576,9.72731344 6.8614931,9.94063368 6.65690231,10.0550401 L5.11009224,7.82629048 C5.11009224,7.82629048 5.4225051,7.63737098 5.52097205,7.57099145 C5.61708533,7.50616116 5.88871111,7.3014512 5.88871111,7.3014512 L7.73872789,9.45699857 L7.50139423,9.62834 L7.50139423,9.62834 Z M8.49458465,8.79210084 C8.3666223,8.92816697 8.09797585,9.21269327 8.09797585,9.21269327 L6.15828115,7.06656059 C6.15828115,7.06656059 6.3679964,6.85937778 6.43461428,6.78829089 C6.50391357,6.71440344 6.70174127,6.48675261 6.70174127,6.48675261 L8.80780192,8.43794753 C8.7118674,8.55351586 8.68904571,8.58521596 8.49458465,8.79210084 L8.49458465,8.79210084 Z M9.04725091,8.14728381 L6.94628492,6.18539308 L7.4171089,5.5117957 L9.69209773,7.2500875 L9.04725091,8.14728381 L9.04725091,8.14728381 Z M9.89954868,6.90901346 L7.62441089,5.23480712 C7.76029826,5.0249727 7.975853,4.69146618 8.09207678,4.49846499 L10.4091338,6.06848406 C10.2804266,6.27051263 10.0517926,6.70165189 9.89954868,6.90901346 L9.89954868,6.90901346 Z" id="Shape" fill="#FFFFFF"></path>
                    <path d="M5.33950088,1.86488365 C4.37184334,0.892310211 2.35698007,-0.987321138 0.674491181,0.709230203 C-0.869309761,2.26602104 0.597773358,4.36615281 1.60189793,5.52115081 C2.36457737,5.18523102 3.25164395,4.66664833 3.86845525,4.04986683 C4.54044379,3.3778485 5.01239992,2.63423679 5.33950088,1.86488365 L5.33950088,1.86488365 Z" id="Shape" fill="url(#radialGradient-1)"></path>
                    <path d="M5.32785169,1.85892498 C5.00078052,2.62830792 4.45898883,3.49681326 3.74472355,4.12363511 C3.04076677,4.74148918 2.32840827,5.14381829 1.56575862,5.47976787 C1.74818318,5.68969167 1.83732482,5.78041236 1.97759182,5.93197103 C2.06423082,6.02558167 2.10379636,6.06925869 2.20291876,6.1996045 C3.02750874,5.90831512 3.90867624,5.38612744 4.58400164,4.74753722 C5.27115498,4.09768512 5.73503712,3.49058645 6.08811786,2.58877217 C5.80198273,2.31047268 5.80269777,2.33383065 5.70378392,2.23595957 C5.61082873,2.14389818 5.32785169,1.85892498 5.32785169,1.85892498 L5.32785169,1.85892498 Z" id="Shape" fill="#B32020"></path>
                    <polygon id="Shape" fill="#8E8E8E" opacity="0.5" points="6.64051598 10.059956 6.27971876 10.2419932 9.06637823 15.1000041"></polygon>
                    <polygon id="Shape" fill="#8E8E8E" opacity="0.5" points="8.07601817 9.24981576 7.7386683 9.45705815 11.2134047 13.8381374"></polygon>
                    <polygon id="Shape" fill="#8E8E8E" opacity="0.5" points="13.2353886 12.1444462 8.80786151 8.43794753 9.04725091 8.14728381"></polygon>
                    <polygon id="Shape" fill="#8E8E8E" opacity="0.5" points="14.609874 9.99438085 9.69218711 7.2500577 9.89954868 6.90901346"></polygon>
                    <path d="M4.96773972,11.0026169 C4.96773972,11.0026169 5.14608259,10.4249838 5.47869531,10.280367 C5.81130804,10.1357502 6.49866994,10.1642326 6.49866994,10.1642326 C6.49866994,10.1642326 6.63771541,9.80111152 7.01370722,9.55829589 C7.38966924,9.31551005 7.92007989,9.31464604 7.92007989,9.31464604 C7.89976083,9.25413579 7.90768586,8.93796898 8.20552977,8.64012507 C8.52366294,8.3219621 8.94315302,8.27366712 8.94315302,8.27366712 C8.94315302,8.27366712 8.92861387,7.7869335 9.17443863,7.46874074 C9.42029319,7.15060757 9.81642529,7.04570526 9.81642529,7.04570526 C9.81642529,7.04570526 9.78728742,6.54324076 9.97531312,6.16724895 C10.1632494,5.79122734 10.811016,5.82161653 10.811016,5.82161653 L11.3447933,6.15253104 C11.3447933,6.15253104 10.5017612,6.20347763 10.3767484,6.39218858 C10.2031725,6.65413153 10.3217499,7.4693664 10.3217499,7.4693664 C10.3217499,7.4693664 9.63513288,7.52466282 9.4760663,7.72523151 C9.31699971,7.92583 9.48807301,8.82100037 9.48807301,8.82100037 C9.48807301,8.82100037 8.73740029,8.65436628 8.52866822,8.87650534 C8.31987657,9.0986742 8.32541813,9.84967465 8.32541813,9.84967465 C8.32541813,9.84967465 7.53020438,9.6002151 7.24097074,9.84606965 C6.95170731,10.0919242 6.78653309,10.7297398 6.78653309,10.7297398 C6.78653309,10.7297398 5.86663425,10.518088 5.63522947,10.6337755 C5.40379488,10.749463 5.19500323,11.6187727 5.19500323,11.6187727 L4.96773972,11.0026169 L4.96773972,11.0026169 Z" id="Shape" fill="#8E8E8E"></path>
                </g>
            </g>
        </g>
    </g>
</svg>