<?xml version="1.0" encoding="UTF-8"?>
<svg width="17px" height="13px" viewBox="0 0 17 13" version="1.1" xmlns="http://www.w3.org/2000/svg" xmlns:xlink="http://www.w3.org/1999/xlink">
    <!-- Generator: Sketch 44.1 (41455) - http://www.bohemiancoding.com/sketch -->
    <title>balance_show_normal</title>
    <desc>Created with Sketch.</desc>
    <defs></defs>
    <g id="Annotation" stroke="none" stroke-width="1" fill="none" fill-rule="evenodd">
        <path d="M11.3336706,3.02148438 C11.2999423,3.00455721 11.2662145,2.98974616 11.2324862,2.97705078 C11.1987578,2.96435541 11.1608141,2.95377608 11.1186537,2.9453125 C10.9078517,2.86914024 10.6928368,2.80143259 10.4736028,2.7421875 C10.2543687,2.68294241 10.0351379,2.63216167 9.81590382,2.58984375 C9.59666974,2.54752583 9.37743895,2.51578787 9.15820488,2.49462891 C8.9389708,2.47346995 8.71974001,2.46289062 8.50050593,2.46289062 C8.28127185,2.46289062 8.06204106,2.47346995 7.84280699,2.49462891 C7.62357291,2.51578787 7.40434212,2.54752583 7.18510804,2.58984375 C6.97430604,2.63216167 6.75929123,2.68294241 6.54005715,2.7421875 C6.32082307,2.80143259 6.10159228,2.86914024 5.8823582,2.9453125 C5.66312413,3.02148476 5.44810931,3.10611933 5.23730731,3.19921875 C5.02650532,3.29231817 4.81570648,3.39387966 4.60490448,3.50390625 C4.39410248,3.61393284 4.18330365,3.73242124 3.97250165,3.859375 C3.76169965,3.98632876 3.55090082,4.12174407 3.34009882,4.265625 L2.91006489,4.5703125 C2.76671953,4.67187551 2.63180828,4.77766872 2.50532708,4.88769531 C2.3704138,4.9977219 2.24182651,5.10351512 2.11956135,5.20507812 C1.99729619,5.30664113 1.87714086,5.41243435 1.75909174,5.52246094 C1.6916351,5.59016961 1.62839545,5.65152967 1.56937089,5.70654297 C1.51034633,5.76155626 1.45553863,5.81445287 1.40494615,5.86523438 C1.36278575,5.91601588 1.32062598,5.96044903 1.27846558,5.99853516 C1.23630518,6.03662128 1.20257737,6.07259098 1.17728113,6.10644531 C1.05079993,6.22493549 0.958048443,6.35188734 0.899023884,6.48730469 C0.839999324,6.62272203 0.814703464,6.7666008 0.823135544,6.91894531 C0.823135544,7.07975341 0.854755369,7.22574804 0.917995969,7.35693359 C0.981236568,7.48811915 1.07609604,7.60872341 1.20257724,7.71875 L1.45553838,7.97265625 C1.50613086,8.02343775 1.56304654,8.07633436 1.62628714,8.13134766 C1.68952774,8.18636095 1.75909136,8.24348929 1.83498008,8.30273438 C1.95302919,8.41276097 2.07740051,8.52067004 2.20809775,8.62646484 C2.33879499,8.73225964 2.47581423,8.84016872 2.61915959,8.95019531 C2.75407287,9.0602219 2.8932001,9.16601512 3.03654546,9.26757812 C3.17989082,9.36914113 3.32745,9.47070262 3.47922744,9.57226562 C3.60570864,9.66536505 3.73640392,9.75423135 3.8713172,9.83886719 C4.00623048,9.92350303 4.14114173,10.0039059 4.27605501,10.0800781 L5.52821262,8.82324219 L5.40173205,8.59472656 C5.35957165,8.51855431 5.32162786,8.43815146 5.28789954,8.35351562 C5.19514666,8.13346244 5.12347506,7.9049491 5.07288258,7.66796875 C5.0222901,7.4309884 4.99699424,7.18554814 4.99699424,6.93164062 C4.99699424,6.67773311 5.0222901,6.43229285 5.07288258,6.1953125 C5.12347506,5.95833215 5.19514666,5.72981881 5.28789954,5.50976562 C5.3890845,5.28971244 5.50502386,5.08235774 5.6357211,4.88769531 C5.76641834,4.69303288 5.91608551,4.51106855 6.08472711,4.34179688 C6.24493663,4.18098878 6.42200765,4.03499415 6.61594549,3.90380859 C6.80988333,3.77262304 7.01646619,3.66048224 7.23570027,3.56738281 C7.46336642,3.4658198 7.69524514,3.39176456 7.93134338,3.34521484 C8.16744162,3.29866513 8.41196827,3.27539062 8.66493067,3.27539062 C8.91789307,3.27539062 9.1645277,3.29866513 9.40484198,3.34521484 C9.64515626,3.39176456 9.87492699,3.4658198 10.0941611,3.56738281 C10.1784819,3.60123715 10.2585854,3.63720684 10.3344741,3.67529297 C10.4103629,3.7133791 10.4862504,3.75358052 10.5621392,3.79589844 L11.3336706,3.02148438 Z M3.0238974,10.2599487 C2.86368788,10.1499221 2.70980473,10.037761 2.56224333,9.92773438 C2.41468193,9.81770778 2.26923074,9.70768284 2.12588538,9.59765625 C1.97410794,9.48762966 1.83076473,9.37548885 1.69585145,9.26123047 C1.56093817,9.14697208 1.42602692,9.03059955 1.29111364,8.91210938 C1.24895324,8.87825504 1.20468548,8.84228535 1.15830905,8.80419922 C1.11193261,8.76611309 1.07188083,8.7301434 1.03815251,8.69628906 C0.995992107,8.65397114 0.955940328,8.61588559 0.917995969,8.58203125 C0.880051609,8.54817691 0.844215807,8.51432309 0.810487487,8.48046875 C0.785191248,8.46354158 0.764111364,8.4444988 0.747247204,8.42333984 C0.730383044,8.40218088 0.713519137,8.38736983 0.696654977,8.37890625 C0.688222898,8.36197908 0.677682956,8.34716803 0.665034836,8.33447266 L0.633414694,8.30273438 C0.431044776,8.1334627 0.277161626,7.93457146 0.171760626,7.70605469 C0.0663596274,7.47753792 0.00944394159,7.22363421 0.00101186166,6.94433594 C-0.00742021827,6.66503767 0.0368475373,6.40901809 0.133816456,6.17626953 C0.230785376,5.94352097 0.380452549,5.72981868 0.582822468,5.53515625 L0.696654977,5.42089844 C0.713519137,5.40397127 0.730383044,5.38281263 0.747247204,5.35742188 L0.962264167,5.15429688 C0.995992487,5.11197896 1.03393628,5.0738934 1.07609668,5.04003906 C1.11825708,5.00618473 1.16041684,4.96809917 1.20257724,4.92578125 C1.32905844,4.81575466 1.45764573,4.70361385 1.58834297,4.58935547 C1.71904021,4.47509708 1.85605945,4.36295628 1.99940481,4.25292969 L2.42943874,3.92285156 C2.5727841,3.81282497 2.72034328,3.70280003 2.87212072,3.59277344 C3.09978688,3.44042893 3.32534163,3.29655016 3.54879175,3.16113281 C3.77224187,3.02571547 4.0020126,2.89876361 4.23811084,2.78027344 C4.465777,2.66178326 4.69554773,2.55175832 4.92742993,2.45019531 C5.15931213,2.3486323 5.39329883,2.25553428 5.62939707,2.17089844 C5.86549531,2.0862626 6.10159001,2.01220735 6.33768824,1.94873047 C6.57378648,1.88525359 6.80988118,1.83235698 7.04597942,1.79003906 C7.29050973,1.73925756 7.5329284,1.70328787 7.77324267,1.68212891 C8.01355695,1.66096995 8.25597561,1.65039062 8.50050593,1.65039062 C8.74503625,1.65039062 8.98745491,1.66096995 9.22776919,1.68212891 C9.46808347,1.70328787 9.71050213,1.73925756 9.95503245,1.79003906 C10.1911307,1.83235698 10.4293334,1.88525359 10.6696476,1.94873047 C10.9099619,2.01220735 11.1481646,2.0862626 11.3842628,2.17089844 C11.4770157,2.20475277 11.5718752,2.24072247 11.6688441,2.27880859 C11.765813,2.31689472 11.8648885,2.35709614 11.9660735,2.39941406 L14.33126,0 L14.9763109,0.520507812 L2.42943874,13 L1.87292425,12.4794922 L3.68159635,10.6640625 C3.53825099,10.5794267 3.4096637,10.5011397 3.29583062,10.4291992 C3.18199754,10.3572588 3.09135404,10.3022667 3.0238974,10.2599487 Z M9.9676805,4.39257812 C9.93395218,4.37565096 9.90233236,4.36083991 9.87282008,4.34814453 C9.8433078,4.33544916 9.81168797,4.32063811 9.77795965,4.30371094 C9.60088597,4.23600227 9.42170696,4.18310566 9.24041724,4.14501953 C9.05912753,4.1069334 8.86730059,4.08789062 8.66493067,4.08789062 C8.47099283,4.08789062 8.28127388,4.1069334 8.09576812,4.14501953 C7.91026236,4.18310566 7.72897536,4.23600227 7.55190168,4.30371094 C7.38326008,4.37988319 7.22305297,4.46874949 7.07127553,4.5703125 C6.91949809,4.67187551 6.78037086,4.78613218 6.65388966,4.91308594 C6.52740846,5.04850328 6.41357709,5.19026619 6.31239213,5.33837891 C6.21120717,5.48649163 6.12267166,5.64941317 6.04678294,5.82714844 C5.97089422,5.99642012 5.91397854,6.17415271 5.87603418,6.36035156 C5.83808982,6.54655041 5.81911792,6.73697819 5.81911792,6.93164062 C5.81911792,7.12630306 5.83808982,7.31673084 5.87603418,7.50292969 C5.91397854,7.68912854 5.97089422,7.86686113 6.04678294,8.03613281 C6.0636471,8.06998715 6.07840302,8.10172511 6.09105114,8.13134766 C6.10369926,8.1609702 6.11845518,8.19270816 6.13531934,8.2265625 L9.9676805,4.39257812 Z M12.8893816,3.77050781 L13.4838403,3.18652344 C13.5850252,3.24576853 13.6904246,3.31136032 13.8000417,3.38330078 C13.9096587,3.45524125 14.0192741,3.52506477 14.1288911,3.59277344 C14.2806686,3.70280003 14.4303358,3.81282497 14.5778972,3.92285156 C14.7254586,4.03287815 14.8709097,4.1429031 15.0142551,4.25292969 C15.1491684,4.36295628 15.2840796,4.47509708 15.4189929,4.58935547 C15.5539062,4.70361385 15.6803855,4.81575466 15.7984346,4.92578125 C15.840595,4.96809917 15.8806468,5.00618473 15.9185912,5.04003906 C15.9565355,5.0738934 15.9965873,5.11197896 16.0387477,5.15429688 C16.0809081,5.18815121 16.1188519,5.2241209 16.1525802,5.26220703 C16.1863085,5.30029316 16.2200363,5.33203112 16.2537647,5.35742188 C16.2706288,5.38281263 16.2874927,5.40397127 16.3043569,5.42089844 L16.3928933,5.50976562 C16.5952632,5.70442806 16.7470384,5.91813035 16.8482233,6.15087891 C16.9494083,6.38362747 17,6.63964704 17,6.91894531 C17,7.18978 16.9473003,7.44156785 16.8418993,7.67431641 C16.7364983,7.90706497 16.5826151,8.11653553 16.3802452,8.30273438 C16.3633811,8.31119796 16.3486251,8.32177728 16.335977,8.33447266 C16.3233289,8.34716803 16.312789,8.36197908 16.3043569,8.37890625 C16.2874927,8.38736983 16.2706288,8.40218088 16.2537647,8.42333984 C16.2369005,8.4444988 16.2200366,8.46354158 16.2031724,8.48046875 C16.161012,8.51432309 16.1209603,8.54817691 16.0830159,8.58203125 C16.0450715,8.61588559 16.0092357,8.65397114 15.9755074,8.69628906 C15.933347,8.7301434 15.8911872,8.76611309 15.8490268,8.80419922 C15.8068664,8.84228535 15.7604907,8.87825504 15.7098982,8.91210938 C15.583417,9.03059955 15.4506138,9.14697208 15.3114844,9.26123047 C15.1723551,9.37548885 15.0311199,9.48762966 14.8877745,9.59765625 C14.7444292,9.70768284 14.59687,9.81770778 14.4450926,9.92773438 C14.2933151,10.037761 14.14154,10.1435542 13.9897625,10.2451172 C13.7536643,10.3974617 13.5217856,10.5434563 13.2941194,10.6831055 C13.0664532,10.8227546 12.8387905,10.9518223 12.6111243,11.0703125 C12.3834582,11.1972663 12.1557954,11.3115229 11.9281293,11.4130859 C11.7004631,11.5146489 11.4728004,11.607747 11.2451342,11.6923828 C11.009036,11.7770187 10.7771573,11.8510739 10.5494911,11.9145508 C10.321825,11.9780277 10.0941622,12.0309243 9.86649605,12.0732422 C9.63882989,12.1155601 9.41116715,12.1472981 9.18350099,12.168457 C8.95583483,12.189616 8.72817209,12.2001953 8.50050593,12.2001953 C8.27283977,12.2001953 8.04728502,12.189616 7.8238349,12.168457 C7.60038478,12.1472981 7.37483003,12.1155601 7.14716387,12.0732422 C6.91106563,12.0309243 6.67918691,11.9780277 6.45152075,11.9145508 C6.2238546,11.8510739 5.99619185,11.7770187 5.76852569,11.6923828 C5.67577282,11.6585285 5.58091334,11.6225588 5.48394442,11.5844727 C5.3869755,11.5463865 5.28790005,11.5061851 5.18671509,11.4638672 L5.81911792,10.8417969 C5.85284624,10.8502605 5.88657405,10.8608398 5.92030237,10.8735352 C5.95403069,10.8862305 5.98775851,10.9010416 6.02148683,10.9179688 C6.23228883,10.994141 6.44308766,11.0618487 6.65388966,11.1210938 C6.86469166,11.1803388 7.07549049,11.2311196 7.28629249,11.2734375 C7.48866241,11.3157554 7.69102929,11.3474934 7.89339921,11.3686523 C8.09576913,11.3898113 8.29813601,11.4003906 8.50050593,11.4003906 C8.70287585,11.4003906 8.90524273,11.3898113 9.10761265,11.3686523 C9.30998257,11.3474934 9.51656543,11.3157554 9.72736743,11.2734375 C9.93816942,11.2311196 10.1468603,11.1803388 10.3534462,11.1210938 C10.5600322,11.0618487 10.768723,10.994141 10.979525,10.9179688 C11.190327,10.8417965 11.4032339,10.7550461 11.6182519,10.6577148 C11.8332699,10.5603836 12.0461768,10.4567063 12.2569788,10.3466797 C12.4677808,10.2366531 12.6806876,10.1160488 12.8957056,9.98486328 C13.1107237,9.85367773 13.3236305,9.71614655 13.5344325,9.57226562 L13.9644664,9.26757812 C14.1078118,9.16601512 14.251155,9.0602219 14.3945003,8.95019531 C14.5294136,8.84016872 14.6622169,8.73225964 14.7929141,8.62646484 C14.9236114,8.52067004 15.0521986,8.41276097 15.1786798,8.30273438 C15.2545686,8.24348929 15.3241322,8.18636095 15.3873728,8.13134766 C15.4506134,8.07633436 15.5075291,8.02343775 15.5581215,7.97265625 L15.8110827,7.71875 C15.9291318,7.60872341 16.0197753,7.48600328 16.0830159,7.35058594 C16.1462565,7.21516859 16.1778763,7.0670581 16.1778763,6.90625 C16.1863084,6.7454419 16.1589045,6.59733141 16.0956639,6.46191406 C16.0324234,6.32649672 15.9375639,6.19954486 15.8110827,6.08105469 C15.7857864,6.05566394 15.7562746,6.02392597 15.7225463,5.98583984 C15.688818,5.94775372 15.6466582,5.90332057 15.5960657,5.85253906 C15.5454732,5.81022114 15.4906655,5.76155626 15.431641,5.70654297 C15.3726164,5.65152967 15.3093768,5.59016961 15.2419201,5.52246094 C15.123871,5.41243435 15.0037157,5.30664113 14.8814505,5.20507812 C14.7591854,5.10351512 14.634814,4.9977219 14.5083328,4.88769531 C14.3734196,4.77766872 14.2364003,4.67187551 14.097271,4.5703125 C13.9581417,4.46874949 13.8126905,4.36718801 13.660913,4.265625 C13.5344318,4.18098916 13.4058446,4.09635459 13.2751473,4.01171875 C13.1444501,3.92708291 13.0158628,3.84668007 12.8893816,3.77050781 Z M6.66653772,9.97851562 L7.26099638,9.40722656 C7.31158886,9.43261731 7.36007259,9.45800769 7.40644903,9.48339844 C7.45282547,9.50878919 7.5013092,9.52994783 7.55190168,9.546875 C7.72897536,9.62304726 7.91026236,9.68017559 8.09576812,9.71826172 C8.28127388,9.75634785 8.47099283,9.77539062 8.66493067,9.77539062 C8.86730059,9.77539062 9.05912753,9.75634785 9.24041724,9.71826172 C9.42170696,9.68017559 9.60088597,9.62304726 9.77795965,9.546875 C9.94660125,9.47916633 10.1068084,9.39453176 10.2585858,9.29296875 C10.4103632,9.19140574 10.5494905,9.07291734 10.6759717,8.9375 C10.8024529,8.81054624 10.9162842,8.6708992 11.0174692,8.51855469 C11.1186542,8.36621018 11.2071897,8.20540449 11.2830784,8.03613281 C11.3589671,7.86686113 11.4179908,7.68912854 11.4601512,7.50292969 C11.5023116,7.31673084 11.5233915,7.12630306 11.5233915,6.93164062 C11.5233915,6.73697819 11.5023116,6.54655041 11.4601512,6.36035156 C11.4179908,6.17415271 11.3589671,5.99642012 11.2830784,5.82714844 C11.2662142,5.77636693 11.2451344,5.72558619 11.2198381,5.67480469 C11.1945419,5.62402318 11.16503,5.57324244 11.1313017,5.52246094 L11.7257604,4.93847656 C11.7847849,5.0231124 11.8417006,5.11409457 11.8965091,5.21142578 C11.9513177,5.308757 11.9998014,5.40820262 12.0419618,5.50976562 C12.1347147,5.72981881 12.2063863,5.95833215 12.2569788,6.1953125 C12.3075712,6.43229285 12.3328671,6.67773311 12.3328671,6.93164062 C12.3328671,7.18554814 12.3075712,7.4309884 12.2569788,7.66796875 C12.2063863,7.9049491 12.1347147,8.13346244 12.0419618,8.35351562 C11.9407768,8.57356881 11.8248375,8.78092351 11.6941402,8.97558594 C11.563443,9.17024837 11.4179918,9.34798097 11.2577823,9.50878906 C11.0891407,9.67806074 10.9078537,9.8282871 10.7139158,9.95947266 C10.519978,10.0906582 10.3133951,10.202799 10.0941611,10.2958984 C9.87492699,10.3889979 9.64515626,10.4609372 9.40484198,10.5117188 C9.1645277,10.5625003 8.91789307,10.5878906 8.66493067,10.5878906 C8.41196827,10.5878906 8.16744162,10.5625003 7.93134338,10.5117188 C7.69524514,10.4609372 7.46336642,10.3889979 7.23570027,10.2958984 C7.13451531,10.2535805 7.03543985,10.2049156 6.93847093,10.1499023 C6.84150202,10.094889 6.75085852,10.0377607 6.66653772,9.97851562 Z" id="balance_show_normal" fill="#757575"></path>
    </g>
</svg>