 <svg class="tk-TeamKit_SVG" width="48" height="48" viewBox="0 0 48 48" xmlns="http://www.w3.org/2000/svg" xmlns:xlink="http://www.w3.org/1999/xlink"><title>K12-1</title><defs><path d="M8 47.998v-26.97l-8-2.541s1.54-3.835 1.976-4.782c1.246-2.708 2.677-5.416 4.277-7.95A48 48 0 0 1 8.785 2.11l.13-.17.186-.11c.84-.498 2.138-.877 3.822-1.195.928-.176 1.917-.32 2.904-.436a47.794 47.794 0 0 1 1.324-.136l.668-.054.367.548c.084.126.262.369.525.688.444.538.956 1.078 1.524 1.58 1.258 1.109 3.579 2.105 3.579 2.105l.216.064.2-.064s2.32-.996 3.579-2.106c.568-.501 1.08-1.04 1.524-1.58.263-.318.44-.56.525-.687l.368-.548.667.054a47.794 47.794 0 0 1 1.324.136c.987.116 1.976.26 2.904.436 1.684.318 2.982.697 3.822 1.195l.185.11.131.17a48 48 0 0 1 2.532 3.645c1.6 2.534 3.031 5.242 4.277 7.95.436.947 1.976 4.782 1.931 4.782L40 21.029v26.97H8z" id="path-1"></path><mask id="mask-2" x="0" y="0" width="48" height="47.99" fill="#fff"><use xlink:href="#path-1"></use></mask><mask id="mask-3" x="0" y="0" width="48" height="47.99" fill="#fff"><use xlink:href="#path-1"></use></mask></defs><g id="SVG-Team-Kits-Separated" fill="none" fill-rule="evenodd"><g id="K12-1"><path d="M8 47.998v-26.97l-8-2.541s1.54-3.835 1.976-4.782c1.246-2.708 2.677-5.416 4.277-7.95A48 48 0 0 1 8.785 2.11l.13-.17.186-.11c.84-.498 2.138-.877 3.822-1.195.928-.176 1.917-.32 2.904-.436a47.794 47.794 0 0 1 1.324-.136l.668-.054.367.548c.084.126.262.369.525.688.444.538.956 1.078 1.524 1.58 1.258 1.109 3.579 2.105 3.579 2.105l.216.064.2-.064s2.32-.996 3.579-2.106c.568-.501 1.08-1.04 1.524-1.58.263-.318.44-.56.525-.687l.368-.548.667.054a47.794 47.794 0 0 1 1.324.136c.987.116 1.976.26 2.904.436 1.684.318 2.982.697 3.822 1.195l.185.11.131.17a48 48 0 0 1 2.532 3.645c1.6 2.534 3.031 5.242 4.277 7.95.436.947 1.976 4.782 1.931 4.782L40 21.029v26.97H8z" id="color1" fill="#F0F0F0"></path><path d="M13 .62v47.378h-1V.824a27.92 27.92 0 0 1 1-.204zm6 .964v46.414h-1V.28l.186.277c.084.126.262.369.525.688.094.113.19.226.289.339zm18-.521v46.935h-1V.814c.355.08.688.162 1 .249zm-6-.99v47.925h-1V.345l.226-.336.667.054.107.01zM25 4.57v43.427h-1V4.985l.03.009.2-.064s.312-.134.77-.359z" id="color2" fill="#C40010"></path><g id="hires-detail"><g id="Outline9"><g id="outline"><use stroke-opacity=".07" stroke="#FFF" mask="url(https://www.bet365.com/#mask-2)" stroke-width="4" xlink:href="#path-1"></use><use stroke="#272727" mask="url(https://www.bet365.com/#mask-3)" stroke-width="2" xlink:href="#path-1"></use></g><path d="M9 14h1v12H9V14zm29 0h1v12h-1V14zM23 47h1V8l2.76-3.293-1.658.51L23 8v39z" id="shadow" fill="#000" opacity=".2"></path></g></g></g></g>
                                                                </svg>