<svg width="115" height="25" xmlns="http://www.w3.org/2000/svg"><g fill="#FFF" fill-rule="evenodd" opacity=".6"><path d="M0 0h8v9.5a5.5 5.5 0 0 1 4.8-2.2c4.6 0 7.2 3.2 7.2 9 0 5.4-2.7 8.7-7 8.7-2.7 0-4.6-1-5.6-3.1v2.9H0V0zm7.7 16c0 2.6.6 3.8 2 3.8s2-1.2 2-3.7-.6-3.7-2-3.7-2 1.2-2 3.7zM39 17.8H28.4c.2 1.9 1.6 2.8 4.2 2.8 1.8 0 3.6-.4 5.4-1.1v4.3c-1.8.8-4.2 1.2-7 1.2-6.5 0-10-3.3-10-9 0-5.6 3.4-9 9.2-9 6.3 0 8.8 3.1 8.8 9.7v1.1zm-6.6-3.3V14c0-2-.7-3-2-3s-2 1-2 3v.5h4zM51.4 7.3H55v5h-3.6v4.2c0 2 .3 3 1.9 3 .4 0 1 0 1.6-.2v5c-1.7.5-3.3.7-5 .7-2.2 0-4-.7-4.9-2-1.2-1.6-1.3-3.7-1.3-6.4v-4.2H41v-5h2.7V3.4L51.4 1v6.3zM63.8 19.8c2.1 0 3.2-.7 3.2-2.2 0-1.5-1.1-2.3-3.3-2.3-.8 0-1.8 0-3 .2v-5l2.6.2c2.3 0 3.5-.7 3.5-2.3 0-1.5-1-2.3-3.3-2.3a19 19 0 0 0-5.3 1.1V2c2-.7 4.3-1 7-1 6 0 9.5 2.7 9.5 6.8 0 2.6-1.6 4.5-4.5 5.1 3.2.7 4.8 2.5 4.8 5.2 0 4.4-3.5 6.9-10.2 6.9-2.3 0-4.5-.3-6.8-.9v-5.3c2.3.6 4.2 1 5.8 1zM88.2 9.6c4.7 0 7.8 3 7.8 7.4 0 4.7-3.6 8-9.2 8C80.2 25 76 20.7 76 13.6 76 5.6 80.5 1 88.6 1c1.7 0 3.6.2 5.5.6V7A17 17 0 0 0 89 6c-3.6 0-5.3 1.6-5.4 5a7 7 0 0 1 4.7-1.4zm.7 7.2c0-2-1-3.1-2.6-3.1-1.5 0-2.5 1.2-2.5 3.1 0 2 1 3.1 2.5 3.1 1.6 0 2.6-1.2 2.6-3.1zM98.4 2H114v5.4h-8.4v3.4l1.3-.1c5.2 0 8 2.6 8 7 0 4.6-3.4 7.3-10 7.3-2.4 0-4.7-.4-7-1v-5c1.8.4 3.3.7 4.6.7 2.7 0 4.2-1 4.2-2.6 0-1.9-1.5-2.8-4.6-2.8-1.2 0-2.5.2-3.8.5V2z"/></g></svg>