<?xml version="1.0" encoding="utf-8"?>
<!-- Generator: Adobe Illustrator 15.0.2, SVG Export Plug-In . SVG Version: 6.00 Build 0)  -->
<!DOCTYPE svg PUBLIC "-//W3C//DTD SVG 1.1//EN" "http://www.w3.org/Graphics/SVG/1.1/DTD/svg11.dtd">
<svg version="1.1" id="Layer_1" xmlns="http://www.w3.org/2000/svg" xmlns:xlink="http://www.w3.org/1999/xlink" x="0px" y="0px"
	 width="100%" height="100%" viewBox="290 140.365 120 25.494" enable-background="new 290 140.365 120 25.494"
	 xml:space="preserve">
<g id="_x33_65_6_">
	<path fill="#FFE418" d="M356.168,160.624c2.218,0,3.376-0.732,3.376-2.263c0-1.498-1.193-2.328-3.509-2.328
		c-0.858,0-1.886,0.066-3.011,0.233v-5.056c0.926,0.1,1.786,0.132,2.647,0.132c2.382,0,3.572-0.698,3.572-2.293
		c0-1.564-1.089-2.297-3.341-2.297c-1.457,0-3.31,0.399-5.592,1.098v-5.255c2.018-0.7,4.467-1.031,7.345-1.031
		c6.254,0,9.86,2.693,9.86,6.919c0,2.594-1.687,4.489-4.633,5.122c3.275,0.664,4.964,2.495,4.964,5.288
		c0,4.393-3.673,6.951-10.687,6.951c-2.351,0-4.665-0.33-7.047-0.896v-5.422C352.462,160.225,354.446,160.624,356.168,160.624z"/>
	<path fill="#FFE418" d="M382.272,150.212c4.931,0,8.207,3.027,8.207,7.483c0,4.791-3.738,8.117-9.629,8.117
		c-6.948,0-11.416-4.357-11.416-11.508c0-8.151,4.733-12.74,13.269-12.74c1.82,0,3.773,0.199,5.79,0.63v5.29
		c-1.853-0.564-3.639-0.832-5.525-0.832c-3.771,0-5.525,1.529-5.625,4.99C378.734,150.577,380.257,150.212,382.272,150.212z
		 M382.968,157.532c0-1.931-1.091-3.163-2.679-3.163c-1.589,0-2.648,1.197-2.648,3.163c0,1.927,1.06,3.124,2.648,3.124
		C381.91,160.656,382.968,159.459,382.968,157.532z"/>
	<path fill="#FFE418" d="M392.929,142.163h16.113v5.521h-8.569v3.493c0.695-0.034,1.158-0.067,1.321-0.067
		c5.329,0,8.206,2.695,8.206,7.251c0,4.69-3.507,7.483-10.356,7.483c-2.381,0-4.731-0.363-7.112-0.962v-5.257
		c1.818,0.5,3.407,0.732,4.764,0.732c2.779,0,4.235-0.933,4.235-2.662c0-1.929-1.521-2.894-4.632-2.894
		c-1.325,0-2.613,0.232-3.97,0.565V142.163L392.929,142.163z"/>
</g>
<g>
	<path fill="#FFFFFF" d="M290,140.365h8.165v9.643c1.162-1.569,2.755-2.303,4.913-2.303c4.747,0,7.435,3.269,7.435,9.076
		c0,5.54-2.722,8.844-7.235,8.844c-2.755,0-4.615-1.001-5.676-3.136v2.902H290V140.365z M297.933,156.614
		c0,2.537,0.564,3.771,2.025,3.771c1.427,0,2.058-1.234,2.058-3.771c0-2.536-0.597-3.77-2.058-3.77S297.933,154.079,297.933,156.614
		z"/>
	<path fill="#FFFFFF" d="M331.389,158.517h-11.318c0.199,1.901,1.66,2.803,4.415,2.803c1.924,0,3.917-0.367,5.84-1.102v4.438
		c-1.891,0.767-4.479,1.202-7.5,1.202c-6.97,0-10.721-3.337-10.721-9.21c0-5.74,3.684-9.176,9.825-9.176
		c6.804,0,9.458,3.169,9.458,9.91V158.517L331.389,158.517z M324.286,155.145v-0.532c0-1.97-0.731-3.104-2.125-3.104
		c-1.428,0-2.156,1.134-2.156,3.137v0.499H324.286L324.286,155.145z"/>
	<path fill="#FFFFFF" d="M343.404,147.939h3.785v5.106h-3.785v4.171c0,2.136,0.333,3.137,1.958,3.137
		c0.433,0,1.028-0.066,1.726-0.234v5.005c-1.758,0.535-3.517,0.734-5.375,0.734c-2.291,0-4.051-0.734-5.079-2.003
		c-1.328-1.669-1.361-3.77-1.361-6.571v-4.238h-2.889v-5.106h2.888v-3.87l8.132-2.57V147.939z"/>
</g>
</svg>
