<svg width="32" height="32" xmlns="http://www.w3.org/2000/svg"><g fill="none" fill-rule="evenodd"><path d="M16 31.25c8.42 0 15.25-6.83 15.25-15.25V2c0-.69-.56-1.25-1.25-1.25H2C1.31.75.75 1.31.75 2v14c0 8.42 6.83 15.25 15.25 15.25z" stroke="#3AB68F" stroke-width="1.5"/><rect stroke="#3AB68F" stroke-width=".8" x="10.4" y="5.4" width="11.2" height="6.2" rx="1"/><rect fill="#3AB68F" transform="rotate(-33 21 24)" x="19" y="21" width="4" height="6" rx="1"/><rect fill="#3AB68F" transform="scale(-1 1) rotate(-33 0 64.51)" x="10" y="21" width="4" height="6" rx="1"/><rect fill="#3AB68F" transform="matrix(0 -1 -1 0 24 24)" x="5" y="14" width="4" height="6" rx="1"/><rect fill="#3AB68F" transform="matrix(0 -1 -1 0 42 42)" x="23" y="14" width="4" height="6" rx="1"/></g></svg>