<svg xmlns="http://www.w3.org/2000/svg" width="131" height="131"><g fill="none" fill-rule="evenodd"><g transform="translate(.623 .195)"><rect width="130" height="130" fill="#333" rx="28"/><g fill="#FFF"><path d="M70.329 56.172c1.843 0 2.806-.598 2.806-1.847 0-1.22-.992-1.898-2.917-1.898-.714 0-1.567.054-2.502.19v-4.124c.77.081 1.485.108 2.2.108 1.98 0 2.97-.57 2.97-1.87 0-1.277-.906-1.874-2.777-1.874-1.211 0-2.75.325-4.648.895v-4.286c1.677-.572 3.713-.841 6.105-.841 5.198 0 8.195 2.197 8.195 5.644 0 2.116-1.402 3.661-3.85 4.178 2.722.541 4.125 2.034 4.125 4.313 0 3.582-3.052 5.67-8.882 5.67-1.953 0-3.877-.27-5.857-.731v-4.423c1.952.57 3.6.896 5.032.896M92.489 53.59c0-1.56-.885-2.555-2.173-2.555s-2.148.967-2.148 2.555c0 1.556.86 2.523 2.148 2.523 1.315 0 2.173-.967 2.173-2.523zm-.485-5.902c4.108 0 6.838 2.472 6.838 6.112 0 3.913-3.115 6.63-8.023 6.63-5.79 0-9.512-3.56-9.512-9.4 0-6.657 3.944-10.405 11.055-10.405 1.517 0 3.145.162 4.825.515v4.32a15.772 15.772 0 0 0-4.604-.68c-3.143 0-4.604 1.25-4.686 4.077 1.158-.87 2.427-1.169 4.107-1.169zM114.311 41.133v4.499h-7.105v2.846c.576-.027.96-.055 1.096-.055 4.418 0 6.804 2.196 6.804 5.909 0 3.822-2.908 6.098-8.587 6.098-1.975 0-3.924-.296-5.898-.784v-4.284c1.508.408 2.825.597 3.95.597 2.305 0 3.512-.76 3.512-2.17 0-1.571-1.262-2.357-3.841-2.357-1.099 0-2.167.19-3.292.46v-10.76h13.361zM21.842 52.812c0 2.05.456 3.047 1.638 3.047 1.155 0 1.665-.997 1.665-3.047 0-2.05-.483-3.046-1.665-3.046s-1.638.997-1.638 3.046zm-6.608-13.203h6.778v7.851c.964-1.277 2.287-1.874 4.078-1.874 3.94 0 6.17 2.662 6.17 7.39 0 4.51-2.258 7.2-6.005 7.2-2.287 0-3.83-.816-4.711-2.554v2.363h-6.31V39.61zM43.696 51.797v-.446c0-1.65-.607-2.601-1.765-2.601-1.187 0-1.792.95-1.792 2.629v.418h3.557zm5.845 2.651h-9.396c.165 1.55 1.378 2.284 3.665 2.284 1.598 0 3.252-.3 4.849-.898v3.617c-1.57.624-3.719.979-6.227.979-5.786 0-8.9-2.72-8.9-7.504 0-4.677 3.058-7.477 8.157-7.477 5.649 0 7.852 2.583 7.852 8.075v.924zM59.637 45.928h3.119v4.205h-3.119v3.434c0 1.76.275 2.584 1.614 2.584a6.31 6.31 0 0 0 1.421-.194v4.122c-1.448.44-2.897.605-4.429.605-1.887 0-3.337-.605-4.184-1.65-1.094-1.374-1.122-3.104-1.122-5.411v-3.49h-2.38v-4.205h2.38v-3.186l6.7-2.117v5.303"/></g></g><path fill="#00FFF2" d="M38.363 72.219v4.59c-1.62-1.59-3.03-2.25-4.89-2.25-3.69 0-6.54 3.03-6.54 6.96 0 3.9 2.85 6.81 6.63 6.81 1.86 0 3.21-.63 4.8-2.19v4.59c-1.77.84-3.21 1.17-4.89 1.17-5.88 0-10.56-4.56-10.56-10.35 0-5.85 4.71-10.56 10.56-10.56 1.74 0 3.15.36 4.89 1.23zm12.99 6.24h3.66v12.99h-3.66v-1.68c-1.17 1.47-2.46 2.1-4.23 2.1-3.66 0-6.39-3-6.39-6.93 0-3.9 2.76-6.9 6.3-6.9 1.77 0 3.06.63 4.32 2.1v-1.68zm-3.24 2.85c-2.01 0-3.63 1.62-3.63 3.63s1.62 3.66 3.63 3.66c1.98 0 3.63-1.65 3.63-3.6 0-2.07-1.59-3.69-3.63-3.69zm19.29-1.95l-1.8 2.13c-.78-.57-1.44-.84-2.16-.84-.81 0-1.41.48-1.41 1.11 0 .57.42.87 2.07 1.44 1.47.51 1.92.72 2.52 1.17.96.66 1.44 1.65 1.44 2.85 0 2.73-2.28 4.65-5.46 4.65a6.63 6.63 0 0 1-4.92-2.16l1.89-2.22c1.05 1.05 2.01 1.53 3.09 1.53.93 0 1.65-.63 1.65-1.44 0-.75-.36-1.02-2.01-1.62-1.68-.63-1.92-.72-2.49-1.14-.87-.6-1.29-1.5-1.29-2.7 0-2.43 1.92-4.14 4.65-4.14 1.62 0 2.97.45 4.23 1.38zm6.81-.9v12.99h-3.63v-12.99h3.63zm-1.8-7.68c1.2 0 2.19.99 2.19 2.19s-.99 2.19-2.19 2.19-2.19-.99-2.19-2.22c0-1.17.99-2.16 2.19-2.16zm5.22 7.68h3.63v1.62c1.14-1.47 2.31-2.04 4.08-2.04 1.53 0 2.91.57 3.78 1.56.75.87 1.02 1.83 1.02 3.6v8.25h-3.63v-7.2c0-1.08-.09-1.65-.36-2.1-.36-.63-1.17-1.02-2.13-1.02-1.86 0-2.76 1.14-2.76 3.6v6.72h-3.63v-12.99zm22.77-.42c4.35 0 7.38 2.85 7.38 6.9 0 4.11-3.06 6.93-7.5 6.93-4.35 0-7.35-2.85-7.35-7.02 0-3.96 3.12-6.81 7.47-6.81zm-.06 3.27c-1.98 0-3.66 1.65-3.66 3.6 0 2.07 1.65 3.69 3.69 3.69 2.01 0 3.66-1.62 3.66-3.63 0-2.04-1.65-3.66-3.69-3.66z"/></g></svg>