<svg width="30" height="32" xmlns="http://www.w3.org/2000/svg"><path d="M11.967 7.621h1.19v.539h-1.001c.047.17.056.246.056.369 0 .274-.094.576-.274.907.265.085.388.133.549.19.416.15.557.189.709.189.293 0 .491-.161.756-.634l.567.34c-.34.672-.747.974-1.295.974-.255 0-.539-.066-1.04-.246-.539-.198-.69-.236-.88-.236-.311 0-.51.132-.756.501L10 10.145c.33-.51.747-.784 1.22-.803.198-.303.264-.52.264-.794 0-.123-.01-.208-.056-.388h-1.06v-.539h.833l-.464-.926a2.086 2.086 0 0 1-.217-.936c0-.984.823-1.759 1.863-1.759 1.068 0 1.777.728 1.824 1.872l-.69.19c-.028-.36-.047-.493-.104-.682-.142-.435-.539-.7-1.03-.7-.653 0-1.154.483-1.154 1.126 0 .34.114.633.51 1.361l.18.34c.01.02.029.067.048.114zM12.234 16C7.686 16 4 12.418 4 8s3.686-8 8.234-8c4.547 0 8.234 3.582 8.234 8s-3.687 8-8.234 8zm0-1.03c3.962 0 7.175-3.12 7.175-6.97 0-3.85-3.213-6.97-7.175-6.97-3.962 0-7.175 3.12-7.175 6.97 0 3.85 3.213 6.97 7.175 6.97zm4.748 7.468l-5.485 1.05c-1.379-.012-2.222-.591-2.314-1.709-.086-1.046.39-1.804 1.426-2.167 5.752-1.202 8.856-1.827 9.411-1.893.654-.078 1.446.15 2.41.668l7.434 4.248-.496.868-.434-.248-6.989-3.994c-.788-.422-1.397-.598-1.807-.549-.508.06-3.649.693-9.26 1.861-.537.191-.747.525-.698 1.124.044.529.413.783 1.226.8l5.326-1.025c.762-.248 1.38-.072 1.52.626.095.471-.082 1.134-.504 2.063l-.129.173c-.807.694-1.573.94-2.779 1.105-.359.05-.712.106-1.225.194-2.503.428-3.129.483-3.908.143-.677-.295-2.57-1.297-5.72-3.027-1.03-.59-1.725-.5-2.23.161-.444.917-.163 1.569.994 2.151 4.006 2.114 6.394 3.381 7.118 3.78.092.036.543.294.706.369.5.227 1.093.353 1.884.341 1.041-.047 2.354-.199 3.985-.446.518-.079 1.063-.166 1.673-.268.343-.057.689-.115 1.14-.192.545-.094.823-.141 1.094-.186 1.205-.114 1.86.037 2.735.497l.236.124c.637.37 1.136.652 1.537.873l.438.24-.481.877-.439-.24c-.409-.225-.914-.513-1.495-.851l-.26-.138c-.713-.374-1.177-.48-2.14-.391l-1.057.18c-.452.078-.799.136-1.144.194-.614.102-1.164.19-1.687.27-1.663.252-3.007.407-4.105.457-.954.014-1.695-.142-2.329-.431-.227-.104-.652-.347-.717-.377-.77-.42-3.158-1.686-7.15-3.793C.685 25.141.158 23.918.906 22.394c.878-1.177 2.136-1.339 3.57-.517 3.107 1.706 4.994 2.705 5.63 2.982.506.22 1.13.166 3.34-.212.523-.09.886-.148 1.259-.198.984-.135 1.584-.32 2.179-.804.29-.658.415-1.117.392-1.321-.019.02-.08.047-.294.114z" fill="#00FFF2" fill-rule="evenodd"/></svg>