<?xml version="1.0" encoding="UTF-8" standalone="no"?>
<svg width="16px" height="15px" viewBox="0 0 16 15" version="1.1" xmlns="http://www.w3.org/2000/svg" xmlns:xlink="http://www.w3.org/1999/xlink">
    <!-- Generator: Sketch 41 (35326) - http://www.bohemiancoding.com/sketch -->
    <title>cog icon</title>
    <desc>Created with Sketch.</desc>
    <defs></defs>
    <g id="Header" stroke="none" stroke-width="1" fill="none" fill-rule="evenodd">
        <g id="Global-Menu-[Fonts-and-Colours]" transform="translate(-860.000000, -5119.000000)" fill="#888888">
            <g id="italian" transform="translate(-373.000000, 4904.000000)">
                <g id="Dropdown" transform="translate(989.000000, 70.000000)">
                    <g id="Group-3" transform="translate(0.000000, 135.000000)">
                        <g id="cog-icon" transform="translate(244.000000, 10.000000)">
                            <path d="M13.9216495,5.80357143 C13.7896907,5.38571429 13.6082474,4.98333333 13.3938144,4.59642857 C13.7896907,4.16309524 14.1195876,3.79166667 14.3835052,3.48214286 L14.614433,3.20357143 L12.4041237,1.1452381 L12.1072165,1.36190476 C11.7773196,1.60952381 11.3814433,1.91904762 10.9195876,2.29047619 C10.5072165,2.07380952 10.0783505,1.91904762 9.63298969,1.7952381 C9.6,1.22261905 9.55051546,0.742857143 9.50103093,0.355952381 L9.48453608,0 L6.35051546,0 L6.30103093,0.34047619 C6.25154639,0.727380952 6.20206186,1.22261905 6.16907216,1.7797619 C5.72371134,1.90357143 5.29484536,2.07380952 4.88247423,2.275 C4.42061856,1.90357143 4.02474227,1.57857143 3.69484536,1.34642857 L3.39793814,1.1297619 L1.22061856,3.21904762 L1.45154639,3.49761905 C1.71546392,3.80714286 2.04536082,4.17857143 2.44123711,4.61190476 C2.21030928,4.99880952 2.04536082,5.40119048 1.91340206,5.81904762 C1.30309278,5.85 0.791752577,5.89642857 0.379381443,5.94285714 L0,5.95833333 L0,8.88333333 L0.362886598,8.9297619 C0.775257732,8.97619048 1.30309278,9.02261905 1.89690722,9.05357143 C2.02886598,9.47142857 2.21030928,9.87380952 2.42474227,10.2607143 C2.02886598,10.6940476 1.69896907,11.0654762 1.43505155,11.375 L1.20412371,11.6535714 L3.41443299,13.727381 L3.71134021,13.5107143 C4.04123711,13.2630952 4.4371134,12.9535714 4.89896907,12.5821429 C5.31134021,12.7988095 5.74020619,12.9535714 6.18556701,13.077381 C6.2185567,13.65 6.26804124,14.1297619 6.31752577,14.5166667 L6.36701031,14.8571429 L9.48453608,14.8571429 L9.53402062,14.5166667 C9.58350515,14.1297619 9.63298969,13.6345238 9.66597938,13.077381 C10.1113402,12.9535714 10.5402062,12.7833333 10.9525773,12.5821429 C11.414433,12.9535714 11.8103093,13.2630952 12.1402062,13.5107143 L12.4371134,13.727381 L14.6474227,11.6535714 L14.4164948,11.375 C14.1525773,11.0654762 13.8226804,10.6940476 13.4268041,10.2607143 C13.657732,9.87380952 13.8226804,9.47142857 13.9546392,9.05357143 C14.5649485,9.02261905 15.0762887,8.97619048 15.4886598,8.9297619 L15.8515464,8.88333333 L15.8515464,5.95833333 L15.4886598,5.91190476 C15.043299,5.88095238 14.5319588,5.83452381 13.9216495,5.80357143 L13.9216495,5.80357143 Z M14.9938144,8.20238095 C14.5979381,8.23333333 14.1195876,8.2797619 13.5587629,8.31071429 L13.2453608,8.32619048 L13.1958763,8.6047619 C13.0639175,9.13095238 12.8329897,9.64166667 12.5360825,10.1059524 L12.371134,10.3535714 L12.5690722,10.5702381 C12.9319588,10.9571429 13.2453608,11.297619 13.4927835,11.5916667 L12.3381443,12.675 C12.0247423,12.427381 11.6618557,12.1333333 11.2494845,11.8083333 L11.0350515,11.6071429 L10.771134,11.7619048 C10.2762887,12.0559524 9.73195876,12.2571429 9.17113402,12.3809524 L8.8742268,12.4428571 L8.85773196,12.7369048 C8.82474227,13.247619 8.79175258,13.6964286 8.74226804,14.0833333 L7.09278351,14.0833333 C7.05979381,13.6964286 7.01030928,13.247619 6.97731959,12.7369048 L6.96082474,12.4428571 L6.66391753,12.3809524 C6.10309278,12.2571429 5.55876289,12.0404762 5.06391753,11.7619048 L4.8,11.6071429 L4.56907216,11.7928571 C4.15670103,12.1333333 3.79381443,12.427381 3.48041237,12.6595238 L2.3257732,11.5761905 C2.58969072,11.2821429 2.90309278,10.9416667 3.24948454,10.5547619 L3.44742268,10.3380952 L3.28247423,10.0904762 C2.96907216,9.62619048 2.75463918,9.11547619 2.62268041,8.58928571 L2.55670103,8.31071429 L2.24329897,8.2952381 C1.69896907,8.26428571 1.22061856,8.23333333 0.808247423,8.18690476 L0.808247423,6.6547619 C1.22061856,6.62380952 1.69896907,6.57738095 2.24329897,6.54642857 L2.55670103,6.53095238 L2.62268041,6.25238095 C2.75463918,5.72619048 2.98556701,5.21547619 3.28247423,4.75119048 L3.44742268,4.50357143 L3.24948454,4.28690476 C2.88659794,3.9 2.57319588,3.55952381 2.3257732,3.26547619 L3.48041237,2.18214286 C3.79381443,2.4297619 4.15670103,2.72380952 4.56907216,3.04880952 L4.8,3.23452381 L5.06391753,3.0797619 C5.55876289,2.78571429 6.10309278,2.58452381 6.66391753,2.46071429 L6.96082474,2.39880952 L6.97731959,2.1047619 C7.01030928,1.59404762 7.04329897,1.1452381 7.09278351,0.758333333 L8.74226804,0.758333333 C8.77525773,1.1452381 8.82474227,1.59404762 8.85773196,2.1047619 L8.8742268,2.39880952 L9.17113402,2.46071429 C9.73195876,2.58452381 10.2762887,2.80119048 10.771134,3.0797619 L11.0350515,3.23452381 L11.2659794,3.04880952 C11.6783505,2.70833333 12.0412371,2.41428571 12.3546392,2.18214286 L13.5092784,3.26547619 C13.2453608,3.55952381 12.9319588,3.9 12.585567,4.28690476 L12.371134,4.50357143 L12.5360825,4.75119048 C12.8494845,5.21547619 13.0639175,5.72619048 13.1958763,6.25238095 L13.2618557,6.53095238 L13.5752577,6.54642857 C14.1195876,6.57738095 14.5979381,6.60833333 15.0103093,6.6547619 L15.0103093,8.20238095 L14.9938144,8.20238095 Z" id="Shape"></path>
                            <path d="M7.91752577,5.12261905 C6.56494845,5.12261905 5.45979381,6.15952381 5.45979381,7.42857143 C5.45979381,8.69761905 6.56494845,9.73452381 7.91752577,9.73452381 C9.27010309,9.73452381 10.3752577,8.69761905 10.3752577,7.42857143 C10.3752577,6.15952381 9.27010309,5.12261905 7.91752577,5.12261905 L7.91752577,5.12261905 Z M7.91752577,8.96071429 C7.02680412,8.96071429 6.28453608,8.2797619 6.28453608,7.42857143 C6.28453608,6.57738095 7.01030928,5.89642857 7.91752577,5.89642857 C8.82474227,5.89642857 9.55051546,6.57738095 9.55051546,7.42857143 C9.55051546,8.2797619 8.80824742,8.96071429 7.91752577,8.96071429 L7.91752577,8.96071429 Z" id="Shape"></path>
                        </g>
                    </g>
                </g>
            </g>
        </g>
    </g>
</svg>