<?xml version="1.0" encoding="UTF-8" standalone="no"?>
<svg width="19px" height="19px" viewBox="0 0 19 19" version="1.1" xmlns="http://www.w3.org/2000/svg" xmlns:xlink="http://www.w3.org/1999/xlink">
    <!-- Generator: Sketch 41 (35326) - http://www.bohemiancoding.com/sketch -->
    <title>Country of residence</title>
    <desc>Created with Sketch.</desc>
    <defs>
        <path d="M8,15.9259259 C12.418278,15.9259259 16,12.360786 16,7.96296296 C16,3.56513996 12.418278,0 8,0 C3.581722,0 0,3.56513996 0,7.96296296 C0,12.360786 3.581722,15.9259259 8,15.9259259 Z" id="path-1"></path>
        <mask id="mask-2" maskContentUnits="userSpaceOnUse" maskUnits="objectBoundingBox" x="-1" y="-1" width="18" height="17.9259259">
            <rect x="-1" y="-1" width="18" height="17.9259259" fill="white"></rect>
            <use xlink:href="#path-1" fill="black"></use>
        </mask>
    </defs>
    <g id="HELP-General" stroke="none" stroke-width="1" fill="none" fill-rule="evenodd">
        <g id="Common-Assets" transform="translate(-802.000000, -169.000000)" stroke="#545454">
            <g id="Country-of-residence" transform="translate(803.000000, 170.000000)">
                <g id="World">
                    <g transform="translate(0.886047, 0.500000)">
                        <path d="M10.4250801,0.244954427 C10.4250801,0.244954427 7.13842147,1.64230129 7.62810497,2.56359713 C8.11778846,3.48489296 8.85667067,3.06267806 8.85667067,3.06267806 L9.40655048,3.1800209 L9.2573117,4.97685185 C9.2573117,4.97685185 8.03876202,5.19159822 7.91516426,5.31143348 C7.79156651,5.43126873 6.89132612,5.49238272 6.68760016,5.31611922 C6.55164035,5.19848692 6.17635255,4.81346213 5.54807205,4.67769264 C5.23491956,4.61002135 4.85891602,4.60427263 4.41836939,4.72442018 C3.09395032,5.08562079 2.27584135,8.3202754 3.84174679,8.88316213 C5.40765224,9.44604886 5.70683093,8.14510856 6.10066106,9.72499981 C6.49449119,11.3048911 7.20002003,10.2681466 6.64803686,11.4003007 C6.09605369,12.5324547 7.31901042,13.5748818 7.57502003,13.6901311 C7.83102965,13.8053803 8.96063702,13.7544353 9.61057692,12.4084322 C10.2605168,11.0624291 10.9648437,11.3571321 10.7779447,10.7455934 C10.5910457,10.1340548 10.182492,10.0844059 11.016226,9.38862365 C11.8499599,8.69284142 12.2771434,7.39329687 11.2811498,7.58720666 C10.2851562,7.78111645 10.5124199,6.22674752 10.1248998,6.12146796 C9.73737981,6.0161884 10.5475761,5.13108242 11.3021835,5.26397792 C12.0567909,5.39687342 12.9204728,5.36925748 12.9994992,5.03567282 C13.0785256,4.70208816 14.380609,3.0644726 14.1590545,2.85391348" id="Path-59"></path>
                        <use id="Oval-2" mask="url(#mask-2)" stroke-width="2" xlink:href="#path-1"></use>
                    </g>
                </g>
            </g>
        </g>
    </g>
</svg>