<svg width="93" height="20" xmlns="http://www.w3.org/2000/svg"><g fill="#FFF" fill-rule="evenodd"><path d="M7.875 15.154c1.41 0 1.642-1.48 1.642-2.883 0-1.378-.231-2.755-1.59-2.755-1.437 0-1.642 1.377-1.642 2.908 0 1.25.205 2.73 1.59 2.73zM0 0h6.464v7.551h.052c1-1.428 2.308-2.015 4.028-2.015 4.027 0 5.694 3.138 5.694 6.735 0 3.852-1.591 7.169-5.874 7.169-2.104 0-3.412-.74-4.31-2.73h-.051v2.424H0V0zM27.038 11.225c0-1.02-.155-2.628-1.616-2.628-1.488 0-1.822 1.582-1.745 2.628h3.36zm-3.335 2.806c.102 1.659 1.667 2.041 3.565 2.041 1.77 0 3.36-.306 4.387-.842v3.445c-1.72.535-3.77.765-6.029.765-5.413 0-8.285-2.602-8.285-7.194 0-4.465 2.872-6.71 8.285-6.71 5.182 0 7.003 3.214 7.003 7.704v.791h-8.926zM35.35 5.842V2.781L41.812.816v5.026h2.924v3.827h-2.924v3.75c0 1.123.565 1.735 1.411 1.735.59 0 1.052-.077 1.513-.23v3.827c-1.41.408-2.847.689-4.437.689-3.335 0-4.95-1.658-4.95-5.179V9.669h-2.284V5.842h2.283zM48.455 8.24c.487.026.949.051 1.437.051 1.128 0 3.436 0 3.436-1.505C53.328 5.357 51.944 5 50.712 5c-1.642 0-3.284.357-4.336.689v-3.98c1.771-.536 3.566-.689 5.9-.689 3.362 0 7.773 1.276 7.773 5.001 0 2.168-1.41 3.444-3.437 4.031v.051c2.155.535 3.695 1.811 3.695 4.107 0 3.852-4.182 5.23-7.902 5.23-2.078 0-4.592-.281-6.208-.74v-4.133c1.026.357 2.822.74 4.515.74 1.565 0 2.873-.255 2.873-1.607 0-1.506-1.77-1.735-2.924-1.735-.744 0-1.462.076-2.206.178V8.24zM69.855 10.842c-1.436 0-2.154.97-2.154 2.475 0 1.25.718 2.296 2.154 2.296 1.385 0 2.207-1.046 2.207-2.449 0-1.352-.822-2.322-2.207-2.322zm6.465-5.23C75.037 5.306 74.088 5 71.857 5c-1.976 0-4.182.791-4.156 3.546.794-.637 2.103-1.071 4.027-1.071 3.181 0 6.233 1.99 6.233 5.689 0 4.388-4.002 6.276-7.926 6.276-5.259 0-8.798-3.648-8.798-8.827 0-6.302 4.078-9.593 9.62-9.593 2.718 0 4.256.23 5.463.485v4.107zM91.95 5.459h-6.746v2.756c.461-.051 1.256-.077 2-.077 3.028 0 5.567 2.092 5.567 5.46 0 4.592-4.258 5.842-8.183 5.842-1.872 0-3.694-.281-5.515-.765v-4.057c1.23.281 2.489.536 3.77.536 1.463 0 3.207-.306 3.207-2.041 0-1.837-2-2.169-3.54-2.169-1.077 0-2.154.154-3.207.409V1.326H91.95v4.133z"/></g></svg>