<?xml version="1.0" encoding="UTF-8" standalone="no"?>
<svg width="25px" height="20px" viewBox="0 0 25 20" version="1.1" xmlns="http://www.w3.org/2000/svg" xmlns:xlink="http://www.w3.org/1999/xlink">
    <!-- Generator: Sketch 41 (35326) - http://www.bohemiancoding.com/sketch -->
    <title>Dice</title>
    <desc>Created with Sketch.</desc>
    <defs></defs>
    <g id="HELP-General" stroke="none" stroke-width="1" fill="none" fill-rule="evenodd">
        <g id="Common-Assets" transform="translate(-54.000000, -383.000000)">
            <g id="Dice" transform="translate(55.000000, 384.000000)">
                <g id="Group" stroke="#666666">
                    <path d="M11.7989016,16.9712933 L12.4456855,17.6327296 C13.5261924,18.7378081 15.2777192,18.7378081 16.3579938,17.6327296 L22.6173618,11.2315611 C23.6976364,10.1264826 23.6976364,8.33514418 22.6173618,7.23006566 L16.3579938,0.82866175 C15.2777192,-0.276181343 13.5261924,-0.276181343 12.4456855,0.828426326 L11.7987033,1.49011408 L16.8310768,6.6366742 C18.2314644,8.06921623 18.2314644,10.3920156 16.8310768,11.8245576 L16.8310213,11.8246143 L11.7989016,16.9712933 Z" id="Stroke-3"></path>
                    <path d="M17.2412477,11.2312553 L10.9820918,17.6329048 C9.90134915,18.7377497 8.14981677,18.7377497 7.06953867,17.6329048 L0.810382772,11.2312553 C-0.270127591,10.1264104 -0.270127591,8.33483375 0.810382772,7.2299889 L7.06953867,0.828810209 C8.14981677,-0.27627007 9.90134915,-0.27627007 10.9820918,0.828810209 L17.2412477,7.2299889 C18.3212935,8.33483375 18.3212935,10.1264104 17.2412477,11.2312553 Z" id="Stroke-9"></path>
                </g>
                <path d="M13.7782608,9.07268173 C14.2096261,9.53024489 14.2096261,10.2712677 13.7782608,10.7288308 C13.3471015,11.1859609 12.6476012,11.1859609 12.2162358,10.7288308 C11.7848705,10.2712677 11.7848705,9.53024489 12.2162358,9.07268173 C12.6476012,8.61555166 13.3471015,8.61555166 13.7782608,9.07268173" id="Fill-15-Copy" fill="#666666"></path>
                <path d="M11.4619765,6.59465956 C11.8931106,7.05194274 11.8931106,7.79329579 11.4619765,8.25057898 C11.0302241,8.70807868 10.3311768,8.70807868 9.89983657,8.25057898 C9.46849635,7.79329579 9.46829027,7.05194274 9.89983657,6.59465956 C10.3311768,6.13759288 11.0302241,6.13759288 11.4619765,6.59465956" id="Fill-13-Copy" fill="#666666"></path>
                <path d="M9.14517859,4.1171409 C9.57671987,4.57400161 9.57671987,5.31537179 9.14517859,5.77288207 C8.7138434,6.23017583 8.01459815,6.23017583 7.58326296,5.77288207 C7.15192777,5.31537179 7.15192777,4.57400161 7.58326296,4.1171409 C8.01459815,3.65963062 8.7138434,3.65963062 9.14517859,4.1171409" id="Fill-11-Copy" fill="#666666"></path>
                <path d="M10.6855586,12.3512636 C11.116924,12.8088268 11.116924,13.5498496 10.6855586,14.0074127 C10.2543993,14.4645428 9.55489903,14.4645428 9.12353366,14.0074127 C8.69216829,13.5498496 8.69216829,12.8088268 9.12353366,12.3512636 C9.55489903,11.8941335 10.2543993,11.8941335 10.6855586,12.3512636" id="Fill-15" fill="#666666"></path>
                <path d="M8.36927433,9.87324144 C8.80040846,10.3305246 8.80040846,11.0718777 8.36927433,11.5291609 C7.93752194,11.9866606 7.23847462,11.9866606 6.8071344,11.5291609 C6.37579418,11.0718777 6.3755881,10.3305246 6.8071344,9.87324144 C7.23847462,9.41617477 7.93752194,9.41617477 8.36927433,9.87324144" id="Fill-13" fill="#666666"></path>
                <path d="M6.05247642,7.39572278 C6.4840177,7.8525835 6.4840177,8.59395368 6.05247642,9.05146396 C5.62114123,9.50875771 4.92189598,9.50875771 4.49056079,9.05146396 C4.0592256,8.59395368 4.0592256,7.8525835 4.49056079,7.39572278 C4.92189598,6.9382125 5.62114123,6.9382125 6.05247642,7.39572278" id="Path" fill="#666666"></path>
            </g>
        </g>
    </g>
</svg>