<?xml version="1.0" encoding="UTF-8" standalone="no"?>
<svg width="18px" height="11px" viewBox="0 0 18 11" version="1.1" xmlns="http://www.w3.org/2000/svg" xmlns:xlink="http://www.w3.org/1999/xlink">
    <!-- Generator: Sketch 41 (35326) - http://www.bohemiancoding.com/sketch -->
    <title>eye icon hover</title>
    <desc>Created with Sketch.</desc>
    <defs></defs>
    <g id="Header" stroke="none" stroke-width="1" fill="none" fill-rule="evenodd">
        <g id="Global-Menu-[Fonts-and-Colours]" transform="translate(-736.000000, -4997.000000)" fill="#189970">
            <g id="italian" transform="translate(-373.000000, 4904.000000)">
                <g id="Dropdown" transform="translate(989.000000, 70.000000)">
                    <path d="M129.789551,28.1875 C129.789551,27.9726552 129.712566,27.7882495 129.558594,27.6342773 C129.404622,27.4803052 129.220216,27.4033203 129.005371,27.4033203 C128.783365,27.4033203 128.595378,27.4803052 128.441406,27.6342773 C128.287434,27.7882495 128.210449,27.9726552 128.210449,28.1875 C128.210449,28.4023448 128.287434,28.5867505 128.441406,28.7407227 C128.595378,28.8946948 128.783365,28.9716797 129.005371,28.9716797 C129.220216,28.9716797 129.404622,28.8946948 129.558594,28.7407227 C129.712566,28.5867505 129.789551,28.4023448 129.789551,28.1875 Z M126.255371,28.1875 C126.255371,27.8079408 126.326985,27.4516618 126.470215,27.1186523 C126.613445,26.7856429 126.808593,26.4938164 127.055664,26.2431641 C127.302736,25.9925118 127.594562,25.7955736 127.931152,25.6523438 C128.267743,25.5091139 128.625812,25.4375 129.005371,25.4375 C129.38493,25.4375 129.741209,25.5091139 130.074219,25.6523438 C130.407228,25.7955736 130.697264,25.9925118 130.944336,26.2431641 C131.191407,26.4938164 131.388346,26.7856429 131.535156,27.1186523 C131.681967,27.4516618 131.755371,27.8079408 131.755371,28.1875 C131.755371,28.5670592 131.681967,28.9233382 131.535156,29.2563477 C131.388346,29.5893571 131.191407,29.8811836 130.944336,30.1318359 C130.697264,30.3824882 130.407228,30.5794264 130.074219,30.7226562 C129.741209,30.8658861 129.38493,30.9375 129.005371,30.9375 C128.625812,30.9375 128.267743,30.8658861 127.931152,30.7226562 C127.594562,30.5794264 127.302736,30.3824882 127.055664,30.1318359 C126.808593,29.8811836 126.613445,29.5893571 126.470215,29.2563477 C126.326985,28.9233382 126.255371,28.5670592 126.255371,28.1875 Z M125.460449,28.1875 C125.460449,28.6744816 125.553547,29.1328104 125.739746,29.5625 C125.925945,29.9921896 126.180174,30.3663721 126.502441,30.6850586 C126.824709,31.0037451 127.198891,31.256184 127.625,31.4423828 C128.051109,31.6285817 128.511228,31.7216797 129.005371,31.7216797 C129.492353,31.7216797 129.950681,31.6285817 130.380371,31.4423828 C130.810061,31.256184 131.184243,31.0037451 131.50293,30.6850586 C131.821616,30.3663721 132.074055,29.9921896 132.260254,29.5625 C132.446453,29.1328104 132.539551,28.6744816 132.539551,28.1875 C132.539551,27.7005184 132.446453,27.2421896 132.260254,26.8125 C132.074055,26.3828104 131.821616,26.0086279 131.50293,25.6899414 C131.184243,25.3712549 130.810061,25.118816 130.380371,24.9326172 C129.950681,24.7464183 129.492353,24.6533203 129.005371,24.6533203 C128.511228,24.6533203 128.051109,24.7464183 127.625,24.9326172 C127.198891,25.118816 126.824709,25.3712549 126.502441,25.6899414 C126.180174,26.0086279 125.925945,26.3828104 125.739746,26.8125 C125.553547,27.2421896 125.460449,27.7005184 125.460449,28.1875 Z M121.786621,28.9501953 C121.550292,28.742512 121.428548,28.4864924 121.421387,28.1821289 C121.414225,27.8777654 121.528807,27.6145844 121.765137,27.3925781 C121.822429,27.3281247 121.897623,27.2493494 121.990723,27.15625 C122.083822,27.0631506 122.198404,26.9521491 122.334473,26.8232422 C122.556479,26.6227204 122.794595,26.4186208 123.048828,26.2109375 C123.303061,26.0032542 123.573404,25.8027353 123.859863,25.609375 C124.260907,25.3372382 124.665525,25.0937511 125.07373,24.8789062 C125.481936,24.6640614 125.895506,24.4814461 126.314453,24.3310547 C126.733401,24.1806633 127.154132,24.0660811 127.57666,23.9873047 C127.999188,23.9085283 128.42171,23.8691406 128.844238,23.8691406 C129.266766,23.8691406 129.689288,23.9085283 130.111816,23.9873047 C130.534345,24.0660811 130.955076,24.1806633 131.374023,24.3310547 C131.792971,24.4814461 132.206541,24.6640614 132.614746,24.8789062 C133.022951,25.0937511 133.42757,25.3372382 133.828613,25.609375 C134.115073,25.8027353 134.385415,26.0032542 134.639648,26.2109375 C134.893881,26.4186208 135.131998,26.6227204 135.354004,26.8232422 C135.490072,26.9521491 135.604654,27.0613602 135.697754,27.1508789 C135.790853,27.2403976 135.858887,27.3138018 135.901855,27.3710938 C136.145346,27.5931001 136.265299,27.8580714 136.261719,28.1660156 C136.258138,28.4739599 136.138185,28.7353505 135.901855,28.9501953 C135.837402,29.0146488 135.755046,29.0952144 135.654785,29.1918945 C135.554524,29.2885747 135.432781,29.3977858 135.289551,29.5195312 C135.053221,29.7272146 134.800783,29.9348948 134.532227,30.1425781 C134.263671,30.3502615 133.986167,30.5507803 133.699707,30.7441406 C133.291502,31.0234389 132.881512,31.2722971 132.469727,31.4907227 C132.057941,31.7091482 131.647951,31.8935539 131.239746,32.0439453 C130.831541,32.1943367 130.426923,32.3089189 130.025879,32.3876953 C129.624835,32.4664717 129.230959,32.5058594 128.844238,32.5058594 C128.457518,32.5058594 128.063641,32.4664717 127.662598,32.3876953 C127.261554,32.3089189 126.856936,32.1943367 126.44873,32.0439453 C126.040525,31.8935539 125.630536,31.7091482 125.21875,31.4907227 C124.806964,31.2722971 124.396975,31.0234389 123.98877,30.7441406 C123.70231,30.5507803 123.424806,30.3502615 123.15625,30.1425781 C122.887694,29.9348948 122.635255,29.7272146 122.398926,29.5195312 C122.255696,29.3977858 122.133952,29.2885747 122.033691,29.1918945 C121.93343,29.0952144 121.858236,29.0218101 121.808105,28.9716797 L121.786621,28.9501953 Z M121.23877,29.5195312 C121.260254,29.5338542 121.283529,29.5553384 121.308594,29.5839844 C121.333659,29.6126304 121.367676,29.6484373 121.410645,29.6914062 C121.482259,29.7558597 121.555664,29.8221025 121.630859,29.8901367 C121.706055,29.9581709 121.790201,30.0315751 121.883301,30.1103516 C122.133953,30.3323579 122.398924,30.5507802 122.678223,30.765625 C122.957521,30.9804698 123.247557,31.1917307 123.54834,31.3994141 C123.992352,31.6930353 124.434568,31.9580066 124.875,32.1943359 C125.315432,32.4306652 125.757648,32.6293937 126.20166,32.7905273 C126.645673,32.951661 127.087888,33.0751949 127.52832,33.1611328 C127.968752,33.2470707 128.407387,33.2900391 128.844238,33.2900391 C129.281089,33.2900391 129.719724,33.2470707 130.160156,33.1611328 C130.600588,33.0751949 131.042804,32.951661 131.486816,32.7905273 C131.930829,32.6293937 132.373045,32.4306652 132.813477,32.1943359 C133.253908,31.9580066 133.696124,31.6930353 134.140137,31.3994141 C134.440919,31.1917307 134.730956,30.9804698 135.010254,30.765625 C135.289552,30.5507802 135.554523,30.3323579 135.805176,30.1103516 C135.898275,30.0315751 135.982421,29.9581709 136.057617,29.8901367 C136.132813,29.8221025 136.206217,29.7558597 136.277832,29.6914062 C136.31364,29.6484373 136.345866,29.6126304 136.374512,29.5839844 C136.403158,29.5553384 136.428223,29.5338542 136.449707,29.5195312 C136.843589,29.154295 137.044108,28.704918 137.05127,28.1713867 C137.058431,27.6378554 136.861493,27.1848977 136.460449,26.8125 L136.422852,26.7749023 C136.397786,26.7498371 136.36735,26.7158205 136.331543,26.6728516 C136.26709,26.6083981 136.197266,26.5403649 136.12207,26.46875 C136.046875,26.3971351 135.96989,26.3255212 135.891113,26.2539062 C135.654784,26.0318999 135.400555,25.8134776 135.128418,25.5986328 C134.856281,25.383788 134.573406,25.1725271 134.279785,24.9648438 C133.842934,24.6712225 133.404299,24.4080415 132.963867,24.175293 C132.523435,23.9425444 132.075849,23.7456063 131.621094,23.5844727 C131.166339,23.423339 130.70622,23.2998051 130.240723,23.2138672 C129.775226,23.1279293 129.309735,23.0849609 128.844238,23.0849609 C128.37158,23.0849609 127.904299,23.1279293 127.442383,23.2138672 C126.980466,23.2998051 126.522138,23.423339 126.067383,23.5844727 C125.612628,23.7456063 125.163251,23.9425444 124.719238,24.175293 C124.275226,24.4080415 123.838381,24.6712225 123.408691,24.9648438 C123.11507,25.1725271 122.832195,25.383788 122.560059,25.5986328 C122.287922,25.8134776 122.033693,26.0318999 121.797363,26.2539062 C121.711425,26.3255212 121.63265,26.3971351 121.561035,26.46875 L121.356934,26.6728516 C121.321126,26.7158205 121.2889,26.7516275 121.260254,26.7802734 L121.195801,26.8447266 C120.80908,27.2099628 120.621094,27.6611301 120.631836,28.1982422 C120.642578,28.7353542 120.852049,29.1829409 121.260254,29.5410156 L121.23877,29.5195312 Z" id="eye-icon-hover"></path>
                </g>
            </g>
        </g>
    </g>
</svg>