<?xml version="1.0" encoding="UTF-8"?>
<svg width="1413px" height="257px" viewBox="0 0 1413 257" version="1.1" xmlns="http://www.w3.org/2000/svg" xmlns:xlink="http://www.w3.org/1999/xlink">
    <!-- Generator: Sketch 52.2 (67145) - http://www.bohemiancoding.com/sketch -->
    <title>Background</title>
    <desc>Created with Sketch.</desc>
    <g id="Page-1" stroke="none" stroke-width="1" fill="none" fill-rule="evenodd">
        <g id="Artboard" transform="translate(-179.000000, -112.000000)" stroke="#FFFFFF">
            <g id="Background" transform="translate(179.000000, 112.000000)">
                <path d="M221.671975,103.31564 L179.924667,79.0622575 C178.656132,78.3252936 176.518728,78.3236176 175.247308,79.0622575 L135.841016,101.955611 C134.571452,102.693173 133.5,104.557219 133.5,106.037044 L133.5,151.823751 C133.5,153.30871 134.564499,155.163583 135.841016,155.905184 L175.247308,178.798538 C176.515843,179.535501 178.653247,179.537177 179.924667,178.798538 L218.459319,156.411569 C220.218367,155.389638 221.671975,152.864517 221.671975,150.832462 L221.671975,103.31564 Z" id="Polygon-1"></path>
                <path d="M1409.24731,79.0622575 L1369.84102,101.955611 C1368.57145,102.693173 1367.5,104.557219 1367.5,106.037044 L1367.5,151.823751 C1367.5,153.30871 1368.5645,155.163583 1369.84102,155.905184 L1409.24731,178.798538" id="Polygon-1-Copy-24"></path>
                <path d="M837.671975,103.31564 L795.924667,79.0622575 C794.656132,78.3252936 792.518728,78.3236176 791.247308,79.0622575 L751.841016,101.955611 C750.571452,102.693173 749.5,104.557219 749.5,106.037044 L749.5,151.823751 C749.5,153.30871 750.564499,155.163583 751.841016,155.905184 L791.247308,178.798538 C792.515843,179.535501 794.653247,179.537177 795.924667,178.798538 L834.459319,156.411569 C836.218367,155.389638 837.671975,152.864517 837.671975,150.832462 L837.671975,103.31564 Z" id="Polygon-1-Copy"></path>
                <path d="M575.671975,102.31564 L533.924667,78.0622575 C532.656132,77.3252936 530.518728,77.3236176 529.247308,78.0622575 L489.841016,100.955611 C488.571452,101.693173 487.5,103.557219 487.5,105.037044 L487.5,150.823751 C487.5,152.30871 488.564499,154.163583 489.841016,154.905184 L529.247308,177.798538 C530.515843,178.535501 532.653247,178.537177 533.924667,177.798538 L572.459319,155.411569 C574.218367,154.389638 575.671975,151.864517 575.671975,149.832462 L575.671975,102.31564 Z" id="Polygon-1"></path>
                <path d="M1191.67197,102.31564 L1149.92467,78.0622575 C1148.65613,77.3252936 1146.51873,77.3236176 1145.24731,78.0622575 L1105.84102,100.955611 C1104.57145,101.693173 1103.5,103.557219 1103.5,105.037044 L1103.5,150.823751 C1103.5,152.30871 1104.5645,154.163583 1105.84102,154.905184 L1145.24731,177.798538 C1146.51584,178.535501 1148.65325,178.537177 1149.92467,177.798538 L1188.45932,155.411569 C1190.21837,154.389638 1191.67197,151.864517 1191.67197,149.832462 L1191.67197,102.31564 Z" id="Polygon-1-Copy-2"></path>
                <path d="M176.671975,180.31564 L134.924667,156.062258 C133.656132,155.325294 131.518728,155.323618 130.247308,156.062258 L90.8410164,178.955611 C89.5714524,179.693173 88.5,181.557219 88.5,183.037044 L88.5,228.823751 C88.5,230.30871 89.5644995,232.163583 90.8410164,232.905184 L130.247308,255.798538 C131.515843,256.535501 133.653247,256.537177 134.924667,255.798538 L173.459319,233.411569 C175.218367,232.389638 176.671975,229.864517 176.671975,227.832462 L176.671975,180.31564 Z" id="Polygon-1"></path>
                <path d="M1411.56589,180.31564 L1368.92467,156.062258 C1367.65613,155.325294 1365.51873,155.323618 1364.24731,156.062258 L1324.84102,178.955611 C1323.57145,179.693173 1322.5,181.557219 1322.5,183.037044 L1322.5,228.823751 C1322.5,230.30871 1323.5645,232.163583 1324.84102,232.905184 L1364.24731,255.798538 C1365.51584,256.535501 1367.65325,256.537177 1368.92467,255.798538 L1408.35324,233.411569 C1410.11229,232.389638 1411.56589,229.864517 1411.56589,227.832462 L1411.56589,180.31564 Z" id="Polygon-1-Copy-25"></path>
                <path d="M793.671975,180.31564 L751.924667,156.062258 C750.656132,155.325294 748.518728,155.323618 747.247308,156.062258 L707.841016,178.955611 C706.571452,179.693173 705.5,181.557219 705.5,183.037044 L705.5,228.823751 C705.5,230.30871 706.564499,232.163583 707.841016,232.905184 L747.247308,255.798538 C748.515843,256.535501 750.653247,256.537177 751.924667,255.798538 L790.459319,233.411569 C792.218367,232.389638 793.671975,229.864517 793.671975,227.832462 L793.671975,180.31564 Z" id="Polygon-1-Copy-3"></path>
                <path d="M530.671975,179.31564 L488.924667,155.062258 C487.656132,154.325294 485.518728,154.323618 484.247308,155.062258 L444.841016,177.955611 C443.571452,178.693173 442.5,180.557219 442.5,182.037044 L442.5,227.823751 C442.5,229.30871 443.564499,231.163583 444.841016,231.905184 L484.247308,254.798538 C485.515843,255.535501 487.653247,255.537177 488.924667,254.798538 L527.459319,232.411569 C529.218367,231.389638 530.671975,228.864517 530.671975,226.832462 L530.671975,179.31564 Z" id="Polygon-1"></path>
                <path d="M1146.67197,179.31564 L1104.92467,155.062258 C1103.65613,154.325294 1101.51873,154.323618 1100.24731,155.062258 L1060.84102,177.955611 C1059.57145,178.693173 1058.5,180.557219 1058.5,182.037044 L1058.5,227.823751 C1058.5,229.30871 1059.5645,231.163583 1060.84102,231.905184 L1100.24731,254.798538 C1101.51584,255.535501 1103.65325,255.537177 1104.92467,254.798538 L1143.45932,232.411569 C1145.21837,231.389638 1146.67197,228.864517 1146.67197,226.832462 L1146.67197,179.31564 Z" id="Polygon-1-Copy-4"></path>
                <path d="M133.671975,102.31564 L91.9246667,78.0622575 C90.6561319,77.3252936 88.5187276,77.3236176 87.2473079,78.0622575 L47.8410164,100.955611 C46.5714524,101.693173 45.5,103.557219 45.5,105.037044 L45.5,150.823751 C45.5,152.30871 46.5644995,154.163583 47.8410164,154.905184 L87.2473079,177.798538 C88.5158427,178.535501 90.653247,178.537177 91.9246667,177.798538 L130.459319,155.411569 C132.218367,154.389638 133.671975,151.864517 133.671975,149.832462 L133.671975,102.31564 Z" id="Polygon-1"></path>
                <path d="M1367.67197,102.31564 L1325.92467,78.0622575 C1324.65613,77.3252936 1322.51873,77.3236176 1321.24731,78.0622575 L1281.84102,100.955611 C1280.57145,101.693173 1279.5,103.557219 1279.5,105.037044 L1279.5,150.823751 C1279.5,152.30871 1280.5645,154.163583 1281.84102,154.905184 L1321.24731,177.798538 C1322.51584,178.535501 1324.65325,178.537177 1325.92467,177.798538 L1364.45932,155.411569 C1366.21837,154.389638 1367.67197,151.864517 1367.67197,149.832462 L1367.67197,102.31564 Z" id="Polygon-1-Copy-26"></path>
                <path d="M749.671975,102.31564 L707.924667,78.0622575 C706.656132,77.3252936 704.518728,77.3236176 703.247308,78.0622575 L663.841016,100.955611 C662.571452,101.693173 661.5,103.557219 661.5,105.037044 L661.5,150.823751 C661.5,152.30871 662.564499,154.163583 663.841016,154.905184 L703.247308,177.798538 C704.515843,178.535501 706.653247,178.537177 707.924667,177.798538 L746.459319,155.411569 C748.218367,154.389638 749.671975,151.864517 749.671975,149.832462 L749.671975,102.31564 Z" id="Polygon-1-Copy-5"></path>
                <path d="M486.671975,102.31564 L444.924667,78.0622575 C443.656132,77.3252936 441.518728,77.3236176 440.247308,78.0622575 L400.841016,100.955611 C399.571452,101.693173 398.5,103.557219 398.5,105.037044 L398.5,150.823751 C398.5,152.30871 399.564499,154.163583 400.841016,154.905184 L440.247308,177.798538 C441.515843,178.535501 443.653247,178.537177 444.924667,177.798538 L483.459319,155.411569 C485.218367,154.389638 486.671975,151.864517 486.671975,149.832462 L486.671975,102.31564 Z" id="Polygon-1"></path>
                <path d="M1103.67197,102.31564 L1061.92467,78.0622575 C1060.65613,77.3252936 1058.51873,77.3236176 1057.24731,78.0622575 L1017.84102,100.955611 C1016.57145,101.693173 1015.5,103.557219 1015.5,105.037044 L1015.5,150.823751 C1015.5,152.30871 1016.5645,154.163583 1017.84102,154.905184 L1057.24731,177.798538 C1058.51584,178.535501 1060.65325,178.537177 1061.92467,177.798538 L1100.45932,155.411569 C1102.21837,154.389638 1103.67197,151.864517 1103.67197,149.832462 L1103.67197,102.31564 Z" id="Polygon-1-Copy-6"></path>
                <path d="M265.671975,27.3156403 L223.924667,3.0622575 C222.656132,2.32529358 220.518728,2.32361757 219.247308,3.0622575 L179.841016,25.9556108 C178.571452,26.6931727 177.5,28.5572192 177.5,30.0370442 L177.5,75.8237509 C177.5,77.3087097 178.564499,79.163583 179.841016,79.9051842 L219.247308,102.798538 C220.515843,103.535501 222.653247,103.537177 223.924667,102.798538 L262.459319,80.411569 C264.218367,79.389638 265.671975,76.8645173 265.671975,74.8324618 L265.671975,27.3156403 Z" id="Polygon-1"></path>
                <path d="M882.671975,27.3156403 L840.924667,3.0622575 C839.656132,2.32529358 837.518728,2.32361757 836.247308,3.0622575 L796.841016,25.9556108 C795.571452,26.6931727 794.5,28.5572192 794.5,30.0370442 L794.5,75.8237509 C794.5,77.3087097 795.564499,79.163583 796.841016,79.9051842 L836.247308,102.798538 C837.515843,103.535501 839.653247,103.537177 840.924667,102.798538 L879.459319,80.411569 C881.218367,79.389638 882.671975,76.8645173 882.671975,74.8324618 L882.671975,27.3156403 Z" id="Polygon-1-Copy-7"></path>
                <path d="M618.671975,25.3156403 L576.924667,1.0622575 C575.656132,0.325293579 573.518728,0.323617571 572.247308,1.0622575 L532.841016,23.9556108 C531.571452,24.6931727 530.5,26.5572192 530.5,28.0370442 L530.5,73.8237509 C530.5,75.3087097 531.564499,77.163583 532.841016,77.9051842 L572.247308,100.798538 C573.515843,101.535501 575.653247,101.537177 576.924667,100.798538 L615.459319,78.411569 C617.218367,77.389638 618.671975,74.8645173 618.671975,72.8324618 L618.671975,25.3156403 Z" id="Polygon-1" opacity="0.527110541"></path>
                <path d="M1235.67197,25.3156403 L1193.92467,1.0622575 C1192.65613,0.325293579 1190.51873,0.323617571 1189.24731,1.0622575 L1149.84102,23.9556108 C1148.57145,24.6931727 1147.5,26.5572192 1147.5,28.0370442 L1147.5,73.8237509 C1147.5,75.3087097 1148.5645,77.163583 1149.84102,77.9051842 L1189.24731,100.798538 C1190.51584,101.535501 1192.65325,101.537177 1193.92467,100.798538 L1232.45932,78.411569 C1234.21837,77.389638 1235.67197,74.8645173 1235.67197,72.8324618 L1235.67197,25.3156403 Z" id="Polygon-1-Copy-8" opacity="0.527110541"></path>
                <path d="M309.671975,52.3156403 L267.924667,28.0622575 C266.656132,27.3252936 264.518728,27.3236176 263.247308,28.0622575 L223.841016,50.9556108 C222.571452,51.6931727 221.5,53.5572192 221.5,55.0370442 L221.5,100.823751 C221.5,102.30871 222.564499,104.163583 223.841016,104.905184 L263.247308,127.798538 C264.515843,128.535501 266.653247,128.537177 267.924667,127.798538 L306.459319,105.411569 C308.218367,104.389638 309.671975,101.864517 309.671975,99.8324618 L309.671975,52.3156403 Z" id="Polygon-1" opacity="0.409223414"></path>
                <path d="M926.671975,52.3156403 L884.924667,28.0622575 C883.656132,27.3252936 881.518728,27.3236176 880.247308,28.0622575 L840.841016,50.9556108 C839.571452,51.6931727 838.5,53.5572192 838.5,55.0370442 L838.5,100.823751 C838.5,102.30871 839.564499,104.163583 840.841016,104.905184 L880.247308,127.798538 C881.515843,128.535501 883.653247,128.537177 884.924667,127.798538 L923.459319,105.411569 C925.218367,104.389638 926.671975,101.864517 926.671975,99.8324618 L926.671975,52.3156403 Z" id="Polygon-1-Copy-9" opacity="0.409223414"></path>
                <path d="M175.671975,127.31564 L133.924667,103.062258 C132.656132,102.325294 130.518728,102.323618 129.247308,103.062258 L89.8410164,125.955611 C88.5714524,126.693173 87.5,128.557219 87.5,130.037044 L87.5,175.823751 C87.5,177.30871 88.5644995,179.163583 89.8410164,179.905184 L129.247308,202.798538 C130.515843,203.535501 132.653247,203.537177 133.924667,202.798538 L172.459319,180.411569 C174.218367,179.389638 175.671975,176.864517 175.671975,174.832462 L175.671975,127.31564 Z" id="Polygon-1" opacity="0.409223414"></path>
                <path d="M1411.37832,128.582923 L1367.92467,103.062258 C1366.65613,102.325294 1364.51873,102.323618 1363.24731,103.062258 L1323.84102,125.955611 C1322.57145,126.693173 1321.5,128.557219 1321.5,130.037044 L1321.5,175.823751 C1321.5,177.30871 1322.5645,179.163583 1323.84102,179.905184 L1363.24731,202.798538 C1364.51584,203.535501 1366.65325,203.537177 1367.92467,202.798538 L1408.16567,179.272179 C1409.92472,178.250248 1411.37832,175.725127 1411.37832,173.693072 L1411.37832,128.582923 Z" id="Polygon-1-Copy-27" opacity="0.409223414"></path>
                <path d="M792.671975,127.31564 L750.924667,103.062258 C749.656132,102.325294 747.518728,102.323618 746.247308,103.062258 L706.841016,125.955611 C705.571452,126.693173 704.5,128.557219 704.5,130.037044 L704.5,175.823751 C704.5,177.30871 705.564499,179.163583 706.841016,179.905184 L746.247308,202.798538 C747.515843,203.535501 749.653247,203.537177 750.924667,202.798538 L789.459319,180.411569 C791.218367,179.389638 792.671975,176.864517 792.671975,174.832462 L792.671975,127.31564 Z" id="Polygon-1-Copy-10" opacity="0.409223414"></path>
                <path d="M529.671975,126.31564 L487.924667,102.062258 C486.656132,101.325294 484.518728,101.323618 483.247308,102.062258 L443.841016,124.955611 C442.571452,125.693173 441.5,127.557219 441.5,129.037044 L441.5,174.823751 C441.5,176.30871 442.564499,178.163583 443.841016,178.905184 L483.247308,201.798538 C484.515843,202.535501 486.653247,202.537177 487.924667,201.798538 L526.459319,179.411569 C528.218367,178.389638 529.671975,175.864517 529.671975,173.832462 L529.671975,126.31564 Z" id="Polygon-1" opacity="0.644881063"></path>
                <path d="M1145.67197,126.31564 L1103.92467,102.062258 C1102.65613,101.325294 1100.51873,101.323618 1099.24731,102.062258 L1059.84102,124.955611 C1058.57145,125.693173 1057.5,127.557219 1057.5,129.037044 L1057.5,174.823751 C1057.5,176.30871 1058.5645,178.163583 1059.84102,178.905184 L1099.24731,201.798538 C1100.51584,202.535501 1102.65325,202.537177 1103.92467,201.798538 L1142.45932,179.411569 C1144.21837,178.389638 1145.67197,175.864517 1145.67197,173.832462 L1145.67197,126.31564 Z" id="Polygon-1-Copy-11" opacity="0.644881063"></path>
                <path d="M442.671975,25.3156403 L400.924667,1.0622575 C399.656132,0.325293579 397.518728,0.323617571 396.247308,1.0622575 L356.841016,23.9556108 C355.571452,24.6931727 354.5,26.5572192 354.5,28.0370442 L354.5,73.8237509 C354.5,75.3087097 355.564499,77.163583 356.841016,77.9051842 L396.247308,100.798538 C397.515843,101.535501 399.653247,101.537177 400.924667,100.798538 L439.459319,78.411569 C441.218367,77.389638 442.671975,74.8645173 442.671975,72.8324618 L442.671975,25.3156403 Z" id="Polygon-1" opacity="0.409223414"></path>
                <path d="M1058.67197,25.3156403 L1016.92467,1.0622575 C1015.65613,0.325293579 1013.51873,0.323617571 1012.24731,1.0622575 L972.841016,23.9556108 C971.571452,24.6931727 970.5,26.5572192 970.5,28.0370442 L970.5,73.8237509 C970.5,75.3087097 971.564499,77.163583 972.841016,77.9051842 L1012.24731,100.798538 C1013.51584,101.535501 1015.65325,101.537177 1016.92467,100.798538 L1055.45932,78.411569 C1057.21837,77.389638 1058.67197,74.8645173 1058.67197,72.8324618 L1058.67197,25.3156403 Z" id="Polygon-1-Copy-12" opacity="0.409223414"></path>
                <path d="M442.671975,180.31564 L400.924667,156.062258 C399.656132,155.325294 397.518728,155.323618 396.247308,156.062258 L356.841016,178.955611 C355.571452,179.693173 354.5,181.557219 354.5,183.037044 L354.5,228.823751 C354.5,230.30871 355.564499,232.163583 356.841016,232.905184 L396.247308,255.798538 C397.515843,256.535501 399.653247,256.537177 400.924667,255.798538 L439.459319,233.411569 C441.218367,232.389638 442.671975,229.864517 442.671975,227.832462 L442.671975,180.31564 Z" id="Polygon-1"></path>
                <path d="M1058.67197,179.31564 L1016.92467,155.062258 C1015.65613,154.325294 1013.51873,154.323618 1012.24731,155.062258 L972.841016,177.955611 C971.571452,178.693173 970.5,180.557219 970.5,182.037044 L970.5,227.823751 C970.5,229.30871 971.564499,231.163583 972.841016,231.905184 L1012.24731,254.798538 C1013.51584,255.535501 1015.65325,255.537177 1016.92467,254.798538 L1055.45932,232.411569 C1057.21837,231.389638 1058.67197,228.864517 1058.67197,226.832462 L1058.67197,179.31564 Z" id="Polygon-1-Copy-13"></path>
                <path d="M264.671975,180.31564 L222.924667,156.062258 C221.656132,155.325294 219.518728,155.323618 218.247308,156.062258 L178.841016,178.955611 C177.571452,179.693173 176.5,181.557219 176.5,183.037044 L176.5,228.823751 C176.5,230.30871 177.564499,232.163583 178.841016,232.905184 L218.247308,255.798538 C219.515843,256.535501 221.653247,256.537177 222.924667,255.798538 L261.459319,233.411569 C263.218367,232.389638 264.671975,229.864517 264.671975,227.832462 L264.671975,180.31564 Z" id="Polygon-1" opacity="0.409223414"></path>
                <path d="M881.671975,180.31564 L839.924667,156.062258 C838.656132,155.325294 836.518728,155.323618 835.247308,156.062258 L795.841016,178.955611 C794.571452,179.693173 793.5,181.557219 793.5,183.037044 L793.5,228.823751 C793.5,230.30871 794.564499,232.163583 795.841016,232.905184 L835.247308,255.798538 C836.515843,256.535501 838.653247,256.537177 839.924667,255.798538 L878.459319,233.411569 C880.218367,232.389638 881.671975,229.864517 881.671975,227.832462 L881.671975,180.31564 Z" id="Polygon-1-Copy-14" opacity="0.409223414"></path>
                <path d="M618.671975,179.31564 L576.924667,155.062258 C575.656132,154.325294 573.518728,154.323618 572.247308,155.062258 L532.841016,177.955611 C531.571452,178.693173 530.5,180.557219 530.5,182.037044 L530.5,227.823751 C530.5,229.30871 531.564499,231.163583 532.841016,231.905184 L572.247308,254.798538 C573.515843,255.535501 575.653247,255.537177 576.924667,254.798538 L615.459319,232.411569 C617.218367,231.389638 618.671975,228.864517 618.671975,226.832462 L618.671975,179.31564 Z" id="Polygon-1" opacity="0.409223414"></path>
                <path d="M1235.67197,179.31564 L1193.92467,155.062258 C1192.65613,154.325294 1190.51873,154.323618 1189.24731,155.062258 L1149.84102,177.955611 C1148.57145,178.693173 1147.5,180.557219 1147.5,182.037044 L1147.5,227.823751 C1147.5,229.30871 1148.5645,231.163583 1149.84102,231.905184 L1189.24731,254.798538 C1190.51584,255.535501 1192.65325,255.537177 1193.92467,254.798538 L1232.45932,232.411569 C1234.21837,231.389638 1235.67197,228.864517 1235.67197,226.832462 L1235.67197,179.31564 Z" id="Polygon-1-Copy-15" opacity="0.409223414"></path>
                <path d="M177.671975,26.3156403 L135.924667,2.0622575 C134.656132,1.32529358 132.518728,1.32361757 131.247308,2.0622575 L91.8410164,24.9556108 C90.5714524,25.6931727 89.5,27.5572192 89.5,29.0370442 L89.5,74.8237509 C89.5,76.3087097 90.5644995,78.163583 91.8410164,78.9051842 L131.247308,101.798538 C132.515843,102.535501 134.653247,102.537177 135.924667,101.798538 L174.459319,79.411569 C176.218367,78.389638 177.671975,75.8645173 177.671975,73.8324618 L177.671975,26.3156403 Z" id="Polygon-1" opacity="0.498892257"></path>
                <path d="M1411.67197,26.3156403 L1369.92467,2.0622575 C1368.65613,1.32529358 1366.51873,1.32361757 1365.24731,2.0622575 L1325.84102,24.9556108 C1324.57145,25.6931727 1323.5,27.5572192 1323.5,29.0370442 L1323.5,74.8237509 C1323.5,76.3087097 1324.5645,78.163583 1325.84102,78.9051842 L1365.24731,101.798538 C1366.51584,102.535501 1368.65325,102.537177 1369.92467,101.798538 L1408.45932,79.411569 C1410.21837,78.389638 1411.67197,75.8645173 1411.67197,73.8324618 L1411.67197,26.3156403 Z" id="Polygon-1-Copy-28" opacity="0.498892257"></path>
                <path d="M794.671975,26.3156403 L752.924667,2.0622575 C751.656132,1.32529358 749.518728,1.32361757 748.247308,2.0622575 L708.841016,24.9556108 C707.571452,25.6931727 706.5,27.5572192 706.5,29.0370442 L706.5,74.8237509 C706.5,76.3087097 707.564499,78.163583 708.841016,78.9051842 L748.247308,101.798538 C749.515843,102.535501 751.653247,102.537177 752.924667,101.798538 L791.459319,79.411569 C793.218367,78.389638 794.671975,75.8645173 794.671975,73.8324618 L794.671975,26.3156403 Z" id="Polygon-1-Copy-16" opacity="0.498892257"></path>
                <path d="M530.671975,25.3156403 L488.924667,1.0622575 C487.656132,0.325293579 485.518728,0.323617571 484.247308,1.0622575 L444.841016,23.9556108 C443.571452,24.6931727 442.5,26.5572192 442.5,28.0370442 L442.5,73.8237509 C442.5,75.3087097 443.564499,77.163583 444.841016,77.9051842 L484.247308,100.798538 C485.515843,101.535501 487.653247,101.537177 488.924667,100.798538 L527.459319,78.411569 C529.218367,77.389638 530.671975,74.8645173 530.671975,72.8324618 L530.671975,25.3156403 Z" id="Polygon-1" opacity="0.498892257"></path>
                <path d="M1146.67197,25.3156403 L1104.92467,1.0622575 C1103.65613,0.325293579 1101.51873,0.323617571 1100.24731,1.0622575 L1060.84102,23.9556108 C1059.57145,24.6931727 1058.5,26.5572192 1058.5,28.0370442 L1058.5,73.8237509 C1058.5,75.3087097 1059.5645,77.163583 1060.84102,77.9051842 L1100.24731,100.798538 C1101.51584,101.535501 1103.65325,101.537177 1104.92467,100.798538 L1143.45932,78.411569 C1145.21837,77.389638 1146.67197,74.8645173 1146.67197,72.8324618 L1146.67197,25.3156403 Z" id="Polygon-1-Copy-17" opacity="0.498892257"></path>
                <path d="M353.671975,179.31564 L311.924667,155.062258 C310.656132,154.325294 308.518728,154.323618 307.247308,155.062258 L267.841016,177.955611 C266.571452,178.693173 265.5,180.557219 265.5,182.037044 L265.5,227.823751 C265.5,229.30871 266.564499,231.163583 267.841016,231.905184 L307.247308,254.798538 C308.515843,255.535501 310.653247,255.537177 311.924667,254.798538 L350.459319,232.411569 C352.218367,231.389638 353.671975,228.864517 353.671975,226.832462 L353.671975,179.31564 Z" id="Polygon-1" opacity="0.5"></path>
                <path d="M969.671975,179.31564 L927.924667,155.062258 C926.656132,154.325294 924.518728,154.323618 923.247308,155.062258 L883.841016,177.955611 C882.571452,178.693173 881.5,180.557219 881.5,182.037044 L881.5,227.823751 C881.5,229.30871 882.564499,231.163583 883.841016,231.905184 L923.247308,254.798538 C924.515843,255.535501 926.653247,255.537177 927.924667,254.798538 L966.459319,232.411569 C968.218367,231.389638 969.671975,228.864517 969.671975,226.832462 L969.671975,179.31564 Z" id="Polygon-1-Copy-18" opacity="0.5"></path>
                <path d="M398.671975,102.31564 L356.924667,78.0622575 C355.656132,77.3252936 353.518728,77.3236176 352.247308,78.0622575 L312.841016,100.955611 C311.571452,101.693173 310.5,103.557219 310.5,105.037044 L310.5,150.823751 C310.5,152.30871 311.564499,154.163583 312.841016,154.905184 L352.247308,177.798538 C353.515843,178.535501 355.653247,178.537177 356.924667,177.798538 L395.459319,155.411569 C397.218367,154.389638 398.671975,151.864517 398.671975,149.832462 L398.671975,102.31564 Z" id="Polygon-1"></path>
                <path d="M1015.67197,102.31564 L973.924667,78.0622575 C972.656132,77.3252936 970.518728,77.3236176 969.247308,78.0622575 L929.841016,100.955611 C928.571452,101.693173 927.5,103.557219 927.5,105.037044 L927.5,150.823751 C927.5,152.30871 928.564499,154.163583 929.841016,154.905184 L969.247308,177.798538 C970.515843,178.535501 972.653247,178.537177 973.924667,177.798538 L1012.45932,155.411569 C1014.21837,154.389638 1015.67197,151.864517 1015.67197,149.832462 L1015.67197,102.31564 Z" id="Polygon-1-Copy-19"></path>
                <path d="M354.671975,128.31564 L312.924667,104.062258 C311.656132,103.325294 309.518728,103.323618 308.247308,104.062258 L268.841016,126.955611 C267.571452,127.693173 266.5,129.557219 266.5,131.037044 L266.5,176.823751 C266.5,178.30871 267.564499,180.163583 268.841016,180.905184 L308.247308,203.798538 C309.515843,204.535501 311.653247,204.537177 312.924667,203.798538 L351.459319,181.411569 C353.218367,180.389638 354.671975,177.864517 354.671975,175.832462 L354.671975,128.31564 Z" id="Polygon-1" opacity="0.273612407"></path>
                <path d="M970.671975,128.31564 L928.924667,104.062258 C927.656132,103.325294 925.518728,103.323618 924.247308,104.062258 L884.841016,126.955611 C883.571452,127.693173 882.5,129.557219 882.5,131.037044 L882.5,176.823751 C882.5,178.30871 883.564499,180.163583 884.841016,180.905184 L924.247308,203.798538 C925.515843,204.535501 927.653247,204.537177 928.924667,203.798538 L967.459319,181.411569 C969.218367,180.389638 970.671975,177.864517 970.671975,175.832462 L970.671975,128.31564 Z" id="Polygon-1-Copy-20" opacity="0.273612407"></path>
                <path d="M354.671975,26.3156403 L312.924667,2.0622575 C311.656132,1.32529358 309.518728,1.32361757 308.247308,2.0622575 L268.841016,24.9556108 C267.571452,25.6931727 266.5,27.5572192 266.5,29.0370442 L266.5,74.8237509 C266.5,76.3087097 267.564499,78.163583 268.841016,78.9051842 L308.247308,101.798538 C309.515843,102.535501 311.653247,102.537177 312.924667,101.798538 L351.459319,79.411569 C353.218367,78.389638 354.671975,75.8645173 354.671975,73.8324618 L354.671975,26.3156403 Z" id="Polygon-1"></path>
                <path d="M970.671975,26.3156403 L928.924667,2.0622575 C927.656132,1.32529358 925.518728,1.32361757 924.247308,2.0622575 L884.841016,24.9556108 C883.571452,25.6931727 882.5,27.5572192 882.5,29.0370442 L882.5,74.8237509 C882.5,76.3087097 883.564499,78.163583 884.841016,78.9051842 L924.247308,101.798538 C925.515843,102.535501 927.653247,102.537177 928.924667,101.798538 L967.459319,79.411569 C969.218367,78.389638 970.671975,75.8645173 970.671975,73.8324618 L970.671975,26.3156403 Z" id="Polygon-1-Copy-21"></path>
                <path d="M89.6719745,25.3156403 L47.9246667,1.0622575 C46.6561319,0.325293579 44.5187276,0.323617571 43.2473079,1.0622575 L2.84101643,23.9556108 C1.57145237,24.6931727 0.5,26.5572192 0.5,28.0370442 L0.5,73.8237509 C0.5,75.3087097 1.56449948,77.163583 2.84101643,77.9051842 L43.2473079,100.798538 C44.5158427,101.535501 46.653247,101.537177 47.9246667,100.798538 L86.4593188,78.411569 C88.2183669,77.389638 89.6719745,74.8645173 89.6719745,72.8324618 L89.6719745,25.3156403 Z" id="Polygon-1" opacity="0.409223414"></path>
                <path d="M1323.67197,25.3156403 L1281.92467,1.0622575 C1280.65613,0.325293579 1278.51873,0.323617571 1277.24731,1.0622575 L1237.84102,23.9556108 C1236.57145,24.6931727 1235.5,26.5572192 1235.5,28.0370442 L1235.5,73.8237509 C1235.5,75.3087097 1236.5645,77.163583 1237.84102,77.9051842 L1277.24731,100.798538 C1278.51584,101.535501 1280.65325,101.537177 1281.92467,100.798538 L1320.45932,78.411569 C1322.21837,77.389638 1323.67197,74.8645173 1323.67197,72.8324618 L1323.67197,25.3156403 Z" id="Polygon-1-Copy-29" opacity="0.409223414"></path>
                <path d="M706.671975,25.3156403 L664.924667,1.0622575 C663.656132,0.325293579 661.518728,0.323617571 660.247308,1.0622575 L620.841016,23.9556108 C619.571452,24.6931727 618.5,26.5572192 618.5,28.0370442 L618.5,73.8237509 C618.5,75.3087097 619.564499,77.163583 620.841016,77.9051842 L660.247308,100.798538 C661.515843,101.535501 663.653247,101.537177 664.924667,100.798538 L703.459319,78.411569 C705.218367,77.389638 706.671975,74.8645173 706.671975,72.8324618 L706.671975,25.3156403 Z" id="Polygon-1-Copy-22" opacity="0.409223414"></path>
                <path d="M88.6719745,179.31564 L46.9246667,155.062258 C45.6561319,154.325294 43.5187276,154.323618 42.2473079,155.062258 L2.85769972,177.955611 C1.58813566,178.693173 0.516683293,180.557219 0.516683293,182.037044 L0.516683293,227.823751 C0.516683293,229.30871 1.58118277,231.163583 2.85769972,231.905184 L42.2473079,254.798538 C43.5158427,255.535501 45.653247,255.537177 46.9246667,254.798538 L85.4593188,232.411569 C87.2183669,231.389638 88.6719745,228.864517 88.6719745,226.832462 L88.6719745,179.31564 Z" id="Polygon-1"></path>
                <path d="M1322.67197,179.31564 L1280.92467,155.062258 C1279.65613,154.325294 1277.51873,154.323618 1276.24731,155.062258 L1236.84102,177.955611 C1235.57145,178.693173 1234.5,180.557219 1234.5,182.037044 L1234.5,227.823751 C1234.5,229.30871 1235.5645,231.163583 1236.84102,231.905184 L1276.24731,254.798538 C1277.51584,255.535501 1279.65325,255.537177 1280.92467,254.798538 L1319.45932,232.411569 C1321.21837,231.389638 1322.67197,228.864517 1322.67197,226.832462 L1322.67197,179.31564 Z" id="Polygon-1-Copy-30"></path>
                <path d="M705.671975,179.31564 L663.924667,155.062258 C662.656132,154.325294 660.518728,154.323618 659.247308,155.062258 L619.841016,177.955611 C618.571452,178.693173 617.5,180.557219 617.5,182.037044 L617.5,227.823751 C617.5,229.30871 618.564499,231.163583 619.841016,231.905184 L659.247308,254.798538 C660.515843,255.535501 662.653247,255.537177 663.924667,254.798538 L702.459319,232.411569 C704.218367,231.389638 705.671975,228.864517 705.671975,226.832462 L705.671975,179.31564 Z" id="Polygon-1-Copy-23"></path>
            </g>
        </g>
    </g>
</svg>