<?xml version="1.0" encoding="UTF-8" standalone="no"?>
<svg width="20px" height="20px" viewBox="0 0 20 20" version="1.1" xmlns="http://www.w3.org/2000/svg" xmlns:xlink="http://www.w3.org/1999/xlink">
    <!-- Generator: Sketch 41 (35326) - http://www.bohemiancoding.com/sketch -->
    <title>Football</title>
    <desc>Created with Sketch.</desc>
    <defs>
        <path d="M9.95521522,19.9142982 C15.3776473,19.9142982 19.773397,15.5185484 19.773397,10.0961163 C19.773397,4.67368425 15.3776473,0.277934522 9.95521522,0.277934522 C4.53278314,0.277934522 0.137033406,4.67368425 0.137033406,10.0961163 C0.137033406,15.5185484 4.53278314,19.9142982 9.95521522,19.9142982 Z" id="path-1"></path>
    </defs>
    <g id="HELP-General" stroke="none" stroke-width="1" fill="none" fill-rule="evenodd">
        <g id="Common-Assets" transform="translate(-57.000000, -213.000000)">
            <g id="Football" transform="translate(57.000000, 213.000000)">
                <path d="M10,19 L10,19 C14.9705627,19 19,14.9705627 19,10 C19,5.02943725 14.9705627,1 10,1 C5.02943725,1 1,5.02943725 1,10 C1,14.9705627 5.02943725,19 10,19 L10,19 Z M10,20 L10,20 C4.4771525,20 0,15.5228475 0,10 C0,4.4771525 4.4771525,0 10,0 C15.5228475,0 20,4.4771525 20,10 C20,15.5228475 15.5228475,20 10,20 L10,20 Z" id="Shape" fill="#666666"></path>
                <mask id="mask-2" fill="white">
                    <use xlink:href="#path-1"></use>
                </mask>
                <g id="Mask"></g>
                <path d="M2.42136795,9.70040543 C2.30950668,10.7360259 2.33064694,11.8567795 2.5786129,12.91689 C2.64865234,13.2163244 2.73592943,13.5034575 2.84160988,13.7766296 L3.69495735,13.7766295 C3.59825993,13.5266775 3.43762586,12.9093829 3.37291367,12.6327236 C3.1402824,11.6381725 3.10655112,10.6828503 3.2126687,9.70040541 C3.23482181,9.49531012 2.98098181,9.4033855 2.99512871,9.32611089 L2.48508696,9.23273599 C2.46874391,9.32200665 2.44494976,9.4820832 2.42136795,9.70040543 Z" id="Shape" fill="#666666" mask="url(#mask-2)"></path>
                <path d="M12.875572,11.2537808 L12.875572,11.2537808 L11.0638103,11.8986535 C10.5898576,12.0673506 10.1671765,12.6692098 10.1678888,13.1742214 L10.1706083,15.1022571 C10.1712572,15.5623219 10.5664982,16.0317646 11.0208855,16.1123344 L12.7147458,16.4126816 C13.2291355,16.5038907 13.9474567,16.1910335 14.2329094,15.7514749 L15.0857427,14.4382267 C15.3663551,14.0061216 15.3531025,13.2337258 15.0583499,12.8167455 L14.2655361,11.6951689 C13.9846887,11.2978601 13.3320069,11.0913189 12.875572,11.2537808 L12.875572,11.2537808 Z M12.6271805,10.555928 C13.3950535,10.2826138 14.3970162,10.5978892 14.8704146,11.2675958 L15.6632284,12.3891724 C16.1342594,13.0555298 16.1514886,14.1571802 15.7069802,14.841663 L14.8541468,16.1549112 C14.4072793,16.843027 13.3938659,17.2853952 12.5854185,17.1420452 L10.8915583,16.841698 C10.0854418,16.6987613 9.43102559,15.9237776 9.4298683,15.1033019 L9.42714877,13.1752662 C9.42599617,12.3581132 10.0444235,11.4752262 10.8154188,11.2008007 L12.6271805,10.555928 L12.6271805,10.555928 Z" id="Shape" fill="#666666" mask="url(#mask-2)"></path>
                <path d="M2.54687044,3.7302153 L2.54687044,3.7302153 L2.81792167,3.74250736 L1.99824217,3.85707261 L2.58373578,3.39789476 L0.915984066,7.57911946 L0.872671862,6.93994508 L1.69651592,8.39701091 C1.90762343,8.80116707 2.92874478,9.19301471 3.25705177,9.02547834 L4.08091372,8.60505829 C4.60212125,8.33908401 5.15465366,7.58670612 5.25233347,7.01160359 L5.54633146,5.28065228 C5.61865393,4.85484441 5.32278252,4.3927074 4.92861271,4.28664306 L2.54687044,3.7302153 Z M2.71538624,3.00889757 L5.09712852,3.56532533 C5.88519958,3.77657711 6.41270249,4.60344694 6.27661343,5.40468895 L5.98261543,7.13564026 C5.8459559,7.94024096 5.14840208,8.89192946 4.41761073,9.26485521 L3.59374878,9.68527526 C2.86608007,10.0566075 1.41963456,9.46685536 1.03994865,8.7399632 L0.227955029,7.30468752 L1.89570674,3.12346282 L2.71538624,3.00889757 L2.71538624,3.00889757 Z" id="Shape" fill="#666666" mask="url(#mask-2)"></path>
                <path d="M12.4310925,0.504682827 L12.4310925,0.504682827 L12.4310925,0.504682827 L11.9757315,1.96308512 C11.8906473,2.23558744 12.0373208,2.66485464 12.2773693,2.83446473 L14.2979913,4.26216722 C14.6076078,4.48093168 15.2511359,4.57854822 15.6140656,4.46055502 L16.0646301,4.31407054 C16.3791681,4.2118101 16.7107701,3.81004173 16.7477289,3.49312515 L16.78106,3.343773 C16.7733447,3.36763926 16.7733447,3.36763926 16.7665271,3.39507624 C16.7591914,3.42881039 16.754944,3.45887341 16.7542298,3.50181625 C16.7525409,3.60336303 16.7719713,3.71083037 16.8390154,3.83143935 C16.6458106,3.48387326 16.3121777,2.99394481 15.8745782,2.40687329 C15.7898066,2.29314601 15.7016717,2.1764944 15.6105067,2.05727924 C15.2835771,1.62975837 14.9323657,1.18812825 14.5810482,0.758130691 C14.3703239,0.500213202 14.2068501,0.304038912 14.1106758,0.190315089 C14.1309171,0.214634967 14.0850822,0.194713358 14.1169174,0.19285654 L12.7235999,0.274123141 C12.6235935,0.279956107 12.4615447,0.407152575 12.4310925,0.504682827 L12.4310925,0.504682827 Z M11.7240165,0.283910515 C11.8458203,-0.10619519 12.271103,-0.44148418 12.6804687,-0.465360835 L14.0737863,-0.546627436 C14.2773342,-0.558499568 14.5502443,-0.439471291 14.68002,-0.283545756 C14.68002,-0.283545756 16.7770055,2.19528678 17.4864503,3.47154371 C17.5070358,3.50857617 17.4834833,3.57892886 17.4834833,3.57892886 C17.4130056,4.18326484 16.8835776,4.82672512 16.2936549,5.01851679 L15.8430903,5.16500126 C15.2564439,5.35572774 14.3697885,5.2198838 13.8705426,4.86713373 L11.8499206,3.43943124 C11.347159,3.08419706 11.0878772,2.32129832 11.2686555,1.74231281 L11.7240165,0.283910515 L11.7240165,0.283910515 Z" id="Shape" fill="#666666" mask="url(#mask-2)"></path>
                <path d="M2.25760779,14.5054904 L2.25760779,14.5054904 L2.25760779,14.5054904 L1.18107793,15.2528315 C0.750407686,15.5518084 0.449637549,16.2894925 0.549817008,16.8010179 L0.92037312,18.6931113 C1.00879464,19.1445996 1.48634776,19.5300018 1.94776019,19.5223901 L3.66780841,19.4940153 C4.1901509,19.4853984 4.83557853,19.0412271 5.0319149,18.5552776 L5.61849973,17.1034292 C5.79129974,16.6757341 5.59993871,16.0752209 5.21988332,15.8318173 C5.18687451,15.8114571 5.1309091,15.7765111 5.05945451,15.7311681 C4.9403297,15.6555749 4.82105561,15.5781923 4.70868435,15.5028932 C4.67189663,15.4781804 4.67189663,15.4781804 4.63502893,15.4531408 C4.51691225,15.3726773 4.41563101,15.3002628 4.33259444,15.2358337 C4.24830546,15.1704329 4.14465468,15.0810232 4.02077544,14.9689675 C4.00290037,14.9527773 4.00290037,14.9527773 3.9851476,14.9366186 C3.8447846,14.8087116 3.71109602,14.6822006 3.63075638,14.604547 C3.28729499,14.2837836 2.64423999,14.2370853 2.25760779,14.5054904 L2.25760779,14.5054904 Z M1.83518739,13.8970023 C2.50905139,13.4291971 3.5385454,13.5048876 4.13634534,14.0631815 C4.13634534,14.0631815 4.57460509,14.4860445 4.78668469,14.6505997 C5.06134802,14.8637143 5.60875537,15.2013608 5.60875537,15.2013608 C6.30080647,15.6443562 6.6110386,16.6241924 6.30530259,17.3809155 L5.71871775,18.832764 C5.41135906,19.5935034 4.50097274,20.2211125 3.6800264,20.2346552 L1.95997819,20.2630301 C1.14139874,20.2765338 0.35113213,19.6406572 0.193441958,18.8354768 L-0.177114154,16.9433834 C-0.334165723,16.1414638 0.0880199612,15.1099086 0.758657533,14.6443433 L1.83518739,13.8970023 L1.83518739,13.8970023 Z" id="Shape" fill="#666666" mask="url(#mask-2)"></path>
                <path d="M14.5818352,5.07559317 C14.5818352,5.07559317 14.562121,8.04445021 13.675981,10.5118077 L14.455476,10.9771955 C14.455476,10.9771955 14.8398618,9.94298864 15.1022678,8.20457176 C15.3646738,6.46615488 15.460612,5.07559317 15.460612,5.07559317 L14.5818352,5.07559317 Z" id="Path-447" fill="#666666" mask="url(#mask-2)"></path>
                <path d="M7.41150006,7.24101104 C7.41150006,7.24101104 7.5897018,10.6366396 6.70356176,13.1039971 L7.53955579,13.2906398 C7.53955579,13.2906398 7.92394165,12.256433 8.18634761,10.5180161 C8.44875357,8.77959925 8.34180099,7.32632957 8.34180099,7.32632957 L7.41150006,7.24101104 Z" id="Path-447" fill="#666666" mask="url(#mask-2)" transform="translate(7.533466, 10.265825) rotate(-241.000000) translate(-7.533466, -10.265825) "></path>
                <path d="M8.4086836,0.605473133 C8.4086836,0.605473133 8.5428346,1.68061906 8.4086836,3.28878668 C8.33408582,4.18304559 8.07129513,5.37356228 7.75462704,6.25528904 L8.64964217,6.50075998 C8.64964217,6.50075998 9.06067775,5.42285616 9.32308371,3.68443927 C9.58548967,1.94602239 9.13780582,0.605473133 9.13780582,0.605473133 L8.4086836,0.605473133 Z" id="Path-447" fill="#666666" mask="url(#mask-2)" transform="translate(8.580091, 3.553117) scale(1, -1) rotate(-255.000000) translate(-8.580091, -3.553117) "></path>
                <path d="M15.9087004,12.9484419 C15.9087004,12.9484419 18.2871275,12.9243156 19.2878328,10.9016557 L19.2878328,12.0509621 C19.2878328,12.0509621 18.7436704,12.7738444 17.8429724,13.2227015 C16.9422743,13.6715585 15.9087004,13.779116 15.9087004,13.779116 L15.9087004,12.9484419 Z" id="Path-449" fill="#666666" mask="url(#mask-2)"></path>
                <path d="M9.72039509,15.3662513 C9.72039509,15.3662513 9.29732529,15.7179459 8.06350762,15.9792737 C7.20498082,16.1611133 6.07866567,16.0859887 6.07866567,16.0859887 C6.07866567,16.0859887 6.06801035,16.8976336 6.07866567,16.8978873 C9.35188679,16.9758008 10.1459884,16.0859887 10.1459884,16.0859887 L9.72039509,15.3662513 Z" id="Path-454" fill="#666666" mask="url(#mask-2)" transform="translate(8.109959, 16.134486) rotate(-3.000000) translate(-8.109959, -16.134486) "></path>
                <path d="M13.6894087,16.9113991 C13.6894087,16.9113991 14.4493725,17.4795521 14.5063838,18.2709295 L15.3158004,17.9420302 C15.1707708,17.6736974 15.2013256,17.6199906 14.9634241,17.1634476 C14.7255226,16.7069047 14.6311597,16.675313 14.5063838,16.4444535 L13.6894087,16.9113991 Z" id="Path-446" fill="#666666" mask="url(#mask-2)"></path>
            </g>
        </g>
    </g>
</svg>