<?xml version="1.0" encoding="UTF-8" standalone="no"?>
<svg width="33px" height="33px" viewBox="0 0 33 33" version="1.1" xmlns="http://www.w3.org/2000/svg" xmlns:xlink="http://www.w3.org/1999/xlink">
    <!-- Generator: Sketch 41 (35326) - http://www.bohemiancoding.com/sketch -->
    <title>head icon unsel</title>
    <desc>Created with Sketch.</desc>
    <defs></defs>
    <g id="Buttons-and-Icons" stroke="none" stroke-width="1" fill="none" fill-rule="evenodd">
        <g id="Icons-[Design-Example]" transform="translate(-103.000000, -97.000000)" fill="#4ACFA5">
            <g id="head-icon-unsel" transform="translate(103.000000, 97.000000)">
                <g id="Group">
                    <g id="Oval-61-+-Oval-62">
                        <g id="Group">
                            <path d="M16.5,32 C22.182,32 27.5,29.136 27.5,24.75 C27.5,21.828 21.93,17.5 16.5,17.5 C10.75,17.5 5.5,21.352 5.5,24.75 C5.5,29.136 10.818,32 16.5,32 L16.5,32 Z M16.5,33 C12,33 4.5,30.75 4.5,24.75 C4.5,21 9.873,16.5 16.5,16.5 C23.127,16.5 28.5,21.75 28.5,24.75 C28.5,30.75 21,33 16.5,33 L16.5,33 Z" id="Shape"></path>
                            <path d="M16.5,16 C19.26,16 21.5,13.76 21.5,11 C21.5,8.24 19.26,6 16.5,6 C13.74,6 11.5,8.24 11.5,11 C11.5,13.76 13.74,16 16.5,16 L16.5,16 Z M16.5,17 C13.186,17 10.5,14.314 10.5,11 C10.5,7.686 13.186,5 16.5,5 C19.814,5 22.5,7.686 22.5,11 C22.5,14.314 19.814,17 16.5,17 L16.5,17 Z" id="Shape"></path>
                            <path d="M16.5,32 C25.06,32 32,25.06 32,16.5 C32,7.94 25.06,1 16.5,1 C7.94,1 1,7.94 1,16.5 C1,25.06 7.94,32 16.5,32 L16.5,32 Z M16.5,33 C7.387,33 0,25.613 0,16.5 C0,7.387 7.387,0 16.5,0 C25.613,0 33,7.387 33,16.5 C33,25.613 25.613,33 16.5,33 L16.5,33 Z" id="Shape"></path>
                        </g>
                    </g>
                </g>
            </g>
        </g>
    </g>
</svg>