<?xml version="1.0" encoding="UTF-8"?>
<svg width="17px" height="18px" viewBox="0 0 17 18" version="1.1" xmlns="http://www.w3.org/2000/svg" xmlns:xlink="http://www.w3.org/1999/xlink">
    <!-- Generator: Sketch 46.2 (44496) - http://www.bohemiancoding.com/sketch -->
    <title>Home_Unselected</title>
    <desc>Created with Sketch.</desc>
    <defs></defs>
    <g id="Published-Mobile" stroke="none" stroke-width="1" fill="none" fill-rule="evenodd">
        <g id="2.8-|-Technical-Support" transform="translate(-24.000000, -12.000000)" stroke="#666666">
            <path d="M30.4686279,28.5213744 L30.4686279,22.5184446 C30.4686279,21.9703723 30.9177386,21.5143001 31.4700936,21.5155686 L33.4993049,21.5202287 C34.0566561,21.5215086 34.4984741,21.9696712 34.4984741,22.5234647 L34.4984741,28.5028216 L39.996852,28.5028216 C40.2813497,28.5028216 40.5,28.2828415 40.5,28.0013196 L40.5,19.754056 C40.5,19.3437032 40.2235012,18.7528841 39.9096163,18.4889419 L32.9628592,12.647413 C32.7214241,12.4508085 32.2969828,12.4509162 32.0613029,12.6427656 L25.0917769,18.4893217 C24.77791,18.7526165 24.5,19.3477786 24.5,19.754056 L24.5,28.0013196 C24.5,28.2837819 24.7210079,28.5048877 24.9998687,28.5056876 L30.4686279,28.5213744 Z" id="Home_Unselected"></path>
        </g>
    </g>
</svg>