<?xml version="1.0" encoding="UTF-8"?>
<svg width="161px" height="99px" viewBox="0 0 161 99" version="1.1" xmlns="http://www.w3.org/2000/svg" xmlns:xlink="http://www.w3.org/1999/xlink">
    <!-- Generator: Sketch 45.2 (43514) - http://www.bohemiancoding.com/sketch -->
    <title>icon-sprite-desktop</title>
    <desc>Created with Sketch.</desc>
    <defs>
        <rect id="path-1" x="5.96551724" y="0" width="4.46896552" height="1.92413793" rx="0.5"></rect>
    </defs>
    <g id="Page-1" stroke="none" stroke-width="1" fill="none" fill-rule="evenodd">
        <g id="icon-sprite-desktop">
            <g id="Group-11">
                <g id="Tick" transform="translate(124.538462, 25.333333)" fill-rule="nonzero">
                    <ellipse id="Oval" stroke="#127354" stroke-width="1.01" fill="#168C67" cx="8.60897436" cy="8.61333333" rx="8.60897436" ry="8.61333333"></ellipse>
                    <polyline id="Shape" fill="#FFFFFF" points="13.3332515 5.27218032 7.04460073 13.7239111 3.44358974 9.76998095 4.59965201 8.34262857 6.91013675 10.8322921 11.9049817 3.90471111"></polyline>
                </g>
                <g id="Tick" transform="translate(120.487179, 54.720000)" stroke="#127354" stroke-width="1.01">
                    <ellipse id="Oval" cx="8.60897436" cy="8.61333333" rx="8.60897436" ry="8.61333333"></ellipse>
                </g>
                <g id="Group" transform="translate(3.000000, 23.306667)" stroke="#14805E" stroke-width="1.01">
                    <ellipse id="Oval" cx="16.2051282" cy="16.2133333" rx="16.2051282" ry="16.2133333"></ellipse>
                    <path d="M16.4988462,32.2037333 C20.9755128,32.2037333 28.44,29.9541333 28.44,23.9552 C28.44,20.9557333 23.0923077,15.7066667 16.4988462,15.7066667 C9.90335897,15.7066667 4.55769231,20.2058667 4.55769231,23.9552 C4.55769231,29.9541333 12.0201538,32.2037333 16.4988462,32.2037333 L16.4988462,32.2037333 Z" id="Shape"></path>
                    <ellipse id="Oval" cx="16.3205897" cy="9.23552" rx="5.68597436" ry="5.68885333"></ellipse>
                </g>
                <g id="Group" transform="translate(37.435897, 23.306667)">
                    <path d="M17.6666282,5.72026667 C17.6666282,5.72026667 18.2013974,2.75930667 16.1473974,2.75930667 C14.0913718,2.75930667 1.30248718,2.92144 1.30248718,2.92144 C1.30248718,2.92144 0.407153846,3.42304 0.407153846,4.34010667 C0.407153846,5.25818667 1.30248718,5.72026667 1.30248718,5.72026667 L17.667641,5.72026667 L17.6666282,5.72026667 Z" id="Shape" stroke="#777777" stroke-width="1.01"></path>
                    <path d="M0.445641026,4.51946667 L0.445641026,19.0810667 C0.445641026,19.0810667 0.131666667,20.9506667 2.70017949,20.9506667 C4.70961538,20.9506667 15.7837949,21.0986133 17.4367179,20.9506667 C19.089641,20.80272 19.0926795,19.5928 19.0926795,19.0111467 C19.0926795,16.3359467 19.1331923,7.26661333 19.1331923,7.26661333 C19.1331923,7.26661333 18.8840385,6.05669333 17.628141,5.7608" id="Shape" stroke="#777777" stroke-width="1.01"></path>
                    <rect id="Rectangle-path" stroke="#777777" stroke-width="1.01" fill="#EBEBEB" fill-rule="nonzero" x="14.6423462" y="11.23888" width="5.43479487" height="4.10704" rx="2.02"></rect>
                    <circle id="Oval" fill="#777777" fill-rule="nonzero" cx="16.6193718" cy="13.21792" r="1"></circle>
                    <circle id="Oval" fill="#777777" fill-rule="nonzero" cx="2.42064103" cy="19.1570667" r="1"></circle>
                    <circle id="Oval" fill="#777777" fill-rule="nonzero" cx="4.39665385" cy="19.1570667" r="1"></circle>
                    <circle id="Oval" fill="#777777" fill-rule="nonzero" cx="6.37367949" cy="19.1570667" r="1"></circle>
                    <circle id="Oval" fill="#777777" fill-rule="nonzero" cx="8.34969231" cy="19.1570667" r="1"></circle>
                    <circle id="Oval" fill="#777777" fill-rule="nonzero" cx="2.42064103" cy="7.52704" r="1"></circle>
                    <circle id="Oval" fill="#777777" fill-rule="nonzero" cx="4.39665385" cy="7.52704" r="1"></circle>
                    <circle id="Oval" fill="#777777" fill-rule="nonzero" cx="6.37367949" cy="7.52704" r="1"></circle>
                    <circle id="Oval" fill="#777777" fill-rule="nonzero" cx="8.34969231" cy="7.52704" r="1"></circle>
                    <circle id="Oval" fill="#777777" fill-rule="nonzero" cx="10.3257051" cy="19.1570667" r="1"></circle>
                    <circle id="Oval" fill="#777777" fill-rule="nonzero" cx="10.3257051" cy="7.52704" r="1"></circle>
                    <circle id="Oval" fill="#777777" fill-rule="nonzero" cx="12.3017179" cy="19.1570667" r="1"></circle>
                    <circle id="Oval" fill="#777777" fill-rule="nonzero" cx="12.3017179" cy="7.52704" r="1"></circle>
                    <circle id="Oval" fill="#777777" fill-rule="nonzero" cx="14.2787436" cy="19.1570667" r="1"></circle>
                    <circle id="Oval" fill="#777777" fill-rule="nonzero" cx="14.2787436" cy="7.52704" r="1"></circle>
                    <circle id="Oval" fill="#777777" fill-rule="nonzero" cx="16.2547564" cy="19.1570667" r="1"></circle>
                    <circle id="Oval" fill="#777777" fill-rule="nonzero" cx="17.2422564" cy="18.16704" r="1"></circle>
                    <circle id="Oval" fill="#777777" fill-rule="nonzero" cx="17.2422564" cy="16.6825067" r="1"></circle>
                    <circle id="Oval" fill="#777777" fill-rule="nonzero" cx="16.2547564" cy="7.52704" r="1"></circle>
                    <circle id="Oval" fill="#777777" fill-rule="nonzero" cx="17.2422564" cy="8.51706667" r="1"></circle>
                    <circle id="Oval" fill="#777777" fill-rule="nonzero" cx="17.2422564" cy="10.0016" r="1"></circle>
                    <path d="M3.19848718,5.70304 L12.9924615,0 L16.3722436,5.72026667 L3.19747436,5.72026667 C3.19747436,5.72026667 3.18734615,5.71013333 3.19747436,5.70304 L3.19848718,5.70304 Z" id="Shape" stroke="#777777" stroke-width="1.01" fill="#EBEBEB" fill-rule="nonzero"></path>
                    <path d="M5.89664103,5.73749333 L11.0144231,2.64986667 C11.0144231,2.64986667 11.1967308,3.24368 11.7092179,3.4504 C12.2217051,3.65914667 12.8537051,3.4504 12.8537051,3.4504 L14.3040641,5.73749333" id="Shape" stroke="#777777" stroke-width="1.01"></path>
                </g>
                <g id="Group" transform="translate(59.717949, 23.306667)">
                    <path d="M23.4235,7.45002667 C23.0386282,7.82293333 22.5251282,8.05093333 21.9589615,8.05093333 C20.7709231,8.05093333 19.8067179,7.04266667 19.8067179,5.79829333 C19.8067179,4.55493333 20.7709231,3.54666667 21.9599744,3.54666667 C22.5271538,3.54666667 23.0416667,3.77466667 23.4255256,4.14757333 C23.8103974,3.77466667 24.3238974,3.54666667 24.8900641,3.54666667 C26.0791154,3.54666667 27.0433205,4.55493333 27.0433205,5.79829333 C27.0433205,7.04266667 26.0781026,8.05093333 24.8890513,8.05093333 C24.3218718,8.05093333 23.8083718,7.82293333 23.4245128,7.45002667 L23.4235,7.45002667 Z" id="Shape" stroke="#777777" stroke-width="1.01"></path>
                    <rect id="Rectangle-path" stroke="#777777" stroke-width="1.01" x="0" y="0" width="29.9025128" height="17.2266667" rx="2.02"></rect>
                    <g id="0000-000" transform="translate(2.025641, 4.053333)" font-size="3.46733" font-family="HelveticaNeue, Helvetica Neue" fill="#777777" font-weight="normal">
                        <g id="Group">
                            <text id="0000-000">
                                <tspan x="0" y="3">0000 000</tspan>
                            </text>
                        </g>
                    </g>
                    <g id="CARD" transform="translate(2.025641, 10.133333)" font-size="4.23695" font-family="HelveticaNeue-Bold, Helvetica Neue" fill="#777777" font-weight="bold">
                        <g id="Group">
                            <text id="CARD">
                                <tspan x="0.465897436" y="4.50666667">CARD</tspan>
                            </text>
                        </g>
                    </g>
                </g>
                <g id="Group-4" transform="translate(84.038462, 46.626667)" fill-rule="nonzero" fill="#41B590">
                    <polygon id="Path-840" points="0.765746111 1.41777949 10.4257855 11.334265 11.1492568 10.6295031 1.48921739 0.713017608"></polygon>
                    <polygon id="Path-840-Copy" points="10.4257855 0.713017608 0.765746111 10.6295031 1.48921739 11.334265 11.1492568 1.41777949"></polygon>
                </g>
                <g id="GreyCross" transform="translate(84.038462, 62.840000)" fill-rule="nonzero" fill="#666666">
                    <polygon id="Path-840" points="0.765746111 1.41777949 10.4257855 11.334265 11.1492568 10.6295031 1.48921739 0.713017608"></polygon>
                    <polygon id="Path-840-Copy" points="10.4257855 0.713017608 0.765746111 10.6295031 1.48921739 11.334265 11.1492568 1.41777949"></polygon>
                </g>
                <g id="WhiteCross" transform="translate(148.846154, 30.400000)" stroke="#FFFFFF" stroke-width="1.01">
                    <path d="M0.127481749,0.0653985507 L9.78752114,9.98188406" id="Path-840"></path>
                    <path d="M0.12748175,0.0653985507 L9.78752114,9.98188406" id="Path-840-Copy" transform="translate(4.957501, 5.023641) scale(-1, 1) translate(-4.957501, -5.023641) "></path>
                </g>
                <polygon id="Shape" fill="#A7A7A7" fill-rule="nonzero" points="103.622594 51.3075777 102.925875 52.0276593 108.929944 57.3075777 114.925875 52.0375413 114.22935 51.3172886 108.930124 55.9749667"></polygon>
                <g id="Group-5" transform="translate(0.000000, 0.013333)" fill-rule="nonzero" fill="#777777">
                    <path d="M10.1892747,4.86390755 C10.2368359,4.85664046 10.2840196,4.84698491 10.3307094,4.83512128 C10.3719444,4.82464366 10.4127941,4.81244376 10.4531784,4.7986458 C10.5425704,4.7681035 10.612717,4.73527691 10.6616382,4.70719216 L10.4102126,4.26923077 L10.1140741,4.678287 L10.5182902,4.97092147 L10.8144287,4.56186523 L10.3329275,4.4096103 L9.97450097,5.54312238 C9.85971734,5.6361788 9.72062299,5.7494455 9.58134623,5.86377872 C9.29657419,6.0976825 9.12530993,6.24184089 9.05749433,6.3078979 C9.12231287,6.24476022 8.93118552,6.2810319 8.77396311,6.28591642 C8.5811959,6.29190524 8.40450334,6.26537298 8.43687119,6.29350786 C8.44075455,6.29688337 8.32404935,6.19143775 8.26986042,6.14520555 C8.16945306,6.05954133 8.06717591,5.98104537 7.95428571,5.90608261 C7.66976625,5.71715245 7.35536572,5.57638479 7.00196721,5.49966126 C6.5547163,5.40256218 6.07298606,5.41573378 5.56106981,5.55599488 C3.60625958,6.0915978 2.83346281,10.2072054 4.91032506,10.9572351 C5.55391736,11.1896594 6.03683452,11.1956184 6.61466922,11.0697601 C6.85430569,11.0175648 6.88878764,11.0128088 6.86502752,11.0042755 C6.82447446,10.989711 6.85181792,11.0298788 6.91475785,11.2261886 C6.93966422,11.3038716 6.96528203,11.3955526 6.99181467,11.5024862 C7.08080081,11.8611239 7.19227253,12.1427981 7.32864058,12.3620049 C7.43598346,12.5345547 7.55732451,12.6665914 7.69452857,12.7681276 C7.67143193,12.8186793 7.64314037,12.8787642 7.60921255,12.9486761 C6.9973175,14.2095508 7.92995832,15.6618027 8.84035671,16.0735478 C9.63229568,16.4317174 10.998404,15.8538632 11.666395,14.4640426 C11.7009861,14.3920724 11.7361357,14.324198 11.7718311,14.2601868 C11.9250761,13.985379 12.0799587,13.7930219 12.2524305,13.638983 C12.3379272,13.5626237 12.6307662,13.347371 12.6841484,13.3000465 C12.9703042,13.0463632 13.0569905,12.7253027 12.9347056,12.3233223 C12.9000692,12.2094639 12.8588092,12.1052061 12.8079902,11.9965733 C12.78086,11.9385788 12.7046185,11.7875034 12.7010365,11.7800908 C12.6811127,11.7388606 12.6729526,11.7178313 12.6716423,11.7117956 C12.6765987,11.7346266 12.7162215,11.6711935 13.0291932,11.408792 C13.5404717,10.9801264 13.947101,10.355666 14.0674941,9.81374018 C14.2435171,9.02140742 13.7602634,8.43293369 12.889283,8.60329339 C12.7684353,8.62693065 12.7499189,8.60259753 12.6843003,8.22424454 C12.6744582,8.16749528 12.6662358,8.1147175 12.6485174,7.99812052 C12.5929189,7.63682817 12.5449927,7.41041307 12.4376546,7.26070503 C12.5828266,7.14727835 12.7645725,7.08866312 12.9205862,7.11626683 C14.1213499,7.32871945 15.1298702,7.22746904 15.3034876,6.49119026 C15.3112473,6.45828308 15.4096935,6.30025987 15.8626582,5.60455492 C15.8950628,5.5547359 15.8950628,5.5547359 15.9275024,5.50461171 C16.1477976,5.16370139 16.2952825,4.91900878 16.4006351,4.70852286 C16.6306986,4.24887437 16.6972788,3.97191524 16.3927328,3.68113716 L15.695258,4.41163628 C15.5597673,4.28227078 15.5496483,4.16785929 15.5688667,4.08791472 C15.5622372,4.11549188 15.5379834,4.1754821 15.4974518,4.25646098 C15.4132452,4.42469896 15.2805307,4.64488597 15.0792032,4.95644343 C15.0478421,5.0049013 15.0478421,5.0049013 15.016251,5.05346978 C14.974003,5.11835822 14.9065169,5.22143208 14.7991838,5.38553434 C14.7158037,5.51340056 14.654489,5.60887602 14.6004618,5.69559918 C14.4388526,5.95500999 14.3554977,6.11074704 14.3204482,6.25938567 C14.3483131,6.14121581 14.2976279,6.16446333 14.1289998,6.18139275 C13.8488118,6.20952223 13.4677484,6.18738988 13.0965537,6.12171394 C12.5582228,6.02646638 12.0190181,6.23975173 11.6481143,6.61379622 C11.4731518,6.79024029 11.3478345,6.99292776 11.3047839,7.20189442 C11.2444504,7.49475151 11.3573297,7.78026002 11.6103257,7.92663146 C11.621655,7.9759877 11.6340527,8.046367 11.6502682,8.15173896 C11.6678525,8.26764961 11.6775817,8.33009905 11.6891558,8.39683463 C11.8386909,9.25904562 12.2213451,9.76233499 13.0815021,9.59483423 C13.0118934,9.90792603 12.7288143,10.3426158 12.3802869,10.6348278 C11.8058761,11.1164248 11.5854684,11.4692811 11.6846328,11.9260671 C11.7062617,12.0256974 11.7400239,12.112706 11.7916482,12.2195369 C11.8015343,12.2399953 11.8738113,12.3832148 11.8931449,12.4245431 C11.9197271,12.4813662 11.9408701,12.5331071 11.9585161,12.5861414 C11.8652197,12.6561848 11.6780206,12.797822 11.5796423,12.8856862 C11.3239996,13.1140071 11.0981525,13.3944989 10.8897156,13.7682802 C10.8439848,13.8502873 10.7994438,13.9362967 10.756081,14.0265173 C10.3164157,14.941284 9.52654281,15.2753947 9.25656086,15.1532902 C8.79876652,14.9462439 8.20850128,14.0271185 8.51786578,13.3896402 C8.8892072,12.6244518 8.93765398,12.3175796 8.4410281,12.0373107 C8.21145105,11.9077498 8.25527976,11.9394829 8.18623565,11.8284969 C8.11037107,11.7065473 8.03719065,11.5216301 7.97209008,11.2592576 C7.94041618,11.1316034 7.90882092,11.0185304 7.8765343,10.9178283 C7.72691104,10.451153 7.53724932,10.1725382 7.20641502,10.0537206 C6.95667227,9.96402662 6.92614557,9.96823703 6.39972048,10.0828978 C5.99348492,10.1713801 5.69767026,10.1677299 5.25338688,10.0072832 C4.20957161,9.63032391 4.73550377,6.82941885 5.82796514,6.53009286 C6.18304461,6.43280383 6.49969779,6.42414581 6.78768591,6.48666861 C7.01048062,6.5350378 7.21056143,6.62462069 7.39557388,6.74747496 C7.47212547,6.7983077 7.54290333,6.8526285 7.61432402,6.91356225 C7.65493955,6.94821407 7.76694851,7.04941655 7.77427915,7.05578851 C8.16971002,7.3995062 9.42433438,7.36052804 9.76222973,7.03139497 C9.79927613,6.99530925 9.97159313,6.85026475 10.2092016,6.65509714 C10.4115697,6.48896875 10.6012962,6.33494533 10.7274233,6.23312616 L10.8458329,6.13753715 L11.4058297,4.36656588 L10.4419121,3.66873249 L10.158787,3.83126938 C10.0146105,3.88116492 9.90709364,3.87823285 9.80657871,3.81318222 C9.72202911,3.75846393 9.63549835,3.65959339 9.55124021,3.50033188 C9.55222084,3.50218543 9.5766809,3.43230979 9.73221461,3.26500849 C9.95476285,3.02562237 10.3342475,2.74994229 10.8202284,2.46428523 C11.1377111,2.2776706 11.4801382,2.09839949 11.8228308,1.93367124 C12.0282636,1.83492209 12.1869797,1.7634862 12.2750131,1.72588408 L11.8782822,0.797065138 C11.7772754,0.840208671 11.605171,0.917670475 11.3852634,1.02337745 C11.0190551,1.19940942 10.6525813,1.39126972 10.3084231,1.59356409 C9.74517977,1.92463559 9.295731,2.25114174 8.99249566,2.5773197 C8.57760336,3.02360253 8.40987819,3.5027469 8.65848285,3.97264989 C8.82011622,4.27816308 9.02128633,4.50802119 9.25782618,4.66110359 C9.56333892,4.85882345 9.88407879,4.9105398 10.1892747,4.86390755 Z" id="Path-59"></path>
                    <path d="M9.5,18.505 C14.4733242,18.505 18.505,14.4733242 18.505,9.5 C18.505,4.52667583 14.4733242,0.495 9.5,0.495 C4.52667583,0.495 0.495,4.52667583 0.495,9.5 C0.495,14.4733242 4.52667583,18.505 9.5,18.505 Z M9.5,17.495 C5.08448343,17.495 1.505,13.9155166 1.505,9.5 C1.505,5.08448343 5.08448343,1.505 9.5,1.505 C13.9155166,1.505 17.495,5.08448343 17.495,9.5 C17.495,13.9155166 13.9155166,17.495 9.5,17.495 Z" id="Oval-2"></path>
                </g>
                <path d="M32.2126579,9.00658859 C32.3062673,8.85548141 32.4310059,8.63167071 32.5558914,8.36360559 C32.6835644,8.08955694 32.7858592,7.81955288 32.8534646,7.55894245 C32.9107629,7.33806461 32.9419545,7.1281736 32.9419545,6.92930891 C32.9419545,6.7639967 32.8968455,6.59128247 32.8188777,6.38979739 C32.792943,6.32277656 32.7636083,6.25385134 32.7314637,6.18347275 C32.6900577,6.09281716 32.6489007,6.00968981 32.6122634,5.93946344 L32.6122637,3.66942572 C32.5281419,3.20038197 32.3391914,2.6769414 31.9792759,2.14861424 C31.83837,1.94177562 31.6792488,1.75051496 31.5004927,1.57843107 C30.6525465,0.762135523 29.6092527,0.369347569 27.7955911,0.547153378 C26.7921444,0.645528209 26.0038681,1.14852724 25.4190058,1.91035102 C25.0340044,2.41184216 24.8113269,2.91017591 24.7106468,3.26170114 L24.6911271,3.40074725 L24.6911271,6.06892476 C24.6468485,6.14947985 24.5984956,6.24797857 24.5507283,6.36216692 C24.3293722,6.89132121 24.2528398,7.44836083 24.422233,7.99386491 C24.5004428,8.24572683 24.629663,8.48146159 24.8116434,8.69516484 C24.835875,8.73240488 24.839163,8.74805475 24.8456748,8.78778039 C24.9053253,9.15168295 24.989095,9.38891417 25.2645289,9.81510443 C25.4879042,10.1607422 25.7194112,10.485669 25.9462075,10.7810515 C25.9784316,10.8230206 26.0089456,10.8623224 26.0375816,10.8988378 C25.9992118,10.9656554 25.9530487,11.0416023 25.8986966,11.1252587 C25.6467836,11.5129923 25.3186423,11.9026845 24.9064671,12.2672568 C24.1093355,12.9723263 23.0988688,13.4956009 21.8434777,13.7611651 C20.4634233,14.0531004 19.9163216,14.7072744 19.7896061,15.7930372 C19.7790769,15.8832568 19.7732595,15.9473019 19.7598739,16.1087718 C19.7155053,16.6431329 19.7432205,17.1747815 19.8155917,17.6793648 C19.844734,17.8825494 19.8743991,18.0365206 19.8954921,18.127208 L19.985772,18.5153584 L20.6178074,18.5192218 C21.5260777,18.5247735 22.7638122,18.5271631 24.2489529,18.526925 C25.37893,18.5267438 26.5892026,18.5250618 27.8033715,18.5223709 C28.2544344,18.5213712 28.6743607,18.5203001 29.0520555,18.519229 C29.4408735,18.5180864 29.4408735,18.5180864 29.527595,18.5178005 L36.7711826,18.5178033 L37.6548124,18.5178033 L37.6979095,18.0601495 C37.702266,18.0138876 37.7085241,17.936528 37.7147267,17.8382396 C37.7247082,17.6800694 37.7308694,17.5218461 37.7313009,17.3719094 C37.7319359,17.1512591 37.7204743,16.9658586 37.6905606,16.8144234 C37.6949225,16.8365051 37.6991493,16.7867387 37.7182274,16.6255197 C37.7900759,16.0183662 37.7508996,15.5707564 37.4687903,15.0757665 C37.1590728,14.5323354 36.5959329,14.0979787 35.7483488,13.7820369 C35.6127381,13.7314872 35.473551,13.6735122 35.3310746,13.6083762 C34.6889416,13.3148123 33.9968568,12.8844553 33.2829018,12.3536107 C32.7742013,11.9753783 32.2847928,11.5690915 31.8334573,11.1628563 C31.7035303,11.0459124 31.5907143,10.9417537 31.497033,10.8534915 L32.2126579,9.00658859 Z M20.765495,16.2033785 C20.778845,16.042346 20.78404,15.9851529 20.7927973,15.9101161 C20.8711265,15.2389513 21.1147281,14.9476749 22.0525064,14.7492982 C23.4827926,14.4467369 24.6505722,13.8419971 25.5756213,13.0237836 C26.4076463,12.2878506 26.8902975,11.5449747 27.1028209,11.025705 L27.2195519,10.7404901 L27.0192854,10.5062529 C26.9680062,10.4462755 26.8729808,10.3296376 26.7473093,10.1659613 C26.5362826,9.89111734 26.3203945,9.58811219 26.1127998,9.26689245 C25.918785,8.96668528 25.8808874,8.85936115 25.8423732,8.62440265 C25.8283102,8.53860988 25.8166622,8.48317036 25.7948039,8.41518715 C25.7517528,8.28129107 25.6829462,8.16051946 25.5806112,8.04034546 C25.4875902,7.93110889 25.4246862,7.81635402 25.3867983,7.6943422 C25.2990601,7.41179532 25.3443485,7.08216518 25.482488,6.75194104 C25.5361519,6.62365681 25.5881329,6.53027948 25.6162524,6.48811975 L25.7011271,6.36086688 L25.7011271,3.47920498 C25.7214733,3.42069792 25.753658,3.33779689 25.7986438,3.23712242 C25.9073112,2.99393386 26.0473483,2.75047227 26.2201432,2.52539488 C26.6462245,1.97039442 27.1937876,1.62099441 27.894136,1.55233441 C29.4037159,1.40433983 30.1585438,1.68852374 30.8000237,2.30605961 C30.9267818,2.42808625 31.0415259,2.5660065 31.1445602,2.71725263 C31.3030892,2.94996054 31.4264764,3.20224431 31.5175303,3.45448636 C31.571245,3.60328956 31.6012847,3.71476414 31.6121515,3.76886848 L31.6022634,6.06738177 L31.6022633,6.20053206 L31.6679133,6.31637284 C31.7024981,6.3773984 31.7579702,6.48313707 31.8127542,6.60308317 C31.8370434,6.65626284 31.8586812,6.70710328 31.8769423,6.75429371 C31.9133275,6.84832073 31.9319545,6.91964037 31.9319545,6.92930891 C31.9319545,7.03463393 31.9130552,7.16180928 31.8758239,7.30533109 C31.8253264,7.49999277 31.7440161,7.71460903 31.6403697,7.93708468 C31.524009,8.18685136 31.4074696,8.39171416 31.3338738,8.50678728 L31.2884193,8.59641953 L30.3157317,11.1067565 L30.5469771,11.3393839 C30.6635486,11.456652 30.8729878,11.6572287 31.1577723,11.9135558 C31.6311038,12.3395891 32.1442364,12.7655707 32.680265,13.1641222 C33.4467234,13.7340045 34.1964381,14.2001974 34.9111366,14.526936 C35.075119,14.6019039 35.2366314,14.6691779 35.3955769,14.7284258 C36.034943,14.9667532 36.408242,15.2546832 36.5912986,15.5758749 C36.7415926,15.8395812 36.763953,16.0950603 36.7152258,16.506828 C36.6705915,16.8840086 36.6718538,16.8691467 36.6997072,17.0101516 C36.7138685,17.081842 36.721764,17.2095569 36.7213051,17.3690028 C36.7211756,17.4139966 36.7204171,17.4604224 36.7191019,17.5078033 L29.5259301,17.5078033 C29.4377553,17.5080912 29.4377553,17.5080912 29.0491912,17.5092331 C28.6716975,17.5103036 28.2519785,17.5113741 27.8011331,17.5123733 C26.5876051,17.5150628 25.3779969,17.5167439 24.248791,17.516925 C22.8656262,17.5171468 21.6975422,17.5150867 20.81173,17.510318 C20.7520452,17.0829071 20.7297676,16.6336602 20.765495,16.2033785 Z" id="Path-1" fill="#777777" fill-rule="nonzero"></path>
                <g id="Group-6" transform="translate(67.794872, 0.000000)" fill-rule="nonzero" fill="#777777">
                    <path d="M10.6897626,10.2019287 C10.4556745,10.294388 9.7811863,10.468745 9.37352941,10.8315823 C8.96768169,11.1928094 9.20912128,11.9688312 9.20912128,11.9688312 L15.0302595,11.9688312 C15.0302595,11.9688312 15.2003133,11.2249059 14.8947467,10.9233228 C14.5771933,10.6099093 13.9019838,10.4043619 13.4596385,10.2019287 C13.0536541,10.0161354 12.9305228,9.51628521 12.9305228,9.51628521 C12.9305228,9.51628521 13.1199075,8.99736755 13.3620871,8.25939085 C13.5400646,7.71705267 13.6108939,6.91894096 13.5482918,6.36815334 C13.3758509,4.85097942 11.493294,4.20990546 10.7378885,5.8013502 C10.56084,6.17434575 10.4364843,7.30944992 10.7378885,8.16937896 C10.9536476,8.78495593 11.2835511,9.59153228 11.2835511,9.59153228 C11.2835511,9.59153228 11.2438615,9.9830726 10.6897626,10.2019287 Z M9.92231815,9.04262747 C9.89735634,8.97650235 9.89735634,8.97650235 9.8724326,8.90984072 C9.82079406,8.7713651 9.77371931,8.64175677 9.73187524,8.52237247 C9.37776999,7.51208328 9.42886436,6.07274123 9.77489347,5.34374707 C10.9871378,2.78986061 14.3117975,3.64556365 14.6075462,6.24762712 C14.6887157,6.96177522 14.5977871,7.91316246 14.3749661,8.59214908 C14.2904291,8.84975263 14.2073531,9.09610507 14.1277532,9.32682561 C14.1054686,9.39141749 14.0834565,9.45478419 14.061761,9.51682962 C14.0018865,9.68806084 13.9571941,9.81293104 13.9319281,9.88216032 L12.9305228,9.51628521 L13.9656277,9.26102132 C13.972524,9.26744214 13.9784198,9.27899599 13.9846025,9.28797062 C13.9806324,9.28220781 13.9720493,9.27334443 13.9577209,9.26297119 C13.9446059,9.25347633 13.9266773,9.24271649 13.9030669,9.23191154 C13.9162544,9.2379466 13.9378549,9.24730968 13.9651231,9.25889541 C14.0117929,9.27869847 14.0682222,9.30220911 14.1277532,9.32682561 C14.3144391,9.40402159 14.531628,9.49209282 14.4630103,9.4636811 C15.0062968,9.68863334 15.3473163,9.87170401 15.6434102,10.1639378 C15.9594161,10.475824 16.0963652,10.8624137 16.1337069,11.2910828 C16.1544442,11.5291405 16.141656,11.7623476 16.1089365,11.9885063 C16.0956741,12.0801762 16.0814856,12.1542463 16.069506,12.2066531 L15.8800404,13.0354978 L8.42444578,13.0354978 L8.19121904,12.2858733 C8.17156768,12.222711 8.14871275,12.1349735 8.12743197,12.0266888 C8.07376324,11.7536021 8.05326238,11.4705004 8.08951353,11.178312 C8.14369812,10.741578 8.32045773,10.3412416 8.66496121,10.0346144 C8.89375626,9.83097406 9.15916439,9.66864112 9.46252439,9.5279294 C9.5992799,9.46449618 9.83414883,9.37438904 10.0227985,9.30505117 C9.98867002,9.21690502 9.95506023,9.12917206 9.92231815,9.04262747 Z" id="Path-1"></path>
                    <path d="M6.09189625,15.778355 L17.053695,15.778355 C17.6476999,15.778355 18.1233914,15.3024299 18.1233914,14.711588 L18.1233914,2.13343363 C18.1233914,1.54436736 17.6441377,1.06666667 17.0499668,1.06666667 L6.90668473,1.06666667 C6.68613367,1.06667614 6.67191728,1.06667675 6.09189625,1.06670442 L6.09189625,14.8534568 C6.09189625,15.0850786 6.09189625,15.1015664 6.09189625,15.7008287 L6.09189625,15.778355 Z M5.02581441,16.8450216 L5.02581441,0.000105212109 C5.13406393,7.61764613e-05 6.90663894,0 6.90663894,0 L17.0499668,0 C18.2315835,0 19.1894732,0.953925802 19.1894732,2.13343363 L19.1894732,14.711588 C19.1894732,15.8898509 18.2381626,16.8450216 17.053695,16.8450216 L5.02581441,16.8450216 Z" id="-"></path>
                    <path d="M1.86538144,1.06666667 C1.42377889,1.06666667 1.06608184,1.42461267 1.06608184,1.86707346 L1.06608184,14.9779482 C1.06608184,15.423177 1.4200438,15.778355 1.86564323,15.778355 L2.66520461,15.778355 C2.66520461,15.1015664 2.66520461,15.0850786 2.66520461,14.8534568 L2.66520461,1.06666667 L1.86538144,1.06666667 Z M3.73128646,0.000105212109 L3.73128646,16.8450216 L1.86564323,16.8450216 C0.8280934,16.8450216 -4.8316906e-13,16.0091044 -4.8316906e-13,14.9779482 L-4.8316906e-13,1.86707346 C-4.8316906e-13,0.835347242 0.835159717,0 1.86538144,0 L2.77354322,0 C2.77354322,0 3.70684302,7.61764613e-05 3.73128646,0.000105212109 Z" id="--2"></path>
                </g>
                <g id="Group-2" transform="translate(92.000000, 0.000000)" fill-rule="nonzero" fill="#777777">
                    <path d="M10.4734535,1.47871055 L2.89521478,8.25187442 L4.09484053,8.25187442 L4.09484049,16.5432217 L16.6143886,16.5432217 L16.6143886,8.20204317 L18.0804948,8.20204317 L10.4734535,1.47871055 Z M10.4693498,1.13686838e-13 L21,9.30730633 L17.7196518,9.30730633 L17.7196518,17.6484848 L2.98957733,17.6484848 L2.98957737,9.35713757 L0,9.35713757 L10.4693498,1.13686838e-13 Z" id="Path-1626"></path>
                    <polygon id="Path-1627" points="12.1095905 11.8355943 12.1095904 17.6183163 13.2148535 17.6183163 13.2148537 10.7303312 7.90959049 10.7303312 7.90959049 17.6183163 9.01485364 17.6183163 9.01485364 11.8355943"></polygon>
                    <polygon id="Path-1628" points="17.1807017 2.36273259 17.1807018 6.7878788 18.2859649 6.78787878 18.2859648 1.25746943 13.9140351 1.25746943 13.9140351 4.2989899 15.0192982 4.2989899 15.0192982 2.36273259"></polygon>
                </g>
                <g id="Group-3" transform="translate(58.705128, 42.560000)">
                    <path d="M10.6346154,12.5704 C12.1686533,12.5704 13.4183824,11.3557628 13.4183824,9.8496 C13.4183824,8.34343718 12.1686533,7.1288 10.6346154,7.1288 C9.10057744,7.1288 7.85084842,8.34343718 7.85084842,9.8496 C7.85084842,11.3557628 9.10057744,12.5704 10.6346154,12.5704 Z M10.6346154,11.5064 C9.68112283,11.5064 8.91430995,10.7611189 8.91430995,9.8496 C8.91430995,8.9380811 9.68112283,8.1928 10.6346154,8.1928 C11.5881079,8.1928 12.3549208,8.9380811 12.3549208,9.8496 C12.3549208,10.7611189 11.5881079,11.5064 10.6346154,11.5064 Z" id="Oval-148" fill="#777777" fill-rule="nonzero"></path>
                    <path d="M10.6346154,18.0154 C15.2635294,18.0154 19.0217421,14.3627163 19.0217421,9.8496 C19.0217421,7.01650721 17.5279932,4.43362389 15.1172817,2.9467634 C13.7866709,2.12607926 12.2434811,1.6838 10.6346154,1.6838 C6.00570133,1.6838 2.24748869,5.33648367 2.24748869,9.8496 C2.24748869,14.3627163 6.00570133,18.0154 10.6346154,18.0154 Z M10.6346154,17.0054 C6.55717269,17.0054 3.25748869,13.7983697 3.25748869,9.8496 C3.25748869,5.90083031 6.55717269,2.6938 10.6346154,2.6938 C12.0552409,2.6938 13.4150247,3.08351498 14.5870782,3.80640534 C16.7044016,5.11231211 18.0117421,7.37287143 18.0117421,9.8496 C18.0117421,13.7983697 14.7120581,17.0054 10.6346154,17.0054 Z" id="Oval-149" fill="#777777" fill-rule="nonzero"></path>
                    <path d="M11.2097166,7.07900293 L11.2097166,0.513556641 C11.2097166,0.234652842 10.9836204,0.00855664063 10.7047166,0.00855664063 C10.4258128,0.00855664063 10.1997166,0.234652842 10.1997166,0.513556641 L10.1997166,7.07900293 C10.1997166,7.35790673 10.4258128,7.58400293 10.7047166,7.58400293 C10.9836204,7.58400293 11.2097166,7.35790673 11.2097166,7.07900293 Z" id="Line" fill="#777777" fill-rule="nonzero"></path>
                    <path d="M11.2097166,19.1304395 L11.2097166,12.1509268 C11.2097166,11.872023 10.9836204,11.6459268 10.7047166,11.6459268 C10.4258128,11.6459268 10.1997166,11.872023 10.1997166,12.1509268 L10.1997166,19.1304395 C10.1997166,19.4093433 10.4258128,19.6354395 10.7047166,19.6354395 C10.9836204,19.6354395 11.2097166,19.4093433 11.2097166,19.1304395 Z" id="Line" fill="#777777" fill-rule="nonzero"></path>
                    <path d="M5.11696408,15.5955729 L9.37994325,11.8471995 C9.58939436,11.6630323 9.60989101,11.3439416 9.4257238,11.1344905 C9.24155659,10.9250393 8.9224659,10.9045427 8.71301479,11.0887099 L4.45003562,14.8370833 C4.24058451,15.0212506 4.22008786,15.3403412 4.40425507,15.5497924 C4.58842228,15.7592435 4.90751297,15.7797401 5.11696408,15.5955729 Z" id="Line" fill="#777777" fill-rule="nonzero"></path>
                    <path d="M17.0170614,15.0381696 L12.7456976,11.0642899 C12.5415003,10.8743142 12.2219599,10.885843 12.0319842,11.0900403 C11.8420084,11.2942377 11.8535373,11.6137781 12.0577346,11.8037538 L16.3290983,15.7776335 C16.5332956,15.9676093 16.8528361,15.9560804 17.0428118,15.7518831 C17.2327876,15.5476858 17.2212587,15.2281454 17.0170614,15.0381696 Z" id="Line" fill="#777777" fill-rule="nonzero"></path>
                    <path d="M4.65456858,7.98409687 L9.01871343,4.55715" id="Line" stroke="#777777" stroke-width="1.01" stroke-linecap="round" transform="translate(6.836641, 6.270623) scale(-1, 1) rotate(-180.000000) translate(-6.836641, -6.270623) "></path>
                    <path d="M15.8241292,4.25905126 L12.0393504,7.60958251 C11.8305197,7.79445295 11.8110961,8.11361076 11.9959665,8.32244143 C12.180837,8.53127211 12.4999948,8.55069573 12.7088255,8.36582529 L16.4936043,5.01529404 C16.702435,4.83042361 16.7218586,4.5112658 16.5369882,4.30243512 C16.3521177,4.09360444 16.0329599,4.07418083 15.8241292,4.25905126 Z" id="Line" fill="#777777" fill-rule="nonzero"></path>
                    <path d="M20.5852894,9.071 L12.8866516,9.071 C12.6077478,9.071 12.3816516,9.2970962 12.3816516,9.576 C12.3816516,9.8549038 12.6077478,10.081 12.8866516,10.081 L20.5852894,10.081 C20.8641932,10.081 21.0902894,9.8549038 21.0902894,9.576 C21.0902894,9.2970962 20.8641932,9.071 20.5852894,9.071 Z" id="Line" fill="#777777" fill-rule="nonzero"></path>
                    <path d="M8.38257919,9.071 L0.876395123,9.071 C0.597491324,9.071 0.371395123,9.2970962 0.371395123,9.576 C0.371395123,9.8549038 0.597491324,10.081 0.876395123,10.081 L8.38257919,10.081 C8.66148298,10.081 8.88757919,9.8549038 8.88757919,9.576 C8.88757919,9.2970962 8.66148298,9.071 8.38257919,9.071 Z" id="Line" fill="#777777" fill-rule="nonzero"></path>
                    <path d="M13.194055,2.57885844 L13.8296394,1.32234243 C13.9555286,1.07346644 13.855828,0.769659289 13.606952,0.643770163 C13.358076,0.517881037 13.0542689,0.617581586 12.9283798,0.866457573 L12.2927953,2.12297359 C12.1669062,2.37184958 12.2666067,2.67565673 12.5154827,2.80154585 C12.7643587,2.92743498 13.0681659,2.82773443 13.194055,2.57885844 Z" id="Line" fill="#777777" fill-rule="nonzero"></path>
                    <path d="M9.12285266,2.1252194 L8.49510307,0.86870338 C8.37045426,0.61920387 8.06714713,0.517992374 7.81764762,0.642641175 C7.56814811,0.767289977 7.46693661,1.07059711 7.59158542,1.32009662 L8.21933501,2.57661264 C8.34398381,2.82611215 8.64729094,2.92732364 8.89679045,2.80267484 C9.14628996,2.67802604 9.24750146,2.3747189 9.12285266,2.1252194 Z" id="Line" fill="#777777" fill-rule="nonzero"></path>
                    <path d="M16.7216476,4.93402241 L17.8636791,3.98757749 C18.0784234,3.80961067 18.1082375,3.49125535 17.9302707,3.276511 C17.7523038,3.06176664 17.4339485,3.03195256 17.2192042,3.20991939 L16.0771728,4.15636431 C15.8624284,4.33433113 15.8326143,4.65268644 16.0105811,4.8674308 C16.188548,5.08217516 16.5069033,5.11198924 16.7216476,4.93402241 Z" id="Line" fill="#777777" fill-rule="nonzero"></path>
                    <path d="M5.29208042,4.28133866 L3.96029461,3.34337694 C3.7322681,3.18278043 3.41722689,3.23744326 3.25663039,3.46546978 C3.09603389,3.69349629 3.15069671,4.0085375 3.37872323,4.169134 L4.71050904,5.10709572 C4.93853556,5.26769222 5.25357676,5.2130294 5.41417326,4.98500288 C5.57476977,4.75697636 5.52010694,4.44193516 5.29208042,4.28133866 Z" id="Line" fill="#777777" fill-rule="nonzero"></path>
                    <path d="M3.88507225,5.80314082 L2.68209551,5.14765562 C2.43718859,5.01420927 2.13047266,5.10456591 1.99702631,5.34947283 C1.86357995,5.59437975 1.95393659,5.90109568 2.19884351,6.03454203 L3.40182026,6.69002723 C3.64672718,6.82347358 3.95344311,6.73311694 4.08688946,6.48821002 C4.22033582,6.2433031 4.12997917,5.93658717 3.88507225,5.80314082 Z" id="Line" fill="#777777" fill-rule="nonzero"></path>
                    <path d="M17.8061623,6.54367633 L19.1560919,5.77978726 C19.398827,5.64242999 19.4842526,5.33430428 19.3468953,5.09156922 C19.209538,4.84883416 18.9014123,4.76340859 18.6586772,4.90076586 L17.3087476,5.66465492 C17.0660125,5.8020122 16.980587,6.11013791 17.1179442,6.35287297 C17.2553015,6.59560803 17.5634272,6.6810336 17.8061623,6.54367633 Z" id="Line" fill="#777777" fill-rule="nonzero"></path>
                    <path d="M3.10491184,7.52195636 L1.64343876,7.15751261 C1.3728221,7.09002964 1.09873819,7.25470203 1.03125522,7.52531869 C0.963772241,7.79593535 1.12844463,8.07001926 1.39906129,8.13750223 L2.86053437,8.50194598 C3.13115103,8.56942896 3.40523494,8.40475657 3.47271791,8.13413991 C3.54020089,7.86352325 3.3755285,7.58943934 3.10491184,7.52195636 Z" id="Line" fill="#777777" fill-rule="nonzero"></path>
                    <path d="M18.5337103,8.50194598 L19.9951833,8.13750223 C20.2658,8.07001926 20.4304724,7.79593535 20.3629894,7.52531869 C20.2955064,7.25470203 20.0214225,7.09002964 19.7508059,7.15751261 L18.2893328,7.52195636 C18.0187161,7.58943934 17.8540437,7.86352325 17.9215267,8.13413991 C17.9890097,8.40475657 18.2630936,8.56942896 18.5337103,8.50194598 Z" id="Line" fill="#777777" fill-rule="nonzero"></path>
                    <path d="M12.2671435,17.5161554 L12.7100183,18.7726714 C12.8027312,19.0357145 13.0911283,19.1737945 13.3541714,19.0810816 C13.6172145,18.9883688 13.7552944,18.6999717 13.6625816,18.4369286 L13.2197068,17.1804126 C13.126994,16.9173695 12.8385968,16.7792895 12.5755537,16.8720024 C12.3125107,16.9647152 12.1744307,17.2531123 12.2671435,17.5161554 Z" id="Line" fill="#777777" fill-rule="nonzero"></path>
                    <path d="M8.20174436,17.1619078 L7.70278859,18.4184238 C7.59985588,18.6776384 7.72654734,18.9712168 7.9857619,19.0741495 C8.24497646,19.1770822 8.53855482,19.0503907 8.64148753,18.7911762 L9.14044331,17.5346601 C9.24337602,17.2754456 9.11668455,16.9818672 8.85746999,16.8789345 C8.59825544,16.7760018 8.30467707,16.9026933 8.20174436,17.1619078 Z" id="Line" fill="#777777" fill-rule="nonzero"></path>
                    <path d="M16.0771728,15.5428357 L17.2192042,16.4892806 C17.4339485,16.6672474 17.7523038,16.6374334 17.9302707,16.422689 C18.1082375,16.2079446 18.0784234,15.8895893 17.8636791,15.7116225 L16.7216476,14.7651776 C16.5069033,14.5872108 16.188548,14.6170248 16.0105811,14.8317692 C15.8326143,15.0465136 15.8624284,15.3648689 16.0771728,15.5428357 Z" id="Line" fill="#777777" fill-rule="nonzero"></path>
                    <path d="M4.71050904,14.5921043 L3.37872323,15.530066 C3.15069671,15.6906625 3.09603389,16.0057037 3.25663039,16.2337302 C3.41722689,16.4617567 3.7322681,16.5164196 3.96029461,16.3558231 L5.29208042,15.4178613 C5.52010694,15.2572648 5.57476977,14.9422236 5.41417326,14.7141971 C5.25357676,14.4861706 4.93853556,14.4315078 4.71050904,14.5921043 Z" id="Line" fill="#777777" fill-rule="nonzero"></path>
                    <path d="M3.49679295,13.060885 L2.17050527,13.7060092 C1.91969799,13.8280052 1.81527585,14.130222 1.9372719,14.3810293 C2.05926794,14.6318366 2.36148475,14.7362587 2.61229204,14.6142627 L3.93857971,13.9691385 C4.189387,13.8471424 4.29380914,13.5449256 4.17181309,13.2941183 C4.04981704,13.0433111 3.74760023,12.9388889 3.49679295,13.060885 Z" id="Line" fill="#777777" fill-rule="nonzero"></path>
                    <path d="M6.25907769,16.4177443 L5.52590136,17.4945767 C5.36893479,17.725117 5.42857808,18.0392534 5.65911837,18.19622 C5.88965867,18.3531865 6.20379504,18.2935432 6.36076161,18.063003 L7.09393794,16.9861705 C7.25090451,16.7556302 7.19126122,16.4414939 6.96072092,16.2845273 C6.73018063,16.1275607 6.41604426,16.187204 6.25907769,16.4177443 Z" id="Line" fill="#777777" fill-rule="nonzero"></path>
                    <path d="M17.3915028,14.0044867 L18.6831522,14.774521 C18.9227148,14.9173395 19.2326958,14.8389129 19.3755143,14.5993504 C19.5183328,14.3597879 19.4399062,14.0498068 19.2003437,13.9069883 L17.9086942,13.136954 C17.6691317,12.9941355 17.3591506,13.0725621 17.2163322,13.3121246 C17.0735137,13.5516871 17.1519403,13.8616682 17.3915028,14.0044867 Z" id="Line" fill="#777777" fill-rule="nonzero"></path>
                    <path d="M2.86053437,11.197254 L1.39906129,11.5616978 C1.12844463,11.6291807 0.963772241,11.9032647 1.03125522,12.1738813 C1.09873819,12.444498 1.3728221,12.6091704 1.64343876,12.5416874 L3.10491184,12.1772436 C3.3755285,12.1097607 3.54020089,11.8356768 3.47271791,11.5650601 C3.40523494,11.2944434 3.13115103,11.129771 2.86053437,11.197254 Z" id="Line" fill="#777777" fill-rule="nonzero"></path>
                    <path d="M18.2893328,12.1772436 L19.7508059,12.5416874 C20.0214225,12.6091704 20.2955064,12.444498 20.3629894,12.1738813 C20.4304724,11.9032647 20.2658,11.6291807 19.9951833,11.5616978 L18.5337103,11.197254 C18.2630936,11.129771 17.9890097,11.2944434 17.9215267,11.5650601 C17.8540437,11.8356768 18.0187161,12.1097607 18.2893328,12.1772436 Z" id="Line" fill="#777777" fill-rule="nonzero"></path>
                    <path d="M14.5340462,16.9861705 L15.2672225,18.063003 C15.4241891,18.2935432 15.7383254,18.3531865 15.9688657,18.19622 C16.199406,18.0392534 16.2590493,17.725117 16.1020827,17.4945767 L15.3689064,16.4177443 C15.2119398,16.187204 14.8978035,16.1275607 14.6672632,16.2845273 C14.4367229,16.4414939 14.3770796,16.7556302 14.5340462,16.9861705 Z" id="Line" fill="#777777" fill-rule="nonzero"></path>
                    <path d="M7.01553149,2.91738002 L6.18887152,1.7894183 C6.02400435,1.56446021 5.70798853,1.51574688 5.48303044,1.68061405 C5.25807234,1.84548122 5.20935902,2.16149704 5.37422618,2.38645513 L6.20088615,3.51441685 C6.36575332,3.73937495 6.68176914,3.78808827 6.90672723,3.62322111 C7.13168533,3.45835394 7.18039865,3.14233812 7.01553149,2.91738002 Z" id="Line" fill="#777777" fill-rule="nonzero"></path>
                    <path d="M15.3758022,3.69747667 L16.2185288,2.48965557 C16.3781202,2.26092445 16.3220714,1.94612688 16.0933402,1.78653552 C15.8646091,1.62694415 15.5498115,1.682993 15.3902202,1.91172412 L14.5474935,3.11954521 C14.3879021,3.34827633 14.443951,3.6630739 14.6726821,3.82266527 C14.9014132,3.98225663 15.2162108,3.92620779 15.3758022,3.69747667 Z" id="Line" fill="#777777" fill-rule="nonzero"></path>
                </g>
                <g id="Group-9" transform="translate(141.769231, 0.013333)" fill-rule="nonzero" fill="#777777">
                    <path d="M4.97166004,3.47434326 C5.1114462,3.21380267 5.31396261,2.94986103 5.59159729,2.7005052 C6.41684066,1.9593181 7.70894845,1.505 9.5951417,1.505 C11.4832895,1.505 12.7941903,1.96061728 13.6480906,2.70537666 C13.9362069,2.95666746 14.1492257,3.22280293 14.2989065,3.48555699 C14.3592185,3.5914304 14.3985506,3.67614922 14.420776,3.7324009 L14.420776,7.22222222 L15.430776,7.22222222 L15.430776,3.64959012 L15.4119186,3.51287748 C15.2939765,3.09348178 14.9625016,2.51160106 14.3119661,1.94421346 C13.2671945,1.03297901 11.7193228,0.495 9.5951417,0.495 C7.46900609,0.495 5.93526669,1.0342782 4.91671392,1.94908492 C4.28115233,2.51991054 3.96698749,3.10546697 3.86216612,3.52799482 L3.8474707,3.6367932 L3.75966959,7.10054339 L4.76934526,7.12613722 L4.8554604,3.72889841 C4.87461864,3.67389617 4.91170631,3.58608808 4.97166004,3.47434326 Z" id="Path-12"></path>
                    <path d="M9.5951417,16.0745946 C10.8452331,16.0745946 11.7273954,14.6035796 11.7273954,12.8745946 C11.7273954,11.1456096 10.8452331,9.67459459 9.5951417,9.67459459 C8.34505034,9.67459459 7.46288799,11.1456096 7.46288799,12.8745946 C7.46288799,14.6035796 8.34505034,16.0745946 9.5951417,16.0745946 Z M9.5951417,15.0079279 C9.07881625,15.0079279 8.52901484,14.0911283 8.52901484,12.8745946 C8.52901484,11.6580609 9.07881625,10.7412613 9.5951417,10.7412613 C10.1114672,10.7412613 10.6612686,11.6580609 10.6612686,12.8745946 C10.6612686,14.0911283 10.1114672,15.0079279 9.5951417,15.0079279 Z" id="Oval-4"></path>
                    <path d="M1.01,18.1263673 C1.00995764,18.1237351 18.1826606,18.1233333 18.1826606,18.1233333 C18.1807303,18.1233937 18.1802834,7.34029942 18.1802834,7.34029942 C18.1803258,7.34293153 1.00762284,7.34333333 1.00762284,7.34333333 C1.00955315,7.34327294 1.01,18.1263673 1.01,18.1263673 Z M1.00473372,6.33333333 L18.1855497,6.33333333 C18.734842,6.33333333 19.1902834,6.78301608 19.1902834,7.33772786 L19.1902834,18.1289388 C19.1902834,18.6777746 18.7404488,19.1333333 18.1855497,19.1333333 L1.00473372,19.1333333 C0.455441375,19.1333333 0,18.6836506 0,18.1289388 L0,7.33772786 C0,6.78889211 0.449834608,6.33333333 1.00473372,6.33333333 Z" id="Rectangle-27"></path>
                </g>
                <g id="Group-13" transform="translate(144.794872, 46.613333)" fill-rule="nonzero" fill="#DDDDDD">
                    <path d="M8.1025641,15.7066667 C12.297804,15.7066667 15.6987179,12.3040308 15.6987179,8.10666667 C15.6987179,3.90930257 12.297804,0.506666667 8.1025641,0.506666667 C3.90732418,0.506666667 0.506410256,3.90930257 0.506410256,8.10666667 C0.506410256,12.3040308 3.90732418,15.7066667 8.1025641,15.7066667 Z M8.1025641,14.6933333 C4.4666895,14.6933333 1.51923077,11.7443822 1.51923077,8.10666667 C1.51923077,4.46895111 4.4666895,1.52 8.1025641,1.52 C11.7384387,1.52 14.6858974,4.46895111 14.6858974,8.10666667 C14.6858974,11.7443822 11.7384387,14.6933333 8.1025641,14.6933333 Z" id="Oval"></path>
                    <rect id="Rectangle-3" x="7.08974359" y="3.04" width="2.02564103" height="7.09333333"></rect>
                    <rect id="Rectangle-3" x="7.08974359" y="11.1466667" width="2.02564103" height="2.02666667"></rect>
                </g>
                <g id="GreyInfo" transform="translate(4.012821, 57.760000)" fill-rule="nonzero" fill="#CCCCCC">
                    <path d="M17.2207692,9.12 C17.2207692,4.64045479 13.5924561,1.01 9.11538462,1.01 C4.63861748,1.01 1.01,4.64015024 1.01,9.12 C1.01,13.5995452 4.63831315,17.23 9.11538462,17.23 C13.5921517,17.23 17.2207692,13.5998498 17.2207692,9.12 Z M18.2307692,9.12 C18.2307692,14.1579444 14.1496725,18.24 9.11538462,18.24 C4.0799898,18.24 0,14.1568369 0,9.12 C0,4.08205562 4.0810967,0 9.11538462,0 C14.1507794,0 18.2307692,4.08316308 18.2307692,9.12 Z" id="Rectangle-43-Copy-5"></path>
                    <path d="M10.8289347,12.695782 L10.7137181,13.2167153 C10.3680684,13.3676497 10.0916434,13.4824227 9.88586578,13.5615585 C9.68008811,13.6406941 9.44064619,13.68 9.16801449,13.68 C8.74934687,13.68 8.42361113,13.5667992 8.19128137,13.3414457 C7.95895174,13.1155684 7.84278692,12.8288978 7.84278692,12.4814343 C7.84278692,12.3467463 7.85132142,12.2083898 7.86886465,12.067413 C7.886408,11.9264361 7.9143823,11.7671165 7.95278792,11.5894541 L8.38520563,9.89877939 C8.42361113,9.73683941 8.45632691,9.58328468 8.48240476,9.43811506 C8.50895673,9.2939938 8.5217586,9.16140204 8.5217586,9.04191246 C8.5217586,8.82599231 8.48145654,8.67505794 8.4008523,8.59015742 C8.32024806,8.5052569 8.16662609,8.46228246 7.93856359,8.46228246 C7.82666602,8.46228246 7.71192366,8.48219734 7.5948105,8.52045512 C7.47722322,8.55871275 7.37670507,8.5959223 7.29230769,8.63051136 L7.40799852,8.10905402 C7.6910614,7.98170324 7.96179665,7.87269508 8.22067825,7.78202954 C8.47955985,7.69136413 8.72421736,7.64576947 8.95559877,7.64576947 C9.37142148,7.64576947 9.69241575,7.75687381 9.91763334,7.97908276 C10.1428509,8.2012917 10.2556967,8.4895345 10.2556967,8.84485924 C10.2556967,8.91822999 10.2481104,9.04767721 10.2324638,9.2326766 C10.216817,9.41820018 10.1878944,9.58800135 10.1456957,9.7426043 L9.71517457,11.42699 C9.68008811,11.5622021 9.64832055,11.716805 9.62082024,11.8907987 C9.5923717,12.0637444 9.57862161,12.195812 9.57862161,12.2843811 C9.57862161,12.5081623 9.62366515,12.6606689 9.71422635,12.7419009 C9.80526166,12.8231329 9.96220265,12.8634869 10.1850496,12.8634869 C10.289835,12.8634869 10.4088447,12.843048 10.5411304,12.802694 C10.673416,12.7623399 10.7696669,12.7267026 10.8289347,12.695782 L10.8289347,12.695782 Z M10.9384615,5.62492588 C10.9384615,5.91840939 10.8384175,6.16891846 10.6373812,6.37488096 C10.436819,6.58189168 10.1950065,6.68513496 9.91241774,6.68513496 C9.62888063,6.68513496 9.38659403,6.58189168 9.18366116,6.37488096 C8.98120239,6.16891846 8.87973602,5.91840939 8.87973602,5.62492588 C8.87973602,5.33196641 8.98120239,5.08093316 9.18366116,4.87235017 C9.3861198,4.66376732 9.62888063,4.56 9.91241774,4.56 C10.1950065,4.56 10.436819,4.66429136 10.6373812,4.87235017 C10.8384175,5.08093316 10.9384615,5.33196641 10.9384615,5.62492588 L10.9384615,5.62492588 Z" id="Shape"></path>
                </g>
                <g id="GreenInfo" transform="translate(25.282051, 57.760000)" fill-rule="nonzero" fill="#4ACFA5">
                    <path d="M17.2207692,9.12 C17.2207692,4.64045479 13.5924561,1.01 9.11538462,1.01 C4.63861748,1.01 1.01,4.64015024 1.01,9.12 C1.01,13.5995452 4.63831315,17.23 9.11538462,17.23 C13.5921517,17.23 17.2207692,13.5998498 17.2207692,9.12 Z M18.2307692,9.12 C18.2307692,14.1579444 14.1496725,18.24 9.11538462,18.24 C4.0799898,18.24 0,14.1568369 0,9.12 C0,4.08205562 4.0810967,0 9.11538462,0 C14.1507794,0 18.2307692,4.08316308 18.2307692,9.12 Z" id="Rectangle-43-Copy-5"></path>
                    <path d="M10.8289347,12.695782 L10.7137181,13.2167153 C10.3680684,13.3676497 10.0916434,13.4824227 9.88586578,13.5615585 C9.68008811,13.6406941 9.44064619,13.68 9.16801449,13.68 C8.74934687,13.68 8.42361113,13.5667992 8.19128137,13.3414457 C7.95895174,13.1155684 7.84278692,12.8288978 7.84278692,12.4814343 C7.84278692,12.3467463 7.85132142,12.2083898 7.86886465,12.067413 C7.886408,11.9264361 7.9143823,11.7671165 7.95278792,11.5894541 L8.38520563,9.89877939 C8.42361113,9.73683941 8.45632691,9.58328468 8.48240476,9.43811506 C8.50895673,9.2939938 8.5217586,9.16140204 8.5217586,9.04191246 C8.5217586,8.82599231 8.48145654,8.67505794 8.4008523,8.59015742 C8.32024806,8.5052569 8.16662609,8.46228246 7.93856359,8.46228246 C7.82666602,8.46228246 7.71192366,8.48219734 7.5948105,8.52045512 C7.47722322,8.55871275 7.37670507,8.5959223 7.29230769,8.63051136 L7.40799852,8.10905402 C7.6910614,7.98170324 7.96179665,7.87269508 8.22067825,7.78202954 C8.47955985,7.69136413 8.72421736,7.64576947 8.95559877,7.64576947 C9.37142148,7.64576947 9.69241575,7.75687381 9.91763334,7.97908276 C10.1428509,8.2012917 10.2556967,8.4895345 10.2556967,8.84485924 C10.2556967,8.91822999 10.2481104,9.04767721 10.2324638,9.2326766 C10.216817,9.41820018 10.1878944,9.58800135 10.1456957,9.7426043 L9.71517457,11.42699 C9.68008811,11.5622021 9.64832055,11.716805 9.62082024,11.8907987 C9.5923717,12.0637444 9.57862161,12.195812 9.57862161,12.2843811 C9.57862161,12.5081623 9.62366515,12.6606689 9.71422635,12.7419009 C9.80526166,12.8231329 9.96220265,12.8634869 10.1850496,12.8634869 C10.289835,12.8634869 10.4088447,12.843048 10.5411304,12.802694 C10.673416,12.7623399 10.7696669,12.7267026 10.8289347,12.695782 L10.8289347,12.695782 Z M10.9384615,5.62492588 C10.9384615,5.91840939 10.8384175,6.16891846 10.6373812,6.37488096 C10.436819,6.58189168 10.1950065,6.68513496 9.91241774,6.68513496 C9.62888063,6.68513496 9.38659403,6.58189168 9.18366116,6.37488096 C8.98120239,6.16891846 8.87973602,5.91840939 8.87973602,5.62492588 C8.87973602,5.33196641 8.98120239,5.08093316 9.18366116,4.87235017 C9.3861198,4.66376732 9.62888063,4.56 9.91241774,4.56 C10.1950065,4.56 10.436819,4.66429136 10.6373812,4.87235017 C10.8384175,5.08093316 10.9384615,5.33196641 10.9384615,5.62492588 L10.9384615,5.62492588 Z" id="Shape"></path>
                </g>
            </g>
            <g id="Group" transform="translate(42.000000, 1.000000)">
                <path d="M6,0.076 L6,5.076 M16,0.076 L16,5.076" id="Shape" stroke="#AAAAAA" stroke-width="2"></path>
                <rect id="Rectangle-path" stroke="#AAAAAA" x="0" y="2" width="22" height="18.961" rx="2"></rect>
                <path d="M3,7.5 L5,7.5 L5,9.5 L3,9.5 L3,7.5 Z M6.5,7.5 L8.5,7.5 L8.5,9.5 L6.5,9.5 L6.5,7.5 Z M10,7.5 L12,7.5 L12,9.5 L10,9.5 L10,7.5 Z M13.5,7.5 L15.5,7.5 L15.5,9.5 L13.5,9.5 L13.5,7.5 Z M17,7.5 L19,7.5 L19,9.5 L17,9.5 L17,7.5 Z M3,11.5 L5,11.5 L5,13.5 L3,13.5 L3,11.5 Z M6.5,11.5 L8.5,11.5 L8.5,13.5 L6.5,13.5 L6.5,11.5 Z M10,11.5 L12,11.5 L12,13.5 L10,13.5 L10,11.5 Z M13.5,11.5 L15.5,11.5 L15.5,13.5 L13.5,13.5 L13.5,11.5 Z M17,11.5 L19,11.5 L19,13.5 L17,13.5 L17,11.5 Z M3,15.5 L5,15.5 L5,17.5 L3,17.5 L3,15.5 Z M6.5,15.5 L8.5,15.5 L8.5,17.5 L6.5,17.5 L6.5,15.5 Z M10,15.5 L12,15.5 L12,17.5 L10,17.5 L10,15.5 Z M13.5,15.5 L15.5,15.5 L15.5,17.5 L13.5,17.5 L13.5,15.5 Z M17,15.5 L19,15.5 L19,17.5 L17,17.5 L17,15.5 Z" id="Shape" fill="#AAAAAA" fill-rule="nonzero"></path>
            </g>
            <g id="Tick" transform="translate(2.000000, 81.000000)" fill-rule="nonzero">
                <circle id="Oval" stroke="#14805E" fill="#189970" cx="8.5" cy="8.5" r="8.5"></circle>
                <polyline id="Shape" fill="#FFFFFF" points="13.1644762 5.20280952 6.95542857 13.5433333 3.4 9.64142857 4.54142857 8.23285714 6.82266667 10.6897619 11.7542857 3.85333333"></polyline>
            </g>
            <g id="Tick" transform="translate(23.000000, 81.000000)" stroke="#189970">
                <circle id="Oval" cx="8.5" cy="8.5" r="8.5"></circle>
            </g>
            <g id="Group-6" transform="translate(46.000000, 81.000000)" fill="#54E8B9">
                <path d="M8.52380952,16.5 C12.954883,16.5 16.547619,12.9186334 16.547619,8.5 C16.547619,4.08136661 12.954883,0.5 8.52380952,0.5 C4.09273603,0.5 0.5,4.08136661 0.5,8.5 C0.5,12.9186334 4.09273603,16.5 8.52380952,16.5 Z M8.52380952,15.5 C4.64431249,15.5 1.5,12.3656379 1.5,8.5 C1.5,4.63436214 4.64431249,1.5 8.52380952,1.5 C12.4033066,1.5 15.547619,4.63436214 15.547619,8.5 C15.547619,12.3656379 12.4033066,15.5 8.52380952,15.5 Z" id="Oval" fill-rule="nonzero"></path>
                <path d="M10.7256819,11.8883301 L11.2256819,11.8883301 L11.2256819,3.96525314 L10.2256819,3.96525314 L10.2256819,10.8883301 L6.62790134,10.8883301 L6.62790134,11.8883301 L10.7256819,11.8883301 Z" id="Combined-Shape-Copy-28" transform="translate(8.926792, 7.926792) rotate(-315.000000) translate(-8.926792, -7.926792) "></path>
            </g>
            <path d="M45.9411765,76.9985704 C45.9411765,76.9984014 60.058861,77 60.058861,77 C60.0593426,77 60.0588235,60.0014296 60.0588235,60.0014296 C60.0588235,60.0015986 45.941139,60 45.941139,60 C45.9406574,60 45.9411765,76.9985704 45.9411765,76.9985704 Z M45,60.0014296 C45,59.4483553 45.419737,59 45.941139,59 L60.058861,59 C60.5786377,59 61,59.4509254 61,60.0014296 L61,76.9985704 C61,77.5516447 60.580263,78 60.058861,78 L45.941139,78 C45.4213623,78 45,77.5490746 45,76.9985704 L45,60.0014296 Z" id="Rectangle-315" fill="#777777" fill-rule="nonzero"></path>
            <path d="M48.5,74 L57.5,74 C57.7761424,74 58,73.7761424 58,73.5 C58,73.2238576 57.7761424,73 57.5,73 L48.5,73 C48.2238576,73 48,73.2238576 48,73.5 C48,73.7761424 48.2238576,74 48.5,74 Z" id="Line" fill="#777777" fill-rule="nonzero"></path>
            <path d="M53,71.4736842 C55.4707476,71.4736842 57.4736842,69.4707476 57.4736842,67 C57.4736842,64.5292524 55.4707476,62.5263158 53,62.5263158 C50.5292524,62.5263158 48.5263158,64.5292524 48.5263158,67 C48.5263158,69.4707476 50.5292524,71.4736842 53,71.4736842 Z M53,72 C50.2385763,72 48,69.7614238 48,67 C48,64.2385762 50.2385763,62 53,62 C55.7614237,62 58,64.2385762 58,67 C58,69.7614238 55.7614237,72 53,72 Z" id="Oval-49" fill="#777777" fill-rule="nonzero"></path>
            <polygon id="Line" fill="#777777" fill-rule="nonzero" points="52.7368421 62.0309598 52.7368421 71.3808049 53.2631579 71.3808049 53.2631579 62.0309598"></polygon>
            <polygon id="Line" fill="#777777" fill-rule="nonzero" points="48.0309598 67.2631579 57.4003912 67.2631579 57.4003912 66.7368421 48.0309598 66.7368421"></polygon>
            <path d="M49.3581718,64.2967618 C49.4196981,64.3258306 49.5311403,64.3752449 49.6848109,64.4382203 C49.9393868,64.5425474 50.2206405,64.6467524 50.5209825,64.7440338 C51.2287651,64.9732862 51.9309465,65.1288314 52.592357,65.1765674 C52.7310749,65.1865791 52.8670211,65.1916965 53,65.1916965 C53.1329789,65.1916965 53.2689251,65.1865791 53.407643,65.1765674 C54.0690535,65.1288314 54.7712349,64.9732862 55.4790175,64.7440338 C55.7793595,64.6467524 56.0606132,64.5425474 56.3151891,64.4382203 C56.4688597,64.3752449 56.5803019,64.3258306 56.6418282,64.2967618 L56.8797665,64.1843453 L56.6549336,63.7084688 L56.4169953,63.8208853 C56.3634703,63.8461737 56.2603808,63.8918844 56.1156096,63.9512127 C55.8727826,64.0507251 55.603865,64.1503596 55.3168378,64.2433283 C54.6462239,64.4605416 53.9836677,64.6073092 53.3697558,64.651617 C53.2433791,64.660738 53.1200444,64.6653807 53,64.6653807 C52.8799556,64.6653807 52.7566208,64.660738 52.6302442,64.651617 C52.0163323,64.6073092 51.3537761,64.4605416 50.6831622,64.2433283 C50.396135,64.1503596 50.1272174,64.0507251 49.8843903,63.9512127 C49.7396192,63.8918844 49.6365297,63.8461737 49.5830047,63.8208853 L49.3450664,63.7084688 L49.1202335,64.1843453 L49.3581718,64.2967618 Z" id="Line" fill="#777777" fill-rule="nonzero"></path>
            <path d="M50.1886132,70.4515814 C50.2322481,70.4268425 50.317123,70.3816815 50.4366308,70.3229112 C50.6373975,70.2241803 50.8597869,70.1253055 51.0970636,70.0330802 C51.649971,69.8181747 52.1955505,69.6731484 52.6987903,69.629564 C52.8018573,69.6206376 52.9023312,69.6160991 53,69.6160991 C53.0976688,69.6160991 53.1981427,69.6206376 53.3012097,69.629564 C53.8044495,69.6731484 54.350029,69.8181747 54.9029364,70.0330802 C55.1402131,70.1253055 55.3626025,70.2241803 55.5633692,70.3229112 C55.682877,70.3816815 55.7677519,70.4268425 55.8113867,70.4515814 L56.0403119,70.5813711 L56.2998913,70.1235209 L56.0709662,69.9937311 C56.018725,69.9641128 55.9248233,69.9141488 55.7956297,69.8506154 C55.5818941,69.7455068 55.3458073,69.6405421 55.0936097,69.5425172 C54.4978533,69.3109571 53.9061515,69.1536705 53.3466226,69.1052111 C53.2287775,69.0950048 53.1131839,69.0897833 53,69.0897833 C52.8868161,69.0897833 52.7712225,69.0950048 52.6533773,69.1052111 C52.0938485,69.1536705 51.5021467,69.3109571 50.9063903,69.5425172 C50.6541927,69.6405421 50.4181059,69.7455068 50.2043703,69.8506154 C50.0751767,69.9141488 49.981275,69.9641128 49.9290338,69.9937311 L49.7001087,70.1235209 L49.9596881,70.5813711 L50.1886132,70.4515814 Z" id="Line" fill="#777777" fill-rule="nonzero"></path>
            <path d="M50.9832836,62.8065717 C50.9617891,62.8780517 50.9248467,63.0086356 50.8776096,63.1887906 C50.799182,63.4879016 50.7208145,63.8173994 50.6476682,64.16781 C50.4897884,64.9241398 50.3782183,65.6709259 50.3334083,66.3720497 C50.3193421,66.5921368 50.3120949,66.8054436 50.3120949,67.0112954 C50.3120949,67.2171473 50.3193421,67.4304541 50.3334083,67.6505411 C50.3782183,68.351665 50.4897884,69.0984511 50.6476682,69.8547809 C50.7208145,70.2051915 50.799182,70.5346892 50.8776096,70.8338003 C50.9248467,71.0139552 50.9617891,71.1445392 50.9832836,71.2160191 L51.0590648,71.4680296 L51.5630858,71.3164672 L51.4873046,71.0644567 C51.4675465,70.9987512 51.432297,70.8741513 51.3867157,70.7003114 C51.3104462,70.409431 51.2341164,70.0885006 51.1628787,69.7472334 C51.0097189,69.0135151 50.9016977,68.290483 50.8586524,67.6169719 C50.8452792,67.4077258 50.8384107,67.2055674 50.8384107,67.0112954 C50.8384107,66.8170235 50.8452792,66.614865 50.8586524,66.405619 C50.9016977,65.7321079 51.0097189,65.0090758 51.1628787,64.2753574 C51.2341164,63.9340903 51.3104462,63.6131598 51.3867157,63.3222794 C51.432297,63.1484395 51.4675465,63.0238397 51.4873046,62.9581342 L51.5630858,62.7061237 L51.0590648,62.5545612 L50.9832836,62.8065717 Z" id="Line" fill="#777777" fill-rule="nonzero"></path>
            <path d="M54.4408893,62.9581342 C54.4606474,63.0238397 54.495897,63.1484395 54.5414782,63.3222794 C54.6177478,63.6131598 54.6940776,63.9340903 54.7653153,64.2753574 C54.9184751,65.0090758 55.0264962,65.7321079 55.0695415,66.405619 C55.0829148,66.614865 55.0897833,66.8170235 55.0897833,67.0112954 C55.0897833,67.2055674 55.0829148,67.4077258 55.0695415,67.6169719 C55.0264962,68.290483 54.9184751,69.0135151 54.7653153,69.7472334 C54.6940776,70.0885006 54.6177478,70.409431 54.5414782,70.7003114 C54.495897,70.8741513 54.4606474,70.9987512 54.4408893,71.0644567 L54.3651081,71.3164672 L54.8691291,71.4680296 L54.9449103,71.2160191 C54.9664048,71.1445392 55.0033473,71.0139552 55.0505843,70.8338003 C55.129012,70.5346892 55.2073794,70.2051915 55.2805257,69.8547809 C55.4384056,69.0984511 55.5499756,68.351665 55.5947856,67.6505411 C55.6088518,67.4304541 55.6160991,67.2171473 55.6160991,67.0112954 C55.6160991,66.8054436 55.6088518,66.5921368 55.5947856,66.3720497 C55.5499756,65.6709259 55.4384056,64.9241398 55.2805257,64.16781 C55.2073794,63.8173994 55.129012,63.4879016 55.0505843,63.1887906 C55.0033473,63.0086356 54.9664048,62.8780517 54.9449103,62.8065717 L54.8691291,62.5545612 L54.3651081,62.7061237 L54.4408893,62.9581342 Z" id="Line" fill="#777777" fill-rule="nonzero"></path>
            <g id="Group-11" transform="translate(67.000000, 82.000000)" fill-rule="nonzero" fill="#DDDDDD">
                <path d="M8,15.5 C12.1421356,15.5 15.5,12.1421356 15.5,8 C15.5,3.85786438 12.1421356,0.5 8,0.5 C3.85786438,0.5 0.5,3.85786438 0.5,8 C0.5,12.1421356 3.85786438,15.5 8,15.5 Z M8,14.5 C4.41014913,14.5 1.5,11.5898509 1.5,8 C1.5,4.41014913 4.41014913,1.5 8,1.5 C11.5898509,1.5 14.5,4.41014913 14.5,8 C14.5,11.5898509 11.5898509,14.5 8,14.5 Z" id="Oval"></path>
                <rect id="Rectangle-2" x="3.8" y="7.53333333" width="8.4" height="1.4" rx="0.7"></rect>
            </g>
            <g id="checkbox_checked_unfocused" transform="translate(85.000000, 80.000000)" fill-rule="nonzero">
                <rect id="Rectangle-6" fill="#14805E" x="0" y="0" width="18" height="18"></rect>
                <g id="Tick" transform="translate(3.000000, 5.000000)" fill="#FFFFFF">
                    <polygon id="Combined-Shape-Copy-30" points="0.17007716 3.87728556 4.52896444 8.23617284 12 0.765137279 11.2928932 0.0580304979 4.52896444 6.82195928 0.877183941 3.17017878"></polygon>
                </g>
            </g>
            <path d="M99.648618,38.2165157 C100.95988,39.9197289 103.01851,41.0171277 105.333333,41.0171277 C109.294214,41.0171277 112.505,37.8041164 112.505,33.840841 C112.505,29.8775655 109.294214,26.6645542 105.333333,26.6645542 C105.201757,26.6645542 105.071008,26.6680998 104.941176,26.6751007 L104.941176,25.1658892 C104.941176,25.1658892 102.403093,22.977209 98.0478494,23.0001796 C93.6926056,23.0231501 92,25.2525118 92,25.2525118 L92,36.153786 C92,36.153786 95.2352941,38.3047167 98.4705882,38.3047167 C98.865222,38.3047167 99.2598558,38.2727139 99.648618,38.2165157 L99.648618,38.2165157 Z M98.8607163,30.7466219 C98.486741,31.5285171 98.2500948,32.3887289 98.1820285,33.2959806 C98.1541708,33.2962413 98.1264032,33.2963719 98.0987265,33.2963719 C96.87695,33.2963719 95.5727976,33.0465325 94.2777924,32.6291749 C93.8224204,32.4824164 93.4011966,32.3252109 93.025107,32.1683218 L93.01,32.1620106 L93.01,32.1620106 L93.01,29.7190171 C93.3093309,29.8352076 93.6298345,29.9496484 93.9679791,30.0586265 C95.3551788,30.5056969 96.7583953,30.7745142 98.0987265,30.7745142 C98.2427437,30.7745142 98.3885524,30.7713413 98.5360771,30.7650801 C98.6437223,30.7605115 98.7519513,30.7543435 98.8607163,30.7466219 Z M98.1764953,34.3060654 C98.2448466,35.3749517 98.5470585,36.3801947 99.0324822,37.2711035 C98.8425422,37.2867202 98.6551139,37.2947167 98.4705883,37.2947167 C97.2172349,37.2947167 95.8299654,36.9257956 94.4313159,36.3058833 C93.9332791,36.0851424 93.4703107,35.8483756 93.0561265,35.6123499 C93.0404438,35.603413 93.0250671,35.594615 93.01,35.5859664 L93.01,33.2508748 C93.3093309,33.3670653 93.6298345,33.4815061 93.9679791,33.5904842 C95.3551788,34.0375546 96.7583954,34.3063719 98.0987265,34.3063719 C98.1245917,34.3063719 98.1505148,34.3062696 98.1764953,34.3060654 Z M103.931177,26.801646 C102.112237,27.1623971 100.540833,28.2114507 99.4993513,29.6661831 C99.1575646,29.7116067 98.8215266,29.742056 98.4932497,29.7559886 C98.359813,29.7616518 98.2282735,29.7645142 98.0987265,29.7645142 C96.8769501,29.7645142 95.5727976,29.5146748 94.2777924,29.0973172 C93.8224204,28.9505587 93.4011966,28.7933532 93.025107,28.6364641 L93.01,28.6301529 L93.01,28.6301529 L93.01,25.6436836 C93.2018811,25.4654697 93.4990326,25.2379694 93.9096703,25.0015838 C94.9666763,24.393113 96.3324664,24.0192409 98.0531763,24.0101655 C99.8111276,24.0008937 101.373018,24.3737211 102.721085,24.9991444 C103.182375,25.2131553 103.582737,25.4410061 103.931177,25.6746254 L103.931177,26.801646 Z M105.333333,40.0071277 C101.930417,40.0071277 99.1716667,37.2464654 99.1716667,33.840841 C99.1716667,30.4352166 101.930417,27.6745542 105.333333,27.6745542 C108.736249,27.6745542 111.495,30.4352166 111.495,33.840841 C111.495,37.2464654 108.736249,40.0071277 105.333333,40.0071277 Z M102.833333,34.5652912 L107.539216,34.5652912 C107.818119,34.5652912 108.044216,34.339195 108.044216,34.0602912 C108.044216,33.7813874 107.818119,33.5552912 107.539216,33.5552912 L102.833333,33.5552912 C102.554429,33.5552912 102.328333,33.7813874 102.328333,34.0602912 C102.328333,34.339195 102.554429,34.5652912 102.833333,34.5652912 Z" id="Oval-15-path" fill="#777777"></path>
            <path d="M129.650138,12.1338163 C129.709125,11.8361333 129.79504,11.5410017 129.913478,11.2577024 C130.38573,10.1280897 131.27466,9.41932411 132.615452,9.41932411 C134.325663,9.41932411 135.260261,10.2718907 135.55996,11.6592187 C135.595315,11.8228797 135.620404,11.9750671 135.637977,12.1338163 L136.699036,12.1338163 C137.245689,12.1338163 137.707195,12.5861537 137.707195,13.1441402 L137.707195,19.2301591 C137.707195,19.7814062 137.255827,20.240483 136.699036,20.240483 L128.587149,20.240483 C128.040496,20.240483 127.57899,19.7881456 127.57899,19.2301591 L127.57899,18.2104833 L116.918859,18.2104833 L116.678046,17.5434475 C116.642704,17.4455527 116.597764,17.2968781 116.554689,17.1079872 C116.445762,16.6303288 116.404221,16.1359583 116.475041,15.644033 C116.571787,14.9720156 116.87382,14.382495 117.422168,13.9618873 C117.855966,13.6291449 118.381747,13.3520039 118.998312,13.1055394 C119.601792,12.8643058 121.245848,12.3688285 120.984563,12.4577667 C121.261123,12.3636288 121.463632,12.2529987 121.60661,12.1349853 C121.627458,12.1177779 121.646013,12.1017327 121.662499,12.0869648 C121.638535,12.0353572 121.613251,11.98078 121.586767,11.9234693 C121.37198,11.4586791 121.157138,10.9839769 120.956156,10.5261585 C120.895176,10.3869444 120.895176,10.3869444 120.834402,10.2468614 C120.708976,9.95699894 120.594946,9.6864382 120.494113,9.43851387 C119.727098,7.55260456 119.841594,4.77299858 120.545012,3.49588837 C122.822597,-0.63924446 128.843509,0.69624862 129.419795,5.06579669 C129.600791,6.438157 129.392681,8.31468271 128.899304,9.61033206 C128.633099,10.3094084 128.372771,10.9694332 128.12888,11.5705222 C128.0737,11.7065196 128.023848,11.8285082 127.979889,11.9354257 C128.015886,11.9951546 128.059132,12.0587772 128.109599,12.1219085 C128.136009,12.1549457 128.163277,12.1861834 128.191441,12.215575 C128.312931,12.1630328 128.446685,12.1338163 128.587149,12.1338163 L129.650138,12.1338163 Z M130.674291,12.1775734 L134.621891,12.150493 C134.609167,12.0572309 134.593042,11.9664973 134.572733,11.8724851 C134.368544,10.9272789 133.822677,10.4293241 132.615452,10.4293241 C131.720192,10.4293241 131.171661,10.8666815 130.845322,11.647274 C130.774506,11.8166646 130.717937,11.9951299 130.674291,12.1775734 Z M121.310018,13.4138939 C120.727899,13.6120403 119.050616,13.985699 118.036875,14.7632835 C117.027633,15.537417 117.628033,17.2004833 117.628033,17.2004833 L127.450785,17.2004833 L127.450785,12.9457451 C126.995685,12.4888895 126.882229,11.9445145 126.882229,11.9445145 C126.882229,11.9445145 127.353182,10.8324395 127.955422,9.25090636 C128.398007,8.08863964 128.574142,6.37823324 128.418466,5.1978588 C127.989649,1.94645432 123.3082,0.572590263 121.429695,3.98316202 C120.98942,4.78251625 120.680178,7.21511987 121.429695,9.05800492 C121.966234,10.3772272 122.786622,12.1057739 122.786622,12.1057739 C122.786622,12.1057739 122.687924,12.9448708 121.310018,13.4138939 Z M128.587149,13.1438163 C128.588376,17.2013782 128.58899,19.2301591 128.58899,19.2301591 C128.58899,19.2272332 131.292339,19.2273412 136.699036,19.230483 L136.697195,13.1441402 L128.587149,13.1438163 Z M132.643092,17.7071496 C131.988306,17.7071496 131.630272,16.9907197 131.630272,16.1871496 C131.630272,15.3835796 131.988306,14.6671496 132.643092,14.6671496 C133.297879,14.6671496 133.655913,15.3835796 133.655913,16.1871496 C133.655913,16.9907197 133.297879,17.7071496 132.643092,17.7071496 Z" id="Path-1-Copy-3-Copy" fill="#777777" fill-rule="nonzero"></path>
            <g id="Group-5" transform="translate(108.000000, 78.000000)">
                <g id="Group-3" transform="translate(5.965517, 0.900000)"></g>
                <path d="M8.2,18.2672414 C3.95089735,18.2672414 0.5,14.9241846 0.5,10.7922414 C0.5,6.66029819 3.95089735,3.31724138 8.2,3.31724138 C12.4491026,3.31724138 15.9,6.66029819 15.9,10.7922414 C15.9,14.9241846 12.4491026,18.2672414 8.2,18.2672414 Z M8.2,17.2672414 C11.9037978,17.2672414 14.9,14.3646705 14.9,10.7922414 C14.9,7.21981231 11.9037978,4.31724138 8.2,4.31724138 C4.49620225,4.31724138 1.5,7.21981231 1.5,10.7922414 C1.5,14.3646705 4.49620225,17.2672414 8.2,17.2672414 Z" id="Oval" fill="#777777" fill-rule="nonzero"></path>
                <polygon id="Line" fill="#777777" fill-rule="nonzero" points="7.7 3.55775862 7.7 6.48189655 8.7 6.48189655 8.7 3.55775862"></polygon>
                <polygon id="Line" fill="#777777" fill-rule="nonzero" points="7.7 15.1025862 7.7 18.0267241 8.7 18.0267241 8.7 15.1025862"></polygon>
                <polygon id="Line" fill="#777777" fill-rule="nonzero" transform="translate(13.662069, 10.792241) rotate(90.000000) translate(-13.662069, -10.792241) " points="13.162069 9.33017241 13.162069 12.2543103 14.162069 12.2543103 14.162069 9.33017241"></polygon>
                <polygon id="Line" fill="#777777" fill-rule="nonzero" transform="translate(2.241379, 10.792241) rotate(90.000000) translate(-2.241379, -10.792241) " points="1.74137931 9.33017241 1.74137931 12.2543103 2.74137931 12.2543103 2.74137931 9.33017241"></polygon>
                <path d="M3.33016174,13.3700485 L2.02727997,14.069679" id="Line" stroke="#777777" stroke-linecap="square"></path>
                <path d="M5.49165129,15.1707898 L4.68032693,16.3810782" id="Line" stroke="#777777" stroke-linecap="square"></path>
                <polygon id="Line" fill="#777777" fill-rule="nonzero" transform="translate(3.175273, 7.466415) rotate(60.000000) translate(-3.175273, -7.466415) " points="4.03067371 6.43954766 1.8467791 7.61227045 2.31987145 8.49328329 4.50376606 7.32056051"></polygon>
                <polygon id="Line" fill="#777777" fill-rule="nonzero" transform="translate(4.942266, 5.414519) rotate(115.000000) translate(-4.942266, -5.414519) " points="5.21839178 4.14337513 3.84560107 6.11407432 4.66614119 6.68566326 6.0389319 4.71496406"></polygon>
                <polygon id="Line" fill="#777777" fill-rule="nonzero" points="14.4240834 6.43954766 12.2401888 7.61227045 12.7132811 8.49328329 14.8971757 7.32056051"></polygon>
                <polygon id="Line" fill="#777777" fill-rule="nonzero" points="11.6054523 4.08558374 10.2373079 6.12650525 11.067941 6.68332534 12.4360854 4.64240383"></polygon>
                <path d="M14.2542997,13.3700485 L12.9514179,14.069679" id="Line" stroke="#777777" stroke-linecap="square" transform="translate(13.602859, 13.719864) scale(-1, 1) translate(-13.602859, -13.719864) "></path>
                <path d="M11.9468237,15.1707898 L11.1354993,16.3810782" id="Line" stroke="#777777" stroke-linecap="square" transform="translate(11.541162, 15.775934) scale(-1, 1) translate(-11.541162, -15.775934) "></path>
                <polygon id="Path-3" fill="#777777" transform="translate(9.123576, 8.497066) rotate(4.000000) translate(-9.123576, -8.497066) " points="7.8647377 10.1173281 10.3824152 6.35158061 9.28352433 10.6425524"></polygon>
                <path d="M8.2,12.0137931 C7.51599064,12.0137931 6.95517241,11.4705005 6.95517241,10.7922414 C6.95517241,10.1139823 7.51599064,9.57068966 8.2,9.57068966 C8.88400936,9.57068966 9.44482759,10.1139823 9.44482759,10.7922414 C9.44482759,11.4705005 8.88400936,12.0137931 8.2,12.0137931 Z M8.2,11.0137931 C8.33870447,11.0137931 8.44482759,10.9109863 8.44482759,10.7922414 C8.44482759,10.6734964 8.33870447,10.5706897 8.2,10.5706897 C8.06129553,10.5706897 7.95517241,10.6734964 7.95517241,10.7922414 C7.95517241,10.9109863 8.06129553,11.0137931 8.2,11.0137931 Z" id="Oval-3" fill="#777777" fill-rule="nonzero"></path>
                <g id="Rectangle">
                    <use fill="#777777" fill-rule="evenodd" xlink:href="#path-1"></use>
                    <rect stroke="#777777" stroke-width="1" x="6.46551724" y="0.5" width="3.46896552" height="1" rx="0.5"></rect>
                </g>
                <path d="M7.45862069,3.31910354 L8.94137931,3.31910354 L8.94137931,1.94310345 L7.45862069,1.94310345 L7.45862069,3.31910354 Z M6.95862069,1.44310345 L9.44137931,1.44310345 L9.44137931,3.81910354 L6.95862069,3.81910354 L6.95862069,1.44310345 Z" id="Rectangle-4" fill="#777777" fill-rule="nonzero"></path>
            </g>
        </g>
    </g>
</svg>