<svg viewBox="0 0 100 100" xmlns="http://www.w3.org/2000/svg"><g><g fill-rule="evenodd" transform="matrix(1.285328,0,0,1.285328,-14.264645,-14.265659)" fill="#FFF"><path d="m 14.62,85.316 c 2.506,2.342 5.663,3.584 8.977,3.584 3.486,0 6.758,-1.356 9.223,-3.822 l 4.73,-4.73 45.487,-18.595 c 3.502,-1.43 5.218,-3.575 5.72,-6.075 0.617,-3.056 -0.794,-6.72 -3.838,-9.766 -2.396,-2.395 -5.77,-3.72 -9.514,-3.72 -0.576,0 -1.157,0.03 -1.738,0.093 l -1.494,0.158 0.3,-1.47 c 0.755,-3.71 -0.295,-7.57 -2.925,-10.42 -2.294,-2.125 -5.152,-3.242 -8.15,-3.242 -0.802,0 -1.594,0.08 -2.368,0.236 l -1.468,0.296 0.156,-1.49 c 0.457,-4.372 -0.855,-8.5 -3.62,-11.266 -2.543,-2.544 -5.578,-3.986 -8.288,-3.986 -3.072,0 -5.81,1.608 -7.55,5.868 l -18.59,45.5 -4.73,4.73 C 9.945,72.193 9.803,80.149 14.617,85.317 z M 29.752,49.71 33.889,53.85 25.903,64.246 24.42,62.763 29.753,49.711 z m 7.63,-18.673 7.935,7.935 -7.98,10.39 -5.283,-5.283 5.33,-13.043 z m 18.55,36.925 -5.282,-5.282 10.388,-7.984 7.933,7.935 -13.038,5.332 z m -18.672,7.632 -1.485,-1.484 10.39,-7.984 4.135,4.138 -13.04,5.33 z m 9.39,-16.916 -5.314,-5.315 7.982,-10.39 7.72,7.722 -10.388,7.983 z M 37.89,57.85 42.164,62.125 31.774,70.111 29.906,68.246 37.89,57.85 z M 75.407,46.702 c 2.532,0 4.777,0.852 6.324,2.4 1.898,1.896 2.922,4.128 2.61,5.685 -0.23,1.13 -1.24,2.07 -3.01,2.79 l -6.728,2.752 -9.078,-9.082 3.99,-3.067 c 1.86,-0.964 3.893,-1.478 5.893,-1.478 z M 61.4,31.82 c 1.822,0 3.562,0.666 4.912,1.877 2.584,2.88 2.497,7.232 -0.19,10.016 l -4.6,3.535 -8.758,-8.76 3.533,-4.6 c 1.38,-1.332 3.184,-2.068 5.104,-2.068 z M 42.437,18.674 c 1.252,-3.064 2.85,-3.064 3.376,-3.064 1.503,0 3.456,1.02 5.1,2.664 2.83,2.832 3.195,7.834 0.916,12.223 l -3.064,3.99 -9.078,-9.082 2.75,-6.73 z m -24.307,51.712 2.99,-2.99 11.507,11.498 -2.995,2.995 c -1.612,1.612 -3.755,2.5 -6.035,2.5 -2.136,0 -4.172,-0.788 -5.746,-2.22 -3.08,-3.383 -2.963,-8.54 0.28,-11.784 z"></path></g></g></svg>