<svg viewBox="0 0 100 100" xmlns="http://www.w3.org/2000/svg"><g><g fill-rule="evenodd" transform="matrix(1.0309278,0,0,1.0309278,-4.8451405,3.4e-6)" fill="#FFF"><path d="m 23.05,82.152 c -0.626,0.052 -1.253,0.102 -1.88,0.148 -2.116,0.156 -4.083,0.264 -5.854,0.335 -1.075,0.044 -1.856,0.064 -2.296,0.07 L 8.728,82.621 C 8.503,82.618 8.018,82.446 7.685,81.939 7.353,81.433 7.5,80.669 7.5,80.669 l 4.225,-20.827 c 0,0 0.113,-0.604 0.424,-0.916 0.31,-0.312 0.872,-0.395 1.078,-0.398 l 4.702,-0.067 0.49,-0.013 c 0.43,-0.01 0.932,-0.027 1.5,-0.05 1.64,-0.065 15.617,-0.353 20.818,-1.355 6.897,-1.328 12.788,-3.523 16.436,-5.666 9.704,-5.697 16.723,-14.628 19.234,-21.46 0.567,-1.677 3.182,-8.033 5.59,-15.78 1.048,-3.368 2.167,-6.98 3.283,-10.59 L 86.376,0 h 4.15 c -0.004,0.018 -1.125,3.764 -1.422,4.728 -1.19,3.85 -2.292,7.402 -3.285,10.595 -0.222,0.712 -0.45,1.427 -0.683,2.146 -0.978,3.008 -2,5.895 -3.152,8.975 -0.233,0.623 -1.65,4.354 -1.82,4.85 -3.097,8.426 -11.186,17.79 -20.963,23.53 -4.326,2.54 -10.765,4.808 -17.705,6.145 -2.178,0.42 -5.59,0.732 -10.052,0.98 -2.298,0.13 -4.726,0.23 -7.317,0.32 -1.26,0.04 -3.914,0.12 -4.05,0.125 -0.562,0.022 -1.084,0.04 -1.545,0.05 -0.268,0.008 -0.445,0.012 -0.543,0.014 -0.17,0 -0.17,0 -0.86,0.01 l -1.86,0.027 -3.283,16.187 0.318,0.006 0.727,0.014 c 0.493,-0.007 1.242,-0.03 2.126,-0.066 1.83,-0.073 3.75,-0.182 5.72,-0.327 1.003,-0.073 2,-0.155 2.984,-0.244 -0.425,1.3 -0.7,2.67 -0.81,4.086 z m 33.003,-6.68 c 1.513,-0.682 3.12,-1.498 4.875,-2.492 6.735,-3.81 11.24,-9.756 17.65,-19.03 6.406,-9.273 8.503,-16.745 10.1,-21.135 0.64,-1.877 2.292,-7.118 4.713,-14.9 1.117,-3.59 2.237,-7.21 3.355,-10.825 0.39,-1.266 0.755,-2.44 1.08,-3.496 L 98.128,2.614 98.235,2.266 98.932,0 H 94.747 L 94.411,1.088 C 94.383,1.185 94.383,1.185 94.304,1.442 L 94.2,1.78 c -0.04,0.124 -0.065,0.208 -0.196,0.63 -0.218,0.71 -1.087,3.52 -1.08,3.5 -1.3,4.203 -2.348,7.584 -3.353,10.82 -2.568,8.256 -4.088,13.066 -4.677,14.792 -0.21,0.575 -1.124,3.213 -1.334,3.8 -0.603,1.69 -1.167,3.156 -1.808,4.66 -1.684,3.95 -3.747,7.76 -6.466,11.695 -7.43,10.753 -11.054,14.837 -16.328,17.823 -1.853,1.048 -3.543,1.898 -5.178,2.603 0.882,1.026 1.646,2.155 2.273,3.368 z"></path><path d="M 40.5,93 C 45.747,93 50,88.747 50,83.5 50,78.253 45.747,74 40.5,74 35.253,74 31,78.253 31,83.5 c 0,5.247 4.253,9.5 9.5,9.5 z m 0,4 C 33.044,97 27,90.956 27,83.5 27,76.044 33.044,70 40.5,70 47.956,70 54,76.044 54,83.5 54,90.956 47.956,97 40.5,97 z"></path></g></g></svg>