<svg viewBox="0 0 100 100" xmlns="http://www.w3.org/2000/svg"><g><g fill-rule="evenodd" transform="matrix(1.2373542,0,0,1.2373542,-11.867282,-11.867282)" fill ="#FFF"><path d="m 18.887,81.113 c 10.22,10.22 32.83,5.354 50.205,-12.02 C 86.467,51.717 91.332,29.107 81.112,18.887 70.892,8.667 48.282,13.533 30.908,30.907 13.533,48.283 8.668,70.893 18.888,81.113 z M 16.06,83.94 C 3.952,71.836 9.334,46.826 28.08,28.08 46.825,9.335 71.835,3.953 83.94,16.06 96.047,28.165 90.665,53.175 71.92,71.92 53.175,90.665 28.165,96.047 16.06,83.94 z"></path><path d="M 16.06,83.94 C 28.165,96.047 53.175,90.665 71.92,71.92 90.665,53.175 96.047,28.165 83.94,16.06 71.836,3.952 46.826,9.334 28.08,28.08 9.335,46.825 3.953,71.835 16.06,83.94 z" style="opacity: 0.2;"></path><path d="m 48.72,54.31 c 0.202,-0.203 1.12,-1.416 1.435,-1.435 0.41,-0.025 1.915,1.902 2.23,2.214 0.87,0.872 1.88,1.977 3.22,1.144 2.778,-1.716 -1.563,-4.868 -2.756,-6.053 l 8.673,-8.673 c 0.92,0.926 1.82,1.88 2.773,2.773 1.328,1.25 4.046,0.937 3.514,-1.437 -0.188,-0.845 -1.053,-1.488 -1.64,-2.074 l -3.188,-3.19 c -1.085,-1.085 -2.166,-2.17 -3.25,-3.25 -0.59,-0.592 -1.322,-1.58 -2.167,-1.804 -2.407,-0.634 -2.754,2.182 -1.5,3.515 0.893,0.955 1.85,1.852 2.772,2.774 -1.408,1.404 -2.813,2.81 -4.22,4.217 -0.975,0.97 -1.948,1.944 -2.92,2.917 -0.257,0.252 -1.147,1.477 -1.514,1.513 -0.41,0.036 -1.704,-1.656 -2.04,-1.988 -0.993,-0.988 -2.35,-2.525 -3.78,-1.088 -1.933,1.94 1.886,4.58 3.095,5.79 l -5.71,5.71 c -0.786,0.784 -1.644,2.002 -2.593,2.592 -0.738,0.455 -0.714,0.028 -1.46,-0.718 -0.83,-0.83 -2.043,-2.566 -3.348,-2.566 -2.054,0 -2.215,2.242 -1.156,3.443 1.74,1.972 3.754,3.755 5.614,5.614 1.177,1.173 3.866,4.995 5.777,3.08 1.936,-1.932 -1.882,-4.58 -3.09,-5.79 l 4.336,-4.337 2.893,-2.892 z"></path></g></g></svg>