<svg xmlns="http://www.w3.org/2000/svg" width="105" height="24" viewBox="958 626 105 24"><g fill="none" fill-rule="evenodd"><path fill="#FFDF1B" d="M1016.037 643.62c1.926 0 2.932-.635 2.932-1.96 0-1.298-1.037-2.017-3.05-2.017-.745 0-1.637.058-2.614.202v-4.38c.804.087 1.552.115 2.3.115 2.07 0 3.103-.604 3.103-1.986 0-1.355-.947-1.99-2.903-1.99-1.266 0-2.875.346-4.858.952v-4.552c1.752-.607 3.88-.893 6.38-.893 5.432 0 8.565 2.334 8.565 5.994 0 2.247-1.466 3.888-4.024 4.437 2.846.576 4.313 2.16 4.313 4.58 0 3.805-3.19 6.02-9.283 6.02-2.042 0-4.053-.285-6.122-.775v-4.696c2.04.604 3.763.95 5.26.95zM1038.596 634.6c4.283 0 7.13 2.622 7.13 6.483 0 4.15-3.248 7.03-8.365 7.03-6.035 0-9.916-3.774-9.916-9.967 0-7.06 4.112-11.035 11.526-11.035 1.582 0 3.278.173 5.03.547v4.582c-1.61-.49-3.16-.722-4.8-.722-3.276 0-4.8 1.325-4.886 4.323 1.208-.923 2.53-1.24 4.282-1.24zm.604 6.34c0-1.67-.947-2.74-2.327-2.74s-2.3 1.04-2.3 2.74c0 1.67.92 2.707 2.3 2.707 1.408 0 2.327-1.037 2.327-2.706z"/><path fill="#FFF" d="M958.556 626h7.092v8.352c1.01-1.358 2.394-1.994 4.268-1.994 4.123 0 6.458 2.832 6.458 7.86 0 4.8-2.364 7.662-6.285 7.662-2.394 0-4.01-.868-4.932-2.717v2.514h-6.602V626zm6.89 14.074c0 2.198.49 3.267 1.76 3.267 1.24 0 1.787-1.068 1.787-3.266 0-2.195-.52-3.264-1.788-3.264s-1.76 1.068-1.76 3.264zM994.195 642.233h-9.83c.172 1.647 1.44 2.427 3.834 2.427 1.67 0 3.4-.318 5.072-.954v3.844c-1.643.664-3.89 1.04-6.515 1.04-6.054 0-9.313-2.89-9.313-7.976 0-4.97 3.2-7.947 8.535-7.947 5.91 0 8.215 2.745 8.215 8.583v.983zm-6.17-2.92v-.462c0-1.705-.634-2.687-1.845-2.687-1.24 0-1.873.982-1.873 2.716v.432h3.718zM1004.795 632.69h3.288v4.422h-3.288v3.613c0 1.85.29 2.717 1.7 2.717.377 0 .894-.058 1.5-.204v4.336c-1.527.463-3.055.636-4.67.636-1.99 0-3.518-.636-4.41-1.735-1.155-1.446-1.184-3.265-1.184-5.692v-3.67h-2.508v-4.423h2.51v-3.353l7.063-2.226v5.58z"/><path fill="#FFDF1B" d="M1047.79 627.11h13.997v4.784h-7.444v3.025c.604-.03 1.006-.06 1.148-.06 4.63 0 7.13 2.335 7.13 6.28 0 4.064-3.047 6.483-8.997 6.483-2.068 0-4.11-.314-6.18-.833v-4.553c1.582.433 2.962.634 4.14.634 2.414 0 3.68-.807 3.68-2.305 0-1.67-1.323-2.506-4.025-2.506-1.15 0-2.27.2-3.45.49v-11.44z"/></g></svg>