<svg width="34" height="30" viewBox="0 0 34 30" xmlns="http://www.w3.org/2000/svg"><path d="M19.594 4.84l-.358-1.953C19.02 1.704 17.85.913 16.622 1.122L2.994 3.439C1.767 3.648.947 4.777 1.164 5.96l3.12 17.063c.216 1.184 1.386 1.975 2.614 1.766l6.997-1.19V7.809c0-1.64 1.378-2.968 3.078-2.968h2.62zm1.344 1.089h-3.965c-1.077 0-1.95.841-1.95 1.88l-.082 16.703-7.847 1.349c-1.842.313-3.597-.873-3.922-2.649L.052 6.15C-.273 4.374.957 2.68 2.798 2.367L16.426.05c1.841-.313 3.597.873 3.922 2.648l.59 3.23zm3.854 7.733c-.48-.315-1.54-1.014-1.827-1.703-.297.685-1.365 1.375-1.848 1.684-1.625 1.04-4.184 2.607-2.747 4.864.947 1.49 3.25 1.33 4.254-.02-.273 3.211-1.83 3.415-1.83 3.415l4.22.022s-1.55-.22-1.787-3.433c.987 1.359 3.288 1.542 4.254.062 1.462-2.243-1.08-3.837-2.69-4.89zM17.15 5.98a2.193 2.193 0 0 0-2.194 2.193v17.54c0 1.21.982 2.192 2.194 2.192h13.56a2.193 2.193 0 0 0 2.193-2.193V8.171c0-1.21-.982-2.192-2.193-2.192H17.15zm0-1.096h13.56A3.29 3.29 0 0 1 34 8.172v17.54A3.29 3.29 0 0 1 30.71 29H17.15a3.29 3.29 0 0 1-3.29-3.289V8.171a3.29 3.29 0 0 1 3.29-3.288z" fill="#00FFF2" fill-rule="nonzero"/></svg>