<svg width="25" height="30" viewBox="0 0 25 30" xmlns="http://www.w3.org/2000/svg"><path d="M.324 12.661l.974.227C1.1 13.738 1 14.612 1 15.5 1 21.851 6.149 27 12.5 27c4.242 0 8.077-2.317 10.084-5.967l.877.481A12.495 12.495 0 0 1 12.5 28C5.596 28 0 22.404 0 15.5c0-.964.11-1.915.324-2.839zm2.06-2.637H8V11H1V4h.977v4.75A12.495 12.495 0 0 1 12.5 3C19.404 3 25 8.596 25 15.5c0 1.2-.17 2.38-.5 3.51l-.96-.28c.304-1.04.46-2.124.46-3.23C24 9.149 18.851 4 12.5 4a11.498 11.498 0 0 0-10.115 6.024zM17 21.976V21h7v7h-.977v-6.024H17z" fill="#00FFF2" fill-rule="nonzero"/></svg>