<?xml version="1.0" encoding="UTF-8"?>
<svg width="18px" height="20px" viewBox="0 0 18 20" version="1.1" xmlns="http://www.w3.org/2000/svg" xmlns:xlink="http://www.w3.org/1999/xlink">
    <!-- Generator: Sketch 46.2 (44496) - http://www.bohemiancoding.com/sketch -->
    <title>Group</title>
    <desc>Created with Sketch.</desc>
    <defs></defs>
    <g id="Page-1" stroke="none" stroke-width="1" fill="none" fill-rule="evenodd">
        <g id="Group" fill-rule="nonzero" fill="#666666">
            <g id="My-Account-Selected">
                <g id="My-Account" transform="translate(0.000000, 8.000000)">
                    <path d="M8.674,11.87 C3.91621974,11.87 0,9.266054 0,5.935 C0,2.603946 3.91621974,0 8.674,0 C13.4317803,0 17.348,2.603946 17.348,5.935 C17.348,9.266054 13.4317803,11.87 8.674,11.87 Z M8.674,10.87 C12.9449708,10.87 16.348,8.6072812 16.348,5.935 C16.348,3.2627188 12.9449708,1 8.674,1 C4.40302917,1 1,3.2627188 1,5.935 C1,8.6072812 4.40302917,10.87 8.674,10.87 Z" id="Oval"></path>
                </g>
                <path d="M8.5,8 C10.4329966,8 12,6.43299662 12,4.5 C12,2.56700338 10.4329966,1 8.5,1 C6.56700338,1 5,2.56700338 5,4.5 C5,6.43299662 6.56700338,8 8.5,8 Z M8.5,9 C6.01471863,9 4,6.98528137 4,4.5 C4,2.01471863 6.01471863,0 8.5,0 C10.9852814,0 13,2.01471863 13,4.5 C13,6.98528137 10.9852814,9 8.5,9 Z" id="Oval-2"></path>
            </g>
        </g>
    </g>
</svg>