<?xml version="1.0" encoding="UTF-8"?>
<svg width="18px" height="20px" viewBox="0 0 18 20" version="1.1" xmlns="http://www.w3.org/2000/svg" xmlns:xlink="http://www.w3.org/1999/xlink">
    <!-- Generator: Sketch 46.2 (44496) - http://www.bohemiancoding.com/sketch -->
    <title>Group</title>
    <desc>Created with Sketch.</desc>
    <defs>
        <path d="M9.24,4.787 C9.24,2.357 7.195,0.39 4.674,0.39 C2.154,0.39 0.11,2.358 0.11,4.787 C0.11,7.217 2.153,9.184 4.674,9.184 C7.194,9.184 9.239,7.216 9.239,4.787 L9.24,4.787 Z" id="path-1"></path>
    </defs>
    <g id="Page-1" stroke="none" stroke-width="1" fill="none" fill-rule="evenodd">
        <g id="Group">
            <g id="My-Account">
                <path d="M8.674,19.87 C3.91621974,19.87 0,17.266054 0,13.935 C0,10.603946 3.91621974,8 8.674,8 C13.4317803,8 17.348,10.603946 17.348,13.935 C17.348,17.266054 13.4317803,19.87 8.674,19.87 Z M8.674,18.87 C12.9449708,18.87 16.348,16.6072812 16.348,13.935 C16.348,11.2627188 12.9449708,9 8.674,9 C4.40302917,9 1,11.2627188 1,13.935 C1,16.6072812 4.40302917,18.87 8.674,18.87 Z" id="Oval" fill="#14805E" fill-rule="nonzero"></path>
                <g id="Shape-Clipped" transform="translate(4.000000, 0.000000)">
                    <mask id="mask-2" fill="white">
                        <use xlink:href="#path-1"></use>
                    </mask>
                    <g id="path-1"></g>
                </g>
            </g>
            <path d="M8.5,8 C10.4329966,8 12,6.43299662 12,4.5 C12,2.56700338 10.4329966,1 8.5,1 C6.56700338,1 5,2.56700338 5,4.5 C5,6.43299662 6.56700338,8 8.5,8 Z M8.5,9 C6.01471863,9 4,6.98528137 4,4.5 C4,2.01471863 6.01471863,0 8.5,0 C10.9852814,0 13,2.01471863 13,4.5 C13,6.98528137 10.9852814,9 8.5,9 Z" id="Oval-2" fill="#14805E" fill-rule="nonzero"></path>
        </g>
    </g>
</svg>