<?xml version="1.0" encoding="UTF-8"?>
<svg width="46px" height="450px" viewBox="0 0 46 450" version="1.1" xmlns="http://www.w3.org/2000/svg" xmlns:xlink="http://www.w3.org/1999/xlink">
    <!-- Generator: Sketch 49.1 (51147) - http://www.bohemiancoding.com/sketch -->
    <title>Pairs LHS Column</title>
    <desc>Created with Sketch.</desc>
    <defs></defs>
    <g id="Page-1" stroke="none" stroke-width="1" fill="none" fill-rule="evenodd">
        <g id="Pairs-Table" transform="translate(-1.000000, 10.000000)" fill="#E4E4E4">
            <g id="Group">
                <path d="M8.49951172,14 L7.24267578,14 L7.24267578,9.37255859 L2.52636719,9.37255859 L2.52636719,14 L1.26953125,14 L1.26953125,4.54833984 L2.52636719,4.54833984 L2.52636719,8.25537109 L7.24267578,8.25537109 L7.24267578,4.54833984 L8.49951172,4.54833984 L8.49951172,14 Z M16.453125,14 L15.2661133,14 L15.2661133,13.2446289 C15.1603185,13.3165694 15.0174976,13.4170729 14.8376465,13.5461426 C14.6577953,13.6752122 14.4832365,13.7778317 14.3139648,13.8540039 C14.1150706,13.9513351 13.8865573,14.0327959 13.628418,14.0983887 C13.3702787,14.1639814 13.0677101,14.1967773 12.7207031,14.1967773 C12.0817025,14.1967773 11.5400413,13.9851909 11.0957031,13.5620117 C10.651365,13.1388325 10.4291992,12.5992871 10.4291992,11.9433594 C10.4291992,11.4059218 10.5445138,10.9711117 10.7751465,10.638916 C11.0057791,10.3067203 11.334796,10.0454111 11.762207,9.85498047 C12.1938498,9.66454983 12.7122366,9.53548211 13.3173828,9.46777344 C13.9225291,9.40006477 14.5720994,9.34928402 15.2661133,9.31542969 L15.2661133,9.13134766 C15.2661133,8.86051297 15.2185063,8.63623136 15.123291,8.45849609 C15.0280757,8.28076083 14.8916025,8.14111379 14.7138672,8.03955078 C14.5445955,7.94221957 14.3414725,7.87662777 14.1044922,7.84277344 C13.8675118,7.8089191 13.6199557,7.79199219 13.3618164,7.79199219 C13.0486638,7.79199219 12.6995462,7.83325154 12.3144531,7.91577148 C11.9293601,7.99829143 11.5315776,8.11783776 11.1210938,8.27441406 L11.0576172,8.27441406 L11.0576172,7.06201172 C11.2903657,6.99853484 11.6267882,6.92871132 12.0668945,6.85253906 C12.5070009,6.77636681 12.9407531,6.73828125 13.3681641,6.73828125 C13.8675155,6.73828125 14.3023256,6.7795406 14.6726074,6.86206055 C15.0428892,6.94458049 15.3634427,7.08528546 15.6342773,7.28417969 C15.9008802,7.47884212 16.1040032,7.73062997 16.2436523,8.03955078 C16.3833015,8.3484716 16.453125,8.73144303 16.453125,9.18847656 L16.453125,14 Z M15.2661133,12.2543945 L15.2661133,10.2802734 C14.9021792,10.3014324 14.4737167,10.3331704 13.9807129,10.3754883 C13.4877091,10.4178062 13.0973322,10.4791663 12.8095703,10.5595703 C12.4667952,10.6569015 12.1896169,10.8081858 11.9780273,11.0134277 C11.7664377,11.2186696 11.6606445,11.5011375 11.6606445,11.8608398 C11.6606445,12.2670919 11.7833647,12.5728343 12.0288086,12.7780762 C12.2742525,12.9833181 12.6487605,13.0859375 13.1523438,13.0859375 C13.5712912,13.0859375 13.9542626,13.0044767 14.3012695,12.8415527 C14.6482765,12.6786287 14.9698878,12.4829113 15.2661133,12.2543945 Z M24.6796875,14 L23.4863281,14 L23.4863281,9.96289062 C23.4863281,9.63704264 23.4672853,9.33130026 23.4291992,9.0456543 C23.3911131,8.76000834 23.3212896,8.53678466 23.2197266,8.37597656 C23.1139318,8.1982413 22.9615895,8.06599978 22.7626953,7.97924805 C22.5638011,7.89249631 22.3056656,7.84912109 21.9882812,7.84912109 C21.6624333,7.84912109 21.3217791,7.92952394 20.9663086,8.09033203 C20.6108381,8.25114013 20.2701839,8.45637896 19.9443359,8.70605469 L19.9443359,14 L18.7509766,14 L18.7509766,6.90966797 L19.9443359,6.90966797 L19.9443359,7.69677734 C20.3167336,7.38785653 20.7018209,7.146648 21.0996094,6.97314453 C21.4973978,6.79964106 21.9057596,6.71289062 22.324707,6.71289062 C23.0906614,6.71289062 23.6746399,6.94351983 24.0766602,7.40478516 C24.4786804,7.86605048 24.6796875,8.53043186 24.6796875,9.39794922 L24.6796875,14 Z M32.7285156,14 L31.5351562,14 L31.5351562,13.2573242 C31.1923811,13.5535497 30.8348,13.7841789 30.4624023,13.9492188 C30.0900046,14.1142586 29.6858746,14.1967773 29.25,14.1967773 C28.4036416,14.1967773 27.7318547,13.8709342 27.2346191,13.2192383 C26.7373836,12.5675423 26.4887695,11.6640683 26.4887695,10.5087891 C26.4887695,9.9078746 26.574462,9.37256094 26.7458496,8.90283203 C26.9172372,8.43310312 27.1489243,8.03320478 27.440918,7.703125 C27.7286798,7.38150881 28.0640443,7.13606855 28.4470215,6.96679688 C28.8299987,6.7975252 29.2267232,6.71289062 29.637207,6.71289062 C30.0096047,6.71289062 30.3396796,6.75203411 30.6274414,6.83032227 C30.9152033,6.90861042 31.2177719,7.03027261 31.5351562,7.1953125 L31.5351562,4.12304688 L32.7285156,4.12304688 L32.7285156,14 Z M31.5351562,12.2543945 L31.5351562,8.18554688 C31.2135401,8.04166595 30.9257825,7.94222033 30.671875,7.88720703 C30.4179675,7.83219374 30.1407893,7.8046875 29.840332,7.8046875 C29.1717089,7.8046875 28.6512063,8.03743257 28.2788086,8.50292969 C27.9064109,8.96842681 27.7202148,9.62857646 27.7202148,10.4833984 C27.7202148,11.325525 27.8640936,11.965574 28.1518555,12.4035645 C28.4396173,12.8415549 28.9008757,13.0605469 29.5356445,13.0605469 C29.8741879,13.0605469 30.2169579,12.9854337 30.5639648,12.8352051 C30.9109718,12.6849765 31.234699,12.4913749 31.5351562,12.2543945 Z" id="Hand"></path>
                <g id="Group-39" transform="translate(2.000000, 40.000000)">
                    <path d="M7.42041016,16 L1.02197266,16 L1.02197266,14.6733398 C1.46631082,14.2924786 1.91170024,13.911623 2.3581543,13.5307617 C2.80460835,13.1499004 3.22037568,12.7711607 3.60546875,12.3945313 C4.41797281,11.6074179 4.97444511,10.9821801 5.27490234,10.5187988 C5.57535958,10.0554176 5.72558594,9.55501571 5.72558594,9.01757813 C5.72558594,8.52669025 5.56372232,8.14266089 5.23999023,7.86547852 C4.91625815,7.58829614 4.46452113,7.44970703 3.88476562,7.44970703 C3.49967255,7.44970703 3.08284729,7.51741469 2.63427734,7.65283203 C2.18570739,7.78824938 1.74772349,7.99560407 1.3203125,8.27490234 L1.25683594,8.27490234 L1.25683594,6.94189453 C1.55729317,6.79378181 1.95824945,6.6583665 2.4597168,6.53564453 C2.96118415,6.41292256 3.446775,6.3515625 3.91650391,6.3515625 C4.88558427,6.3515625 5.64517954,6.5853655 6.1953125,7.05297852 C6.74544546,7.52059153 7.02050781,8.15429288 7.02050781,8.95410156 C7.02050781,9.31380388 6.97501673,9.64916837 6.8840332,9.96020508 C6.79304968,10.2712418 6.65869229,10.5664049 6.48095703,10.8457031 C6.31591714,11.1080742 6.12231556,11.3662097 5.90014648,11.6201172 C5.6779774,11.8740247 5.40820471,12.1554347 5.09082031,12.4643555 C4.63801857,12.9086936 4.17041257,13.339272 3.68798828,13.7561035 C3.20556399,14.172935 2.75488491,14.5590803 2.3359375,14.9145508 L7.42041016,14.9145508 L7.42041016,16 Z M11.9145508,14.190918 L10.1245117,18.3486328 L9.19775391,18.3486328 L10.3022461,14.190918 L11.9145508,14.190918 Z M20.4140625,16 L14.015625,16 L14.015625,14.6733398 C14.4599632,14.2924786 14.9053526,13.911623 15.3518066,13.5307617 C15.7982607,13.1499004 16.214028,12.7711607 16.5991211,12.3945313 C17.4116252,11.6074179 17.9680975,10.9821801 18.2685547,10.5187988 C18.5690119,10.0554176 18.7192383,9.55501571 18.7192383,9.01757813 C18.7192383,8.52669025 18.5573747,8.14266089 18.2336426,7.86547852 C17.9099105,7.58829614 17.4581735,7.44970703 16.878418,7.44970703 C16.4933249,7.44970703 16.0764996,7.51741469 15.6279297,7.65283203 C15.1793597,7.78824938 14.7413758,7.99560407 14.3139648,8.27490234 L14.2504883,8.27490234 L14.2504883,6.94189453 C14.5509455,6.79378181 14.9519018,6.6583665 15.4533691,6.53564453 C15.9548365,6.41292256 16.4404273,6.3515625 16.9101562,6.3515625 C17.8792366,6.3515625 18.6388319,6.5853655 19.1889648,7.05297852 C19.7390978,7.52059153 20.0141602,8.15429288 20.0141602,8.95410156 C20.0141602,9.31380388 19.9686691,9.64916837 19.8776855,9.96020508 C19.786702,10.2712418 19.6523446,10.5664049 19.4746094,10.8457031 C19.3095695,11.1080742 19.1159679,11.3662097 18.8937988,11.6201172 C18.6716297,11.8740247 18.4018571,12.1554347 18.0844727,12.4643555 C17.6316709,12.9086936 17.1640649,13.339272 16.6816406,13.7561035 C16.1992163,14.172935 15.7485373,14.5590803 15.3295898,14.9145508 L20.4140625,14.9145508 L20.4140625,16 Z" id="2,2"></path>
                </g>
                <g id="Group-39" transform="translate(2.000000, 81.000000)">
                    <path d="M6.58886719,11.4487305 C6.7919932,11.6306975 6.95914648,11.8592109 7.09033203,12.1342773 C7.22151758,12.4093438 7.28710938,12.764809 7.28710938,13.2006836 C7.28710938,13.6323264 7.2088224,14.027993 7.05224609,14.3876953 C6.89566979,14.7473976 6.67561991,15.0605455 6.39208984,15.3271484 C6.07470544,15.6233739 5.7012554,15.8423658 5.27172852,15.9841309 C4.84220163,16.1258959 4.37142183,16.1967773 3.859375,16.1967773 C3.33463279,16.1967773 2.81836191,16.1343593 2.31054688,16.0095215 C1.80273184,15.8846836 1.38590658,15.7482104 1.06005859,15.6000977 L1.06005859,14.2734375 L1.15527344,14.2734375 C1.51497576,14.5104179 1.93814861,14.7071932 2.42480469,14.8637695 C2.91146077,15.0203458 3.38118263,15.0986328 3.83398438,15.0986328 C4.10058727,15.0986328 4.38411308,15.0541997 4.68457031,14.965332 C4.98502754,14.8764644 5.22835193,14.7452808 5.41455078,14.5717773 C5.60921321,14.3855785 5.75414991,14.1803397 5.84936523,13.9560547 C5.94458055,13.7317697 5.9921875,13.4482439 5.9921875,13.1054688 C5.9921875,12.7669254 5.93823296,12.4865734 5.83032227,12.2644043 C5.72241157,12.0422352 5.57324314,11.8676764 5.3828125,11.7407227 C5.19238186,11.6095371 4.96175266,11.5196129 4.69091797,11.4709473 C4.42008328,11.4222817 4.12809401,11.3979492 3.81494141,11.3979492 L3.24365234,11.3979492 L3.24365234,10.3442383 L3.68798828,10.3442383 C4.33122066,10.3442383 4.84431775,10.2098809 5.22729492,9.94116211 C5.6102721,9.67244332 5.80175781,9.2799505 5.80175781,8.76367188 C5.80175781,8.53515511 5.75309293,8.33520594 5.65576172,8.16381836 C5.5584305,7.99243078 5.42301519,7.85172581 5.24951172,7.74169922 C5.06754466,7.63167263 4.87288515,7.55550151 4.66552734,7.51318359 C4.45816954,7.47086567 4.2233086,7.44970703 3.9609375,7.44970703 C3.55891726,7.44970703 3.13151268,7.52164642 2.67871094,7.66552734 C2.22590919,7.80940827 1.79850461,8.01253124 1.39648438,8.27490234 L1.33300781,8.27490234 L1.33300781,6.94824219 C1.63346504,6.80012947 2.03442132,6.66365622 2.53588867,6.53881836 C3.03735602,6.4139805 3.52294687,6.3515625 3.99267578,6.3515625 C4.45394111,6.3515625 4.86018705,6.39387979 5.21142578,6.47851563 C5.56266452,6.56315146 5.88004416,6.69856678 6.16357422,6.88476563 C6.46826324,7.08789164 6.69889245,7.33333189 6.85546875,7.62109375 C7.01204505,7.90885561 7.09033203,8.24527802 7.09033203,8.63037109 C7.09033203,9.1551133 6.90519391,9.61319791 6.53491211,10.0046387 C6.16463031,10.3960794 5.72770434,10.6425776 5.22412109,10.7441406 L5.22412109,10.8330078 C5.42724711,10.8668621 5.65999218,10.9377436 5.92236328,11.0456543 C6.18473438,11.153565 6.40690013,11.2879224 6.58886719,11.4487305 Z M11.9145508,14.190918 L10.1245117,18.3486328 L9.19775391,18.3486328 L10.3022461,14.190918 L11.9145508,14.190918 Z M19.5825195,11.4487305 C19.7856455,11.6306975 19.9527988,11.8592109 20.0839844,12.1342773 C20.2151699,12.4093438 20.2807617,12.764809 20.2807617,13.2006836 C20.2807617,13.6323264 20.2024747,14.027993 20.0458984,14.3876953 C19.8893221,14.7473976 19.6692723,15.0605455 19.3857422,15.3271484 C19.0683578,15.6233739 18.6949077,15.8423658 18.2653809,15.9841309 C17.835854,16.1258959 17.3650742,16.1967773 16.8530273,16.1967773 C16.3282851,16.1967773 15.8120143,16.1343593 15.3041992,16.0095215 C14.7963842,15.8846836 14.3795589,15.7482104 14.0537109,15.6000977 L14.0537109,14.2734375 L14.1489258,14.2734375 C14.5086281,14.5104179 14.931801,14.7071932 15.418457,14.8637695 C15.9051131,15.0203458 16.374835,15.0986328 16.8276367,15.0986328 C17.0942396,15.0986328 17.3777654,15.0541997 17.6782227,14.965332 C17.9786799,14.8764644 18.2220043,14.7452808 18.4082031,14.5717773 C18.6028656,14.3855785 18.7478023,14.1803397 18.8430176,13.9560547 C18.9382329,13.7317697 18.9858398,13.4482439 18.9858398,13.1054688 C18.9858398,12.7669254 18.9318853,12.4865734 18.8239746,12.2644043 C18.7160639,12.0422352 18.5668955,11.8676764 18.3764648,11.7407227 C18.1860342,11.6095371 17.955405,11.5196129 17.6845703,11.4709473 C17.4137356,11.4222817 17.1217464,11.3979492 16.8085938,11.3979492 L16.2373047,11.3979492 L16.2373047,10.3442383 L16.6816406,10.3442383 C17.324873,10.3442383 17.8379701,10.2098809 18.2209473,9.94116211 C18.6039244,9.67244332 18.7954102,9.2799505 18.7954102,8.76367188 C18.7954102,8.53515511 18.7467453,8.33520594 18.6494141,8.16381836 C18.5520828,7.99243078 18.4166675,7.85172581 18.2431641,7.74169922 C18.061197,7.63167263 17.8665375,7.55550151 17.6591797,7.51318359 C17.4518219,7.47086567 17.2169609,7.44970703 16.9545898,7.44970703 C16.5525696,7.44970703 16.125165,7.52164642 15.6723633,7.66552734 C15.2195615,7.80940827 14.792157,8.01253124 14.3901367,8.27490234 L14.3266602,8.27490234 L14.3266602,6.94824219 C14.6271174,6.80012947 15.0280737,6.66365622 15.529541,6.53881836 C16.0310084,6.4139805 16.5165992,6.3515625 16.9863281,6.3515625 C17.4475935,6.3515625 17.8538394,6.39387979 18.2050781,6.47851563 C18.5563169,6.56315146 18.8736965,6.69856678 19.1572266,6.88476563 C19.4619156,7.08789164 19.6925448,7.33333189 19.8491211,7.62109375 C20.0056974,7.90885561 20.0839844,8.24527802 20.0839844,8.63037109 C20.0839844,9.1551133 19.8988463,9.61319791 19.5285645,10.0046387 C19.1582827,10.3960794 18.7213567,10.6425776 18.2177734,10.7441406 L18.2177734,10.8330078 C18.4208995,10.8668621 18.6536445,10.9377436 18.9160156,11.0456543 C19.1783867,11.153565 19.4005525,11.2879224 19.5825195,11.4487305 Z" id="3,3"></path>
                    <path d="M7.63623047,55.340332 L6.23339844,55.340332 L6.23339844,58 L5.01464844,58 L5.01464844,55.340332 L0.488769531,55.340332 L0.488769531,53.8803711 L5.06542969,48.5483398 L6.23339844,48.5483398 L6.23339844,54.324707 L7.63623047,54.324707 L7.63623047,55.340332 Z M5.01464844,54.324707 L5.01464844,50.059082 L1.35205078,54.324707 L5.01464844,54.324707 Z M11.9145508,56.190918 L10.1245117,60.3486328 L9.19775391,60.3486328 L10.3022461,56.190918 L11.9145508,56.190918 Z M20.6298828,55.340332 L19.2270508,55.340332 L19.2270508,58 L18.0083008,58 L18.0083008,55.340332 L13.4824219,55.340332 L13.4824219,53.8803711 L18.059082,48.5483398 L19.2270508,48.5483398 L19.2270508,54.324707 L20.6298828,54.324707 L20.6298828,55.340332 Z M18.0083008,54.324707 L18.0083008,50.059082 L14.3457031,54.324707 L18.0083008,54.324707 Z" id="4,4"></path>
                    <path d="M7.34423828,93.9975586 C7.34423828,94.437665 7.26383544,94.8587219 7.10302734,95.2607422 C6.94221925,95.6627624 6.72216937,96.0013007 6.44287109,96.2763672 C6.13818207,96.5725926 5.77531135,96.800048 5.35424805,96.9587402 C4.93318474,97.1174324 4.44547803,97.1967773 3.89111328,97.1967773 C3.37483466,97.1967773 2.87760656,97.1428228 2.39941406,97.0349121 C1.92122157,96.9270014 1.51709149,96.7968758 1.18701172,96.6445312 L1.18701172,95.3051758 L1.27587891,95.3051758 C1.62288585,95.525229 2.02913179,95.712483 2.49462891,95.8669434 C2.96012603,96.0214038 3.41715271,96.0986328 3.86572266,96.0986328 C4.16617989,96.0986328 4.45711122,96.0563155 4.73852539,95.9716797 C5.01993956,95.8870438 5.27066947,95.7389333 5.49072266,95.5273438 C5.6769215,95.3453767 5.81762648,95.1274427 5.9128418,94.8735352 C6.00805712,94.6196276 6.05566406,94.3255225 6.05566406,93.9912109 C6.05566406,93.665363 5.99959366,93.3903006 5.88745117,93.1660156 C5.77530868,92.9417306 5.61979266,92.7618822 5.42089844,92.6264648 C5.20084525,92.4656567 4.93318843,92.352458 4.61791992,92.2868652 C4.30265142,92.2212725 3.95036002,92.1884766 3.56103516,92.1884766 C3.18863746,92.1884766 2.82999847,92.2138669 2.48510742,92.2646484 C2.14021637,92.3154299 1.84293745,92.3662107 1.59326172,92.4169922 L1.59326172,87.5483398 L7.28076172,87.5483398 L7.28076172,88.6591797 L2.81835938,88.6591797 L2.81835938,91.1728516 C3.00032643,91.1559244 3.18652249,91.1432292 3.37695312,91.1347656 C3.56738376,91.126302 3.73242118,91.1220703 3.87207031,91.1220703 C4.38411714,91.1220703 4.83268037,91.1654455 5.21777344,91.2521973 C5.60286651,91.338949 5.95621584,91.4923492 6.27783203,91.7124023 C6.61637539,91.9451509 6.87874256,92.2456036 7.06494141,92.6137695 C7.25114025,92.9819354 7.34423828,93.4431938 7.34423828,93.9975586 Z M11.9145508,95.190918 L10.1245117,99.3486328 L9.19775391,99.3486328 L10.3022461,95.190918 L11.9145508,95.190918 Z M20.3378906,93.9975586 C20.3378906,94.437665 20.2574878,94.8587219 20.0966797,95.2607422 C19.9358716,95.6627624 19.7158217,96.0013007 19.4365234,96.2763672 C19.1318344,96.5725926 18.7689637,96.800048 18.3479004,96.9587402 C17.9268371,97.1174324 17.4391304,97.1967773 16.8847656,97.1967773 C16.368487,97.1967773 15.8712589,97.1428228 15.3930664,97.0349121 C14.9148739,96.9270014 14.5107438,96.7968758 14.1806641,96.6445312 L14.1806641,95.3051758 L14.2695312,95.3051758 C14.6165382,95.525229 15.0227841,95.712483 15.4882812,95.8669434 C15.9537784,96.0214038 16.410805,96.0986328 16.859375,96.0986328 C17.1598322,96.0986328 17.4507636,96.0563155 17.7321777,95.9716797 C18.0135919,95.8870438 18.2643218,95.7389333 18.484375,95.5273438 C18.6705738,95.3453767 18.8112788,95.1274427 18.9064941,94.8735352 C19.0017095,94.6196276 19.0493164,94.3255225 19.0493164,93.9912109 C19.0493164,93.665363 18.993246,93.3903006 18.8811035,93.1660156 C18.768961,92.9417306 18.613445,92.7618822 18.4145508,92.6264648 C18.1944976,92.4656567 17.9268408,92.352458 17.6115723,92.2868652 C17.2963038,92.2212725 16.9440124,92.1884766 16.5546875,92.1884766 C16.1822898,92.1884766 15.8236508,92.2138669 15.4787598,92.2646484 C15.1338687,92.3154299 14.8365898,92.3662107 14.5869141,92.4169922 L14.5869141,87.5483398 L20.2744141,87.5483398 L20.2744141,88.6591797 L15.8120117,88.6591797 L15.8120117,91.1728516 C15.9939788,91.1559244 16.1801748,91.1432292 16.3706055,91.1347656 C16.5610361,91.126302 16.7260735,91.1220703 16.8657227,91.1220703 C17.3777695,91.1220703 17.8263327,91.1654455 18.2114258,91.2521973 C18.5965189,91.338949 18.9498682,91.4923492 19.2714844,91.7124023 C19.6100277,91.9451509 19.8723949,92.2456036 20.0585938,92.6137695 C20.2447926,92.9819354 20.3378906,93.4431938 20.3378906,93.9975586 Z" id="5,5"></path>
                    <path d="M7.56005859,135.934082 C7.56005859,136.894699 7.24373689,137.678627 6.61108398,138.285889 C5.97843108,138.893151 5.20296683,139.196777 4.28466797,139.196777 C3.81917085,139.196777 3.395998,139.124838 3.01513672,138.980957 C2.63427544,138.837076 2.29785302,138.623374 2.00585938,138.339844 C1.64192526,137.988605 1.36157325,137.523115 1.16479492,136.943359 C0.968016594,136.363604 0.869628906,135.665369 0.869628906,134.848633 C0.869628906,134.010738 0.959553137,133.26807 1.1394043,132.620605 C1.31925546,131.973141 1.60595506,131.397626 1.99951172,130.894043 C2.37190941,130.41585 2.8522106,130.0424 3.44042969,129.773682 C4.02864877,129.504963 4.71418879,129.370605 5.49707031,129.370605 C5.74674604,129.370605 5.9562166,129.381185 6.12548828,129.402344 C6.29475996,129.423503 6.46614497,129.461588 6.63964844,129.516602 L6.63964844,130.729004 L6.57617188,130.729004 C6.4576817,130.665527 6.27889117,130.605225 6.03979492,130.548096 C5.80069867,130.490967 5.55631635,130.462402 5.30664063,130.462402 C4.39680535,130.462402 3.67106391,130.746986 3.12939453,131.316162 C2.58772516,131.885338 2.27246138,132.654455 2.18359375,133.623535 C2.53906428,133.407714 2.88923981,133.243734 3.23413086,133.131592 C3.57902191,133.019449 3.97786232,132.963379 4.43066406,132.963379 C4.8326843,132.963379 5.18709156,133.000407 5.49389648,133.074463 C5.8007014,133.148519 6.11490725,133.297688 6.43652344,133.521973 C6.80892113,133.780112 7.08927315,134.105955 7.27758789,134.499512 C7.46590263,134.893068 7.56005859,135.371254 7.56005859,135.934082 Z M6.27148438,135.984863 C6.27148438,135.591307 6.21329811,135.265464 6.09692383,135.007324 C5.98054955,134.749185 5.78906383,134.524903 5.52246094,134.334473 C5.32779851,134.199055 5.11198035,134.110189 4.875,134.067871 C4.63801965,134.025553 4.39046353,134.004395 4.13232422,134.004395 C3.7726219,134.004395 3.43831535,134.046712 3.12939453,134.131348 C2.82047372,134.215983 2.50309408,134.347167 2.17724609,134.524902 C2.16878251,134.618002 2.16243492,134.707926 2.15820312,134.794678 C2.15397133,134.881429 2.15185547,134.990396 2.15185547,135.121582 C2.15185547,135.790205 2.22062106,136.318113 2.3581543,136.705322 C2.49568754,137.092531 2.68505739,137.398274 2.92626953,137.622559 C3.12093196,137.808757 3.33146046,137.945231 3.55786133,138.031982 C3.7842622,138.118734 4.03076039,138.162109 4.29736328,138.162109 C4.91097312,138.162109 5.39339017,137.974855 5.74462891,137.600342 C6.09586764,137.225828 6.27148438,136.687341 6.27148438,135.984863 Z M11.9145508,137.190918 L10.1245117,141.348633 L9.19775391,141.348633 L10.3022461,137.190918 L11.9145508,137.190918 Z M20.5537109,135.934082 C20.5537109,136.894699 20.2373892,137.678627 19.6047363,138.285889 C18.9720834,138.893151 18.1966192,139.196777 17.2783203,139.196777 C16.8128232,139.196777 16.3896503,139.124838 16.0087891,138.980957 C15.6279278,138.837076 15.2915054,138.623374 14.9995117,138.339844 C14.6355776,137.988605 14.3552256,137.523115 14.1584473,136.943359 C13.9616689,136.363604 13.8632812,135.665369 13.8632812,134.848633 C13.8632812,134.010738 13.9532055,133.26807 14.1330566,132.620605 C14.3129078,131.973141 14.5996074,131.397626 14.9931641,130.894043 C15.3655618,130.41585 15.8458629,130.0424 16.434082,129.773682 C17.0223011,129.504963 17.7078411,129.370605 18.4907227,129.370605 C18.7403984,129.370605 18.9498689,129.381185 19.1191406,129.402344 C19.2884123,129.423503 19.4597973,129.461588 19.6333008,129.516602 L19.6333008,130.729004 L19.5698242,130.729004 C19.451334,130.665527 19.2725435,130.605225 19.0334473,130.548096 C18.794351,130.490967 18.5499687,130.462402 18.300293,130.462402 C17.3904577,130.462402 16.6647162,130.746986 16.1230469,131.316162 C15.5813775,131.885338 15.2661137,132.654455 15.1772461,133.623535 C15.5327166,133.407714 15.8828922,133.243734 16.2277832,133.131592 C16.5726743,133.019449 16.9715147,132.963379 17.4243164,132.963379 C17.8263366,132.963379 18.1807439,133.000407 18.4875488,133.074463 C18.7943537,133.148519 19.1085596,133.297688 19.4301758,133.521973 C19.8025735,133.780112 20.0829255,134.105955 20.2712402,134.499512 C20.459555,134.893068 20.5537109,135.371254 20.5537109,135.934082 Z M19.2651367,135.984863 C19.2651367,135.591307 19.2069505,135.265464 19.0905762,135.007324 C18.9742019,134.749185 18.7827162,134.524903 18.5161133,134.334473 C18.3214508,134.199055 18.1056327,134.110189 17.8686523,134.067871 C17.631672,134.025553 17.3841159,134.004395 17.1259766,134.004395 C16.7662742,134.004395 16.4319677,134.046712 16.1230469,134.131348 C15.8141261,134.215983 15.4967464,134.347167 15.1708984,134.524902 C15.1624349,134.618002 15.1560873,134.707926 15.1518555,134.794678 C15.1476237,134.881429 15.1455078,134.990396 15.1455078,135.121582 C15.1455078,135.790205 15.2142734,136.318113 15.3518066,136.705322 C15.4893399,137.092531 15.6787097,137.398274 15.9199219,137.622559 C16.1145843,137.808757 16.3251128,137.945231 16.5515137,138.031982 C16.7779145,138.118734 17.0244127,138.162109 17.2910156,138.162109 C17.9046255,138.162109 18.3870425,137.974855 18.7382812,137.600342 C19.08952,137.225828 19.2651367,136.687341 19.2651367,135.984863 Z" id="6,6"></path>
                    <path d="M7.44580078,170.963867 L3.16748047,179 L1.80908203,179 L6.36035156,170.65918 L0.977539062,170.65918 L0.977539062,169.54834 L7.44580078,169.54834 L7.44580078,170.963867 Z M11.9145508,177.190918 L10.1245117,181.348633 L9.19775391,181.348633 L10.3022461,177.190918 L11.9145508,177.190918 Z M20.4394531,170.963867 L16.1611328,179 L14.8027344,179 L19.3540039,170.65918 L13.9711914,170.65918 L13.9711914,169.54834 L20.4394531,169.54834 L20.4394531,170.963867 Z" id="7,7"></path>
                    <path d="M7.49023438,216.365723 C7.49023438,217.182459 7.1717968,217.861651 6.53491211,218.40332 C5.89802741,218.94499 5.09717279,219.21582 4.13232422,219.21582 C3.10823056,219.21582 2.29256489,218.951337 1.68530273,218.422363 C1.07804058,217.893389 0.774414062,217.216313 0.774414062,216.391113 C0.774414062,215.866371 0.926756289,215.39136 1.23144531,214.966064 C1.53613434,214.540769 1.96565478,214.203289 2.52001953,213.953613 L2.52001953,213.915527 C2.01220449,213.644693 1.63663859,213.348472 1.39331055,213.026855 C1.14998251,212.705239 1.02832031,212.303225 1.02832031,211.820801 C1.02832031,211.10986 1.32030958,210.517418 1.90429688,210.043457 C2.48828417,209.569496 3.23095252,209.33252 4.13232422,209.33252 C5.07601383,209.33252 5.82926151,209.558917 6.39208984,210.011719 C6.95491818,210.46452 7.23632812,211.040036 7.23632812,211.738281 C7.23632812,212.165692 7.10302868,212.585691 6.83642578,212.998291 C6.56982289,213.410891 6.178388,213.73356 5.66210938,213.966309 L5.66210938,214.004395 C6.25456025,214.258302 6.70735521,214.57145 7.02050781,214.943848 C7.33366042,215.316245 7.49023438,215.790199 7.49023438,216.365723 Z M5.98583984,211.750977 C5.98583984,211.298175 5.81128104,210.93742 5.4621582,210.668701 C5.11303536,210.399982 4.66764594,210.265625 4.12597656,210.265625 C3.59277077,210.265625 3.1558448,210.392577 2.81518555,210.646484 C2.47452629,210.900392 2.30419922,211.243162 2.30419922,211.674805 C2.30419922,211.979494 2.38989172,212.242919 2.5612793,212.465088 C2.73266687,212.687257 2.99186024,212.88509 3.33886719,213.058594 C3.49544349,213.134766 3.72078303,213.234212 4.01489258,213.356934 C4.30900212,213.479656 4.59570173,213.581217 4.875,213.661621 C5.29394741,213.382323 5.58382081,213.092449 5.74462891,212.791992 C5.905437,212.491535 5.98583984,212.144533 5.98583984,211.750977 Z M6.18261719,216.486328 C6.18261719,216.097003 6.09692469,215.784913 5.92553711,215.550049 C5.75414953,215.315184 5.41878505,215.079266 4.91943359,214.842285 C4.72053937,214.749186 4.50260535,214.662435 4.265625,214.582031 C4.02864465,214.501627 3.71338087,214.389486 3.31982422,214.245605 C2.93896294,214.452963 2.63322055,214.734373 2.40258789,215.089844 C2.17195523,215.445314 2.05664062,215.847328 2.05664062,216.295898 C2.05664062,216.86719 2.253416,217.339028 2.64697266,217.711426 C3.04052931,218.083823 3.53987328,218.27002 4.14501953,218.27002 C4.76286116,218.27002 5.25691547,218.11133 5.62719727,217.793945 C5.99747906,217.476561 6.18261719,217.040693 6.18261719,216.486328 Z M11.9145508,217.190918 L10.1245117,221.348633 L9.19775391,221.348633 L10.3022461,217.190918 L11.9145508,217.190918 Z M20.4838867,216.365723 C20.4838867,217.182459 20.1654491,217.861651 19.5285645,218.40332 C18.8916798,218.94499 18.0908251,219.21582 17.1259766,219.21582 C16.1018829,219.21582 15.2862172,218.951337 14.6789551,218.422363 C14.0716929,217.893389 13.7680664,217.216313 13.7680664,216.391113 C13.7680664,215.866371 13.9204086,215.39136 14.2250977,214.966064 C14.5297867,214.540769 14.9593071,214.203289 15.5136719,213.953613 L15.5136719,213.915527 C15.0058568,213.644693 14.6302909,213.348472 14.3869629,213.026855 C14.1436349,212.705239 14.0219727,212.303225 14.0219727,211.820801 C14.0219727,211.10986 14.3139619,210.517418 14.8979492,210.043457 C15.4819365,209.569496 16.2246049,209.33252 17.1259766,209.33252 C18.0696662,209.33252 18.8229139,209.558917 19.3857422,210.011719 C19.9485705,210.46452 20.2299805,211.040036 20.2299805,211.738281 C20.2299805,212.165692 20.096681,212.585691 19.8300781,212.998291 C19.5634752,213.410891 19.1720403,213.73356 18.6557617,213.966309 L18.6557617,214.004395 C19.2482126,214.258302 19.7010075,214.57145 20.0141602,214.943848 C20.3273128,215.316245 20.4838867,215.790199 20.4838867,216.365723 Z M18.9794922,211.750977 C18.9794922,211.298175 18.8049334,210.93742 18.4558105,210.668701 C18.1066877,210.399982 17.6612983,210.265625 17.1196289,210.265625 C16.5864231,210.265625 16.1494971,210.392577 15.8088379,210.646484 C15.4681786,210.900392 15.2978516,211.243162 15.2978516,211.674805 C15.2978516,211.979494 15.3835441,212.242919 15.5549316,212.465088 C15.7263192,212.687257 15.9855126,212.88509 16.3325195,213.058594 C16.4890958,213.134766 16.7144354,213.234212 17.0085449,213.356934 C17.3026545,213.479656 17.5893541,213.581217 17.8686523,213.661621 C18.2875998,213.382323 18.5774732,213.092449 18.7382812,212.791992 C18.8990893,212.491535 18.9794922,212.144533 18.9794922,211.750977 Z M19.1762695,216.486328 C19.1762695,216.097003 19.090577,215.784913 18.9191895,215.550049 C18.7478019,215.315184 18.4124374,215.079266 17.9130859,214.842285 C17.7141917,214.749186 17.4962577,214.662435 17.2592773,214.582031 C17.022297,214.501627 16.7070332,214.389486 16.3134766,214.245605 C15.9326153,214.452963 15.6268729,214.734373 15.3962402,215.089844 C15.1656076,215.445314 15.050293,215.847328 15.050293,216.295898 C15.050293,216.86719 15.2470683,217.339028 15.640625,217.711426 C16.0341817,218.083823 16.5335256,218.27002 17.1386719,218.27002 C17.7565135,218.27002 18.2505678,218.11133 18.6208496,217.793945 C18.9911314,217.476561 19.1762695,217.040693 19.1762695,216.486328 Z" id="8,8"></path>
                    <path d="M7.40771484,254.706055 C7.40771484,255.531254 7.31355888,256.28027 7.12524414,256.953125 C6.9369294,257.62598 6.65234565,258.199379 6.27148438,258.67334 C5.8863913,259.155764 5.40397425,259.528156 4.82421875,259.790527 C4.24446325,260.052898 3.56315496,260.184082 2.78027344,260.184082 C2.56022025,260.184082 2.35286556,260.172445 2.15820312,260.14917 C1.96354069,260.125895 1.79003982,260.088867 1.63769531,260.038086 L1.63769531,258.825684 L1.70117188,258.825684 C1.82389384,258.88916 1.99739471,258.949463 2.22167969,259.006592 C2.44596466,259.063721 2.69563665,259.092285 2.97070312,259.092285 C3.90592916,259.092285 4.63907612,258.811933 5.17016602,258.251221 C5.70125591,257.690508 6.00911416,256.91716 6.09375,255.931152 C5.70019334,256.168133 5.3299171,256.337402 4.98291016,256.438965 C4.63590321,256.540528 4.25716351,256.591309 3.84667969,256.591309 C3.45735482,256.591309 3.10506343,256.553223 2.78979492,256.477051 C2.47452642,256.400879 2.15820471,256.252768 1.84082031,256.032715 C1.46842262,255.774576 1.1880706,255.446617 0.999755859,255.048828 C0.811441116,254.65104 0.717285156,254.17497 0.717285156,253.620605 C0.717285156,252.655757 1.03466479,251.870771 1.66943359,251.265625 C2.30420239,250.660479 3.07860871,250.35791 3.99267578,250.35791 C4.44970932,250.35791 4.87288217,250.428792 5.26220703,250.570557 C5.65153189,250.712322 5.99218604,250.924966 6.28417969,251.208496 C6.64388201,251.559735 6.92106022,252.011472 7.11572266,252.563721 C7.31038509,253.11597 7.40771484,253.830074 7.40771484,254.706055 Z M6.12548828,254.433105 C6.12548828,253.777178 6.05778062,253.250328 5.92236328,252.852539 C5.78694594,252.454751 5.60074988,252.145834 5.36376953,251.925781 C5.16487531,251.735351 4.95117302,251.598877 4.72265625,251.516357 C4.49413948,251.433837 4.24658336,251.392578 3.97998047,251.392578 C3.37060242,251.392578 2.8892433,251.583006 2.53588867,251.963867 C2.18253404,252.344728 2.00585938,252.880042 2.00585938,253.569824 C2.00585938,253.971844 2.06298771,254.299803 2.17724609,254.553711 C2.29150448,254.807618 2.48404813,255.029784 2.75488281,255.220215 C2.94531345,255.3514 3.15478401,255.439209 3.38330078,255.483643 C3.61181755,255.528076 3.86572126,255.550293 4.14501953,255.550293 C4.47509931,255.550293 4.80940586,255.50586 5.14794922,255.416992 C5.48649258,255.328125 5.80387222,255.199057 6.10009766,255.029785 C6.10432945,254.940918 6.10961911,254.853109 6.1159668,254.766357 C6.12231448,254.679606 6.12548828,254.568523 6.12548828,254.433105 Z M11.9145508,258.190918 L10.1245117,262.348633 L9.19775391,262.348633 L10.3022461,258.190918 L11.9145508,258.190918 Z M20.4013672,254.706055 C20.4013672,255.531254 20.3072112,256.28027 20.1188965,256.953125 C19.9305817,257.62598 19.645998,258.199379 19.2651367,258.67334 C18.8800436,259.155764 18.3976266,259.528156 17.8178711,259.790527 C17.2381156,260.052898 16.5568073,260.184082 15.7739258,260.184082 C15.5538726,260.184082 15.3465179,260.172445 15.1518555,260.14917 C14.957193,260.125895 14.7836922,260.088867 14.6313477,260.038086 L14.6313477,258.825684 L14.6948242,258.825684 C14.8175462,258.88916 14.9910471,258.949463 15.215332,259.006592 C15.439617,259.063721 15.689289,259.092285 15.9643555,259.092285 C16.8995815,259.092285 17.6327285,258.811933 18.1638184,258.251221 C18.6949083,257.690508 19.0027665,256.91716 19.0874023,255.931152 C18.6938457,256.168133 18.3235694,256.337402 17.9765625,256.438965 C17.6295556,256.540528 17.2508159,256.591309 16.840332,256.591309 C16.4510072,256.591309 16.0987158,256.553223 15.7834473,256.477051 C15.4681788,256.400879 15.1518571,256.252768 14.8344727,256.032715 C14.462075,255.774576 14.1817229,255.446617 13.9934082,255.048828 C13.8050935,254.65104 13.7109375,254.17497 13.7109375,253.620605 C13.7109375,252.655757 14.0283171,251.870771 14.6630859,251.265625 C15.2978547,250.660479 16.0722611,250.35791 16.9863281,250.35791 C17.4433617,250.35791 17.8665345,250.428792 18.2558594,250.570557 C18.6451842,250.712322 18.9858384,250.924966 19.277832,251.208496 C19.6375344,251.559735 19.9147126,252.011472 20.109375,252.563721 C20.3040374,253.11597 20.4013672,253.830074 20.4013672,254.706055 Z M19.1191406,254.433105 C19.1191406,253.777178 19.051433,253.250328 18.9160156,252.852539 C18.7805983,252.454751 18.5944022,252.145834 18.3574219,251.925781 C18.1585277,251.735351 17.9448254,251.598877 17.7163086,251.516357 C17.4877918,251.433837 17.2402357,251.392578 16.9736328,251.392578 C16.3642548,251.392578 15.8828956,251.583006 15.529541,251.963867 C15.1761864,252.344728 14.9995117,252.880042 14.9995117,253.569824 C14.9995117,253.971844 15.0566401,254.299803 15.1708984,254.553711 C15.2851568,254.807618 15.4777005,255.029784 15.7485352,255.220215 C15.9389658,255.3514 16.1484364,255.439209 16.3769531,255.483643 C16.6054699,255.528076 16.8593736,255.550293 17.1386719,255.550293 C17.4687517,255.550293 17.8030582,255.50586 18.1416016,255.416992 C18.4801449,255.328125 18.7975246,255.199057 19.09375,255.029785 C19.0979818,254.940918 19.1032715,254.853109 19.1096191,254.766357 C19.1159668,254.679606 19.1191406,254.568523 19.1191406,254.433105 Z" id="9,9"></path>
                    <path d="M6.88085938,302 L1.76464844,302 L1.76464844,301.035156 L3.73242188,301.035156 L3.73242188,294.700195 L1.76464844,294.700195 L1.76464844,293.836914 C2.03125133,293.836914 2.31689301,293.814697 2.62158203,293.770264 C2.92627105,293.72583 3.15690026,293.661296 3.31347656,293.57666 C3.50813899,293.470865 3.66153915,293.336508 3.77368164,293.173584 C3.88582413,293.01066 3.95035799,292.791668 3.96728516,292.516602 L4.95117188,292.516602 L4.95117188,301.035156 L6.88085938,301.035156 L6.88085938,302 Z M15.6723633,297.270996 C15.6723633,298.967945 15.4068223,300.213131 14.8757324,301.006592 C14.3446425,301.800053 13.5205134,302.196777 12.4033203,302.196777 C11.2692001,302.196777 10.4408392,301.794763 9.91821289,300.990723 C9.39558658,300.186682 9.13427734,298.951017 9.13427734,297.283691 C9.13427734,295.60367 9.39876038,294.362716 9.92773438,293.560791 C10.4567084,292.758866 11.2818954,292.35791 12.4033203,292.35791 C13.5374406,292.35791 14.3658014,292.765214 14.8884277,293.579834 C15.411054,294.394454 15.6723633,295.624829 15.6723633,297.270996 Z M14.0029297,300.152832 C14.1510424,299.810057 14.251546,299.406985 14.3044434,298.943604 C14.3573408,298.480222 14.3837891,297.922692 14.3837891,297.270996 C14.3837891,296.627764 14.3573408,296.069176 14.3044434,295.595215 C14.251546,295.121254 14.1489265,294.71924 13.996582,294.38916 C13.8484693,294.063312 13.6464043,293.817872 13.3903809,293.652832 C13.1343574,293.487792 12.8053406,293.405273 12.4033203,293.405273 C12.0055319,293.405273 11.676515,293.487792 11.4162598,293.652832 C11.1560046,293.817872 10.9497078,294.067544 10.7973633,294.401855 C10.6534824,294.715008 10.5550947,295.12337 10.5021973,295.626953 C10.4492999,296.130536 10.4228516,296.682777 10.4228516,297.283691 C10.4228516,297.943851 10.4461261,298.496092 10.4926758,298.94043 C10.5392255,299.384768 10.6386711,299.78255 10.7910156,300.133789 C10.9306648,300.463869 11.1284981,300.715657 11.3845215,300.88916 C11.6405449,301.062664 11.9801411,301.149414 12.4033203,301.149414 C12.8011088,301.149414 13.1311836,301.066895 13.3935547,300.901855 C13.6559258,300.736816 13.8590488,300.487144 14.0029297,300.152832 Z M20.1791992,300.190918 L18.3891602,304.348633 L17.4624023,304.348633 L18.5668945,300.190918 L20.1791992,300.190918 Z M28.1391602,302 L23.0229492,302 L23.0229492,301.035156 L24.9907227,301.035156 L24.9907227,294.700195 L23.0229492,294.700195 L23.0229492,293.836914 C23.2895521,293.836914 23.5751938,293.814697 23.8798828,293.770264 C24.1845718,293.72583 24.415201,293.661296 24.5717773,293.57666 C24.7664398,293.470865 24.9198399,293.336508 25.0319824,293.173584 C25.1441249,293.01066 25.2086588,292.791668 25.2255859,292.516602 L26.2094727,292.516602 L26.2094727,301.035156 L28.1391602,301.035156 L28.1391602,302 Z M36.9306641,297.270996 C36.9306641,298.967945 36.6651231,300.213131 36.1340332,301.006592 C35.6029433,301.800053 34.7788142,302.196777 33.6616211,302.196777 C32.5275008,302.196777 31.69914,301.794763 31.1765137,300.990723 C30.6538874,300.186682 30.3925781,298.951017 30.3925781,297.283691 C30.3925781,295.60367 30.6570612,294.362716 31.1860352,293.560791 C31.7150092,292.758866 32.5401962,292.35791 33.6616211,292.35791 C34.7957413,292.35791 35.6241022,292.765214 36.1467285,293.579834 C36.6693548,294.394454 36.9306641,295.624829 36.9306641,297.270996 Z M35.2612305,300.152832 C35.4093432,299.810057 35.5098467,299.406985 35.5627441,298.943604 C35.6156415,298.480222 35.6420898,297.922692 35.6420898,297.270996 C35.6420898,296.627764 35.6156415,296.069176 35.5627441,295.595215 C35.5098467,295.121254 35.4072273,294.71924 35.2548828,294.38916 C35.1067701,294.063312 34.9047051,293.817872 34.6486816,293.652832 C34.3926582,293.487792 34.0636413,293.405273 33.6616211,293.405273 C33.2638326,293.405273 32.9348158,293.487792 32.6745605,293.652832 C32.4143053,293.817872 32.2080086,294.067544 32.0556641,294.401855 C31.9117831,294.715008 31.8133954,295.12337 31.760498,295.626953 C31.7076006,296.130536 31.6811523,296.682777 31.6811523,297.283691 C31.6811523,297.943851 31.7044269,298.496092 31.7509766,298.94043 C31.7975263,299.384768 31.8969719,299.78255 32.0493164,300.133789 C32.1889655,300.463869 32.3867989,300.715657 32.6428223,300.88916 C32.8988457,301.062664 33.2384419,301.149414 33.6616211,301.149414 C34.0594095,301.149414 34.3894844,301.066895 34.6518555,300.901855 C34.9142266,300.736816 35.1173495,300.487144 35.2612305,300.152832 Z" id="10,10"></path>
                    <path d="M8.72167969,343 L7.38232422,343 L6.45556641,340.365723 L2.36767578,340.365723 L1.44091797,343 L0.165039062,343 L3.60546875,333.54834 L5.28125,333.54834 L8.72167969,343 Z M6.06835938,339.286621 L4.41162109,334.646484 L2.74853516,339.286621 L6.06835938,339.286621 Z M12.5366211,341.190918 L10.746582,345.348633 L9.81982422,345.348633 L10.9243164,341.190918 L12.5366211,341.190918 Z M22.3374023,343 L20.9980469,343 L20.0712891,340.365723 L15.9833984,340.365723 L15.0566406,343 L13.7807617,343 L17.2211914,333.54834 L18.8969727,333.54834 L22.3374023,343 Z M19.684082,339.286621 L18.0273438,334.646484 L16.3642578,339.286621 L19.684082,339.286621 Z" id="A,A"></path>
                </g>
            </g>
        </g>
    </g>
</svg>