<svg width="409" height="354" viewBox="0 0 409 354" xmlns="http://www.w3.org/2000/svg">
  <g fill="none" fill-rule="evenodd">
    <path d="M22.3 10h-6.4V8.7a749.2 749.2 0 0 1 2.6-2.3L20 4.5c.3-.4.5-1 .5-1.5s-.2-.9-.5-1.1a2 2 0 0 0-1.3-.5l-1.3.3a5 5 0 0 0-1.3.6V.9a6.1 6.1 0 0 1 2.7-.6c.9 0 1.6.3 2.2.8.5.4.8 1 .8 1.9a3.6 3.6 0 0 1-.6 1.8l-.5.8-.8.9a30 30 0 0 1-2.8 2.4h5V10zM62.5 5.4a2.1 2.1 0 0 1 .7 1.8l-.3 1.2a2.8 2.8 0 0 1-1.8 1.6l-1.4.2c-.5 0-1 0-1.5-.2l-1.3-.4V8.3h.1a5.2 5.2 0 0 0 2.7.8l.9-.1.7-.4.4-.6.2-.9c0-.3 0-.6-.2-.8l-.4-.6-.7-.2a5 5 0 0 0-1-.1h-.5v-1h.5c.6 0 1.1-.2 1.5-.5.4-.2.6-.6.6-1.1 0-.3 0-.5-.2-.6 0-.2-.2-.3-.4-.5l-.6-.2h-.7c-.4 0-.8 0-1.3.2l-1.2.6h-.1V.9l1.2-.4a6 6 0 0 1 2.7 0c.3 0 .6.2 1 .4.2.2.5.4.6.7.2.3.3.6.3 1 0 .6-.2 1-.6 1.4-.4.4-.8.6-1.3.7v.1a3.3 3.3 0 0 1 1.4.6zM105.5 7.3h-1.4V10h-1.2V7.3h-4.5V6l4.5-5.4h1.2v5.8h1.4v1zm-2.6-1V2.1l-3.7 4.2h3.7zM146.2 7c0 .4 0 .9-.2 1.3a3 3 0 0 1-1.8 1.7l-1.4.2a6.8 6.8 0 0 1-2.7-.6V8.3a5.5 5.5 0 0 0 2.6.8l1-.1a1.8 1.8 0 0 0 1-1.1 2.5 2.5 0 0 0 0-1.7c0-.3-.2-.4-.4-.6a2 2 0 0 0-.8-.3l-1-.1a7.4 7.4 0 0 0-2 .2V.5h5.6v1.2h-4.4v2.5a11.6 11.6 0 0 1 2.4 0l1 .5c.4.2.6.5.8 1 .2.3.3.7.3 1.3z" fill="#E4E4E4"/>
    <path fill="#666" d="M0 27h40v40H0z"/>
    <path fill="#00FFF2" d="M22.1 51H21v-3.9h-4V51h-1.1v-8H17v3.1h4V43h1.1z"/>
    <path fill="#666" d="M0 68h40v40H0zM0 109h40v40H0zM0 150h40v40H0zM0 191h40v40H0z"/>
    <path fill="#444" d="M0 232h40v40H0zM0 273h40v40H0zM0 314h40v40H0z"/>
    <path fill="#666" d="M41 27h40v40H41z"/>
    <path fill="#00FFF2" d="M22.1 92H21v-3.9h-4V92h-1.1v-8H17v3.1h4V84h1.1zM23.1 215H22v-3.9h-4v3.9h-1.1v-8H18v3.1h4V207h1.1z"/>
    <path fill="#666" d="M41 68h40v40H41zM41 109h40v40H41zM41 150h40v40H41z"/>
    <path fill="#555" d="M41 191h40v40H41z"/>
    <path fill="#00FFF2" d="M63.1 51H62v-3.9h-4V51h-1.1v-8H58v3.1h4V43h1.1zM60.4 211c0 .7-.2 1.4-.5 2a3.5 3.5 0 0 1-2.5 1.8l-1.8.2h-2v-8h2c.8 0 1.4 0 1.9.2.4 0 .8.2 1.1.4.6.4 1 .8 1.3 1.4.3.6.5 1.2.5 2zm-1.2 0c0-.6 0-1.2-.3-1.6-.2-.4-.5-.8-1-1l-1-.4h-2.2v6H57a3 3 0 0 0 1-.4l1-1 .2-1.6zm9.6 0c0 .7-.1 1.4-.4 2a3.5 3.5 0 0 1-2.5 1.8l-1.8.2h-2v-8h2c.8 0 1.4 0 1.8.2.5 0 .9.2 1.2.4.5.4 1 .8 1.3 1.4.3.6.4 1.2.4 2zm-1 0c0-.6-.2-1.2-.4-1.6-.2-.4-.6-.8-1-1l-1-.4h-2.3v6h2.4a3 3 0 0 0 1-.4l1-1 .2-1.6z"/>
    <path fill="#006661" d="M41 232h40v40H41z"/>
    <path fill="#444" d="M41 273h40v40H41zM41 314h40v40H41z"/>
    <path fill="#666" d="M82 27h40v40H82zM82 68h40v40H82z"/>
    <path fill="#555" d="M82 109h40v40H82zM82 150h40v40H82zM82 191h40v40H82z"/>
    <path fill="#006661" d="M82 232h40v40H82z"/>
    <path fill="#444" d="M82 273h40v40H82zM82 314h40v40H82z"/>
    <path fill="#555" d="M123 27h40v40h-40zM123 68h40v40h-40zM123 109h40v40h-40zM123 150h40v40h-40zM123 191h40v40h-40z"/>
    <path fill="#006661" d="M123 232h40v40h-40z"/>
    <path fill="#444" d="M123 273h40v40h-40zM123 314h40v40h-40z"/>
    <path fill="#555" d="M164 27h40v40h-40zM164 68h40v40h-40zM164 109h40v40h-40zM164 150h40v40h-40zM164 191h40v40h-40z"/>
    <path fill="#006661" d="M164 232h40v40h-40z"/>
    <path fill="#444" d="M164 273h40v40h-40zM164 314h40v40h-40z"/>
    <path fill="#666" d="M205 27h40v40h-40zM205 68h40v40h-40zM205 109h40v40h-40zM205 150h40v40h-40zM205 191h40v40h-40z"/>
    <path fill="#444" d="M205 232h40v40h-40zM205 273h40v40h-40zM205 314h40v40h-40z"/>
    <path fill="#666" d="M246 27h40v40h-40zM246 68h40v40h-40zM246 109h40v40h-40zM246 150h40v40h-40zM246 191h40v40h-40z"/>
    <path fill="#444" d="M246 232h40v40h-40zM246 273h40v40h-40zM246 314h40v40h-40z"/>
    <path fill="#666" d="M287 27h40v40h-40zM287 68h40v40h-40zM287 109h40v40h-40zM287 150h40v40h-40zM287 191h40v40h-40z"/>
    <path fill="#444" d="M287 232h40v40h-40zM287 273h40v40h-40zM287 314h40v40h-40z"/>
    <path d="M187.4 7c0 .9-.3 1.7-1 2.3-.6.6-1.3.9-2.2.9-.5 0-1 0-1.3-.2a3 3 0 0 1-1-.7c-.4-.3-.7-.8-.9-1.4a8.3 8.3 0 0 1 0-4.3c.2-.6.5-1.2.9-1.7.3-.5.8-.9 1.4-1.1a5 5 0 0 1 3.2-.3v1.2c-.2 0-.4 0-.6-.2h-.7c-1 0-1.7.2-2.2.8-.5.6-.9 1.4-1 2.3a3.9 3.9 0 0 1 2.2-.7l1.2.2a2.8 2.8 0 0 1 1.7 1.4c.2.4.3.9.3 1.4zm-1.3 0l-.1-1a1.7 1.7 0 0 0-1.3-1 4.2 4.2 0 0 0-1.7.1l-1 .4a6.5 6.5 0 0 0 .2 2.2l.6 1a1.9 1.9 0 0 0 1.4.5c.6 0 1-.2 1.4-.6.4-.4.5-1 .5-1.6zM228.3 2l-4.3 8h-1.3l4.5-8.3h-5.4V.5h6.5zM269.4 7.4c0 .8-.4 1.5-1 2s-1.4.8-2.4.8-1.8-.2-2.4-.8c-.7-.5-1-1.2-1-2 0-.5.2-1 .5-1.4.3-.5.7-.8 1.3-1l-1.1-1a2 2 0 0 1-.4-1.2c0-.7.3-1.3.9-1.8.6-.4 1.3-.7 2.2-.7 1 0 1.7.3 2.3.7.5.5.8 1 .8 1.7 0 .5-.1.9-.4 1.3-.3.4-.7.7-1.2 1 .6.3 1 .6 1.4 1 .3.3.5.8.5 1.4zm-1.5-4.6c0-.5-.2-.9-.6-1.1-.3-.3-.8-.4-1.3-.4s-1 0-1.3.3c-.4.3-.5.6-.5 1s0 .6.2.9l.8.6a13.8 13.8 0 0 0 1.5.6c.5-.3.8-.6 1-1l.2-1zm.2 4.7c0-.4-.1-.7-.3-1l-1-.7-.7-.2-1-.4c-.3.3-.6.5-.8.9-.3.3-.4.7-.4 1.2 0 .6.2 1 .6 1.4.4.4 1 .6 1.5.6.6 0 1.1-.2 1.5-.5.4-.3.6-.8.6-1.3z" fill="#E4E4E4"/>
    <path fill="#00FFF2" d="M105.1 51H104v-3.9h-4V51h-1.1v-8h1.1v3.1h4V43h1.1zM142.4 47c0 .7-.2 1.4-.5 2a3.5 3.5 0 0 1-2.5 1.8l-1.8.2h-2v-8h2c.8 0 1.4 0 1.9.2.4 0 .8.2 1.1.4.6.4 1 .8 1.3 1.4.3.6.5 1.2.5 2zm-1.2 0c0-.6 0-1.2-.3-1.6-.2-.4-.5-.8-1-1l-1-.4h-2.2v6h2.3a3 3 0 0 0 1-.4l1-1 .2-1.6zm9.6 0c0 .7-.1 1.4-.4 2a3.5 3.5 0 0 1-2.5 1.8l-1.8.2h-2v-8h2c.8 0 1.4 0 1.8.2.5 0 .9.2 1.2.4.5.4 1 .8 1.3 1.4.3.6.4 1.2.4 2zm-1 0c0-.6-.2-1.2-.4-1.6-.2-.4-.6-.8-1-1l-1-.4h-2.3v6h2.4a3 3 0 0 0 1-.4l1-1 .2-1.6zM183.4 47c0 .7-.2 1.4-.5 2a3.5 3.5 0 0 1-2.5 1.8l-1.8.2h-2v-8h2c.8 0 1.4 0 1.9.2.4 0 .8.2 1.1.4.6.4 1 .8 1.3 1.4.3.6.5 1.2.5 2zm-1.2 0c0-.6 0-1.2-.3-1.6-.2-.4-.5-.8-1-1l-1-.4h-2.2v6h2.3a3 3 0 0 0 1-.4l1-1 .2-1.6zm9.6 0c0 .7-.1 1.4-.4 2a3.5 3.5 0 0 1-2.5 1.8l-1.8.2h-2v-8h2c.8 0 1.4 0 1.8.2.5 0 .9.2 1.2.4.5.4 1 .8 1.3 1.4.3.6.4 1.2.4 2zm-1 0c0-.6-.2-1.2-.4-1.6-.2-.4-.6-.8-1-1l-1-.4h-2.3v6h2.4a3 3 0 0 0 1-.4l1-1 .2-1.6zM228.1 51H227v-3.9h-4V51h-1.1v-8h1.1v3.1h4V43h1.1zM63.1 92H62v-3.9h-4V92h-1.1v-8H58v3.1h4V84h1.1zM105.1 92H104v-3.9h-4V92h-1.1v-8h1.1v3.1h4V84h1.1zM142.4 88c0 .7-.2 1.4-.5 2a3.5 3.5 0 0 1-2.5 1.8l-1.8.2h-2v-8h2c.8 0 1.4 0 1.9.2.4 0 .8.2 1.1.4.6.4 1 .8 1.3 1.4.3.6.5 1.2.5 2zm-1.2 0c0-.6 0-1.2-.3-1.6-.2-.4-.5-.8-1-1l-1-.4h-2.2v6h2.3a3 3 0 0 0 1-.4l1-1 .2-1.6zm9.6 0c0 .7-.1 1.4-.4 2a3.5 3.5 0 0 1-2.5 1.8l-1.8.2h-2v-8h2c.8 0 1.4 0 1.8.2.5 0 .9.2 1.2.4.5.4 1 .8 1.3 1.4.3.6.4 1.2.4 2zm-1 0c0-.6-.2-1.2-.4-1.6-.2-.4-.6-.8-1-1l-1-.4h-2.3v6h2.4a3 3 0 0 0 1-.4l1-1 .2-1.6zM183.4 88c0 .7-.2 1.4-.5 2a3.5 3.5 0 0 1-2.5 1.8l-1.8.2h-2v-8h2c.8 0 1.4 0 1.9.2.4 0 .8.2 1.1.4.6.4 1 .8 1.3 1.4.3.6.5 1.2.5 2zm-1.2 0c0-.6 0-1.2-.3-1.6-.2-.4-.5-.8-1-1l-1-.4h-2.2v6h2.3a3 3 0 0 0 1-.4l1-1 .2-1.6zm9.6 0c0 .7-.1 1.4-.4 2a3.5 3.5 0 0 1-2.5 1.8l-1.8.2h-2v-8h2c.8 0 1.4 0 1.8.2.5 0 .9.2 1.2.4.5.4 1 .8 1.3 1.4.3.6.4 1.2.4 2zm-1 0c0-.6-.2-1.2-.4-1.6-.2-.4-.6-.8-1-1l-1-.4h-2.3v6h2.4a3 3 0 0 0 1-.4l1-1 .2-1.6zM228.1 92H227v-3.9h-4V92h-1.1v-8h1.1v3.1h4V84h1.1zM269.1 51H268v-3.9h-4V51h-1.1v-8h1.1v3.1h4V43h1.1zM310.1 51H309v-3.9h-4V51h-1.1v-8h1.1v3.1h4V43h1.1zM269.1 92H268v-3.9h-4V92h-1.1v-8h1.1v3.1h4V84h1.1zM310.1 92H309v-3.9h-4V92h-1.1v-8h1.1v3.1h4V84h1.1zM22.1 133H21v-3.9h-4v3.9h-1.1v-8H17v3.1h4V125h1.1zM63.1 133H62v-3.9h-4v3.9h-1.1v-8H58v3.1h4V125h1.1zM101.4 129c0 .7-.2 1.4-.5 2a3.5 3.5 0 0 1-2.5 1.8l-1.8.2h-2v-8h2c.8 0 1.4 0 1.9.2.4 0 .8.2 1.1.4.6.4 1 .8 1.3 1.4.3.6.5 1.2.5 2zm-1.2 0c0-.6 0-1.2-.3-1.6-.2-.4-.5-.8-1-1l-1-.4h-2.2v6H98a3 3 0 0 0 1-.4l1-1 .2-1.6zm9.6 0c0 .7-.1 1.4-.4 2a3.5 3.5 0 0 1-2.5 1.8l-1.8.2h-2v-8h2c.8 0 1.4 0 1.8.2.5 0 .9.2 1.2.4.5.4 1 .8 1.3 1.4.3.6.4 1.2.4 2zm-1 0c0-.6-.2-1.2-.4-1.6-.2-.4-.6-.8-1-1l-1-.4h-2.3v6h2.4a3 3 0 0 0 1-.4l1-1 .2-1.6zM142.4 129c0 .7-.2 1.4-.5 2a3.5 3.5 0 0 1-2.5 1.8l-1.8.2h-2v-8h2c.8 0 1.4 0 1.9.2.4 0 .8.2 1.1.4.6.4 1 .8 1.3 1.4.3.6.5 1.2.5 2zm-1.2 0c0-.6 0-1.2-.3-1.6-.2-.4-.5-.8-1-1l-1-.4h-2.2v6h2.3a3 3 0 0 0 1-.4l1-1 .2-1.6zm9.6 0c0 .7-.1 1.4-.4 2a3.5 3.5 0 0 1-2.5 1.8l-1.8.2h-2v-8h2c.8 0 1.4 0 1.8.2.5 0 .9.2 1.2.4.5.4 1 .8 1.3 1.4.3.6.4 1.2.4 2zm-1 0c0-.6-.2-1.2-.4-1.6-.2-.4-.6-.8-1-1l-1-.4h-2.3v6h2.4a3 3 0 0 0 1-.4l1-1 .2-1.6zM183.4 129c0 .7-.2 1.4-.5 2a3.5 3.5 0 0 1-2.5 1.8l-1.8.2h-2v-8h2c.8 0 1.4 0 1.9.2.4 0 .8.2 1.1.4.6.4 1 .8 1.3 1.4.3.6.5 1.2.5 2zm-1.2 0c0-.6 0-1.2-.3-1.6-.2-.4-.5-.8-1-1l-1-.4h-2.2v6h2.3a3 3 0 0 0 1-.4l1-1 .2-1.6zm9.6 0c0 .7-.1 1.4-.4 2a3.5 3.5 0 0 1-2.5 1.8l-1.8.2h-2v-8h2c.8 0 1.4 0 1.8.2.5 0 .9.2 1.2.4.5.4 1 .8 1.3 1.4.3.6.4 1.2.4 2zm-1 0c0-.6-.2-1.2-.4-1.6-.2-.4-.6-.8-1-1l-1-.4h-2.3v6h2.4a3 3 0 0 0 1-.4l1-1 .2-1.6zM228.1 133H227v-3.9h-4v3.9h-1.1v-8h1.1v3.1h4V125h1.1zM269.1 133H268v-3.9h-4v3.9h-1.1v-8h1.1v3.1h4V125h1.1zM310.1 133H309v-3.9h-4v3.9h-1.1v-8h1.1v3.1h4V125h1.1zM22.1 173H21v-3.9h-4v3.9h-1.1v-8H17v3.1h4V165h1.1zM63.1 173H62v-3.9h-4v3.9h-1.1v-8H58v3.1h4V165h1.1zM101.4 169c0 .7-.2 1.4-.5 2a3.5 3.5 0 0 1-2.5 1.8l-1.8.2h-2v-8h2c.8 0 1.4 0 1.9.2.4 0 .8.2 1.1.4.6.4 1 .8 1.3 1.4.3.6.5 1.2.5 2zm-1.2 0c0-.6 0-1.2-.3-1.6-.2-.4-.5-.8-1-1l-1-.4h-2.2v6H98a3 3 0 0 0 1-.4l1-1 .2-1.6zm9.6 0c0 .7-.1 1.4-.4 2a3.5 3.5 0 0 1-2.5 1.8l-1.8.2h-2v-8h2c.8 0 1.4 0 1.8.2.5 0 .9.2 1.2.4.5.4 1 .8 1.3 1.4.3.6.4 1.2.4 2zm-1 0c0-.6-.2-1.2-.4-1.6-.2-.4-.6-.8-1-1l-1-.4h-2.3v6h2.4a3 3 0 0 0 1-.4l1-1 .2-1.6zM142.4 169c0 .7-.2 1.4-.5 2a3.5 3.5 0 0 1-2.5 1.8l-1.8.2h-2v-8h2c.8 0 1.4 0 1.9.2.4 0 .8.2 1.1.4.6.4 1 .8 1.3 1.4.3.6.5 1.2.5 2zm-1.2 0c0-.6 0-1.2-.3-1.6-.2-.4-.5-.8-1-1l-1-.4h-2.2v6h2.3a3 3 0 0 0 1-.4l1-1 .2-1.6zm9.6 0c0 .7-.1 1.4-.4 2a3.5 3.5 0 0 1-2.5 1.8l-1.8.2h-2v-8h2c.8 0 1.4 0 1.8.2.5 0 .9.2 1.2.4.5.4 1 .8 1.3 1.4.3.6.4 1.2.4 2zm-1 0c0-.6-.2-1.2-.4-1.6-.2-.4-.6-.8-1-1l-1-.4h-2.3v6h2.4a3 3 0 0 0 1-.4l1-1 .2-1.6zM183.4 169c0 .7-.2 1.4-.5 2a3.5 3.5 0 0 1-2.5 1.8l-1.8.2h-2v-8h2c.8 0 1.4 0 1.9.2.4 0 .8.2 1.1.4.6.4 1 .8 1.3 1.4.3.6.5 1.2.5 2zm-1.2 0c0-.6 0-1.2-.3-1.6-.2-.4-.5-.8-1-1l-1-.4h-2.2v6h2.3a3 3 0 0 0 1-.4l1-1 .2-1.6zm9.6 0c0 .7-.1 1.4-.4 2a3.5 3.5 0 0 1-2.5 1.8l-1.8.2h-2v-8h2c.8 0 1.4 0 1.8.2.5 0 .9.2 1.2.4.5.4 1 .8 1.3 1.4.3.6.4 1.2.4 2zm-1 0c0-.6-.2-1.2-.4-1.6-.2-.4-.6-.8-1-1l-1-.4h-2.3v6h2.4a3 3 0 0 0 1-.4l1-1 .2-1.6zM228.1 173H227v-3.9h-4v3.9h-1.1v-8h1.1v3.1h4V165h1.1zM269.1 173H268v-3.9h-4v3.9h-1.1v-8h1.1v3.1h4V165h1.1zM310.1 173H309v-3.9h-4v3.9h-1.1v-8h1.1v3.1h4V165h1.1zM269.1 215H268v-3.9h-4v3.9h-1.1v-8h1.1v3.1h4V207h1.1zM310.1 215H309v-3.9h-4v3.9h-1.1v-8h1.1v3.1h4V207h1.1zM269.1 252.7c0 .3 0 .6-.2 1l-.6.7-1 .6-1.4.1a6.9 6.9 0 0 1-3-.6v-1.3h.1l1.4.8 1.5.2c.7 0 1.2-.1 1.6-.3.3-.3.5-.6.5-1s0-.6-.2-.8l-.8-.4-1-.2c-.2 0-.6 0-.9-.2a3 3 0 0 1-1.6-.7 2 2 0 0 1-.5-1.5c0-.6.3-1.2.9-1.6.5-.4 1.2-.6 2.1-.6a7 7 0 0 1 2.8.5v1.3l-1.3-.7-1.5-.2c-.6 0-1 0-1.4.3a1 1 0 0 0-.5 1c0 .3.1.5.3.7.1.2.4.4.9.5a22.4 22.4 0 0 0 2 .4c.6.1 1 .4 1.4.7.3.3.4.7.4 1.3zM310.1 252.7c0 .3 0 .6-.2 1l-.6.7-1 .6-1.4.1a6.9 6.9 0 0 1-3-.6v-1.3h.1l1.4.8 1.5.2c.7 0 1.2-.1 1.6-.3.3-.3.5-.6.5-1s0-.6-.2-.8l-.8-.4-1-.2c-.2 0-.6 0-.9-.2a3 3 0 0 1-1.6-.7 2 2 0 0 1-.5-1.5c0-.6.3-1.2.9-1.6.5-.4 1.2-.6 2.1-.6a7 7 0 0 1 2.8.5v1.3l-1.3-.7-1.5-.2c-.6 0-1 0-1.4.3a1 1 0 0 0-.5 1c0 .3.1.5.3.7.1.2.4.4.9.5a22.4 22.4 0 0 0 2 .4c.6.1 1 .4 1.4.7.3.3.4.7.4 1.3zM269.1 293.7c0 .3 0 .6-.2 1l-.6.7-1 .6-1.4.1a6.9 6.9 0 0 1-3-.6v-1.3h.1l1.4.8 1.5.2c.7 0 1.2-.1 1.6-.3.3-.3.5-.6.5-1s0-.6-.2-.8l-.8-.4-1-.2c-.2 0-.6 0-.9-.2a3 3 0 0 1-1.6-.7 2 2 0 0 1-.5-1.5c0-.6.3-1.2.9-1.6.5-.4 1.2-.6 2.1-.6a7 7 0 0 1 2.8.5v1.3l-1.3-.7-1.5-.2c-.6 0-1 0-1.4.3a1 1 0 0 0-.5 1c0 .3.1.5.3.7.1.2.4.4.9.5a22.4 22.4 0 0 0 2 .4c.6.1 1 .4 1.4.7.3.3.4.7.4 1.3zM310.1 293.7c0 .3 0 .6-.2 1l-.6.7-1 .6-1.4.1a6.9 6.9 0 0 1-3-.6v-1.3h.1l1.4.8 1.5.2c.7 0 1.2-.1 1.6-.3.3-.3.5-.6.5-1s0-.6-.2-.8l-.8-.4-1-.2c-.2 0-.6 0-.9-.2a3 3 0 0 1-1.6-.7 2 2 0 0 1-.5-1.5c0-.6.3-1.2.9-1.6.5-.4 1.2-.6 2.1-.6a7 7 0 0 1 2.8.5v1.3l-1.3-.7-1.5-.2c-.6 0-1 0-1.4.3a1 1 0 0 0-.5 1c0 .3.1.5.3.7.1.2.4.4.9.5a22.4 22.4 0 0 0 2 .4c.6.1 1 .4 1.4.7.3.3.4.7.4 1.3zM269.1 334.7c0 .3 0 .6-.2 1l-.6.7-1 .6-1.4.1a6.9 6.9 0 0 1-3-.6v-1.3h.1l1.4.8 1.5.2c.7 0 1.2-.1 1.6-.3.3-.3.5-.6.5-1s0-.6-.2-.8l-.8-.4-1-.2c-.2 0-.6 0-.9-.2a3 3 0 0 1-1.6-.7 2 2 0 0 1-.5-1.5c0-.6.3-1.2.9-1.6.5-.4 1.2-.6 2.1-.6a7 7 0 0 1 2.8.5v1.3l-1.3-.7-1.5-.2c-.6 0-1 0-1.4.3a1 1 0 0 0-.5 1c0 .3.1.5.3.7.1.2.4.4.9.5a22.4 22.4 0 0 0 2 .4c.6.1 1 .4 1.4.7.3.3.4.7.4 1.3zM310.1 334.7c0 .3 0 .6-.2 1l-.6.7-1 .6-1.4.1a6.9 6.9 0 0 1-3-.6v-1.3h.1l1.4.8 1.5.2c.7 0 1.2-.1 1.6-.3.3-.3.5-.6.5-1s0-.6-.2-.8l-.8-.4-1-.2c-.2 0-.6 0-.9-.2a3 3 0 0 1-1.6-.7 2 2 0 0 1-.5-1.5c0-.6.3-1.2.9-1.6.5-.4 1.2-.6 2.1-.6a7 7 0 0 1 2.8.5v1.3l-1.3-.7-1.5-.2c-.6 0-1 0-1.4.3a1 1 0 0 0-.5 1c0 .3.1.5.3.7.1.2.4.4.9.5a22.4 22.4 0 0 0 2 .4c.6.1 1 .4 1.4.7.3.3.4.7.4 1.3zM101.4 211c0 .7-.2 1.4-.5 2a3.5 3.5 0 0 1-2.5 1.8l-1.8.2h-2v-8h2c.8 0 1.4 0 1.9.2.4 0 .8.2 1.1.4.6.4 1 .8 1.3 1.4.3.6.5 1.2.5 2zm-1.2 0c0-.6 0-1.2-.3-1.6-.2-.4-.5-.8-1-1l-1-.4h-2.2v6H98a3 3 0 0 0 1-.4l1-1 .2-1.6zm9.6 0c0 .7-.1 1.4-.4 2a3.5 3.5 0 0 1-2.5 1.8l-1.8.2h-2v-8h2c.8 0 1.4 0 1.8.2.5 0 .9.2 1.2.4.5.4 1 .8 1.3 1.4.3.6.4 1.2.4 2zm-1 0c0-.6-.2-1.2-.4-1.6-.2-.4-.6-.8-1-1l-1-.4h-2.3v6h2.4a3 3 0 0 0 1-.4l1-1 .2-1.6zM142.4 211c0 .7-.2 1.4-.5 2a3.5 3.5 0 0 1-2.5 1.8l-1.8.2h-2v-8h2c.8 0 1.4 0 1.9.2.4 0 .8.2 1.1.4.6.4 1 .8 1.3 1.4.3.6.5 1.2.5 2zm-1.2 0c0-.6 0-1.2-.3-1.6-.2-.4-.5-.8-1-1l-1-.4h-2.2v6h2.3a3 3 0 0 0 1-.4l1-1 .2-1.6zm9.6 0c0 .7-.1 1.4-.4 2a3.5 3.5 0 0 1-2.5 1.8l-1.8.2h-2v-8h2c.8 0 1.4 0 1.8.2.5 0 .9.2 1.2.4.5.4 1 .8 1.3 1.4.3.6.4 1.2.4 2zm-1 0c0-.6-.2-1.2-.4-1.6-.2-.4-.6-.8-1-1l-1-.4h-2.3v6h2.4a3 3 0 0 0 1-.4l1-1 .2-1.6zM183.4 211c0 .7-.2 1.4-.5 2a3.5 3.5 0 0 1-2.5 1.8l-1.8.2h-2v-8h2c.8 0 1.4 0 1.9.2.4 0 .8.2 1.1.4.6.4 1 .8 1.3 1.4.3.6.5 1.2.5 2zm-1.2 0c0-.6 0-1.2-.3-1.6-.2-.4-.5-.8-1-1l-1-.4h-2.2v6h2.3a3 3 0 0 0 1-.4l1-1 .2-1.6zm9.6 0c0 .7-.1 1.4-.4 2a3.5 3.5 0 0 1-2.5 1.8l-1.8.2h-2v-8h2c.8 0 1.4 0 1.8.2.5 0 .9.2 1.2.4.5.4 1 .8 1.3 1.4.3.6.4 1.2.4 2zm-1 0c0-.6-.2-1.2-.4-1.6-.2-.4-.6-.8-1-1l-1-.4h-2.3v6h2.4a3 3 0 0 0 1-.4l1-1 .2-1.6zM228.1 215H227v-3.9h-4v3.9h-1.1v-8h1.1v3.1h4V207h1.1zM101.8 251c0 .7-.1 1.4-.4 2a3.5 3.5 0 0 1-2.5 1.8l-1.8.2h-2v-8h2c.8 0 1.4 0 1.8.2.5 0 .9.2 1.2.4.5.4 1 .8 1.3 1.4.3.6.4 1.2.4 2zm-1 0c0-.6-.2-1.2-.4-1.6-.2-.4-.6-.8-1-1l-1-.4h-2.3v6h2.4a3 3 0 0 0 1-.4l1-1 .2-1.6zm8.6 1.7l-.3 1-.6.7-1 .6-1.3.1a6.9 6.9 0 0 1-3-.6v-1.3l1.5.8 1.5.2c.6 0 1.1-.1 1.5-.3.4-.3.6-.6.6-1s-.1-.6-.3-.8l-.8-.4-.9-.2c-.3 0-.6 0-1-.2a3 3 0 0 1-1.5-.7 2 2 0 0 1-.6-1.5c0-.6.3-1.2.9-1.6.6-.4 1.3-.6 2.1-.6a7 7 0 0 1 2.8.5v1.3c-.3-.3-.7-.5-1.2-.7l-1.6-.2c-.5 0-1 0-1.3.3a1 1 0 0 0-.5 1c0 .3 0 .5.2.7.2.2.5.4 1 .5a22.4 22.4 0 0 0 2 .4c.6.1 1 .4 1.3.7.3.3.5.7.5 1.3zM60.8 251c0 .7-.1 1.4-.4 2a3.5 3.5 0 0 1-2.5 1.8l-1.8.2h-2v-8h2c.8 0 1.4 0 1.8.2.5 0 .9.2 1.2.4.5.4 1 .8 1.3 1.4.3.6.4 1.2.4 2zm-1 0c0-.6-.2-1.2-.4-1.6-.2-.4-.6-.8-1-1l-1-.4h-2.3v6h2.4a3 3 0 0 0 1-.4l1-1 .2-1.6zm8.6 1.7l-.3 1-.6.7-1 .6-1.3.1a6.9 6.9 0 0 1-3-.6v-1.3l1.5.8 1.5.2c.6 0 1.1-.1 1.5-.3.4-.3.6-.6.6-1s-.1-.6-.3-.8l-.8-.4-.9-.2c-.3 0-.6 0-1-.2a3 3 0 0 1-1.5-.7 2 2 0 0 1-.6-1.5c0-.6.3-1.2.9-1.6.6-.4 1.3-.6 2.1-.6a7 7 0 0 1 2.8.5v1.3c-.3-.3-.7-.5-1.2-.7l-1.6-.2c-.5 0-1 0-1.3.3a1 1 0 0 0-.5 1c0 .3 0 .5.2.7.2.2.5.4 1 .5a22.4 22.4 0 0 0 2 .4c.6.1 1 .4 1.3.7.3.3.5.7.5 1.3zM23.1 252.7c0 .3 0 .6-.2 1l-.6.7-1 .6-1.4.1a6.9 6.9 0 0 1-3-.6v-1.3h.1l1.4.8 1.5.2c.7 0 1.2-.1 1.6-.3.3-.3.5-.6.5-1s0-.6-.2-.8l-.8-.4-1-.2c-.2 0-.6 0-.9-.2a3 3 0 0 1-1.6-.7 2 2 0 0 1-.5-1.5c0-.6.3-1.2.9-1.6.5-.4 1.2-.6 2.1-.6a7 7 0 0 1 2.8.5v1.3l-1.3-.7-1.5-.2c-.6 0-1 0-1.4.3a1 1 0 0 0-.5 1c0 .3.1.5.3.7.1.2.4.4.9.5a22.4 22.4 0 0 0 2 .4c.6.1 1 .4 1.4.7.3.3.4.7.4 1.3zM142.8 251c0 .7-.1 1.4-.4 2a3.5 3.5 0 0 1-2.5 1.8l-1.8.2h-2v-8h2c.8 0 1.4 0 1.8.2.5 0 .9.2 1.2.4.5.4 1 .8 1.3 1.4.3.6.4 1.2.4 2zm-1 0c0-.6-.2-1.2-.4-1.6-.2-.4-.6-.8-1-1l-1-.4h-2.3v6h2.4a3 3 0 0 0 1-.4l1-1 .2-1.6zm8.6 1.7l-.3 1-.6.7-1 .6-1.3.1a6.9 6.9 0 0 1-3-.6v-1.3l1.5.8 1.5.2c.6 0 1.1-.1 1.5-.3.4-.3.6-.6.6-1s-.1-.6-.3-.8l-.8-.4-.9-.2c-.3 0-.6 0-1-.2a3 3 0 0 1-1.5-.7 2 2 0 0 1-.6-1.5c0-.6.3-1.2.9-1.6.6-.4 1.3-.6 2.1-.6a7 7 0 0 1 2.8.5v1.3c-.3-.3-.7-.5-1.2-.7l-1.6-.2c-.5 0-1 0-1.3.3a1 1 0 0 0-.5 1c0 .3 0 .5.2.7.2.2.5.4 1 .5a22.4 22.4 0 0 0 2 .4c.6.1 1 .4 1.3.7.3.3.5.7.5 1.3zM183.8 251c0 .7-.1 1.4-.4 2a3.5 3.5 0 0 1-2.5 1.8l-1.8.2h-2v-8h2c.8 0 1.4 0 1.8.2.5 0 .9.2 1.2.4.5.4 1 .8 1.3 1.4.3.6.4 1.2.4 2zm-1 0c0-.6-.2-1.2-.4-1.6-.2-.4-.6-.8-1-1l-1-.4h-2.3v6h2.4a3 3 0 0 0 1-.4l1-1 .2-1.6zm8.6 1.7l-.3 1-.6.7-1 .6-1.3.1a6.9 6.9 0 0 1-3-.6v-1.3l1.5.8 1.5.2c.6 0 1.1-.1 1.5-.3.4-.3.6-.6.6-1s-.1-.6-.3-.8l-.8-.4-.9-.2c-.3 0-.6 0-1-.2a3 3 0 0 1-1.5-.7 2 2 0 0 1-.6-1.5c0-.6.3-1.2.9-1.6.6-.4 1.3-.6 2.1-.6a7 7 0 0 1 2.8.5v1.3c-.3-.3-.7-.5-1.2-.7l-1.6-.2c-.5 0-1 0-1.3.3a1 1 0 0 0-.5 1c0 .3 0 .5.2.7.2.2.5.4 1 .5a22.4 22.4 0 0 0 2 .4c.6.1 1 .4 1.3.7.3.3.5.7.5 1.3zM228.1 252.7c0 .3 0 .6-.2 1l-.6.7-1 .6-1.4.1a6.9 6.9 0 0 1-3-.6v-1.3h.1l1.4.8 1.5.2c.7 0 1.2-.1 1.6-.3.3-.3.5-.6.5-1s0-.6-.2-.8l-.8-.4-1-.2c-.2 0-.6 0-.9-.2a3 3 0 0 1-1.6-.7 2 2 0 0 1-.5-1.5c0-.6.3-1.2.9-1.6.5-.4 1.2-.6 2.1-.6a7 7 0 0 1 2.8.5v1.3l-1.3-.7-1.5-.2c-.6 0-1 0-1.4.3a1 1 0 0 0-.5 1c0 .3.1.5.3.7.1.2.4.4.9.5a22.4 22.4 0 0 0 2 .4c.6.1 1 .4 1.4.7.3.3.4.7.4 1.3zM105.1 293.7c0 .3 0 .6-.2 1l-.6.7-1 .6-1.4.1a6.9 6.9 0 0 1-3-.6v-1.3h.1l1.4.8 1.5.2c.7 0 1.2-.1 1.6-.3.3-.3.5-.6.5-1s0-.6-.2-.8l-.8-.4-1-.2c-.2 0-.6 0-.9-.2a3 3 0 0 1-1.6-.7 2 2 0 0 1-.5-1.5c0-.6.3-1.2.9-1.6.5-.4 1.2-.6 2.1-.6a7 7 0 0 1 2.8.5v1.3l-1.3-.7-1.5-.2c-.6 0-1 0-1.4.3a1 1 0 0 0-.5 1c0 .3.1.5.3.7.1.2.4.4.9.5a22.4 22.4 0 0 0 2 .4c.6.1 1 .4 1.4.7.3.3.4.7.4 1.3zM64.1 293.7c0 .3 0 .6-.2 1l-.6.7-1 .6-1.4.1a6.9 6.9 0 0 1-3-.6v-1.3h.1l1.4.8 1.5.2c.7 0 1.2-.1 1.6-.3.3-.3.5-.6.5-1s0-.6-.2-.8l-.8-.4-1-.2c-.2 0-.6 0-.9-.2a3 3 0 0 1-1.6-.7 2 2 0 0 1-.5-1.5c0-.6.3-1.2.9-1.6.5-.4 1.2-.6 2.1-.6a7 7 0 0 1 2.8.5v1.3l-1.3-.7-1.5-.2c-.6 0-1 0-1.4.3a1 1 0 0 0-.5 1c0 .3.1.5.3.7.1.2.4.4.9.5a22.4 22.4 0 0 0 2 .4c.6.1 1 .4 1.4.7.3.3.4.7.4 1.3zM23.1 293.7c0 .3 0 .6-.2 1l-.6.7-1 .6-1.4.1a6.9 6.9 0 0 1-3-.6v-1.3h.1l1.4.8 1.5.2c.7 0 1.2-.1 1.6-.3.3-.3.5-.6.5-1s0-.6-.2-.8l-.8-.4-1-.2c-.2 0-.6 0-.9-.2a3 3 0 0 1-1.6-.7 2 2 0 0 1-.5-1.5c0-.6.3-1.2.9-1.6.5-.4 1.2-.6 2.1-.6a7 7 0 0 1 2.8.5v1.3l-1.3-.7-1.5-.2c-.6 0-1 0-1.4.3a1 1 0 0 0-.5 1c0 .3.1.5.3.7.1.2.4.4.9.5a22.4 22.4 0 0 0 2 .4c.6.1 1 .4 1.4.7.3.3.4.7.4 1.3zM146.1 293.7c0 .3 0 .6-.2 1l-.6.7-1 .6-1.4.1a6.9 6.9 0 0 1-3-.6v-1.3h.1l1.4.8 1.5.2c.7 0 1.2-.1 1.6-.3.3-.3.5-.6.5-1s0-.6-.2-.8l-.8-.4-1-.2c-.2 0-.6 0-.9-.2a3 3 0 0 1-1.6-.7 2 2 0 0 1-.5-1.5c0-.6.3-1.2.9-1.6.5-.4 1.2-.6 2.1-.6a7 7 0 0 1 2.8.5v1.3l-1.3-.7-1.5-.2c-.6 0-1 0-1.4.3a1 1 0 0 0-.5 1c0 .3.1.5.3.7.1.2.4.4.9.5a22.4 22.4 0 0 0 2 .4c.6.1 1 .4 1.4.7.3.3.4.7.4 1.3zM187.1 293.7c0 .3 0 .6-.2 1l-.6.7-1 .6-1.4.1a6.9 6.9 0 0 1-3-.6v-1.3h.1l1.4.8 1.5.2c.7 0 1.2-.1 1.6-.3.3-.3.5-.6.5-1s0-.6-.2-.8l-.8-.4-1-.2c-.2 0-.6 0-.9-.2a3 3 0 0 1-1.6-.7 2 2 0 0 1-.5-1.5c0-.6.3-1.2.9-1.6.5-.4 1.2-.6 2.1-.6a7 7 0 0 1 2.8.5v1.3l-1.3-.7-1.5-.2c-.6 0-1 0-1.4.3a1 1 0 0 0-.5 1c0 .3.1.5.3.7.1.2.4.4.9.5a22.4 22.4 0 0 0 2 .4c.6.1 1 .4 1.4.7.3.3.4.7.4 1.3zM228.1 293.7c0 .3 0 .6-.2 1l-.6.7-1 .6-1.4.1a6.9 6.9 0 0 1-3-.6v-1.3h.1l1.4.8 1.5.2c.7 0 1.2-.1 1.6-.3.3-.3.5-.6.5-1s0-.6-.2-.8l-.8-.4-1-.2c-.2 0-.6 0-.9-.2a3 3 0 0 1-1.6-.7 2 2 0 0 1-.5-1.5c0-.6.3-1.2.9-1.6.5-.4 1.2-.6 2.1-.6a7 7 0 0 1 2.8.5v1.3l-1.3-.7-1.5-.2c-.6 0-1 0-1.4.3a1 1 0 0 0-.5 1c0 .3.1.5.3.7.1.2.4.4.9.5a22.4 22.4 0 0 0 2 .4c.6.1 1 .4 1.4.7.3.3.4.7.4 1.3zM105.1 334.7c0 .3 0 .6-.2 1l-.6.7-1 .6-1.4.1a6.9 6.9 0 0 1-3-.6v-1.3h.1l1.4.8 1.5.2c.7 0 1.2-.1 1.6-.3.3-.3.5-.6.5-1s0-.6-.2-.8l-.8-.4-1-.2c-.2 0-.6 0-.9-.2a3 3 0 0 1-1.6-.7 2 2 0 0 1-.5-1.5c0-.6.3-1.2.9-1.6.5-.4 1.2-.6 2.1-.6a7 7 0 0 1 2.8.5v1.3l-1.3-.7-1.5-.2c-.6 0-1 0-1.4.3a1 1 0 0 0-.5 1c0 .3.1.5.3.7.1.2.4.4.9.5a22.4 22.4 0 0 0 2 .4c.6.1 1 .4 1.4.7.3.3.4.7.4 1.3zM64.1 334.7c0 .3 0 .6-.2 1l-.6.7-1 .6-1.4.1a6.9 6.9 0 0 1-3-.6v-1.3h.1l1.4.8 1.5.2c.7 0 1.2-.1 1.6-.3.3-.3.5-.6.5-1s0-.6-.2-.8l-.8-.4-1-.2c-.2 0-.6 0-.9-.2a3 3 0 0 1-1.6-.7 2 2 0 0 1-.5-1.5c0-.6.3-1.2.9-1.6.5-.4 1.2-.6 2.1-.6a7 7 0 0 1 2.8.5v1.3l-1.3-.7-1.5-.2c-.6 0-1 0-1.4.3a1 1 0 0 0-.5 1c0 .3.1.5.3.7.1.2.4.4.9.5a22.4 22.4 0 0 0 2 .4c.6.1 1 .4 1.4.7.3.3.4.7.4 1.3zM23.1 334.7c0 .3 0 .6-.2 1l-.6.7-1 .6-1.4.1a6.9 6.9 0 0 1-3-.6v-1.3h.1l1.4.8 1.5.2c.7 0 1.2-.1 1.6-.3.3-.3.5-.6.5-1s0-.6-.2-.8l-.8-.4-1-.2c-.2 0-.6 0-.9-.2a3 3 0 0 1-1.6-.7 2 2 0 0 1-.5-1.5c0-.6.3-1.2.9-1.6.5-.4 1.2-.6 2.1-.6a7 7 0 0 1 2.8.5v1.3l-1.3-.7-1.5-.2c-.6 0-1 0-1.4.3a1 1 0 0 0-.5 1c0 .3.1.5.3.7.1.2.4.4.9.5a22.4 22.4 0 0 0 2 .4c.6.1 1 .4 1.4.7.3.3.4.7.4 1.3zM146.1 334.7c0 .3 0 .6-.2 1l-.6.7-1 .6-1.4.1a6.9 6.9 0 0 1-3-.6v-1.3h.1l1.4.8 1.5.2c.7 0 1.2-.1 1.6-.3.3-.3.5-.6.5-1s0-.6-.2-.8l-.8-.4-1-.2c-.2 0-.6 0-.9-.2a3 3 0 0 1-1.6-.7 2 2 0 0 1-.5-1.5c0-.6.3-1.2.9-1.6.5-.4 1.2-.6 2.1-.6a7 7 0 0 1 2.8.5v1.3l-1.3-.7-1.5-.2c-.6 0-1 0-1.4.3a1 1 0 0 0-.5 1c0 .3.1.5.3.7.1.2.4.4.9.5a22.4 22.4 0 0 0 2 .4c.6.1 1 .4 1.4.7.3.3.4.7.4 1.3zM187.1 334.7c0 .3 0 .6-.2 1l-.6.7-1 .6-1.4.1a6.9 6.9 0 0 1-3-.6v-1.3h.1l1.4.8 1.5.2c.7 0 1.2-.1 1.6-.3.3-.3.5-.6.5-1s0-.6-.2-.8l-.8-.4-1-.2c-.2 0-.6 0-.9-.2a3 3 0 0 1-1.6-.7 2 2 0 0 1-.5-1.5c0-.6.3-1.2.9-1.6.5-.4 1.2-.6 2.1-.6a7 7 0 0 1 2.8.5v1.3l-1.3-.7-1.5-.2c-.6 0-1 0-1.4.3a1 1 0 0 0-.5 1c0 .3.1.5.3.7.1.2.4.4.9.5a22.4 22.4 0 0 0 2 .4c.6.1 1 .4 1.4.7.3.3.4.7.4 1.3zM228.1 334.7c0 .3 0 .6-.2 1l-.6.7-1 .6-1.4.1a6.9 6.9 0 0 1-3-.6v-1.3h.1l1.4.8 1.5.2c.7 0 1.2-.1 1.6-.3.3-.3.5-.6.5-1s0-.6-.2-.8l-.8-.4-1-.2c-.2 0-.6 0-.9-.2a3 3 0 0 1-1.6-.7 2 2 0 0 1-.5-1.5c0-.6.3-1.2.9-1.6.5-.4 1.2-.6 2.1-.6a7 7 0 0 1 2.8.5v1.3l-1.3-.7-1.5-.2c-.6 0-1 0-1.4.3a1 1 0 0 0-.5 1c0 .3.1.5.3.7.1.2.4.4.9.5a22.4 22.4 0 0 0 2 .4c.6.1 1 .4 1.4.7.3.3.4.7.4 1.3z"/>
    <path fill="#666" d="M328 27h40v40h-40zM328 68h40v40h-40zM328 109h40v40h-40zM328 150h40v40h-40zM328 191h40v40h-40z"/>
    <path fill="#444" d="M328 232h40v40h-40zM328 273h40v40h-40zM328 314h40v40h-40z"/>
    <path fill="#00FFF2" d="M351.1 51H350v-3.9h-4V51h-1.1v-8h1.1v3.1h4V43h1.1zM351.1 92H350v-3.9h-4V92h-1.1v-8h1.1v3.1h4V84h1.1zM351.1 133H350v-3.9h-4v3.9h-1.1v-8h1.1v3.1h4V125h1.1zM351.1 173H350v-3.9h-4v3.9h-1.1v-8h1.1v3.1h4V165h1.1zM351.1 215H350v-3.9h-4v3.9h-1.1v-8h1.1v3.1h4V207h1.1zM351.1 252.7c0 .3 0 .6-.2 1l-.6.7-1 .6-1.4.1a6.9 6.9 0 0 1-3-.6v-1.3h.1l1.4.8 1.5.2c.7 0 1.2-.1 1.6-.3.3-.3.5-.6.5-1s0-.6-.2-.8l-.8-.4-1-.2c-.2 0-.6 0-.9-.2a3 3 0 0 1-1.6-.7 2 2 0 0 1-.5-1.5c0-.6.3-1.2.9-1.6.5-.4 1.2-.6 2.1-.6a7 7 0 0 1 2.8.5v1.3l-1.3-.7-1.5-.2c-.6 0-1 0-1.4.3a1 1 0 0 0-.5 1c0 .3.1.5.3.7.1.2.4.4.9.5a22.4 22.4 0 0 0 2 .4c.6.1 1 .4 1.4.7.3.3.4.7.4 1.3zM351.1 293.7c0 .3 0 .6-.2 1l-.6.7-1 .6-1.4.1a6.9 6.9 0 0 1-3-.6v-1.3h.1l1.4.8 1.5.2c.7 0 1.2-.1 1.6-.3.3-.3.5-.6.5-1s0-.6-.2-.8l-.8-.4-1-.2c-.2 0-.6 0-.9-.2a3 3 0 0 1-1.6-.7 2 2 0 0 1-.5-1.5c0-.6.3-1.2.9-1.6.5-.4 1.2-.6 2.1-.6a7 7 0 0 1 2.8.5v1.3l-1.3-.7-1.5-.2c-.6 0-1 0-1.4.3a1 1 0 0 0-.5 1c0 .3.1.5.3.7.1.2.4.4.9.5a22.4 22.4 0 0 0 2 .4c.6.1 1 .4 1.4.7.3.3.4.7.4 1.3zM351.1 334.7c0 .3 0 .6-.2 1l-.6.7-1 .6-1.4.1a6.9 6.9 0 0 1-3-.6v-1.3h.1l1.4.8 1.5.2c.7 0 1.2-.1 1.6-.3.3-.3.5-.6.5-1s0-.6-.2-.8l-.8-.4-1-.2c-.2 0-.6 0-.9-.2a3 3 0 0 1-1.6-.7 2 2 0 0 1-.5-1.5c0-.6.3-1.2.9-1.6.5-.4 1.2-.6 2.1-.6a7 7 0 0 1 2.8.5v1.3l-1.3-.7-1.5-.2c-.6 0-1 0-1.4.3a1 1 0 0 0-.5 1c0 .3.1.5.3.7.1.2.4.4.9.5a22.4 22.4 0 0 0 2 .4c.6.1 1 .4 1.4.7.3.3.4.7.4 1.3z"/>
    <path fill="#666" d="M369 27h40v40h-40zM369 68h40v40h-40zM369 109h40v40h-40zM369 150h40v40h-40zM369 191h40v40h-40z"/>
    <path fill="#444" d="M369 232h40v40h-40zM369 273h40v40h-40zM369 314h40v40h-40z"/>
    <path fill="#00FFF2" d="M392.1 51H391v-3.9h-4V51h-1.1v-8h1.1v3.1h4V43h1.1zM392.1 92H391v-3.9h-4V92h-1.1v-8h1.1v3.1h4V84h1.1zM392.1 133H391v-3.9h-4v3.9h-1.1v-8h1.1v3.1h4V125h1.1zM392.1 173H391v-3.9h-4v3.9h-1.1v-8h1.1v3.1h4V165h1.1zM392.1 215H391v-3.9h-4v3.9h-1.1v-8h1.1v3.1h4V207h1.1zM392.1 252.7c0 .3 0 .6-.2 1l-.6.7-1 .6-1.4.1a6.9 6.9 0 0 1-3-.6v-1.3h.1l1.4.8 1.5.2c.7 0 1.2-.1 1.6-.3.3-.3.5-.6.5-1s0-.6-.2-.8l-.8-.4-1-.2c-.2 0-.6 0-.9-.2a3 3 0 0 1-1.6-.7 2 2 0 0 1-.5-1.5c0-.6.3-1.2.9-1.6.5-.4 1.2-.6 2.1-.6a7 7 0 0 1 2.8.5v1.3l-1.3-.7-1.5-.2c-.6 0-1 0-1.4.3a1 1 0 0 0-.5 1c0 .3.1.5.3.7.1.2.4.4.9.5a22.4 22.4 0 0 0 2 .4c.6.1 1 .4 1.4.7.3.3.4.7.4 1.3zM392.1 293.7c0 .3 0 .6-.2 1l-.6.7-1 .6-1.4.1a6.9 6.9 0 0 1-3-.6v-1.3h.1l1.4.8 1.5.2c.7 0 1.2-.1 1.6-.3.3-.3.5-.6.5-1s0-.6-.2-.8l-.8-.4-1-.2c-.2 0-.6 0-.9-.2a3 3 0 0 1-1.6-.7 2 2 0 0 1-.5-1.5c0-.6.3-1.2.9-1.6.5-.4 1.2-.6 2.1-.6a7 7 0 0 1 2.8.5v1.3l-1.3-.7-1.5-.2c-.6 0-1 0-1.4.3a1 1 0 0 0-.5 1c0 .3.1.5.3.7.1.2.4.4.9.5a22.4 22.4 0 0 0 2 .4c.6.1 1 .4 1.4.7.3.3.4.7.4 1.3zM392.1 334.7c0 .3 0 .6-.2 1l-.6.7-1 .6-1.4.1a6.9 6.9 0 0 1-3-.6v-1.3h.1l1.4.8 1.5.2c.7 0 1.2-.1 1.6-.3.3-.3.5-.6.5-1s0-.6-.2-.8l-.8-.4-1-.2c-.2 0-.6 0-.9-.2a3 3 0 0 1-1.6-.7 2 2 0 0 1-.5-1.5c0-.6.3-1.2.9-1.6.5-.4 1.2-.6 2.1-.6a7 7 0 0 1 2.8.5v1.3l-1.3-.7-1.5-.2c-.6 0-1 0-1.4.3a1 1 0 0 0-.5 1c0 .3.1.5.3.7.1.2.4.4.9.5a22.4 22.4 0 0 0 2 .4c.6.1 1 .4 1.4.7.3.3.4.7.4 1.3z"/>
    <path d="M310.3 4.7c0 .8-.1 1.6-.3 2.3-.2.6-.5 1.2-.9 1.7-.3.5-.8.8-1.4 1a5 5 0 0 1-3.2.3V8.8l.6.2h.7c1 0 1.7-.2 2.2-.7.6-.6.9-1.4 1-2.4-.4.3-.8.4-1.1.5a4.5 4.5 0 0 1-2.2 0 2.8 2.8 0 0 1-1.8-1.4c-.2-.3-.3-.8-.3-1.4 0-1 .3-1.7 1-2.3.6-.6 1.3-1 2.3-1l1.2.3c.4.1.8.3 1 .6.4.4.7.8.9 1.4.2.5.3 1.2.3 2.1zm-1.3-.3a5 5 0 0 0-.2-1.5c-.1-.4-.3-.8-.6-1l-.6-.4-.8-.1c-.6 0-1 .2-1.4.6-.3.3-.5.9-.5 1.6l.1 1 .6.6c.2.2.4.2.7.3A4 4 0 0 0 309 5a10.4 10.4 0 0 1 0-.6zM346.6 10h-5.1V9h2V2.7h-2v-.9h.9l.6-.2.5-.4.2-.7h1V9h2v1zm8.8-4.7c0 1.7-.3 3-.8 3.7-.5.8-1.3 1.2-2.5 1.2-1.1 0-2-.4-2.4-1.2a7 7 0 0 1-.8-3.7c0-1.7.2-3 .8-3.7.5-.8 1.3-1.2 2.4-1.2 1.2 0 2 .4 2.5 1.2.5.8.8 2 .8 3.7zm-1.7 2.9c.2-.4.3-.8.3-1.3a15 15 0 0 0 0-3.3 4 4 0 0 0-.3-1.2c-.1-.3-.3-.6-.6-.7-.2-.2-.6-.3-1-.3s-.7 0-1 .3l-.6.7a4 4 0 0 0-.3 1.2 16 16 0 0 0 0 3.3c0 .5.2.9.3 1.2l.6.8c.3.2.6.2 1 .2s.8 0 1-.2c.3-.2.5-.4.6-.7zM392.3 10h-1.4l-.9-2.6h-4l-1 2.6h-1.3l3.5-9.5h1.6l3.5 9.5zm-2.7-3.7L388 1.6l-1.7 4.7h3.3z" fill="#E4E4E4"/>
  </g>
</svg>
