<svg width="31" height="420" viewBox="0 0 31 420" xmlns="http://www.w3.org/2000/svg"><path d="M7.48 10H6.338V5.83H1.31V10H.168V.84h1.143v3.961h5.027V.841H7.48V10zm4.304-.838c1.124 0 1.955-.736 1.955-1.714V6.82l-1.84.12c-1.042.07-1.499.432-1.499 1.118 0 .698.59 1.104 1.384 1.104zm-.203.959c-1.327 0-2.31-.788-2.31-2.038 0-1.225.9-1.93 2.494-2.025l1.974-.12v-.623c0-.844-.527-1.307-1.549-1.307-.818 0-1.39.31-1.542.85H9.543C9.69 3.76 10.77 3.037 12.23 3.037c1.669 0 2.602.857 2.602 2.278V10H13.79V8.99h-.102c-.444.73-1.193 1.13-2.107 1.13zM16.85 10V3.157h1.04v1.08h.102c.343-.756 1.01-1.2 2.057-1.2 1.536 0 2.393.907 2.393 2.532V10H21.35V5.836c0-1.232-.52-1.815-1.612-1.815s-1.797.73-1.797 1.93V10H16.85zm10.118.12c-1.752 0-2.876-1.39-2.876-3.541 0-2.146 1.137-3.542 2.876-3.542.952 0 1.758.45 2.145 1.2h.095V.44H30.3V10h-1.04V8.908h-.102c-.432.762-1.244 1.213-2.19 1.213zm.254-6.1c-1.244 0-2 .965-2 2.559 0 1.6.75 2.558 2 2.558 1.244 0 2.012-.978 2.012-2.558 0-1.568-.775-2.558-2.012-2.558zM8.636 49.34H7.233V52H6.015v-2.66H1.489v-1.46l4.576-5.332h1.168v5.777h1.403v1.015zm-2.621-1.015v-4.266l-3.663 4.266h3.663zm8.182.114h-3.961V47.29h3.96v1.149zm8.461.927c0 .816-.318 1.496-.955 2.037-.637.542-1.438.813-2.403.813-1.024 0-1.84-.265-2.447-.794s-.91-1.206-.91-2.03c0-.526.152-1 .456-1.426.305-.425.735-.763 1.289-1.012v-.038c-.508-.271-.883-.568-1.127-.89-.243-.32-.365-.723-.365-1.205 0-.711.292-1.304.876-1.778.584-.474 1.327-.71 2.228-.71.944 0 1.697.226 2.26.679.563.453.844 1.028.844 1.726 0 .428-.133.848-.4 1.26-.266.413-.658.736-1.174.968v.038c.593.254 1.045.567 1.358.94.314.372.47.846.47 1.422zm-1.504-4.615c0-.453-.175-.814-.524-1.082-.349-.269-.794-.403-1.336-.403-.533 0-.97.127-1.31.38a1.215 1.215 0 0 0-.512 1.029c0 .304.086.568.257.79.172.222.43.42.778.594.156.076.382.175.676.298.294.123.58.224.86.305.419-.28.709-.57.87-.87.16-.3.24-.647.24-1.041zm.197 4.735c0-.389-.086-.701-.257-.936-.172-.235-.507-.47-1.007-.708a6.376 6.376 0 0 0-.653-.26c-.237-.08-.553-.193-.946-.336a2.483 2.483 0 0 0-.917.844 2.162 2.162 0 0 0-.346 1.206c0 .571.196 1.043.59 1.415.393.373.893.559 1.498.559.618 0 1.112-.159 1.482-.476.37-.317.556-.753.556-1.308zM4.948 93.21c-1.555 0-2.71-.92-3.002-2.394H3.12c.248.857.94 1.378 1.84 1.378 1.493 0 2.337-1.32 2.4-3.758h-.1c-.45.889-1.346 1.41-2.438 1.41-1.745 0-3.008-1.29-3.008-3.067 0-1.84 1.333-3.154 3.211-3.154 1.372 0 2.432.73 3.003 2.082.298.698.444 1.542.444 2.551 0 3.149-1.282 4.951-3.523 4.951zm.076-4.355c1.213 0 2.082-.863 2.082-2.076 0-1.225-.895-2.152-2.069-2.152s-2.07.915-2.07 2.114c0 1.25.845 2.114 2.057 2.114zM4.212 135v-7.89H4.11l-2.33 1.688v-1.206l2.438-1.752h1.136V135H4.212zm6.95.216c-2.062 0-3.25-1.752-3.25-4.799 0-3.021 1.2-4.792 3.25-4.792 2.038 0 3.238 1.777 3.238 4.811 0 3.04-1.18 4.78-3.237 4.78zm0-.997c1.353 0 2.089-1.345 2.089-3.802 0-2.431-.749-3.79-2.088-3.79-1.34 0-2.101 1.372-2.101 3.79 0 2.45.749 3.802 2.1 3.802zM4.212 174v-7.89H4.11l-2.33 1.688v-1.206l2.438-1.752h1.136V174H4.212zm6.062 0v-7.89h-.102l-2.33 1.688v-1.206l2.438-1.752h1.137V174h-1.143zm-6.062 42v-7.89H4.11l-2.33 1.688v-1.206l2.438-1.752h1.136V216H4.212zm3.815-6.583c0-1.625 1.231-2.792 2.932-2.792 1.645 0 2.901 1.117 2.901 2.57 0 .952-.431 1.695-1.936 3.307l-2.202 2.368v.102h4.29V216H8.085v-.787l3.167-3.46c1.181-1.282 1.467-1.777 1.467-2.513 0-.914-.781-1.619-1.79-1.619-1.073 0-1.797.717-1.797 1.796v.007H8.027v-.007zM4.212 256v-7.89H4.11l-2.33 1.688v-1.206l2.438-1.752h1.136V256H4.212zm5.745-4.221v-.978h1.11c1.041 0 1.778-.673 1.778-1.625 0-.933-.705-1.555-1.759-1.555-1.053 0-1.745.584-1.84 1.568H8.135c.114-1.587 1.25-2.564 2.996-2.564 1.6 0 2.875 1.066 2.875 2.399 0 1.092-.603 1.892-1.606 2.133v.101c1.245.159 2 1.022 2 2.273 0 1.51-1.416 2.685-3.225 2.685-1.86 0-3.142-1.035-3.224-2.603h1.104c.102.978.927 1.606 2.108 1.606 1.206 0 2.063-.717 2.063-1.72 0-1.06-.807-1.72-2.108-1.72H9.957zM4.212 296v-7.89H4.11l-2.33 1.688v-1.206l2.438-1.752h1.136V296H4.212zm8.055 0v-1.898H7.805v-1.041c.819-1.454 2.272-3.751 3.923-6.22h1.656v6.24h1.302v1.021h-1.302V296h-1.117zm-3.294-2.99v.076h3.3V287.9h-.076c-.94 1.365-2.133 3.257-3.224 5.11zM4.212 337v-7.89H4.11l-2.33 1.688v-1.206l2.438-1.752h1.136V337H4.212zm6.893.216c-1.732 0-2.977-1.073-3.078-2.654H9.15c.102.99.89 1.65 1.968 1.65 1.225 0 2.044-.837 2.044-2.094s-.825-2.114-2.025-2.114c-.831 0-1.517.375-1.891 1.029H8.173l.501-5.193h5.11v1.022H9.57l-.26 2.94h.102c.444-.521 1.091-.781 1.936-.781 1.739 0 2.958 1.263 2.958 3.065 0 1.86-1.302 3.13-3.2 3.13zM4.212 379v-7.89H4.11l-2.33 1.688v-1.206l2.438-1.752h1.136V379H4.212zm7.11.21c-1.378 0-2.432-.737-3.003-2.083-.298-.698-.444-1.542-.444-2.551 0-3.149 1.282-4.951 3.522-4.951 1.556 0 2.71.92 3.003 2.393h-1.174c-.248-.857-.94-1.378-1.841-1.378-1.492 0-2.336 1.32-2.4 3.758h.102c.45-.889 1.346-1.41 2.437-1.41 1.746 0 3.01 1.29 3.01 3.067 0 1.84-1.334 3.154-3.213 3.154zm-.013-1.003c1.174 0 2.069-.915 2.069-2.114 0-1.25-.844-2.114-2.057-2.114-1.212 0-2.082.863-2.082 2.076 0 1.225.895 2.152 2.07 2.152zM4.212 420v-7.89H4.11l-2.33 1.688v-1.206l2.438-1.752h1.136V420H4.212zm4.253 0l4.113-8.049v-.089h-4.9v-1.022h6.062v1.06L9.665 420h-1.2z" fill="#E4E4E4" fill-rule="evenodd"/></svg>