<svg width="409" height="436" viewBox="0 0 409 436" xmlns="http://www.w3.org/2000/svg">
  <g fill="none" fill-rule="evenodd">
    <path d="M22 10h-6V8.62l1.25-1.18c.42-.4.81-.79 1.17-1.18.76-.81 1.29-1.46 1.57-1.94s.42-1 .42-1.56c0-.5-.15-.9-.45-1.2-.3-.28-.73-.42-1.28-.42a4 4 0 0 0-2.4.85h-.06V.61c.28-.15.66-.3 1.13-.42.47-.13.92-.19 1.36-.19a3 3 0 0 1 2.14.73c.52.48.77 1.14.77 1.97a4.06 4.06 0 0 1-1.05 2.76 29.52 29.52 0 0 1-2.07 2.21c-.45.44-.87.84-1.27 1.2H22V10zm40.33-4.82c.2.18.35.41.48.7.13.27.19.63.19 1.08 0 .44-.08.84-.23 1.2a2.87 2.87 0 0 1-1.71 1.62 4 4 0 0 1-1.36.22 6.76 6.76 0 0 1-2.7-.6V8.04h.1a4.88 4.88 0 0 0 2.57.83c.26 0 .53-.04.82-.13a1.71 1.71 0 0 0 1.12-1.03c.1-.22.14-.51.14-.86 0-.34-.05-.63-.15-.85a1.3 1.3 0 0 0-.43-.54 1.75 1.75 0 0 0-.67-.27 4.54 4.54 0 0 0-.85-.07h-.55V4.06h.43c.62 0 1.12-.14 1.49-.41.36-.28.55-.68.55-1.2a1.19 1.19 0 0 0-.53-1.04 1.7 1.7 0 0 0-.57-.23 3.9 3.9 0 0 0-1.91.15c-.44.15-.85.36-1.24.62h-.06V.61c.3-.15.68-.3 1.16-.42A5.52 5.52 0 0 1 61 .13c.34.08.64.22.92.41.3.2.51.46.66.75a2.22 2.22 0 0 1-1.57 3.17v.1a3.06 3.06 0 0 1 1.32.62zM105 7.47h-1.37V10h-1.2V7.47H98v-1.4L102.48 1h1.15v5.5H105v.97zm-2.57-.97V2.44L98.85 6.5h3.58zm43.57.18a3.58 3.58 0 0 1-.88 2.37c-.3.3-.65.54-1.06.7-.4.17-.88.25-1.42.25a6.2 6.2 0 0 1-2.64-.57v-1.4h.09c.33.24.73.43 1.18.6a4 4 0 0 0 1.34.23c.3 0 .58-.04.85-.13a1.77 1.77 0 0 0 1.15-1.14 2.75 2.75 0 0 0-.03-1.77c-.1-.23-.26-.42-.45-.56a1.94 1.94 0 0 0-.79-.35 6.77 6.77 0 0 0-2.08-.02c-.33.05-.62.1-.86.16V0h5.54v1.15h-4.35v2.6a10.62 10.62 0 0 1 1.03-.05c.5 0 .93.05 1.3.14.38.09.73.25 1.04.48.33.24.59.55.77.93.18.38.27.86.27 1.43z" fill="#E4E4E4"/>
    <path fill="#B3B3B3" d="M0 27h40v40H0z"/>
    <path d="M19.12 48.66a2.13 2.13 0 0 1-.82 1.64c-.29.22-.62.39-1 .51a4.4 4.4 0 0 1-1.36.19 6.98 6.98 0 0 1-2.94-.62V49.1h.07c.4.32.87.57 1.4.75.52.18 1.01.26 1.48.26.65 0 1.16-.12 1.52-.35.37-.24.55-.56.55-.96 0-.34-.09-.6-.26-.76a1.78 1.78 0 0 0-.79-.37 8.02 8.02 0 0 0-.86-.17c-.31-.05-.64-.1-.99-.18a2.92 2.92 0 0 1-1.56-.74c-.34-.35-.51-.8-.51-1.37 0-.65.28-1.18.84-1.59a3.51 3.51 0 0 1 2.14-.62 7.06 7.06 0 0 1 2.77.54v1.21h-.08a4.74 4.74 0 0 0-2.7-.87 2.4 2.4 0 0 0-1.36.35c-.34.23-.51.52-.51.88 0 .32.08.57.25.76.17.18.47.32.9.42l.97.17c.42.07.78.14 1.07.22.59.15 1.03.38 1.33.69.3.3.45.73.45 1.29zM26 45.47a2.28 2.28 0 0 1-.7 1.71c-.27.27-.6.47-.97.6-.37.14-.84.2-1.41.2h-1.05v2.88H20.8v-7.72h2.15c.48 0 .88.04 1.21.12.33.07.63.2.88.36.3.2.54.44.7.74.17.3.25.66.25 1.11zm-1.1.03c0-.27-.05-.5-.14-.7-.1-.2-.24-.35-.44-.48a2 2 0 0 0-.58-.23 3.9 3.9 0 0 0-.83-.07h-1.04v3.09h.89c.42 0 .77-.04 1.03-.12a1.48 1.48 0 0 0 1-.87c.08-.19.11-.4.11-.62z" fill="#333"/>
    <path fill="#B3B3B3" d="M0 68h40v40H0z"/>
    <path fill="#666" d="M0 109h40v40H0z"/>
    <path fill="#555" d="M0 150h40v40H0z"/>
    <path fill="#B3B3B3" d="M0 191h40v40H0zm0 41h40v40H0zm0 41h40v40H0zm0 41h40v40H0z"/>
    <path fill="#444" d="M0 355h40v40H0z"/>
    <path fill="#B3B3B3" d="M0 396h40v40H0zM41 27h40v40H41z"/>
    <path d="M19.12 89.66a2.13 2.13 0 0 1-.82 1.64c-.29.22-.62.39-1 .51a4.4 4.4 0 0 1-1.36.19 6.98 6.98 0 0 1-2.94-.62V90.1h.07c.4.32.87.57 1.4.75.52.18 1.01.26 1.48.26.65 0 1.16-.12 1.52-.35.37-.24.55-.56.55-.96 0-.34-.09-.6-.26-.76a1.78 1.78 0 0 0-.79-.37 8.02 8.02 0 0 0-.86-.17c-.31-.05-.64-.1-.99-.18a2.92 2.92 0 0 1-1.56-.74c-.34-.35-.51-.8-.51-1.37 0-.65.28-1.18.84-1.59a3.51 3.51 0 0 1 2.14-.62 7.06 7.06 0 0 1 2.77.54v1.21h-.08a4.74 4.74 0 0 0-2.7-.87 2.4 2.4 0 0 0-1.36.35c-.34.23-.51.52-.51.88 0 .32.08.57.25.76.17.18.47.32.9.42l.97.17c.42.07.78.14 1.07.22.59.15 1.03.38 1.33.69.3.3.45.73.45 1.29zM26 86.47a2.28 2.28 0 0 1-.7 1.71c-.27.27-.6.47-.97.6-.37.14-.84.2-1.41.2h-1.05v2.88H20.8v-7.72h2.15c.48 0 .88.04 1.21.12.33.07.63.2.88.36.3.2.54.44.7.74.17.3.25.66.25 1.11zm-1.1.03c0-.27-.05-.5-.14-.7-.1-.2-.24-.35-.44-.48a2 2 0 0 0-.58-.23 3.9 3.9 0 0 0-.83-.07h-1.04v3.09h.89c.42 0 .77-.04 1.03-.12a1.48 1.48 0 0 0 1-.87c.08-.19.11-.4.11-.62zm-4.78 126.16a2.13 2.13 0 0 1-.82 1.64c-.29.22-.62.39-1 .51a4.4 4.4 0 0 1-1.36.19 6.98 6.98 0 0 1-2.94-.62v-1.28h.07c.4.32.87.57 1.4.75.52.18 1.01.26 1.48.26.65 0 1.16-.12 1.52-.35.37-.24.55-.56.55-.96 0-.34-.09-.6-.26-.76a1.78 1.78 0 0 0-.79-.37 8.02 8.02 0 0 0-.86-.17c-.31-.05-.64-.1-.99-.18a2.92 2.92 0 0 1-1.56-.74c-.34-.35-.51-.8-.51-1.37 0-.65.28-1.18.84-1.59a3.51 3.51 0 0 1 2.14-.62 7.06 7.06 0 0 1 2.77.54v1.21h-.08a4.74 4.74 0 0 0-2.7-.87 2.4 2.4 0 0 0-1.36.35c-.34.23-.51.52-.51.88 0 .32.08.57.25.76.17.18.47.32.9.42l.97.17c.42.07.78.14 1.07.22.59.15 1.03.38 1.33.69.3.3.45.73.45 1.29zm6.88-3.19a2.28 2.28 0 0 1-.7 1.71c-.27.27-.6.47-.97.6-.37.14-.84.2-1.41.2h-1.05v2.88H21.8v-7.72h2.15c.48 0 .88.04 1.21.12.33.07.63.2.88.36.3.2.54.44.7.74.17.3.25.66.25 1.11zm-1.1.03c0-.27-.05-.5-.14-.7-.1-.2-.24-.35-.44-.48a2 2 0 0 0-.58-.23 3.9 3.9 0 0 0-.83-.07h-1.04v3.09h.89c.42 0 .77-.04 1.03-.12a1.48 1.48 0 0 0 1-.87c.08-.19.11-.4.11-.62z" fill="#333"/>
    <path fill="#B3B3B3" d="M41 68h40v40H41z"/>
    <path fill="#666" d="M41 109h40v40H41z"/>
    <path fill="#555" d="M41 150h40v40H41z"/>
    <path fill="#B3B3B3" d="M41 191h40v40H41z"/>
    <path d="M60.12 48.66a2.13 2.13 0 0 1-.82 1.64c-.29.22-.62.39-1 .51a4.4 4.4 0 0 1-1.36.19 6.98 6.98 0 0 1-2.94-.62V49.1h.07c.4.32.87.57 1.4.75.52.18 1.01.26 1.48.26.65 0 1.16-.12 1.52-.35.37-.24.55-.56.55-.96 0-.34-.09-.6-.26-.76a1.78 1.78 0 0 0-.79-.37 8.02 8.02 0 0 0-.86-.17c-.31-.05-.64-.1-.99-.18a2.92 2.92 0 0 1-1.56-.74c-.34-.35-.51-.8-.51-1.37 0-.65.28-1.18.84-1.59a3.51 3.51 0 0 1 2.14-.62 7.06 7.06 0 0 1 2.77.54v1.21h-.08a4.74 4.74 0 0 0-2.7-.87 2.4 2.4 0 0 0-1.36.35c-.34.23-.51.52-.51.88 0 .32.08.57.25.76.17.18.47.32.9.42l.97.17c.42.07.78.14 1.07.22.59.15 1.03.38 1.33.69.3.3.45.73.45 1.29zM67 45.47a2.28 2.28 0 0 1-.7 1.71c-.27.27-.6.47-.97.6-.37.14-.84.2-1.41.2h-1.05v2.88H61.8v-7.72h2.15c.48 0 .88.04 1.21.12.33.07.63.2.88.36.3.2.54.44.7.74.17.3.25.66.25 1.11zm-1.1.03c0-.27-.05-.5-.14-.7-.1-.2-.24-.35-.44-.48a2 2 0 0 0-.58-.23 3.9 3.9 0 0 0-.83-.07h-1.04v3.09h.89c.42 0 .77-.04 1.03-.12a1.48 1.48 0 0 0 1-.87c.08-.19.11-.4.11-.62zm-4.78 167.16a2.13 2.13 0 0 1-.82 1.64c-.29.22-.62.39-1 .51a4.4 4.4 0 0 1-1.36.19 6.98 6.98 0 0 1-2.94-.62v-1.28h.07c.4.32.87.57 1.4.75.52.18 1.01.26 1.48.26.65 0 1.16-.12 1.52-.35.37-.24.55-.56.55-.96 0-.34-.09-.6-.26-.76a1.78 1.78 0 0 0-.79-.37 8.02 8.02 0 0 0-.86-.17c-.31-.05-.64-.1-.99-.18a2.92 2.92 0 0 1-1.56-.74c-.34-.35-.51-.8-.51-1.37 0-.65.28-1.18.84-1.59a3.51 3.51 0 0 1 2.14-.62 7.06 7.06 0 0 1 2.77.54v1.21h-.08a4.74 4.74 0 0 0-2.7-.87 2.4 2.4 0 0 0-1.36.35c-.34.23-.51.52-.51.88 0 .32.08.57.25.76.17.18.47.32.9.42l.97.17c.42.07.78.14 1.07.22.59.15 1.03.38 1.33.69.3.3.45.73.45 1.29zm6.88-3.19a2.28 2.28 0 0 1-.7 1.71c-.27.27-.6.47-.97.6-.37.14-.84.2-1.41.2h-1.05v2.88H62.8v-7.72h2.15c.48 0 .88.04 1.21.12.33.07.63.2.88.36.3.2.54.44.7.74.17.3.25.66.25 1.11zm-1.1.03c0-.27-.05-.5-.14-.7-.1-.2-.24-.35-.44-.48a2 2 0 0 0-.58-.23 3.9 3.9 0 0 0-.83-.07h-1.04v3.09h.89c.42 0 .77-.04 1.03-.12a1.48 1.48 0 0 0 1-.87c.08-.19.11-.4.11-.62z" fill="#333"/>
    <path fill="#B3B3B3" d="M41 232h40v40H41zm0 41h40v40H41zm0 41h40v40H41z"/>
    <path fill="#444" d="M41 355h40v40H41z"/>
    <path fill="#B3B3B3" d="M41 396h40v40H41zM82 27h40v40H82zm0 41h40v40H82z"/>
    <path fill="#666" d="M82 109h40v40H82z"/>
    <path fill="#555" d="M82 150h40v40H82z"/>
    <path fill="#B3B3B3" d="M82 191h40v40H82zm0 41h40v40H82zm0 41h40v40H82zm0 41h40v40H82z"/>
    <path fill="#444" d="M82 355h40v40H82z"/>
    <path fill="#B3B3B3" d="M82 396h40v40H82zm41-369h40v40h-40zm0 41h40v40h-40zm0 41h40v40h-40z"/>
    <path fill="#555" d="M123 150h40v40h-40z"/>
    <path fill="#B3B3B3" d="M123 191h40v40h-40zm0 41h40v40h-40zm0 41h40v40h-40zm0 41h40v40h-40z"/>
    <path fill="#444" d="M123 355h40v40h-40z"/>
    <path fill="#B3B3B3" d="M123 396h40v40h-40zm41-369h40v40h-40zm0 41h40v40h-40zm0 41h40v40h-40z"/>
    <path fill="#555" d="M164 150h40v40h-40z"/>
    <path fill="#B3B3B3" d="M164 191h40v40h-40zm0 41h40v40h-40zm0 41h40v40h-40zm0 41h40v40h-40z"/>
    <path fill="#444" d="M164 355h40v40h-40z"/>
    <path fill="#B3B3B3" d="M164 396h40v40h-40zm41-369h40v40h-40zm0 41h40v40h-40z"/>
    <path fill="#666" d="M205 109h40v40h-40z"/>
    <path fill="#555" d="M205 150h40v40h-40z"/>
    <path fill="#666" d="M205 191h40v40h-40z"/>
    <path fill="#B3B3B3" d="M205 232h40v40h-40zm0 41h40v40h-40z"/>
    <path fill="#444" d="M205 314h40v40h-40zm0 41h40v40h-40z"/>
    <path fill="#B3B3B3" d="M205 396h40v40h-40z"/>
    <path fill="#666" d="M246 27h40v40h-40zm0 41h40v40h-40zm0 41h40v40h-40z"/>
    <path fill="#555" d="M246 150h40v40h-40z"/>
    <path fill="#666" d="M246 191h40v40h-40zm0 41h40v40h-40z"/>
    <path fill="#B3B3B3" d="M246 273h40v40h-40zm0 41h40v40h-40z"/>
    <path fill="#444" d="M246 355h40v40h-40z"/>
    <path fill="#B3B3B3" d="M246 396h40v40h-40z"/>
    <path fill="#666" d="M287 27h40v40h-40zm0 41h40v40h-40zm0 41h40v40h-40z"/>
    <path fill="#555" d="M287 150h40v40h-40z"/>
    <path fill="#666" d="M287 191h40v40h-40zm0 41h40v40h-40z"/>
    <path fill="#B3B3B3" d="M287 273h40v40h-40zm0 41h40v40h-40z"/>
    <path fill="#444" d="M287 355h40v40h-40z"/>
    <path fill="#B3B3B3" d="M287 396h40v40h-40z"/>
    <path d="M188 6.68c0 .98-.33 1.77-1 2.4-.65.61-1.47.92-2.43.92-.48 0-.93-.07-1.33-.22s-.75-.36-1.05-.65a3.48 3.48 0 0 1-.88-1.42 8.28 8.28 0 0 1-.03-4.4c.19-.66.49-1.25.9-1.76a4 4 0 0 1 1.51-1.14 5.26 5.26 0 0 1 3.35-.26v1.23h-.07a3.38 3.38 0 0 0-1.33-.27c-.95 0-1.7.3-2.28.87-.56.58-.9 1.36-.99 2.35a4.16 4.16 0 0 1 2.35-.67c.43 0 .8.03 1.12.1a2.99 2.99 0 0 1 1.86 1.46c.2.4.3.89.3 1.46zm-1.35.05c0-.4-.06-.73-.18-1a1.74 1.74 0 0 0-1.28-.95 4.54 4.54 0 0 0-1.83.06c-.32.1-.65.22-1 .4a6.4 6.4 0 0 0 .2 2.22c.14.4.34.71.6.94a1.99 1.99 0 0 0 1.43.55 2 2 0 0 0 1.51-.57c.37-.39.55-.93.55-1.65zM228 2.35L224.03 10h-1.26l4.22-7.94H222V1h6zm42 4.77c0 .82-.33 1.51-1 2.06a3.8 3.8 0 0 1-2.5.82 3.82 3.82 0 0 1-2.55-.8 2.57 2.57 0 0 1-.95-2.06c0-.53.16-1.01.48-1.44.31-.43.76-.77 1.34-1.02v-.04a3.5 3.5 0 0 1-1.17-.9 1.92 1.92 0 0 1-.39-1.22c0-.72.3-1.32.92-1.8.6-.48 1.38-.72 2.32-.72.98 0 1.77.23 2.36.69a2.14 2.14 0 0 1 .46 3.02c-.28.42-.69.74-1.23.98v.04c.62.25 1.1.57 1.42.95.33.37.49.85.49 1.44zm-1.57-4.67c0-.46-.18-.83-.54-1.1a2.3 2.3 0 0 0-1.4-.4c-.55 0-1 .12-1.36.38-.36.26-.54.6-.54 1.04 0 .3.1.57.27.8.18.22.45.42.81.6a14.57 14.57 0 0 0 1.6.61c.44-.28.74-.58.91-.88.17-.3.25-.65.25-1.05zm.2 4.79c0-.4-.08-.71-.26-.95a2.77 2.77 0 0 0-1.05-.72c-.2-.09-.43-.18-.68-.26l-.99-.34c-.4.21-.71.5-.95.86-.24.35-.36.76-.36 1.22 0 .57.2 1.05.61 1.43.41.37.93.56 1.56.56.65 0 1.16-.16 1.55-.48.38-.32.58-.76.58-1.32z" fill="#E4E4E4"/>
    <path d="M102.12 48.66a2.13 2.13 0 0 1-.82 1.64c-.29.22-.62.39-1 .51a4.4 4.4 0 0 1-1.36.19 6.98 6.98 0 0 1-2.94-.62V49.1h.07c.4.32.87.57 1.4.75.52.18 1.01.26 1.48.26.65 0 1.16-.12 1.52-.35.37-.24.55-.56.55-.96 0-.34-.09-.6-.26-.76a1.78 1.78 0 0 0-.79-.37 8.02 8.02 0 0 0-.86-.17c-.31-.05-.64-.1-.99-.18a2.92 2.92 0 0 1-1.56-.74c-.34-.35-.51-.8-.51-1.37 0-.65.28-1.18.84-1.59a3.51 3.51 0 0 1 2.14-.62 7.06 7.06 0 0 1 2.77.54v1.21h-.08a4.74 4.74 0 0 0-2.7-.87 2.4 2.4 0 0 0-1.36.35c-.34.23-.51.52-.51.88 0 .32.08.57.25.76.17.18.47.32.9.42l.97.17c.42.07.78.14 1.07.22.59.15 1.03.38 1.33.69.3.3.45.73.45 1.29zm6.88-3.19a2.28 2.28 0 0 1-.7 1.71c-.27.27-.6.47-.97.6-.37.14-.84.2-1.41.2h-1.05v2.88h-1.06v-7.72h2.15c.48 0 .88.04 1.21.12.33.07.63.2.88.36.3.2.54.44.7.74.17.3.25.66.25 1.11zm-1.1.03c0-.27-.05-.5-.14-.7-.1-.2-.24-.35-.44-.48a2 2 0 0 0-.58-.23 3.9 3.9 0 0 0-.83-.07h-1.04v3.09h.89c.42 0 .77-.04 1.03-.12a1.48 1.48 0 0 0 1-.87c.08-.19.11-.4.11-.62zm35.22 3.16a2.13 2.13 0 0 1-.82 1.64c-.29.22-.62.39-1 .51a4.4 4.4 0 0 1-1.36.19 6.98 6.98 0 0 1-2.94-.62V49.1h.07c.4.32.87.57 1.4.75.52.18 1.01.26 1.48.26.65 0 1.16-.12 1.52-.35.37-.24.55-.56.55-.96 0-.34-.09-.6-.26-.76a1.78 1.78 0 0 0-.79-.37 8.02 8.02 0 0 0-.86-.17c-.31-.05-.64-.1-.99-.18a2.92 2.92 0 0 1-1.56-.74c-.34-.35-.51-.8-.51-1.37 0-.65.28-1.18.84-1.59a3.51 3.51 0 0 1 2.14-.62 7.06 7.06 0 0 1 2.77.54v1.21h-.08a4.74 4.74 0 0 0-2.7-.87 2.4 2.4 0 0 0-1.36.35c-.34.23-.51.52-.51.88 0 .32.08.57.25.76.17.18.47.32.9.42l.97.17c.42.07.78.14 1.07.22.59.15 1.03.38 1.33.69.3.3.45.73.45 1.29zm6.88-3.19a2.28 2.28 0 0 1-.7 1.71c-.27.27-.6.47-.97.6-.37.14-.84.2-1.41.2h-1.05v2.88h-1.06v-7.72h2.15c.48 0 .88.04 1.21.12.33.07.63.2.88.36.3.2.54.44.7.74.17.3.25.66.25 1.11zm-1.1.03c0-.27-.05-.5-.14-.7-.1-.2-.24-.35-.44-.48a2 2 0 0 0-.58-.23 3.9 3.9 0 0 0-.83-.07h-1.04v3.09h.89c.42 0 .77-.04 1.03-.12a1.48 1.48 0 0 0 1-.87c.08-.19.11-.4.11-.62zm35.22 3.16a2.13 2.13 0 0 1-.82 1.64c-.29.22-.62.39-1 .51a4.4 4.4 0 0 1-1.36.19 6.98 6.98 0 0 1-2.94-.62V49.1h.07c.4.32.87.57 1.4.75.52.18 1.01.26 1.48.26.65 0 1.16-.12 1.52-.35.37-.24.55-.56.55-.96 0-.34-.09-.6-.26-.76a1.78 1.78 0 0 0-.79-.37 8.02 8.02 0 0 0-.86-.17c-.31-.05-.64-.1-.99-.18a2.92 2.92 0 0 1-1.56-.74c-.34-.35-.51-.8-.51-1.37 0-.65.28-1.18.84-1.59a3.51 3.51 0 0 1 2.14-.62 7.06 7.06 0 0 1 2.77.54v1.21h-.08a4.74 4.74 0 0 0-2.7-.87 2.4 2.4 0 0 0-1.36.35c-.34.23-.51.52-.51.88 0 .32.08.57.25.76.17.18.47.32.9.42l.97.17c.42.07.78.14 1.07.22.59.15 1.03.38 1.33.69.3.3.45.73.45 1.29zm6.88-3.19a2.28 2.28 0 0 1-.7 1.71c-.27.27-.6.47-.97.6-.37.14-.84.2-1.41.2h-1.05v2.88h-1.06v-7.72h2.15c.48 0 .88.04 1.21.12.33.07.63.2.88.36.3.2.54.44.7.74.17.3.25.66.25 1.11zm-1.1.03c0-.27-.05-.5-.14-.7-.1-.2-.24-.35-.44-.48a2 2 0 0 0-.58-.23 3.9 3.9 0 0 0-.83-.07h-1.04v3.09h.89c.42 0 .77-.04 1.03-.12a1.48 1.48 0 0 0 1-.87c.08-.19.11-.4.11-.62zm35.22 3.16a2.13 2.13 0 0 1-.82 1.64c-.29.22-.62.39-1 .51a4.4 4.4 0 0 1-1.36.19 6.98 6.98 0 0 1-2.94-.62V49.1h.07c.4.32.87.57 1.4.75.52.18 1.01.26 1.48.26.65 0 1.16-.12 1.52-.35.37-.24.55-.56.55-.96 0-.34-.09-.6-.26-.76a1.78 1.78 0 0 0-.79-.37 8.02 8.02 0 0 0-.86-.17c-.31-.05-.64-.1-.99-.18a2.92 2.92 0 0 1-1.56-.74c-.34-.35-.51-.8-.51-1.37 0-.65.28-1.18.84-1.59a3.51 3.51 0 0 1 2.14-.62 7.06 7.06 0 0 1 2.77.54v1.21h-.08a4.74 4.74 0 0 0-2.7-.87 2.4 2.4 0 0 0-1.36.35c-.34.23-.51.52-.51.88 0 .32.08.57.25.76.17.18.47.32.9.42l.97.17c.42.07.78.14 1.07.22.59.15 1.03.38 1.33.69.3.3.45.73.45 1.29zm6.88-3.19a2.28 2.28 0 0 1-.7 1.71c-.27.27-.6.47-.97.6-.37.14-.84.2-1.41.2h-1.05v2.88h-1.06v-7.72h2.15c.48 0 .88.04 1.21.12.33.07.63.2.88.36.3.2.54.44.7.74.17.3.25.66.25 1.11zm-1.1.03c0-.27-.05-.5-.14-.7-.1-.2-.24-.35-.44-.48a2 2 0 0 0-.58-.23 3.9 3.9 0 0 0-.83-.07h-1.04v3.09h.89c.42 0 .77-.04 1.03-.12a1.48 1.48 0 0 0 1-.87c.08-.19.11-.4.11-.62zM60.12 89.66a2.13 2.13 0 0 1-.82 1.64c-.29.22-.62.39-1 .51a4.4 4.4 0 0 1-1.36.19 6.98 6.98 0 0 1-2.94-.62V90.1h.07c.4.32.87.57 1.4.75.52.18 1.01.26 1.48.26.65 0 1.16-.12 1.52-.35.37-.24.55-.56.55-.96 0-.34-.09-.6-.26-.76a1.78 1.78 0 0 0-.79-.37 8.02 8.02 0 0 0-.86-.17c-.31-.05-.64-.1-.99-.18a2.92 2.92 0 0 1-1.56-.74c-.34-.35-.51-.8-.51-1.37 0-.65.28-1.18.84-1.59a3.51 3.51 0 0 1 2.14-.62 7.06 7.06 0 0 1 2.77.54v1.21h-.08a4.74 4.74 0 0 0-2.7-.87 2.4 2.4 0 0 0-1.36.35c-.34.23-.51.52-.51.88 0 .32.08.57.25.76.17.18.47.32.9.42l.97.17c.42.07.78.14 1.07.22.59.15 1.03.38 1.33.69.3.3.45.73.45 1.29zM67 86.47a2.28 2.28 0 0 1-.7 1.71c-.27.27-.6.47-.97.6-.37.14-.84.2-1.41.2h-1.05v2.88H61.8v-7.72h2.15c.48 0 .88.04 1.21.12.33.07.63.2.88.36.3.2.54.44.7.74.17.3.25.66.25 1.11zm-1.1.03c0-.27-.05-.5-.14-.7-.1-.2-.24-.35-.44-.48a2 2 0 0 0-.58-.23 3.9 3.9 0 0 0-.83-.07h-1.04v3.09h.89c.42 0 .77-.04 1.03-.12a1.48 1.48 0 0 0 1-.87c.08-.19.11-.4.11-.62zm36.22 3.16a2.13 2.13 0 0 1-.82 1.64c-.29.22-.62.39-1 .51a4.4 4.4 0 0 1-1.36.19 6.98 6.98 0 0 1-2.94-.62V90.1h.07c.4.32.87.57 1.4.75.52.18 1.01.26 1.48.26.65 0 1.16-.12 1.52-.35.37-.24.55-.56.55-.96 0-.34-.09-.6-.26-.76a1.78 1.78 0 0 0-.79-.37 8.02 8.02 0 0 0-.86-.17c-.31-.05-.64-.1-.99-.18a2.92 2.92 0 0 1-1.56-.74c-.34-.35-.51-.8-.51-1.37 0-.65.28-1.18.84-1.59a3.51 3.51 0 0 1 2.14-.62 7.06 7.06 0 0 1 2.77.54v1.21h-.08a4.74 4.74 0 0 0-2.7-.87 2.4 2.4 0 0 0-1.36.35c-.34.23-.51.52-.51.88 0 .32.08.57.25.76.17.18.47.32.9.42l.97.17c.42.07.78.14 1.07.22.59.15 1.03.38 1.33.69.3.3.45.73.45 1.29zm6.88-3.19a2.28 2.28 0 0 1-.7 1.71c-.27.27-.6.47-.97.6-.37.14-.84.2-1.41.2h-1.05v2.88h-1.06v-7.72h2.15c.48 0 .88.04 1.21.12.33.07.63.2.88.36.3.2.54.44.7.74.17.3.25.66.25 1.11zm-1.1.03c0-.27-.05-.5-.14-.7-.1-.2-.24-.35-.44-.48a2 2 0 0 0-.58-.23 3.9 3.9 0 0 0-.83-.07h-1.04v3.09h.89c.42 0 .77-.04 1.03-.12a1.48 1.48 0 0 0 1-.87c.08-.19.11-.4.11-.62zm35.22 3.16a2.13 2.13 0 0 1-.82 1.64c-.29.22-.62.39-1 .51a4.4 4.4 0 0 1-1.36.19 6.98 6.98 0 0 1-2.94-.62V90.1h.07c.4.32.87.57 1.4.75.52.18 1.01.26 1.48.26.65 0 1.16-.12 1.52-.35.37-.24.55-.56.55-.96 0-.34-.09-.6-.26-.76a1.78 1.78 0 0 0-.79-.37 8.02 8.02 0 0 0-.86-.17c-.31-.05-.64-.1-.99-.18a2.92 2.92 0 0 1-1.56-.74c-.34-.35-.51-.8-.51-1.37 0-.65.28-1.18.84-1.59a3.51 3.51 0 0 1 2.14-.62 7.06 7.06 0 0 1 2.77.54v1.21h-.08a4.74 4.74 0 0 0-2.7-.87 2.4 2.4 0 0 0-1.36.35c-.34.23-.51.52-.51.88 0 .32.08.57.25.76.17.18.47.32.9.42l.97.17c.42.07.78.14 1.07.22.59.15 1.03.38 1.33.69.3.3.45.73.45 1.29zm6.88-3.19a2.28 2.28 0 0 1-.7 1.71c-.27.27-.6.47-.97.6-.37.14-.84.2-1.41.2h-1.05v2.88h-1.06v-7.72h2.15c.48 0 .88.04 1.21.12.33.07.63.2.88.36.3.2.54.44.7.74.17.3.25.66.25 1.11zm-1.1.03c0-.27-.05-.5-.14-.7-.1-.2-.24-.35-.44-.48a2 2 0 0 0-.58-.23 3.9 3.9 0 0 0-.83-.07h-1.04v3.09h.89c.42 0 .77-.04 1.03-.12a1.48 1.48 0 0 0 1-.87c.08-.19.11-.4.11-.62zm35.22 3.16a2.13 2.13 0 0 1-.82 1.64c-.29.22-.62.39-1 .51a4.4 4.4 0 0 1-1.36.19 6.98 6.98 0 0 1-2.94-.62V90.1h.07c.4.32.87.57 1.4.75.52.18 1.01.26 1.48.26.65 0 1.16-.12 1.52-.35.37-.24.55-.56.55-.96 0-.34-.09-.6-.26-.76a1.78 1.78 0 0 0-.79-.37 8.02 8.02 0 0 0-.86-.17c-.31-.05-.64-.1-.99-.18a2.92 2.92 0 0 1-1.56-.74c-.34-.35-.51-.8-.51-1.37 0-.65.28-1.18.84-1.59a3.51 3.51 0 0 1 2.14-.62 7.06 7.06 0 0 1 2.77.54v1.21h-.08a4.74 4.74 0 0 0-2.7-.87 2.4 2.4 0 0 0-1.36.35c-.34.23-.51.52-.51.88 0 .32.08.57.25.76.17.18.47.32.9.42l.97.17c.42.07.78.14 1.07.22.59.15 1.03.38 1.33.69.3.3.45.73.45 1.29zm6.88-3.19a2.28 2.28 0 0 1-.7 1.71c-.27.27-.6.47-.97.6-.37.14-.84.2-1.41.2h-1.05v2.88h-1.06v-7.72h2.15c.48 0 .88.04 1.21.12.33.07.63.2.88.36.3.2.54.44.7.74.17.3.25.66.25 1.11zm-1.1.03c0-.27-.05-.5-.14-.7-.1-.2-.24-.35-.44-.48a2 2 0 0 0-.58-.23 3.9 3.9 0 0 0-.83-.07h-1.04v3.09h.89c.42 0 .77-.04 1.03-.12a1.48 1.48 0 0 0 1-.87c.08-.19.11-.4.11-.62zm35.22 3.16a2.13 2.13 0 0 1-.82 1.64c-.29.22-.62.39-1 .51a4.4 4.4 0 0 1-1.36.19 6.98 6.98 0 0 1-2.94-.62V90.1h.07c.4.32.87.57 1.4.75.52.18 1.01.26 1.48.26.65 0 1.16-.12 1.52-.35.37-.24.55-.56.55-.96 0-.34-.09-.6-.26-.76a1.78 1.78 0 0 0-.79-.37 8.02 8.02 0 0 0-.86-.17c-.31-.05-.64-.1-.99-.18a2.92 2.92 0 0 1-1.56-.74c-.34-.35-.51-.8-.51-1.37 0-.65.28-1.18.84-1.59a3.51 3.51 0 0 1 2.14-.62 7.06 7.06 0 0 1 2.77.54v1.21h-.08a4.74 4.74 0 0 0-2.7-.87 2.4 2.4 0 0 0-1.36.35c-.34.23-.51.52-.51.88 0 .32.08.57.25.76.17.18.47.32.9.42l.97.17c.42.07.78.14 1.07.22.59.15 1.03.38 1.33.69.3.3.45.73.45 1.29zm6.88-3.19a2.28 2.28 0 0 1-.7 1.71c-.27.27-.6.47-.97.6-.37.14-.84.2-1.41.2h-1.05v2.88h-1.06v-7.72h2.15c.48 0 .88.04 1.21.12.33.07.63.2.88.36.3.2.54.44.7.74.17.3.25.66.25 1.11zm-1.1.03c0-.27-.05-.5-.14-.7-.1-.2-.24-.35-.44-.48a2 2 0 0 0-.58-.23 3.9 3.9 0 0 0-.83-.07h-1.04v3.09h.89c.42 0 .77-.04 1.03-.12a1.48 1.48 0 0 0 1-.87c.08-.19.11-.4.11-.62z" fill="#333"/>
    <path fill="#00FFF2" d="M269 51h-1.04v-3.92h-3.92V51H263v-8h1.04v3.14h3.92V43H269zm41 0h-1.04v-3.92h-3.92V51H304v-8h1.04v3.14h3.92V43H310zm-41 41h-1.04v-3.92h-3.92V92H263v-8h1.04v3.14h3.92V84H269zm41 0h-1.04v-3.92h-3.92V92H304v-8h1.04v3.14h3.92V84H310zM22 133h-1.04v-3.92h-3.92V133H16v-8h1.04v3.14h3.92V125H22zm41 0h-1.04v-3.92h-3.92V133H57v-8h1.04v3.14h3.92V125H63zm42 0h-1.04v-3.92h-3.92V133H99v-8h1.04v3.14h3.92V125H105z"/>
    <path d="M143.12 130.66a2.13 2.13 0 0 1-.82 1.64c-.29.22-.62.39-1 .51a4.4 4.4 0 0 1-1.36.19 6.98 6.98 0 0 1-2.94-.62v-1.28h.07c.4.32.87.57 1.4.75.52.18 1.01.26 1.48.26.65 0 1.16-.12 1.52-.35.37-.24.55-.56.55-.96 0-.34-.09-.6-.26-.76a1.78 1.78 0 0 0-.79-.37 8.02 8.02 0 0 0-.86-.17c-.31-.05-.64-.1-.99-.18a2.92 2.92 0 0 1-1.56-.74c-.34-.35-.51-.8-.51-1.37 0-.65.28-1.18.84-1.59a3.51 3.51 0 0 1 2.14-.62 7.06 7.06 0 0 1 2.77.54v1.21h-.08a4.74 4.74 0 0 0-2.7-.87 2.4 2.4 0 0 0-1.36.35c-.34.23-.51.52-.51.88 0 .32.08.57.25.76.17.18.47.32.9.42l.97.17c.42.07.78.14 1.07.22.59.15 1.03.38 1.33.69.3.3.45.73.45 1.29zm6.88-3.19a2.28 2.28 0 0 1-.7 1.71c-.27.27-.6.47-.97.6-.37.14-.84.2-1.41.2h-1.05v2.88h-1.06v-7.72h2.15c.48 0 .88.04 1.21.12.33.07.63.2.88.36.3.2.54.44.7.74.17.3.25.66.25 1.11zm-1.1.03c0-.27-.05-.5-.14-.7-.1-.2-.24-.35-.44-.48a2 2 0 0 0-.58-.23 3.9 3.9 0 0 0-.83-.07h-1.04v3.09h.89c.42 0 .77-.04 1.03-.12a1.48 1.48 0 0 0 1-.87c.08-.19.11-.4.11-.62zm35.22 3.16a2.13 2.13 0 0 1-.82 1.64c-.29.22-.62.39-1 .51a4.4 4.4 0 0 1-1.36.19 6.98 6.98 0 0 1-2.94-.62v-1.28h.07c.4.32.87.57 1.4.75.52.18 1.01.26 1.48.26.65 0 1.16-.12 1.52-.35.37-.24.55-.56.55-.96 0-.34-.09-.6-.26-.76a1.78 1.78 0 0 0-.79-.37 8.02 8.02 0 0 0-.86-.17c-.31-.05-.64-.1-.99-.18a2.92 2.92 0 0 1-1.56-.74c-.34-.35-.51-.8-.51-1.37 0-.65.28-1.18.84-1.59a3.51 3.51 0 0 1 2.14-.62 7.06 7.06 0 0 1 2.77.54v1.21h-.08a4.74 4.74 0 0 0-2.7-.87 2.4 2.4 0 0 0-1.36.35c-.34.23-.51.52-.51.88 0 .32.08.57.25.76.17.18.47.32.9.42l.97.17c.42.07.78.14 1.07.22.59.15 1.03.38 1.33.69.3.3.45.73.45 1.29zm6.88-3.19a2.28 2.28 0 0 1-.7 1.71c-.27.27-.6.47-.97.6-.37.14-.84.2-1.41.2h-1.05v2.88h-1.06v-7.72h2.15c.48 0 .88.04 1.21.12.33.07.63.2.88.36.3.2.54.44.7.74.17.3.25.66.25 1.11zm-1.1.03c0-.27-.05-.5-.14-.7-.1-.2-.24-.35-.44-.48a2 2 0 0 0-.58-.23 3.9 3.9 0 0 0-.83-.07h-1.04v3.09h.89c.42 0 .77-.04 1.03-.12a1.48 1.48 0 0 0 1-.87c.08-.19.11-.4.11-.62z" fill="#333"/>
    <path fill="#00FFF2" d="M228 133h-1.04v-3.92h-3.92V133H222v-8h1.04v3.14h3.92V125H228zm41 0h-1.04v-3.92h-3.92V133H263v-8h1.04v3.14h3.92V125H269zm41 0h-1.04v-3.92h-3.92V133H304v-8h1.04v3.14h3.92V125H310zM18.65 169c0 .74-.15 1.4-.46 1.99a3.53 3.53 0 0 1-2.45 1.86 8.2 8.2 0 0 1-1.75.15H12v-8h1.97a8 8 0 0 1 1.83.17 3.55 3.55 0 0 1 2.4 1.82c.3.57.45 1.24.45 2.02zm-1.1 0c0-.63-.1-1.16-.31-1.6a2.39 2.39 0 0 0-.97-1 2.9 2.9 0 0 0-.99-.38c-.34-.07-.76-.1-1.25-.1h-.98v6.17h.98c.5 0 .95-.04 1.32-.12.38-.07.72-.21 1.03-.42.4-.25.69-.58.89-1 .2-.42.29-.93.29-1.56zm9.45 0c0 .74-.16 1.4-.47 1.99a3.53 3.53 0 0 1-2.45 1.86 8.2 8.2 0 0 1-1.75.15h-1.98v-8h1.96c.77 0 1.38.06 1.84.17a3.55 3.55 0 0 1 2.4 1.82c.3.57.45 1.24.45 2.02zm-1.1 0c0-.63-.1-1.16-.32-1.6a2.39 2.39 0 0 0-.96-1c-.31-.19-.64-.31-.99-.38s-.77-.1-1.25-.1h-.99v6.17h.99c.5 0 .94-.04 1.32-.12.37-.07.72-.21 1.03-.42.4-.25.69-.58.88-1 .2-.42.3-.93.3-1.56zm33.75 0c0 .74-.15 1.4-.46 1.99a3.53 3.53 0 0 1-2.45 1.86 8.2 8.2 0 0 1-1.75.15H53v-8h1.97a8 8 0 0 1 1.83.17 3.55 3.55 0 0 1 2.4 1.82c.3.57.45 1.24.45 2.02zm-1.1 0c0-.63-.1-1.16-.31-1.6a2.39 2.39 0 0 0-.97-1 2.9 2.9 0 0 0-.99-.38c-.34-.07-.76-.1-1.25-.1h-.98v6.17h.98c.5 0 .95-.04 1.32-.12.38-.07.72-.21 1.03-.42.4-.25.69-.58.89-1 .2-.42.29-.93.29-1.56zm9.45 0c0 .74-.16 1.4-.47 1.99a3.53 3.53 0 0 1-2.45 1.86 8.2 8.2 0 0 1-1.75.15h-1.98v-8h1.96c.77 0 1.38.06 1.84.17a3.55 3.55 0 0 1 2.4 1.82c.3.57.45 1.24.45 2.02zm-1.1 0c0-.63-.1-1.16-.32-1.6a2.39 2.39 0 0 0-.96-1c-.31-.19-.64-.31-.99-.38s-.77-.1-1.25-.1h-.99v6.17h.99c.5 0 .94-.04 1.32-.12.37-.07.72-.21 1.03-.42.4-.25.69-.58.88-1 .2-.42.3-.93.3-1.56zm34.75 0c0 .74-.15 1.4-.46 1.99a3.53 3.53 0 0 1-2.45 1.86 8.2 8.2 0 0 1-1.75.15H95v-8h1.97a8 8 0 0 1 1.83.17 3.55 3.55 0 0 1 2.4 1.82c.3.57.45 1.24.45 2.02zm-1.1 0c0-.63-.1-1.16-.31-1.6a2.39 2.39 0 0 0-.97-1 2.9 2.9 0 0 0-.99-.38c-.34-.07-.76-.1-1.25-.1h-.98v6.17h.98c.5 0 .95-.04 1.32-.12.38-.07.72-.21 1.03-.42.4-.25.69-.58.89-1 .2-.42.29-.93.29-1.56zm9.45 0c0 .74-.16 1.4-.47 1.99a3.53 3.53 0 0 1-2.45 1.86 8.2 8.2 0 0 1-1.75.15h-1.98v-8h1.96c.77 0 1.38.06 1.84.17a3.55 3.55 0 0 1 2.4 1.82c.3.57.45 1.24.45 2.02zm-1.1 0c0-.63-.1-1.16-.32-1.6a2.39 2.39 0 0 0-.96-1c-.31-.19-.64-.31-.99-.38s-.77-.1-1.25-.1h-.99v6.17h.99c.5 0 .94-.04 1.32-.12.37-.07.72-.21 1.03-.42.4-.25.69-.58.88-1 .2-.42.3-.93.3-1.56zm33.75 0c0 .74-.15 1.4-.46 1.99a3.53 3.53 0 0 1-2.45 1.86 8.2 8.2 0 0 1-1.75.15H136v-8h1.97a8 8 0 0 1 1.83.17 3.55 3.55 0 0 1 2.4 1.82c.3.57.45 1.24.45 2.02zm-1.1 0c0-.63-.1-1.16-.31-1.6a2.39 2.39 0 0 0-.97-1 2.9 2.9 0 0 0-.99-.38c-.34-.07-.76-.1-1.25-.1h-.98v6.17h.98c.5 0 .95-.04 1.32-.12.38-.07.72-.21 1.03-.42.4-.25.69-.58.89-1 .2-.42.29-.93.29-1.56zm9.45 0c0 .74-.16 1.4-.47 1.99a3.53 3.53 0 0 1-2.45 1.86 8.2 8.2 0 0 1-1.75.15h-1.98v-8h1.96c.77 0 1.38.06 1.84.17a3.55 3.55 0 0 1 2.4 1.82c.3.57.45 1.24.45 2.02zm-1.1 0c0-.63-.1-1.16-.32-1.6a2.39 2.39 0 0 0-.96-1c-.31-.19-.64-.31-.99-.38s-.77-.1-1.25-.1h-.99v6.17h.99c.5 0 .94-.04 1.32-.12.37-.07.72-.21 1.03-.42.4-.25.69-.58.88-1 .2-.42.3-.93.3-1.56zm33.75 0c0 .74-.15 1.4-.46 1.99a3.53 3.53 0 0 1-2.45 1.86 8.2 8.2 0 0 1-1.75.15H177v-8h1.97a8 8 0 0 1 1.83.17 3.55 3.55 0 0 1 2.4 1.82c.3.57.45 1.24.45 2.02zm-1.1 0c0-.63-.1-1.16-.31-1.6a2.39 2.39 0 0 0-.97-1 2.9 2.9 0 0 0-.99-.38c-.34-.07-.76-.1-1.25-.1h-.98v6.17h.98c.5 0 .95-.04 1.32-.12.38-.07.72-.21 1.03-.42.4-.25.69-.58.89-1 .2-.42.29-.93.29-1.56zm9.45 0c0 .74-.16 1.4-.47 1.99a3.53 3.53 0 0 1-2.45 1.86 8.2 8.2 0 0 1-1.75.15h-1.98v-8h1.96c.77 0 1.38.06 1.84.17a3.55 3.55 0 0 1 2.4 1.82c.3.57.45 1.24.45 2.02zm-1.1 0c0-.63-.1-1.16-.32-1.6a2.39 2.39 0 0 0-.96-1c-.31-.19-.64-.31-.99-.38s-.77-.1-1.25-.1h-.99v6.17h.99c.5 0 .94-.04 1.32-.12.37-.07.72-.21 1.03-.42.4-.25.69-.58.88-1 .2-.42.3-.93.3-1.56zm33.75 0c0 .74-.15 1.4-.46 1.99a3.53 3.53 0 0 1-2.45 1.86 8.2 8.2 0 0 1-1.75.15H218v-8h1.97a8 8 0 0 1 1.83.17 3.55 3.55 0 0 1 2.4 1.82c.3.57.45 1.24.45 2.02zm-1.1 0c0-.63-.1-1.16-.31-1.6a2.39 2.39 0 0 0-.97-1 2.9 2.9 0 0 0-.99-.38c-.34-.07-.76-.1-1.25-.1h-.98v6.17h.98c.5 0 .95-.04 1.32-.12.38-.07.72-.21 1.03-.42.4-.25.69-.58.89-1 .2-.42.29-.93.29-1.56zm9.45 0c0 .74-.16 1.4-.47 1.99a3.53 3.53 0 0 1-2.45 1.86 8.2 8.2 0 0 1-1.75.15h-1.98v-8h1.96c.77 0 1.38.06 1.84.17a3.55 3.55 0 0 1 2.4 1.82c.3.57.45 1.24.45 2.02zm-1.1 0c0-.63-.1-1.16-.32-1.6a2.39 2.39 0 0 0-.96-1c-.31-.19-.64-.31-.99-.38s-.77-.1-1.25-.1h-.99v6.17h.99c.5 0 .94-.04 1.32-.12.37-.07.72-.21 1.03-.42.4-.25.69-.58.88-1 .2-.42.3-.93.3-1.56zm33.75 0c0 .74-.15 1.4-.46 1.99a3.53 3.53 0 0 1-2.45 1.86 8.2 8.2 0 0 1-1.75.15H259v-8h1.97a8 8 0 0 1 1.83.17 3.55 3.55 0 0 1 2.4 1.82c.3.57.45 1.24.45 2.02zm-1.1 0c0-.63-.1-1.16-.31-1.6a2.39 2.39 0 0 0-.97-1 2.9 2.9 0 0 0-.99-.38c-.34-.07-.76-.1-1.25-.1h-.98v6.17h.98c.5 0 .95-.04 1.32-.12.38-.07.72-.21 1.03-.42.4-.25.69-.58.89-1 .2-.42.29-.93.29-1.56zm9.45 0c0 .74-.16 1.4-.47 1.99a3.53 3.53 0 0 1-2.45 1.86 8.2 8.2 0 0 1-1.75.15h-1.98v-8h1.96c.77 0 1.38.06 1.84.17a3.55 3.55 0 0 1 2.4 1.82c.3.57.45 1.24.45 2.02zm-1.1 0c0-.63-.1-1.16-.32-1.6a2.39 2.39 0 0 0-.96-1c-.31-.19-.64-.31-.99-.38s-.77-.1-1.25-.1h-.99v6.17h.99c.5 0 .94-.04 1.32-.12.37-.07.72-.21 1.03-.42.4-.25.69-.58.88-1 .2-.42.3-.93.3-1.56zm33.75 0c0 .74-.15 1.4-.46 1.99a3.53 3.53 0 0 1-2.45 1.86 8.2 8.2 0 0 1-1.75.15H300v-8h1.97a8 8 0 0 1 1.83.17 3.55 3.55 0 0 1 2.4 1.82c.3.57.45 1.24.45 2.02zm-1.1 0c0-.63-.1-1.16-.31-1.6a2.39 2.39 0 0 0-.97-1 2.9 2.9 0 0 0-.99-.38c-.34-.07-.76-.1-1.25-.1h-.98v6.17h.98c.5 0 .95-.04 1.32-.12.38-.07.72-.21 1.03-.42.4-.25.69-.58.89-1 .2-.42.29-.93.29-1.56zm9.45 0c0 .74-.16 1.4-.47 1.99a3.53 3.53 0 0 1-2.45 1.86 8.2 8.2 0 0 1-1.75.15h-1.98v-8h1.96c.77 0 1.38.06 1.84.17a3.55 3.55 0 0 1 2.4 1.82c.3.57.45 1.24.45 2.02zm-1.1 0c0-.63-.1-1.16-.32-1.6a2.39 2.39 0 0 0-.96-1c-.31-.19-.64-.31-.99-.38s-.77-.1-1.25-.1h-.99v6.17h.99c.5 0 .94-.04 1.32-.12.37-.07.72-.21 1.03-.42.4-.25.69-.58.88-1 .2-.42.3-.93.3-1.56zM269 215h-1.04v-3.92h-3.92V215H263v-8h1.04v3.14h3.92V207H269zm41 0h-1.04v-3.92h-3.92V215H304v-8h1.04v3.14h3.92V207H310zm-41 40h-1.04v-3.92h-3.92V255H263v-8h1.04v3.14h3.92V247H269zm41 0h-1.04v-3.92h-3.92V255H304v-8h1.04v3.14h3.92V247H310z"/>
    <path d="M266.12 293.66a2.13 2.13 0 0 1-.82 1.64c-.29.22-.62.39-1 .51a4.4 4.4 0 0 1-1.36.19 6.98 6.98 0 0 1-2.94-.62v-1.28h.07c.4.32.87.57 1.4.75.52.18 1.01.26 1.48.26.65 0 1.16-.12 1.52-.35.37-.24.55-.56.55-.96 0-.34-.09-.6-.26-.76a1.78 1.78 0 0 0-.79-.37 8.02 8.02 0 0 0-.86-.17c-.31-.05-.64-.1-.99-.18a2.92 2.92 0 0 1-1.56-.74c-.34-.35-.51-.8-.51-1.37 0-.65.28-1.18.84-1.59a3.51 3.51 0 0 1 2.14-.62 7.06 7.06 0 0 1 2.77.54v1.21h-.08a4.74 4.74 0 0 0-2.7-.87 2.4 2.4 0 0 0-1.36.35c-.34.23-.51.52-.51.88 0 .32.08.57.25.76.17.18.47.32.9.42l.97.17c.42.07.78.14 1.07.22.59.15 1.03.38 1.33.69.3.3.45.73.45 1.29zm6.88-3.19a2.28 2.28 0 0 1-.7 1.71c-.27.27-.6.47-.97.6-.37.14-.84.2-1.41.2h-1.05v2.88h-1.06v-7.72h2.15c.48 0 .88.04 1.21.12.33.07.63.2.88.36.3.2.54.44.7.74.17.3.25.66.25 1.11zm-1.1.03c0-.27-.05-.5-.14-.7-.1-.2-.24-.35-.44-.48a2 2 0 0 0-.58-.23 3.9 3.9 0 0 0-.83-.07h-1.04v3.09h.89c.42 0 .77-.04 1.03-.12a1.48 1.48 0 0 0 1-.87c.08-.19.11-.4.11-.62zm35.22 3.16a2.13 2.13 0 0 1-.82 1.64c-.29.22-.62.39-1 .51a4.4 4.4 0 0 1-1.36.19 6.98 6.98 0 0 1-2.94-.62v-1.28h.07c.4.32.87.57 1.4.75.52.18 1.01.26 1.48.26.65 0 1.16-.12 1.52-.35.37-.24.55-.56.55-.96 0-.34-.09-.6-.26-.76a1.78 1.78 0 0 0-.79-.37 8.02 8.02 0 0 0-.86-.17c-.31-.05-.64-.1-.99-.18a2.92 2.92 0 0 1-1.56-.74c-.34-.35-.51-.8-.51-1.37 0-.65.28-1.18.84-1.59a3.51 3.51 0 0 1 2.14-.62 7.06 7.06 0 0 1 2.77.54v1.21h-.08a4.74 4.74 0 0 0-2.7-.87 2.4 2.4 0 0 0-1.36.35c-.34.23-.51.52-.51.88 0 .32.08.57.25.76.17.18.47.32.9.42l.97.17c.42.07.78.14 1.07.22.59.15 1.03.38 1.33.69.3.3.45.73.45 1.29zm6.88-3.19a2.28 2.28 0 0 1-.7 1.71c-.27.27-.6.47-.97.6-.37.14-.84.2-1.41.2h-1.05v2.88h-1.06v-7.72h2.15c.48 0 .88.04 1.21.12.33.07.63.2.88.36.3.2.54.44.7.74.17.3.25.66.25 1.11zm-1.1.03c0-.27-.05-.5-.14-.7-.1-.2-.24-.35-.44-.48a2 2 0 0 0-.58-.23 3.9 3.9 0 0 0-.83-.07h-1.04v3.09h.89c.42 0 .77-.04 1.03-.12a1.48 1.48 0 0 0 1-.87c.08-.19.11-.4.11-.62zm-46.78 44.16a2.13 2.13 0 0 1-.82 1.64c-.29.22-.62.39-1 .51a4.4 4.4 0 0 1-1.36.19 6.98 6.98 0 0 1-2.94-.62v-1.28h.07c.4.32.87.57 1.4.75.52.18 1.01.26 1.48.26.65 0 1.16-.12 1.52-.35.37-.24.55-.56.55-.96 0-.34-.09-.6-.26-.76a1.78 1.78 0 0 0-.79-.37 8.02 8.02 0 0 0-.86-.17c-.31-.05-.64-.1-.99-.18a2.92 2.92 0 0 1-1.56-.74c-.34-.35-.51-.8-.51-1.37 0-.65.28-1.18.84-1.59a3.51 3.51 0 0 1 2.14-.62 7.06 7.06 0 0 1 2.77.54v1.21h-.08a4.74 4.74 0 0 0-2.7-.87 2.4 2.4 0 0 0-1.36.35c-.34.23-.51.52-.51.88 0 .32.08.57.25.76.17.18.47.32.9.42l.97.17c.42.07.78.14 1.07.22.59.15 1.03.38 1.33.69.3.3.45.73.45 1.29zm6.88-3.19a2.28 2.28 0 0 1-.7 1.71c-.27.27-.6.47-.97.6-.37.14-.84.2-1.41.2h-1.05v2.88h-1.06v-7.72h2.15c.48 0 .88.04 1.21.12.33.07.63.2.88.36.3.2.54.44.7.74.17.3.25.66.25 1.11zm-1.1.03c0-.27-.05-.5-.14-.7-.1-.2-.24-.35-.44-.48a2 2 0 0 0-.58-.23 3.9 3.9 0 0 0-.83-.07h-1.04v3.09h.89c.42 0 .77-.04 1.03-.12a1.48 1.48 0 0 0 1-.87c.08-.19.11-.4.11-.62zm35.22 3.16a2.13 2.13 0 0 1-.82 1.64c-.29.22-.62.39-1 .51a4.4 4.4 0 0 1-1.36.19 6.98 6.98 0 0 1-2.94-.62v-1.28h.07c.4.32.87.57 1.4.75.52.18 1.01.26 1.48.26.65 0 1.16-.12 1.52-.35.37-.24.55-.56.55-.96 0-.34-.09-.6-.26-.76a1.78 1.78 0 0 0-.79-.37 8.02 8.02 0 0 0-.86-.17c-.31-.05-.64-.1-.99-.18a2.92 2.92 0 0 1-1.56-.74c-.34-.35-.51-.8-.51-1.37 0-.65.28-1.18.84-1.59a3.51 3.51 0 0 1 2.14-.62 7.06 7.06 0 0 1 2.77.54v1.21h-.08a4.74 4.74 0 0 0-2.7-.87 2.4 2.4 0 0 0-1.36.35c-.34.23-.51.52-.51.88 0 .32.08.57.25.76.17.18.47.32.9.42l.97.17c.42.07.78.14 1.07.22.59.15 1.03.38 1.33.69.3.3.45.73.45 1.29zm6.88-3.19a2.28 2.28 0 0 1-.7 1.71c-.27.27-.6.47-.97.6-.37.14-.84.2-1.41.2h-1.05v2.88h-1.06v-7.72h2.15c.48 0 .88.04 1.21.12.33.07.63.2.88.36.3.2.54.44.7.74.17.3.25.66.25 1.11zm-1.1.03c0-.27-.05-.5-.14-.7-.1-.2-.24-.35-.44-.48a2 2 0 0 0-.58-.23 3.9 3.9 0 0 0-.83-.07h-1.04v3.09h.89c.42 0 .77-.04 1.03-.12a1.48 1.48 0 0 0 1-.87c.08-.19.11-.4.11-.62z" fill="#333"/>
    <path d="M269 375.66a2.12 2.12 0 0 1-.8 1.64c-.28.22-.6.39-.98.51-.37.13-.82.19-1.34.19a6.73 6.73 0 0 1-2.88-.62v-1.28h.07a4.54 4.54 0 0 0 2.82 1.01c.64 0 1.14-.12 1.5-.35.35-.24.53-.56.53-.96 0-.34-.08-.6-.25-.76a1.73 1.73 0 0 0-.77-.37 7.74 7.74 0 0 0-.85-.17c-.3-.05-.63-.1-.97-.18a2.82 2.82 0 0 1-1.53-.74c-.34-.35-.5-.8-.5-1.37 0-.65.27-1.18.82-1.59a3.4 3.4 0 0 1 2.1-.62 6.8 6.8 0 0 1 2.72.54v1.21h-.08a4.57 4.57 0 0 0-2.65-.87c-.55 0-1 .12-1.33.35-.34.23-.5.52-.5.88 0 .32.08.57.24.76.17.18.47.32.89.42.22.05.54.1.95.17.41.07.76.14 1.04.22.58.15 1.02.38 1.31.69.3.3.44.73.44 1.29zm41 0a2.12 2.12 0 0 1-.8 1.64c-.28.22-.6.39-.98.51-.37.13-.82.19-1.34.19a6.73 6.73 0 0 1-2.88-.62v-1.28h.07a4.54 4.54 0 0 0 2.82 1.01c.64 0 1.14-.12 1.5-.35.35-.24.53-.56.53-.96 0-.34-.08-.6-.25-.76a1.73 1.73 0 0 0-.77-.37 7.74 7.74 0 0 0-.85-.17c-.3-.05-.63-.1-.97-.18a2.82 2.82 0 0 1-1.53-.74c-.34-.35-.5-.8-.5-1.37 0-.65.27-1.18.82-1.59a3.4 3.4 0 0 1 2.1-.62 6.8 6.8 0 0 1 2.72.54v1.21h-.08a4.57 4.57 0 0 0-2.65-.87c-.55 0-1 .12-1.33.35-.34.23-.5.52-.5.88 0 .32.08.57.24.76.17.18.47.32.89.42.22.05.54.1.95.17.41.07.76.14 1.04.22.58.15 1.02.38 1.31.69.3.3.44.73.44 1.29z" fill="#00FFF2"/>
    <path d="M102.12 212.66a2.13 2.13 0 0 1-.82 1.64c-.29.22-.62.39-1 .51a4.4 4.4 0 0 1-1.36.19 6.98 6.98 0 0 1-2.94-.62v-1.28h.07c.4.32.87.57 1.4.75.52.18 1.01.26 1.48.26.65 0 1.16-.12 1.52-.35.37-.24.55-.56.55-.96 0-.34-.09-.6-.26-.76a1.78 1.78 0 0 0-.79-.37 8.02 8.02 0 0 0-.86-.17c-.31-.05-.64-.1-.99-.18a2.92 2.92 0 0 1-1.56-.74c-.34-.35-.51-.8-.51-1.37 0-.65.28-1.18.84-1.59a3.51 3.51 0 0 1 2.14-.62 7.06 7.06 0 0 1 2.77.54v1.21h-.08a4.74 4.74 0 0 0-2.7-.87 2.4 2.4 0 0 0-1.36.35c-.34.23-.51.52-.51.88 0 .32.08.57.25.76.17.18.47.32.9.42l.97.17c.42.07.78.14 1.07.22.59.15 1.03.38 1.33.69.3.3.45.73.45 1.29zm6.88-3.19a2.28 2.28 0 0 1-.7 1.71c-.27.27-.6.47-.97.6-.37.14-.84.2-1.41.2h-1.05v2.88h-1.06v-7.72h2.15c.48 0 .88.04 1.21.12.33.07.63.2.88.36.3.2.54.44.7.74.17.3.25.66.25 1.11zm-1.1.03c0-.27-.05-.5-.14-.7-.1-.2-.24-.35-.44-.48a2 2 0 0 0-.58-.23 3.9 3.9 0 0 0-.83-.07h-1.04v3.09h.89c.42 0 .77-.04 1.03-.12a1.48 1.48 0 0 0 1-.87c.08-.19.11-.4.11-.62zm35.22 3.16a2.13 2.13 0 0 1-.82 1.64c-.29.22-.62.39-1 .51a4.4 4.4 0 0 1-1.36.19 6.98 6.98 0 0 1-2.94-.62v-1.28h.07c.4.32.87.57 1.4.75.52.18 1.01.26 1.48.26.65 0 1.16-.12 1.52-.35.37-.24.55-.56.55-.96 0-.34-.09-.6-.26-.76a1.78 1.78 0 0 0-.79-.37 8.02 8.02 0 0 0-.86-.17c-.31-.05-.64-.1-.99-.18a2.92 2.92 0 0 1-1.56-.74c-.34-.35-.51-.8-.51-1.37 0-.65.28-1.18.84-1.59a3.51 3.51 0 0 1 2.14-.62 7.06 7.06 0 0 1 2.77.54v1.21h-.08a4.74 4.74 0 0 0-2.7-.87 2.4 2.4 0 0 0-1.36.35c-.34.23-.51.52-.51.88 0 .32.08.57.25.76.17.18.47.32.9.42l.97.17c.42.07.78.14 1.07.22.59.15 1.03.38 1.33.69.3.3.45.73.45 1.29zm6.88-3.19a2.28 2.28 0 0 1-.7 1.71c-.27.27-.6.47-.97.6-.37.14-.84.2-1.41.2h-1.05v2.88h-1.06v-7.72h2.15c.48 0 .88.04 1.21.12.33.07.63.2.88.36.3.2.54.44.7.74.17.3.25.66.25 1.11zm-1.1.03c0-.27-.05-.5-.14-.7-.1-.2-.24-.35-.44-.48a2 2 0 0 0-.58-.23 3.9 3.9 0 0 0-.83-.07h-1.04v3.09h.89c.42 0 .77-.04 1.03-.12a1.48 1.48 0 0 0 1-.87c.08-.19.11-.4.11-.62zm35.22 3.16a2.13 2.13 0 0 1-.82 1.64c-.29.22-.62.39-1 .51a4.4 4.4 0 0 1-1.36.19 6.98 6.98 0 0 1-2.94-.62v-1.28h.07c.4.32.87.57 1.4.75.52.18 1.01.26 1.48.26.65 0 1.16-.12 1.52-.35.37-.24.55-.56.55-.96 0-.34-.09-.6-.26-.76a1.78 1.78 0 0 0-.79-.37 8.02 8.02 0 0 0-.86-.17c-.31-.05-.64-.1-.99-.18a2.92 2.92 0 0 1-1.56-.74c-.34-.35-.51-.8-.51-1.37 0-.65.28-1.18.84-1.59a3.51 3.51 0 0 1 2.14-.62 7.06 7.06 0 0 1 2.77.54v1.21h-.08a4.74 4.74 0 0 0-2.7-.87 2.4 2.4 0 0 0-1.36.35c-.34.23-.51.52-.51.88 0 .32.08.57.25.76.17.18.47.32.9.42l.97.17c.42.07.78.14 1.07.22.59.15 1.03.38 1.33.69.3.3.45.73.45 1.29zm6.88-3.19a2.28 2.28 0 0 1-.7 1.71c-.27.27-.6.47-.97.6-.37.14-.84.2-1.41.2h-1.05v2.88h-1.06v-7.72h2.15c.48 0 .88.04 1.21.12.33.07.63.2.88.36.3.2.54.44.7.74.17.3.25.66.25 1.11zm-1.1.03c0-.27-.05-.5-.14-.7-.1-.2-.24-.35-.44-.48a2 2 0 0 0-.58-.23 3.9 3.9 0 0 0-.83-.07h-1.04v3.09h.89c.42 0 .77-.04 1.03-.12a1.48 1.48 0 0 0 1-.87c.08-.19.11-.4.11-.62z" fill="#333"/>
    <path fill="#00FFF2" d="M228 215h-1.04v-3.92h-3.92V215H222v-8h1.04v3.14h3.92V207H228z"/>
    <path d="M102.12 252.66a2.13 2.13 0 0 1-.82 1.64c-.29.22-.62.39-1 .51a4.4 4.4 0 0 1-1.36.19 6.98 6.98 0 0 1-2.94-.62v-1.28h.07c.4.32.87.57 1.4.75.52.18 1.01.26 1.48.26.65 0 1.16-.12 1.52-.35.37-.24.55-.56.55-.96 0-.34-.09-.6-.26-.76a1.78 1.78 0 0 0-.79-.37 8.02 8.02 0 0 0-.86-.17c-.31-.05-.64-.1-.99-.18a2.92 2.92 0 0 1-1.56-.74c-.34-.35-.51-.8-.51-1.37 0-.65.28-1.18.84-1.59a3.51 3.51 0 0 1 2.14-.62 7.06 7.06 0 0 1 2.77.54v1.21h-.08a4.74 4.74 0 0 0-2.7-.87 2.4 2.4 0 0 0-1.36.35c-.34.23-.51.52-.51.88 0 .32.08.57.25.76.17.18.47.32.9.42l.97.17c.42.07.78.14 1.07.22.59.15 1.03.38 1.33.69.3.3.45.73.45 1.29zm6.88-3.19a2.28 2.28 0 0 1-.7 1.71c-.27.27-.6.47-.97.6-.37.14-.84.2-1.41.2h-1.05v2.88h-1.06v-7.72h2.15c.48 0 .88.04 1.21.12.33.07.63.2.88.36.3.2.54.44.7.74.17.3.25.66.25 1.11zm-1.1.03c0-.27-.05-.5-.14-.7-.1-.2-.24-.35-.44-.48a2 2 0 0 0-.58-.23 3.9 3.9 0 0 0-.83-.07h-1.04v3.09h.89c.42 0 .77-.04 1.03-.12a1.48 1.48 0 0 0 1-.87c.08-.19.11-.4.11-.62zm-46.78 3.16a2.13 2.13 0 0 1-.82 1.64c-.29.22-.62.39-1 .51a4.4 4.4 0 0 1-1.36.19 6.98 6.98 0 0 1-2.94-.62v-1.28h.07c.4.32.87.57 1.4.75.52.18 1.01.26 1.48.26.65 0 1.16-.12 1.52-.35.37-.24.55-.56.55-.96 0-.34-.09-.6-.26-.76a1.78 1.78 0 0 0-.79-.37 8.02 8.02 0 0 0-.86-.17c-.31-.05-.64-.1-.99-.18a2.92 2.92 0 0 1-1.56-.74c-.34-.35-.51-.8-.51-1.37 0-.65.28-1.18.84-1.59a3.51 3.51 0 0 1 2.14-.62 7.06 7.06 0 0 1 2.77.54v1.21h-.08a4.74 4.74 0 0 0-2.7-.87 2.4 2.4 0 0 0-1.36.35c-.34.23-.51.52-.51.88 0 .32.08.57.25.76.17.18.47.32.9.42l.97.17c.42.07.78.14 1.07.22.59.15 1.03.38 1.33.69.3.3.45.73.45 1.29zm6.88-3.19a2.28 2.28 0 0 1-.7 1.71c-.27.27-.6.47-.97.6-.37.14-.84.2-1.41.2h-1.05v2.88H62.8v-7.72h2.15c.48 0 .88.04 1.21.12.33.07.63.2.88.36.3.2.54.44.7.74.17.3.25.66.25 1.11zm-1.1.03c0-.27-.05-.5-.14-.7-.1-.2-.24-.35-.44-.48a2 2 0 0 0-.58-.23 3.9 3.9 0 0 0-.83-.07h-1.04v3.09h.89c.42 0 .77-.04 1.03-.12a1.48 1.48 0 0 0 1-.87c.08-.19.11-.4.11-.62zm-46.78 3.16a2.13 2.13 0 0 1-.82 1.64c-.29.22-.62.39-1 .51a4.4 4.4 0 0 1-1.36.19 6.98 6.98 0 0 1-2.94-.62v-1.28h.07c.4.32.87.57 1.4.75.52.18 1.01.26 1.48.26.65 0 1.16-.12 1.52-.35.37-.24.55-.56.55-.96 0-.34-.09-.6-.26-.76a1.78 1.78 0 0 0-.79-.37 8.02 8.02 0 0 0-.86-.17c-.31-.05-.64-.1-.99-.18a2.92 2.92 0 0 1-1.56-.74c-.34-.35-.51-.8-.51-1.37 0-.65.28-1.18.84-1.59a3.51 3.51 0 0 1 2.14-.62 7.06 7.06 0 0 1 2.77.54v1.21h-.08a4.74 4.74 0 0 0-2.7-.87 2.4 2.4 0 0 0-1.36.35c-.34.23-.51.52-.51.88 0 .32.08.57.25.76.17.18.47.32.9.42l.97.17c.42.07.78.14 1.07.22.59.15 1.03.38 1.33.69.3.3.45.73.45 1.29zm6.88-3.19a2.28 2.28 0 0 1-.7 1.71c-.27.27-.6.47-.97.6-.37.14-.84.2-1.41.2h-1.05v2.88H21.8v-7.72h2.15c.48 0 .88.04 1.21.12.33.07.63.2.88.36.3.2.54.44.7.74.17.3.25.66.25 1.11zm-1.1.03c0-.27-.05-.5-.14-.7-.1-.2-.24-.35-.44-.48a2 2 0 0 0-.58-.23 3.9 3.9 0 0 0-.83-.07h-1.04v3.09h.89c.42 0 .77-.04 1.03-.12a1.48 1.48 0 0 0 1-.87c.08-.19.11-.4.11-.62zm117.22 3.16a2.13 2.13 0 0 1-.82 1.64c-.29.22-.62.39-1 .51a4.4 4.4 0 0 1-1.36.19 6.98 6.98 0 0 1-2.94-.62v-1.28h.07c.4.32.87.57 1.4.75.52.18 1.01.26 1.48.26.65 0 1.16-.12 1.52-.35.37-.24.55-.56.55-.96 0-.34-.09-.6-.26-.76a1.78 1.78 0 0 0-.79-.37 8.02 8.02 0 0 0-.86-.17c-.31-.05-.64-.1-.99-.18a2.92 2.92 0 0 1-1.56-.74c-.34-.35-.51-.8-.51-1.37 0-.65.28-1.18.84-1.59a3.51 3.51 0 0 1 2.14-.62 7.06 7.06 0 0 1 2.77.54v1.21h-.08a4.74 4.74 0 0 0-2.7-.87 2.4 2.4 0 0 0-1.36.35c-.34.23-.51.52-.51.88 0 .32.08.57.25.76.17.18.47.32.9.42l.97.17c.42.07.78.14 1.07.22.59.15 1.03.38 1.33.69.3.3.45.73.45 1.29zm6.88-3.19a2.28 2.28 0 0 1-.7 1.71c-.27.27-.6.47-.97.6-.37.14-.84.2-1.41.2h-1.05v2.88h-1.06v-7.72h2.15c.48 0 .88.04 1.21.12.33.07.63.2.88.36.3.2.54.44.7.74.17.3.25.66.25 1.11zm-1.1.03c0-.27-.05-.5-.14-.7-.1-.2-.24-.35-.44-.48a2 2 0 0 0-.58-.23 3.9 3.9 0 0 0-.83-.07h-1.04v3.09h.89c.42 0 .77-.04 1.03-.12a1.48 1.48 0 0 0 1-.87c.08-.19.11-.4.11-.62zm35.22 3.16a2.13 2.13 0 0 1-.82 1.64c-.29.22-.62.39-1 .51a4.4 4.4 0 0 1-1.36.19 6.98 6.98 0 0 1-2.94-.62v-1.28h.07c.4.32.87.57 1.4.75.52.18 1.01.26 1.48.26.65 0 1.16-.12 1.52-.35.37-.24.55-.56.55-.96 0-.34-.09-.6-.26-.76a1.78 1.78 0 0 0-.79-.37 8.02 8.02 0 0 0-.86-.17c-.31-.05-.64-.1-.99-.18a2.92 2.92 0 0 1-1.56-.74c-.34-.35-.51-.8-.51-1.37 0-.65.28-1.18.84-1.59a3.51 3.51 0 0 1 2.14-.62 7.06 7.06 0 0 1 2.77.54v1.21h-.08a4.74 4.74 0 0 0-2.7-.87 2.4 2.4 0 0 0-1.36.35c-.34.23-.51.52-.51.88 0 .32.08.57.25.76.17.18.47.32.9.42l.97.17c.42.07.78.14 1.07.22.59.15 1.03.38 1.33.69.3.3.45.73.45 1.29zm6.88-3.19a2.28 2.28 0 0 1-.7 1.71c-.27.27-.6.47-.97.6-.37.14-.84.2-1.41.2h-1.05v2.88h-1.06v-7.72h2.15c.48 0 .88.04 1.21.12.33.07.63.2.88.36.3.2.54.44.7.74.17.3.25.66.25 1.11zm-1.1.03c0-.27-.05-.5-.14-.7-.1-.2-.24-.35-.44-.48a2 2 0 0 0-.58-.23 3.9 3.9 0 0 0-.83-.07h-1.04v3.09h.89c.42 0 .77-.04 1.03-.12a1.48 1.48 0 0 0 1-.87c.08-.19.11-.4.11-.62zm35.22 3.16a2.13 2.13 0 0 1-.82 1.64c-.29.22-.62.39-1 .51a4.4 4.4 0 0 1-1.36.19 6.98 6.98 0 0 1-2.94-.62v-1.28h.07c.4.32.87.57 1.4.75.52.18 1.01.26 1.48.26.65 0 1.16-.12 1.52-.35.37-.24.55-.56.55-.96 0-.34-.09-.6-.26-.76a1.78 1.78 0 0 0-.79-.37 8.02 8.02 0 0 0-.86-.17c-.31-.05-.64-.1-.99-.18a2.92 2.92 0 0 1-1.56-.74c-.34-.35-.51-.8-.51-1.37 0-.65.28-1.18.84-1.59a3.51 3.51 0 0 1 2.14-.62 7.06 7.06 0 0 1 2.77.54v1.21h-.08a4.74 4.74 0 0 0-2.7-.87 2.4 2.4 0 0 0-1.36.35c-.34.23-.51.52-.51.88 0 .32.08.57.25.76.17.18.47.32.9.42l.97.17c.42.07.78.14 1.07.22.59.15 1.03.38 1.33.69.3.3.45.73.45 1.29zm6.88-3.19a2.28 2.28 0 0 1-.7 1.71c-.27.27-.6.47-.97.6-.37.14-.84.2-1.41.2h-1.05v2.88h-1.06v-7.72h2.15c.48 0 .88.04 1.21.12.33.07.63.2.88.36.3.2.54.44.7.74.17.3.25.66.25 1.11zm-1.1.03c0-.27-.05-.5-.14-.7-.1-.2-.24-.35-.44-.48a2 2 0 0 0-.58-.23 3.9 3.9 0 0 0-.83-.07h-1.04v3.09h.89c.42 0 .77-.04 1.03-.12a1.48 1.48 0 0 0 1-.87c.08-.19.11-.4.11-.62zm-128.78 44.16a2.13 2.13 0 0 1-.82 1.64c-.29.22-.62.39-1 .51a4.4 4.4 0 0 1-1.36.19 6.98 6.98 0 0 1-2.94-.62v-1.28h.07c.4.32.87.57 1.4.75.52.18 1.01.26 1.48.26.65 0 1.16-.12 1.52-.35.37-.24.55-.56.55-.96 0-.34-.09-.6-.26-.76a1.78 1.78 0 0 0-.79-.37 8.02 8.02 0 0 0-.86-.17c-.31-.05-.64-.1-.99-.18a2.92 2.92 0 0 1-1.56-.74c-.34-.35-.51-.8-.51-1.37 0-.65.28-1.18.84-1.59a3.51 3.51 0 0 1 2.14-.62 7.06 7.06 0 0 1 2.77.54v1.21h-.08a4.74 4.74 0 0 0-2.7-.87 2.4 2.4 0 0 0-1.36.35c-.34.23-.51.52-.51.88 0 .32.08.57.25.76.17.18.47.32.9.42l.97.17c.42.07.78.14 1.07.22.59.15 1.03.38 1.33.69.3.3.45.73.45 1.29zm6.88-3.19a2.28 2.28 0 0 1-.7 1.71c-.27.27-.6.47-.97.6-.37.14-.84.2-1.41.2h-1.05v2.88h-1.06v-7.72h2.15c.48 0 .88.04 1.21.12.33.07.63.2.88.36.3.2.54.44.7.74.17.3.25.66.25 1.11zm-1.1.03c0-.27-.05-.5-.14-.7-.1-.2-.24-.35-.44-.48a2 2 0 0 0-.58-.23 3.9 3.9 0 0 0-.83-.07h-1.04v3.09h.89c.42 0 .77-.04 1.03-.12a1.48 1.48 0 0 0 1-.87c.08-.19.11-.4.11-.62zm-46.78 3.16a2.13 2.13 0 0 1-.82 1.64c-.29.22-.62.39-1 .51a4.4 4.4 0 0 1-1.36.19 6.98 6.98 0 0 1-2.94-.62v-1.28h.07c.4.32.87.57 1.4.75.52.18 1.01.26 1.48.26.65 0 1.16-.12 1.52-.35.37-.24.55-.56.55-.96 0-.34-.09-.6-.26-.76a1.78 1.78 0 0 0-.79-.37 8.02 8.02 0 0 0-.86-.17c-.31-.05-.64-.1-.99-.18a2.92 2.92 0 0 1-1.56-.74c-.34-.35-.51-.8-.51-1.37 0-.65.28-1.18.84-1.59a3.51 3.51 0 0 1 2.14-.62 7.06 7.06 0 0 1 2.77.54v1.21h-.08a4.74 4.74 0 0 0-2.7-.87 2.4 2.4 0 0 0-1.36.35c-.34.23-.51.52-.51.88 0 .32.08.57.25.76.17.18.47.32.9.42l.97.17c.42.07.78.14 1.07.22.59.15 1.03.38 1.33.69.3.3.45.73.45 1.29zm6.88-3.19a2.28 2.28 0 0 1-.7 1.71c-.27.27-.6.47-.97.6-.37.14-.84.2-1.41.2h-1.05v2.88H62.8v-7.72h2.15c.48 0 .88.04 1.21.12.33.07.63.2.88.36.3.2.54.44.7.74.17.3.25.66.25 1.11zm-1.1.03c0-.27-.05-.5-.14-.7-.1-.2-.24-.35-.44-.48a2 2 0 0 0-.58-.23 3.9 3.9 0 0 0-.83-.07h-1.04v3.09h.89c.42 0 .77-.04 1.03-.12a1.48 1.48 0 0 0 1-.87c.08-.19.11-.4.11-.62zm-46.78 3.16a2.13 2.13 0 0 1-.82 1.64c-.29.22-.62.39-1 .51a4.4 4.4 0 0 1-1.36.19 6.98 6.98 0 0 1-2.94-.62v-1.28h.07c.4.32.87.57 1.4.75.52.18 1.01.26 1.48.26.65 0 1.16-.12 1.52-.35.37-.24.55-.56.55-.96 0-.34-.09-.6-.26-.76a1.78 1.78 0 0 0-.79-.37 8.02 8.02 0 0 0-.86-.17c-.31-.05-.64-.1-.99-.18a2.92 2.92 0 0 1-1.56-.74c-.34-.35-.51-.8-.51-1.37 0-.65.28-1.18.84-1.59a3.51 3.51 0 0 1 2.14-.62 7.06 7.06 0 0 1 2.77.54v1.21h-.08a4.74 4.74 0 0 0-2.7-.87 2.4 2.4 0 0 0-1.36.35c-.34.23-.51.52-.51.88 0 .32.08.57.25.76.17.18.47.32.9.42l.97.17c.42.07.78.14 1.07.22.59.15 1.03.38 1.33.69.3.3.45.73.45 1.29zm6.88-3.19a2.28 2.28 0 0 1-.7 1.71c-.27.27-.6.47-.97.6-.37.14-.84.2-1.41.2h-1.05v2.88H21.8v-7.72h2.15c.48 0 .88.04 1.21.12.33.07.63.2.88.36.3.2.54.44.7.74.17.3.25.66.25 1.11zm-1.1.03c0-.27-.05-.5-.14-.7-.1-.2-.24-.35-.44-.48a2 2 0 0 0-.58-.23 3.9 3.9 0 0 0-.83-.07h-1.04v3.09h.89c.42 0 .77-.04 1.03-.12a1.48 1.48 0 0 0 1-.87c.08-.19.11-.4.11-.62zm117.22 3.16a2.13 2.13 0 0 1-.82 1.64c-.29.22-.62.39-1 .51a4.4 4.4 0 0 1-1.36.19 6.98 6.98 0 0 1-2.94-.62v-1.28h.07c.4.32.87.57 1.4.75.52.18 1.01.26 1.48.26.65 0 1.16-.12 1.52-.35.37-.24.55-.56.55-.96 0-.34-.09-.6-.26-.76a1.78 1.78 0 0 0-.79-.37 8.02 8.02 0 0 0-.86-.17c-.31-.05-.64-.1-.99-.18a2.92 2.92 0 0 1-1.56-.74c-.34-.35-.51-.8-.51-1.37 0-.65.28-1.18.84-1.59a3.51 3.51 0 0 1 2.14-.62 7.06 7.06 0 0 1 2.77.54v1.21h-.08a4.74 4.74 0 0 0-2.7-.87 2.4 2.4 0 0 0-1.36.35c-.34.23-.51.52-.51.88 0 .32.08.57.25.76.17.18.47.32.9.42l.97.17c.42.07.78.14 1.07.22.59.15 1.03.38 1.33.69.3.3.45.73.45 1.29zm6.88-3.19a2.28 2.28 0 0 1-.7 1.71c-.27.27-.6.47-.97.6-.37.14-.84.2-1.41.2h-1.05v2.88h-1.06v-7.72h2.15c.48 0 .88.04 1.21.12.33.07.63.2.88.36.3.2.54.44.7.74.17.3.25.66.25 1.11zm-1.1.03c0-.27-.05-.5-.14-.7-.1-.2-.24-.35-.44-.48a2 2 0 0 0-.58-.23 3.9 3.9 0 0 0-.83-.07h-1.04v3.09h.89c.42 0 .77-.04 1.03-.12a1.48 1.48 0 0 0 1-.87c.08-.19.11-.4.11-.62zm35.22 3.16a2.13 2.13 0 0 1-.82 1.64c-.29.22-.62.39-1 .51a4.4 4.4 0 0 1-1.36.19 6.98 6.98 0 0 1-2.94-.62v-1.28h.07c.4.32.87.57 1.4.75.52.18 1.01.26 1.48.26.65 0 1.16-.12 1.52-.35.37-.24.55-.56.55-.96 0-.34-.09-.6-.26-.76a1.78 1.78 0 0 0-.79-.37 8.02 8.02 0 0 0-.86-.17c-.31-.05-.64-.1-.99-.18a2.92 2.92 0 0 1-1.56-.74c-.34-.35-.51-.8-.51-1.37 0-.65.28-1.18.84-1.59a3.51 3.51 0 0 1 2.14-.62 7.06 7.06 0 0 1 2.77.54v1.21h-.08a4.74 4.74 0 0 0-2.7-.87 2.4 2.4 0 0 0-1.36.35c-.34.23-.51.52-.51.88 0 .32.08.57.25.76.17.18.47.32.9.42l.97.17c.42.07.78.14 1.07.22.59.15 1.03.38 1.33.69.3.3.45.73.45 1.29zm6.88-3.19a2.28 2.28 0 0 1-.7 1.71c-.27.27-.6.47-.97.6-.37.14-.84.2-1.41.2h-1.05v2.88h-1.06v-7.72h2.15c.48 0 .88.04 1.21.12.33.07.63.2.88.36.3.2.54.44.7.74.17.3.25.66.25 1.11zm-1.1.03c0-.27-.05-.5-.14-.7-.1-.2-.24-.35-.44-.48a2 2 0 0 0-.58-.23 3.9 3.9 0 0 0-.83-.07h-1.04v3.09h.89c.42 0 .77-.04 1.03-.12a1.48 1.48 0 0 0 1-.87c.08-.19.11-.4.11-.62zm35.22 3.16a2.13 2.13 0 0 1-.82 1.64c-.29.22-.62.39-1 .51a4.4 4.4 0 0 1-1.36.19 6.98 6.98 0 0 1-2.94-.62v-1.28h.07c.4.32.87.57 1.4.75.52.18 1.01.26 1.48.26.65 0 1.16-.12 1.52-.35.37-.24.55-.56.55-.96 0-.34-.09-.6-.26-.76a1.78 1.78 0 0 0-.79-.37 8.02 8.02 0 0 0-.86-.17c-.31-.05-.64-.1-.99-.18a2.92 2.92 0 0 1-1.56-.74c-.34-.35-.51-.8-.51-1.37 0-.65.28-1.18.84-1.59a3.51 3.51 0 0 1 2.14-.62 7.06 7.06 0 0 1 2.77.54v1.21h-.08a4.74 4.74 0 0 0-2.7-.87 2.4 2.4 0 0 0-1.36.35c-.34.23-.51.52-.51.88 0 .32.08.57.25.76.17.18.47.32.9.42l.97.17c.42.07.78.14 1.07.22.59.15 1.03.38 1.33.69.3.3.45.73.45 1.29zm6.88-3.19a2.28 2.28 0 0 1-.7 1.71c-.27.27-.6.47-.97.6-.37.14-.84.2-1.41.2h-1.05v2.88h-1.06v-7.72h2.15c.48 0 .88.04 1.21.12.33.07.63.2.88.36.3.2.54.44.7.74.17.3.25.66.25 1.11zm-1.1.03c0-.27-.05-.5-.14-.7-.1-.2-.24-.35-.44-.48a2 2 0 0 0-.58-.23 3.9 3.9 0 0 0-.83-.07h-1.04v3.09h.89c.42 0 .77-.04 1.03-.12a1.48 1.48 0 0 0 1-.87c.08-.19.11-.4.11-.62zm-128.78 44.16a2.13 2.13 0 0 1-.82 1.64c-.29.22-.62.39-1 .51a4.4 4.4 0 0 1-1.36.19 6.98 6.98 0 0 1-2.94-.62v-1.28h.07c.4.32.87.57 1.4.75.52.18 1.01.26 1.48.26.65 0 1.16-.12 1.52-.35.37-.24.55-.56.55-.96 0-.34-.09-.6-.26-.76a1.78 1.78 0 0 0-.79-.37 8.02 8.02 0 0 0-.86-.17c-.31-.05-.64-.1-.99-.18a2.92 2.92 0 0 1-1.56-.74c-.34-.35-.51-.8-.51-1.37 0-.65.28-1.18.84-1.59a3.51 3.51 0 0 1 2.14-.62 7.06 7.06 0 0 1 2.77.54v1.21h-.08a4.74 4.74 0 0 0-2.7-.87 2.4 2.4 0 0 0-1.36.35c-.34.23-.51.52-.51.88 0 .32.08.57.25.76.17.18.47.32.9.42l.97.17c.42.07.78.14 1.07.22.59.15 1.03.38 1.33.69.3.3.45.73.45 1.29zm6.88-3.19a2.28 2.28 0 0 1-.7 1.71c-.27.27-.6.47-.97.6-.37.14-.84.2-1.41.2h-1.05v2.88h-1.06v-7.72h2.15c.48 0 .88.04 1.21.12.33.07.63.2.88.36.3.2.54.44.7.74.17.3.25.66.25 1.11zm-1.1.03c0-.27-.05-.5-.14-.7-.1-.2-.24-.35-.44-.48a2 2 0 0 0-.58-.23 3.9 3.9 0 0 0-.83-.07h-1.04v3.09h.89c.42 0 .77-.04 1.03-.12a1.48 1.48 0 0 0 1-.87c.08-.19.11-.4.11-.62zm-46.78 3.16a2.13 2.13 0 0 1-.82 1.64c-.29.22-.62.39-1 .51a4.4 4.4 0 0 1-1.36.19 6.98 6.98 0 0 1-2.94-.62v-1.28h.07c.4.32.87.57 1.4.75.52.18 1.01.26 1.48.26.65 0 1.16-.12 1.52-.35.37-.24.55-.56.55-.96 0-.34-.09-.6-.26-.76a1.78 1.78 0 0 0-.79-.37 8.02 8.02 0 0 0-.86-.17c-.31-.05-.64-.1-.99-.18a2.92 2.92 0 0 1-1.56-.74c-.34-.35-.51-.8-.51-1.37 0-.65.28-1.18.84-1.59a3.51 3.51 0 0 1 2.14-.62 7.06 7.06 0 0 1 2.77.54v1.21h-.08a4.74 4.74 0 0 0-2.7-.87 2.4 2.4 0 0 0-1.36.35c-.34.23-.51.52-.51.88 0 .32.08.57.25.76.17.18.47.32.9.42l.97.17c.42.07.78.14 1.07.22.59.15 1.03.38 1.33.69.3.3.45.73.45 1.29zm6.88-3.19a2.28 2.28 0 0 1-.7 1.71c-.27.27-.6.47-.97.6-.37.14-.84.2-1.41.2h-1.05v2.88H62.8v-7.72h2.15c.48 0 .88.04 1.21.12.33.07.63.2.88.36.3.2.54.44.7.74.17.3.25.66.25 1.11zm-1.1.03c0-.27-.05-.5-.14-.7-.1-.2-.24-.35-.44-.48a2 2 0 0 0-.58-.23 3.9 3.9 0 0 0-.83-.07h-1.04v3.09h.89c.42 0 .77-.04 1.03-.12a1.48 1.48 0 0 0 1-.87c.08-.19.11-.4.11-.62zm-46.78 3.16a2.13 2.13 0 0 1-.82 1.64c-.29.22-.62.39-1 .51a4.4 4.4 0 0 1-1.36.19 6.98 6.98 0 0 1-2.94-.62v-1.28h.07c.4.32.87.57 1.4.75.52.18 1.01.26 1.48.26.65 0 1.16-.12 1.52-.35.37-.24.55-.56.55-.96 0-.34-.09-.6-.26-.76a1.78 1.78 0 0 0-.79-.37 8.02 8.02 0 0 0-.86-.17c-.31-.05-.64-.1-.99-.18a2.92 2.92 0 0 1-1.56-.74c-.34-.35-.51-.8-.51-1.37 0-.65.28-1.18.84-1.59a3.51 3.51 0 0 1 2.14-.62 7.06 7.06 0 0 1 2.77.54v1.21h-.08a4.74 4.74 0 0 0-2.7-.87 2.4 2.4 0 0 0-1.36.35c-.34.23-.51.52-.51.88 0 .32.08.57.25.76.17.18.47.32.9.42l.97.17c.42.07.78.14 1.07.22.59.15 1.03.38 1.33.69.3.3.45.73.45 1.29zm6.88-3.19a2.28 2.28 0 0 1-.7 1.71c-.27.27-.6.47-.97.6-.37.14-.84.2-1.41.2h-1.05v2.88H21.8v-7.72h2.15c.48 0 .88.04 1.21.12.33.07.63.2.88.36.3.2.54.44.7.74.17.3.25.66.25 1.11zm-1.1.03c0-.27-.05-.5-.14-.7-.1-.2-.24-.35-.44-.48a2 2 0 0 0-.58-.23 3.9 3.9 0 0 0-.83-.07h-1.04v3.09h.89c.42 0 .77-.04 1.03-.12a1.48 1.48 0 0 0 1-.87c.08-.19.11-.4.11-.62zm117.22 3.16a2.13 2.13 0 0 1-.82 1.64c-.29.22-.62.39-1 .51a4.4 4.4 0 0 1-1.36.19 6.98 6.98 0 0 1-2.94-.62v-1.28h.07c.4.32.87.57 1.4.75.52.18 1.01.26 1.48.26.65 0 1.16-.12 1.52-.35.37-.24.55-.56.55-.96 0-.34-.09-.6-.26-.76a1.78 1.78 0 0 0-.79-.37 8.02 8.02 0 0 0-.86-.17c-.31-.05-.64-.1-.99-.18a2.92 2.92 0 0 1-1.56-.74c-.34-.35-.51-.8-.51-1.37 0-.65.28-1.18.84-1.59a3.51 3.51 0 0 1 2.14-.62 7.06 7.06 0 0 1 2.77.54v1.21h-.08a4.74 4.74 0 0 0-2.7-.87 2.4 2.4 0 0 0-1.36.35c-.34.23-.51.52-.51.88 0 .32.08.57.25.76.17.18.47.32.9.42l.97.17c.42.07.78.14 1.07.22.59.15 1.03.38 1.33.69.3.3.45.73.45 1.29zm6.88-3.19a2.28 2.28 0 0 1-.7 1.71c-.27.27-.6.47-.97.6-.37.14-.84.2-1.41.2h-1.05v2.88h-1.06v-7.72h2.15c.48 0 .88.04 1.21.12.33.07.63.2.88.36.3.2.54.44.7.74.17.3.25.66.25 1.11zm-1.1.03c0-.27-.05-.5-.14-.7-.1-.2-.24-.35-.44-.48a2 2 0 0 0-.58-.23 3.9 3.9 0 0 0-.83-.07h-1.04v3.09h.89c.42 0 .77-.04 1.03-.12a1.48 1.48 0 0 0 1-.87c.08-.19.11-.4.11-.62zm35.22 3.16a2.13 2.13 0 0 1-.82 1.64c-.29.22-.62.39-1 .51a4.4 4.4 0 0 1-1.36.19 6.98 6.98 0 0 1-2.94-.62v-1.28h.07c.4.32.87.57 1.4.75.52.18 1.01.26 1.48.26.65 0 1.16-.12 1.52-.35.37-.24.55-.56.55-.96 0-.34-.09-.6-.26-.76a1.78 1.78 0 0 0-.79-.37 8.02 8.02 0 0 0-.86-.17c-.31-.05-.64-.1-.99-.18a2.92 2.92 0 0 1-1.56-.74c-.34-.35-.51-.8-.51-1.37 0-.65.28-1.18.84-1.59a3.51 3.51 0 0 1 2.14-.62 7.06 7.06 0 0 1 2.77.54v1.21h-.08a4.74 4.74 0 0 0-2.7-.87 2.4 2.4 0 0 0-1.36.35c-.34.23-.51.52-.51.88 0 .32.08.57.25.76.17.18.47.32.9.42l.97.17c.42.07.78.14 1.07.22.59.15 1.03.38 1.33.69.3.3.45.73.45 1.29zm6.88-3.19a2.28 2.28 0 0 1-.7 1.71c-.27.27-.6.47-.97.6-.37.14-.84.2-1.41.2h-1.05v2.88h-1.06v-7.72h2.15c.48 0 .88.04 1.21.12.33.07.63.2.88.36.3.2.54.44.7.74.17.3.25.66.25 1.11zm-1.1.03c0-.27-.05-.5-.14-.7-.1-.2-.24-.35-.44-.48a2 2 0 0 0-.58-.23 3.9 3.9 0 0 0-.83-.07h-1.04v3.09h.89c.42 0 .77-.04 1.03-.12a1.48 1.48 0 0 0 1-.87c.08-.19.11-.4.11-.62z" fill="#333"/>
    <path d="M228 334.66a2.12 2.12 0 0 1-.8 1.64c-.28.22-.6.39-.98.51-.37.13-.82.19-1.34.19a6.73 6.73 0 0 1-2.88-.62v-1.28h.07a4.54 4.54 0 0 0 2.82 1.01c.64 0 1.14-.12 1.5-.35.35-.24.53-.56.53-.96 0-.34-.08-.6-.25-.76a1.73 1.73 0 0 0-.77-.37 7.74 7.74 0 0 0-.85-.17c-.3-.05-.63-.1-.97-.18a2.82 2.82 0 0 1-1.53-.74c-.34-.35-.5-.8-.5-1.37 0-.65.27-1.18.82-1.59a3.4 3.4 0 0 1 2.1-.62 6.8 6.8 0 0 1 2.72.54v1.21h-.08a4.57 4.57 0 0 0-2.65-.87c-.55 0-1 .12-1.33.35-.34.23-.5.52-.5.88 0 .32.08.57.24.76.17.18.47.32.89.42.22.05.54.1.95.17.41.07.76.14 1.04.22.58.15 1.02.38 1.31.69.3.3.44.73.44 1.29zm-123 41a2.12 2.12 0 0 1-.8 1.64c-.28.22-.6.39-.98.51-.37.13-.82.19-1.34.19a6.73 6.73 0 0 1-2.88-.62v-1.28h.07a4.54 4.54 0 0 0 2.82 1.01c.64 0 1.14-.12 1.5-.35.35-.24.53-.56.53-.96 0-.34-.08-.6-.25-.76a1.73 1.73 0 0 0-.77-.37 7.74 7.74 0 0 0-.85-.17c-.3-.05-.63-.1-.97-.18a2.82 2.82 0 0 1-1.53-.74c-.34-.35-.5-.8-.5-1.37 0-.65.27-1.18.82-1.59a3.4 3.4 0 0 1 2.1-.62 6.8 6.8 0 0 1 2.72.54v1.21h-.08a4.57 4.57 0 0 0-2.65-.87c-.55 0-1 .12-1.33.35-.34.23-.5.52-.5.88 0 .32.08.57.24.76.17.18.47.32.89.42.22.05.54.1.95.17.41.07.76.14 1.04.22.58.15 1.02.38 1.31.69.3.3.44.73.44 1.29zm-41 0a2.12 2.12 0 0 1-.8 1.64c-.28.22-.6.39-.98.51-.37.13-.82.19-1.34.19a6.73 6.73 0 0 1-2.88-.62v-1.28h.07a4.54 4.54 0 0 0 2.82 1.01c.64 0 1.14-.12 1.5-.35.35-.24.53-.56.53-.96 0-.34-.08-.6-.25-.76a1.73 1.73 0 0 0-.77-.37 7.74 7.74 0 0 0-.85-.17c-.3-.05-.63-.1-.97-.18a2.82 2.82 0 0 1-1.53-.74c-.34-.35-.5-.8-.5-1.37 0-.65.27-1.18.82-1.59a3.4 3.4 0 0 1 2.1-.62 6.8 6.8 0 0 1 2.72.54v1.21h-.08a4.57 4.57 0 0 0-2.65-.87c-.55 0-1 .12-1.33.35-.34.23-.5.52-.5.88 0 .32.08.57.24.76.17.18.47.32.89.42.22.05.54.1.95.17.41.07.76.14 1.04.22.58.15 1.02.38 1.31.69.3.3.44.73.44 1.29zm-41 0a2.12 2.12 0 0 1-.8 1.64c-.28.22-.6.39-.98.51-.37.13-.82.19-1.34.19a6.73 6.73 0 0 1-2.88-.62v-1.28h.07a4.54 4.54 0 0 0 2.82 1.01c.64 0 1.14-.12 1.5-.35.35-.24.53-.56.53-.96 0-.34-.08-.6-.25-.76a1.73 1.73 0 0 0-.77-.37 7.74 7.74 0 0 0-.85-.17c-.3-.05-.63-.1-.97-.18a2.82 2.82 0 0 1-1.53-.74c-.34-.35-.5-.8-.5-1.37 0-.65.27-1.18.82-1.59a3.4 3.4 0 0 1 2.1-.62 6.8 6.8 0 0 1 2.72.54v1.21h-.08a4.57 4.57 0 0 0-2.65-.87c-.55 0-1 .12-1.33.35-.34.23-.5.52-.5.88 0 .32.08.57.24.76.17.18.47.32.89.42.22.05.54.1.95.17.41.07.76.14 1.04.22.58.15 1.02.38 1.31.69.3.3.44.73.44 1.29zm123 0a2.12 2.12 0 0 1-.8 1.64c-.28.22-.6.39-.98.51-.37.13-.82.19-1.34.19a6.73 6.73 0 0 1-2.88-.62v-1.28h.07a4.54 4.54 0 0 0 2.82 1.01c.64 0 1.14-.12 1.5-.35.35-.24.53-.56.53-.96 0-.34-.08-.6-.25-.76a1.73 1.73 0 0 0-.77-.37 7.74 7.74 0 0 0-.85-.17c-.3-.05-.63-.1-.97-.18a2.82 2.82 0 0 1-1.53-.74c-.34-.35-.5-.8-.5-1.37 0-.65.27-1.18.82-1.59a3.4 3.4 0 0 1 2.1-.62 6.8 6.8 0 0 1 2.72.54v1.21h-.08a4.57 4.57 0 0 0-2.65-.87c-.55 0-1 .12-1.33.35-.34.23-.5.52-.5.88 0 .32.08.57.24.76.17.18.47.32.89.42.22.05.54.1.95.17.41.07.76.14 1.04.22.58.15 1.02.38 1.31.69.3.3.44.73.44 1.29zm41 0a2.12 2.12 0 0 1-.8 1.64c-.28.22-.6.39-.98.51-.37.13-.82.19-1.34.19a6.73 6.73 0 0 1-2.88-.62v-1.28h.07a4.54 4.54 0 0 0 2.82 1.01c.64 0 1.14-.12 1.5-.35.35-.24.53-.56.53-.96 0-.34-.08-.6-.25-.76a1.73 1.73 0 0 0-.77-.37 7.74 7.74 0 0 0-.85-.17c-.3-.05-.63-.1-.97-.18a2.82 2.82 0 0 1-1.53-.74c-.34-.35-.5-.8-.5-1.37 0-.65.27-1.18.82-1.59a3.4 3.4 0 0 1 2.1-.62 6.8 6.8 0 0 1 2.72.54v1.21h-.08a4.57 4.57 0 0 0-2.65-.87c-.55 0-1 .12-1.33.35-.34.23-.5.52-.5.88 0 .32.08.57.24.76.17.18.47.32.89.42.22.05.54.1.95.17.41.07.76.14 1.04.22.58.15 1.02.38 1.31.69.3.3.44.73.44 1.29zm41 0a2.12 2.12 0 0 1-.8 1.64c-.28.22-.6.39-.98.51-.37.13-.82.19-1.34.19a6.73 6.73 0 0 1-2.88-.62v-1.28h.07a4.54 4.54 0 0 0 2.82 1.01c.64 0 1.14-.12 1.5-.35.35-.24.53-.56.53-.96 0-.34-.08-.6-.25-.76a1.73 1.73 0 0 0-.77-.37 7.74 7.74 0 0 0-.85-.17c-.3-.05-.63-.1-.97-.18a2.82 2.82 0 0 1-1.53-.74c-.34-.35-.5-.8-.5-1.37 0-.65.27-1.18.82-1.59a3.4 3.4 0 0 1 2.1-.62 6.8 6.8 0 0 1 2.72.54v1.21h-.08a4.57 4.57 0 0 0-2.65-.87c-.55 0-1 .12-1.33.35-.34.23-.5.52-.5.88 0 .32.08.57.24.76.17.18.47.32.89.42.22.05.54.1.95.17.41.07.76.14 1.04.22.58.15 1.02.38 1.31.69.3.3.44.73.44 1.29z" fill="#00FFF2"/>
    <path d="M102.12 416.66a2.13 2.13 0 0 1-.82 1.64c-.29.22-.62.39-1 .51a4.4 4.4 0 0 1-1.36.19 6.98 6.98 0 0 1-2.94-.62v-1.28h.07c.4.32.87.57 1.4.75.52.18 1.01.26 1.48.26.65 0 1.16-.12 1.52-.35.37-.24.55-.56.55-.96 0-.34-.09-.6-.26-.76a1.78 1.78 0 0 0-.79-.37 8.02 8.02 0 0 0-.86-.17c-.31-.05-.64-.1-.99-.18a2.92 2.92 0 0 1-1.56-.74c-.34-.35-.51-.8-.51-1.37 0-.65.28-1.18.84-1.59a3.51 3.51 0 0 1 2.14-.62 7.06 7.06 0 0 1 2.77.54v1.21h-.08a4.74 4.74 0 0 0-2.7-.87 2.4 2.4 0 0 0-1.36.35c-.34.23-.51.52-.51.88 0 .32.08.57.25.76.17.18.47.32.9.42l.97.17c.42.07.78.14 1.07.22.59.15 1.03.38 1.33.69.3.3.45.73.45 1.29zm6.88-3.19a2.28 2.28 0 0 1-.7 1.71c-.27.27-.6.47-.97.6-.37.14-.84.2-1.41.2h-1.05v2.88h-1.06v-7.72h2.15c.48 0 .88.04 1.21.12.33.07.63.2.88.36.3.2.54.44.7.74.17.3.25.66.25 1.11zm-1.1.03c0-.27-.05-.5-.14-.7-.1-.2-.24-.35-.44-.48a2 2 0 0 0-.58-.23 3.9 3.9 0 0 0-.83-.07h-1.04v3.09h.89c.42 0 .77-.04 1.03-.12a1.48 1.48 0 0 0 1-.87c.08-.19.11-.4.11-.62zm-46.78 3.16a2.13 2.13 0 0 1-.82 1.64c-.29.22-.62.39-1 .51a4.4 4.4 0 0 1-1.36.19 6.98 6.98 0 0 1-2.94-.62v-1.28h.07c.4.32.87.57 1.4.75.52.18 1.01.26 1.48.26.65 0 1.16-.12 1.52-.35.37-.24.55-.56.55-.96 0-.34-.09-.6-.26-.76a1.78 1.78 0 0 0-.79-.37 8.02 8.02 0 0 0-.86-.17c-.31-.05-.64-.1-.99-.18a2.92 2.92 0 0 1-1.56-.74c-.34-.35-.51-.8-.51-1.37 0-.65.28-1.18.84-1.59a3.51 3.51 0 0 1 2.14-.62 7.06 7.06 0 0 1 2.77.54v1.21h-.08a4.74 4.74 0 0 0-2.7-.87 2.4 2.4 0 0 0-1.36.35c-.34.23-.51.52-.51.88 0 .32.08.57.25.76.17.18.47.32.9.42l.97.17c.42.07.78.14 1.07.22.59.15 1.03.38 1.33.69.3.3.45.73.45 1.29zm6.88-3.19a2.28 2.28 0 0 1-.7 1.71c-.27.27-.6.47-.97.6-.37.14-.84.2-1.41.2h-1.05v2.88H62.8v-7.72h2.15c.48 0 .88.04 1.21.12.33.07.63.2.88.36.3.2.54.44.7.74.17.3.25.66.25 1.11zm-1.1.03c0-.27-.05-.5-.14-.7-.1-.2-.24-.35-.44-.48a2 2 0 0 0-.58-.23 3.9 3.9 0 0 0-.83-.07h-1.04v3.09h.89c.42 0 .77-.04 1.03-.12a1.48 1.48 0 0 0 1-.87c.08-.19.11-.4.11-.62zm-46.78 3.16a2.13 2.13 0 0 1-.82 1.64c-.29.22-.62.39-1 .51a4.4 4.4 0 0 1-1.36.19 6.98 6.98 0 0 1-2.94-.62v-1.28h.07c.4.32.87.57 1.4.75.52.18 1.01.26 1.48.26.65 0 1.16-.12 1.52-.35.37-.24.55-.56.55-.96 0-.34-.09-.6-.26-.76a1.78 1.78 0 0 0-.79-.37 8.02 8.02 0 0 0-.86-.17c-.31-.05-.64-.1-.99-.18a2.92 2.92 0 0 1-1.56-.74c-.34-.35-.51-.8-.51-1.37 0-.65.28-1.18.84-1.59a3.51 3.51 0 0 1 2.14-.62 7.06 7.06 0 0 1 2.77.54v1.21h-.08a4.74 4.74 0 0 0-2.7-.87 2.4 2.4 0 0 0-1.36.35c-.34.23-.51.52-.51.88 0 .32.08.57.25.76.17.18.47.32.9.42l.97.17c.42.07.78.14 1.07.22.59.15 1.03.38 1.33.69.3.3.45.73.45 1.29zm6.88-3.19a2.28 2.28 0 0 1-.7 1.71c-.27.27-.6.47-.97.6-.37.14-.84.2-1.41.2h-1.05v2.88H21.8v-7.72h2.15c.48 0 .88.04 1.21.12.33.07.63.2.88.36.3.2.54.44.7.74.17.3.25.66.25 1.11zm-1.1.03c0-.27-.05-.5-.14-.7-.1-.2-.24-.35-.44-.48a2 2 0 0 0-.58-.23 3.9 3.9 0 0 0-.83-.07h-1.04v3.09h.89c.42 0 .77-.04 1.03-.12a1.48 1.48 0 0 0 1-.87c.08-.19.11-.4.11-.62zm117.22 3.16a2.13 2.13 0 0 1-.82 1.64c-.29.22-.62.39-1 .51a4.4 4.4 0 0 1-1.36.19 6.98 6.98 0 0 1-2.94-.62v-1.28h.07c.4.32.87.57 1.4.75.52.18 1.01.26 1.48.26.65 0 1.16-.12 1.52-.35.37-.24.55-.56.55-.96 0-.34-.09-.6-.26-.76a1.78 1.78 0 0 0-.79-.37 8.02 8.02 0 0 0-.86-.17c-.31-.05-.64-.1-.99-.18a2.92 2.92 0 0 1-1.56-.74c-.34-.35-.51-.8-.51-1.37 0-.65.28-1.18.84-1.59a3.51 3.51 0 0 1 2.14-.62 7.06 7.06 0 0 1 2.77.54v1.21h-.08a4.74 4.74 0 0 0-2.7-.87 2.4 2.4 0 0 0-1.36.35c-.34.23-.51.52-.51.88 0 .32.08.57.25.76.17.18.47.32.9.42l.97.17c.42.07.78.14 1.07.22.59.15 1.03.38 1.33.69.3.3.45.73.45 1.29zm6.88-3.19a2.28 2.28 0 0 1-.7 1.71c-.27.27-.6.47-.97.6-.37.14-.84.2-1.41.2h-1.05v2.88h-1.06v-7.72h2.15c.48 0 .88.04 1.21.12.33.07.63.2.88.36.3.2.54.44.7.74.17.3.25.66.25 1.11zm-1.1.03c0-.27-.05-.5-.14-.7-.1-.2-.24-.35-.44-.48a2 2 0 0 0-.58-.23 3.9 3.9 0 0 0-.83-.07h-1.04v3.09h.89c.42 0 .77-.04 1.03-.12a1.48 1.48 0 0 0 1-.87c.08-.19.11-.4.11-.62zm35.22 3.16a2.13 2.13 0 0 1-.82 1.64c-.29.22-.62.39-1 .51a4.4 4.4 0 0 1-1.36.19 6.98 6.98 0 0 1-2.94-.62v-1.28h.07c.4.32.87.57 1.4.75.52.18 1.01.26 1.48.26.65 0 1.16-.12 1.52-.35.37-.24.55-.56.55-.96 0-.34-.09-.6-.26-.76a1.78 1.78 0 0 0-.79-.37 8.02 8.02 0 0 0-.86-.17c-.31-.05-.64-.1-.99-.18a2.92 2.92 0 0 1-1.56-.74c-.34-.35-.51-.8-.51-1.37 0-.65.28-1.18.84-1.59a3.51 3.51 0 0 1 2.14-.62 7.06 7.06 0 0 1 2.77.54v1.21h-.08a4.74 4.74 0 0 0-2.7-.87 2.4 2.4 0 0 0-1.36.35c-.34.23-.51.52-.51.88 0 .32.08.57.25.76.17.18.47.32.9.42l.97.17c.42.07.78.14 1.07.22.59.15 1.03.38 1.33.69.3.3.45.73.45 1.29zm6.88-3.19a2.28 2.28 0 0 1-.7 1.71c-.27.27-.6.47-.97.6-.37.14-.84.2-1.41.2h-1.05v2.88h-1.06v-7.72h2.15c.48 0 .88.04 1.21.12.33.07.63.2.88.36.3.2.54.44.7.74.17.3.25.66.25 1.11zm-1.1.03c0-.27-.05-.5-.14-.7-.1-.2-.24-.35-.44-.48a2 2 0 0 0-.58-.23 3.9 3.9 0 0 0-.83-.07h-1.04v3.09h.89c.42 0 .77-.04 1.03-.12a1.48 1.48 0 0 0 1-.87c.08-.19.11-.4.11-.62zm35.22 3.16a2.13 2.13 0 0 1-.82 1.64c-.29.22-.62.39-1 .51a4.4 4.4 0 0 1-1.36.19 6.98 6.98 0 0 1-2.94-.62v-1.28h.07c.4.32.87.57 1.4.75.52.18 1.01.26 1.48.26.65 0 1.16-.12 1.52-.35.37-.24.55-.56.55-.96 0-.34-.09-.6-.26-.76a1.78 1.78 0 0 0-.79-.37 8.02 8.02 0 0 0-.86-.17c-.31-.05-.64-.1-.99-.18a2.92 2.92 0 0 1-1.56-.74c-.34-.35-.51-.8-.51-1.37 0-.65.28-1.18.84-1.59a3.51 3.51 0 0 1 2.14-.62 7.06 7.06 0 0 1 2.77.54v1.21h-.08a4.74 4.74 0 0 0-2.7-.87 2.4 2.4 0 0 0-1.36.35c-.34.23-.51.52-.51.88 0 .32.08.57.25.76.17.18.47.32.9.42l.97.17c.42.07.78.14 1.07.22.59.15 1.03.38 1.33.69.3.3.45.73.45 1.29zm6.88-3.19a2.28 2.28 0 0 1-.7 1.71c-.27.27-.6.47-.97.6-.37.14-.84.2-1.41.2h-1.05v2.88h-1.06v-7.72h2.15c.48 0 .88.04 1.21.12.33.07.63.2.88.36.3.2.54.44.7.74.17.3.25.66.25 1.11zm-1.1.03c0-.27-.05-.5-.14-.7-.1-.2-.24-.35-.44-.48a2 2 0 0 0-.58-.23 3.9 3.9 0 0 0-.83-.07h-1.04v3.09h.89c.42 0 .77-.04 1.03-.12a1.48 1.48 0 0 0 1-.87c.08-.19.11-.4.11-.62zm34.22 3.16a2.13 2.13 0 0 1-.82 1.64c-.29.22-.62.39-1 .51a4.4 4.4 0 0 1-1.36.19 6.98 6.98 0 0 1-2.94-.62v-1.28h.07c.4.32.87.57 1.4.75.52.18 1.01.26 1.48.26.65 0 1.16-.12 1.52-.35.37-.24.55-.56.55-.96 0-.34-.09-.6-.26-.76a1.78 1.78 0 0 0-.79-.37 8.02 8.02 0 0 0-.86-.17c-.31-.05-.64-.1-.99-.18a2.92 2.92 0 0 1-1.56-.74c-.34-.35-.51-.8-.51-1.37 0-.65.28-1.18.84-1.59a3.51 3.51 0 0 1 2.14-.62 7.06 7.06 0 0 1 2.77.54v1.21h-.08a4.74 4.74 0 0 0-2.7-.87 2.4 2.4 0 0 0-1.36.35c-.34.23-.51.52-.51.88 0 .32.08.57.25.76.17.18.47.32.9.42l.97.17c.42.07.78.14 1.07.22.59.15 1.03.38 1.33.69.3.3.45.73.45 1.29zm6.88-3.19a2.28 2.28 0 0 1-.7 1.71c-.27.27-.6.47-.97.6-.37.14-.84.2-1.41.2h-1.05v2.88h-1.06v-7.72h2.15c.48 0 .88.04 1.21.12.33.07.63.2.88.36.3.2.54.44.7.74.17.3.25.66.25 1.11zm-1.1.03c0-.27-.05-.5-.14-.7-.1-.2-.24-.35-.44-.48a2 2 0 0 0-.58-.23 3.9 3.9 0 0 0-.83-.07h-1.04v3.09h.89c.42 0 .77-.04 1.03-.12a1.48 1.48 0 0 0 1-.87c.08-.19.11-.4.11-.62zm35.22 3.16a2.13 2.13 0 0 1-.82 1.64c-.29.22-.62.39-1 .51a4.4 4.4 0 0 1-1.36.19 6.98 6.98 0 0 1-2.94-.62v-1.28h.07c.4.32.87.57 1.4.75.52.18 1.01.26 1.48.26.65 0 1.16-.12 1.52-.35.37-.24.55-.56.55-.96 0-.34-.09-.6-.26-.76a1.78 1.78 0 0 0-.79-.37 8.02 8.02 0 0 0-.86-.17c-.31-.05-.64-.1-.99-.18a2.92 2.92 0 0 1-1.56-.74c-.34-.35-.51-.8-.51-1.37 0-.65.28-1.18.84-1.59a3.51 3.51 0 0 1 2.14-.62 7.06 7.06 0 0 1 2.77.54v1.21h-.08a4.74 4.74 0 0 0-2.7-.87 2.4 2.4 0 0 0-1.36.35c-.34.23-.51.52-.51.88 0 .32.08.57.25.76.17.18.47.32.9.42l.97.17c.42.07.78.14 1.07.22.59.15 1.03.38 1.33.69.3.3.45.73.45 1.29zm6.88-3.19a2.28 2.28 0 0 1-.7 1.71c-.27.27-.6.47-.97.6-.37.14-.84.2-1.41.2h-1.05v2.88h-1.06v-7.72h2.15c.48 0 .88.04 1.21.12.33.07.63.2.88.36.3.2.54.44.7.74.17.3.25.66.25 1.11zm-1.1.03c0-.27-.05-.5-.14-.7-.1-.2-.24-.35-.44-.48a2 2 0 0 0-.58-.23 3.9 3.9 0 0 0-.83-.07h-1.04v3.09h.89c.42 0 .77-.04 1.03-.12a1.48 1.48 0 0 0 1-.87c.08-.19.11-.4.11-.62z" fill="#333"/>
    <path fill="#666" d="M328 27h40v40h-40zm0 41h40v40h-40zm0 41h40v40h-40zm0 41h40v40h-40zm0 41h40v40h-40zm0 41h40v40h-40zm0 41h40v40h-40z"/>
    <path fill="#444" d="M328 314h40v40h-40zm0 41h40v40h-40z"/>
    <path fill="#B3B3B3" d="M328 396h40v40h-40z"/>
    <path fill="#00FFF2" d="M351 51h-1.04v-3.92h-3.92V51H345v-8h1.04v3.14h3.92V43H351zm0 41h-1.04v-3.92h-3.92V92H345v-8h1.04v3.14h3.92V84H351zm0 41h-1.04v-3.92h-3.92V133H345v-8h1.04v3.14h3.92V125H351zm0 40h-1.04v-3.92h-3.92V173H345v-8h1.04v3.14h3.92V165H351zm0 42h-1.04v-3.92h-3.92V215H345v-8h1.04v3.14h3.92V207H351zm0 40h-1.04v-3.92h-3.92V255H345v-8h1.04v3.14h3.92V247H351zm0 41h-1.04v-3.92h-3.92V296H345v-8h1.04v3.14h3.92V288H351zm0 38.66a2.12 2.12 0 0 1-.8 1.64c-.28.22-.6.39-.98.51-.37.13-.82.19-1.34.19a6.73 6.73 0 0 1-2.88-.62v-1.28h.07a4.54 4.54 0 0 0 2.82 1.01c.64 0 1.14-.12 1.5-.35.35-.24.53-.56.53-.96 0-.34-.08-.6-.25-.76a1.73 1.73 0 0 0-.77-.37 7.74 7.74 0 0 0-.85-.17c-.3-.05-.63-.1-.97-.18a2.82 2.82 0 0 1-1.53-.74c-.34-.35-.5-.8-.5-1.37 0-.65.27-1.18.82-1.59a3.4 3.4 0 0 1 2.1-.62 6.8 6.8 0 0 1 2.72.54v1.21h-.08a4.57 4.57 0 0 0-2.65-.87c-.55 0-1 .12-1.33.35-.34.23-.5.52-.5.88 0 .32.08.57.24.76.17.18.47.32.89.42.22.05.54.1.95.17.41.07.76.14 1.04.22.58.15 1.02.38 1.31.69.3.3.44.73.44 1.29zm0 41a2.12 2.12 0 0 1-.8 1.64c-.28.22-.6.39-.98.51-.37.13-.82.19-1.34.19a6.73 6.73 0 0 1-2.88-.62v-1.28h.07a4.54 4.54 0 0 0 2.82 1.01c.64 0 1.14-.12 1.5-.35.35-.24.53-.56.53-.96 0-.34-.08-.6-.25-.76a1.73 1.73 0 0 0-.77-.37 7.74 7.74 0 0 0-.85-.17c-.3-.05-.63-.1-.97-.18a2.82 2.82 0 0 1-1.53-.74c-.34-.35-.5-.8-.5-1.37 0-.65.27-1.18.82-1.59a3.4 3.4 0 0 1 2.1-.62 6.8 6.8 0 0 1 2.72.54v1.21h-.08a4.57 4.57 0 0 0-2.65-.87c-.55 0-1 .12-1.33.35-.34.23-.5.52-.5.88 0 .32.08.57.24.76.17.18.47.32.89.42.22.05.54.1.95.17.41.07.76.14 1.04.22.58.15 1.02.38 1.31.69.3.3.44.73.44 1.29z"/>
    <path d="M347.12 416.66a2.13 2.13 0 0 1-.82 1.64c-.29.22-.62.39-1 .51a4.4 4.4 0 0 1-1.36.19 6.98 6.98 0 0 1-2.94-.62v-1.28h.07c.4.32.87.57 1.4.75.52.18 1.01.26 1.48.26.65 0 1.16-.12 1.52-.35.37-.24.55-.56.55-.96 0-.34-.09-.6-.26-.76a1.78 1.78 0 0 0-.79-.37 8.02 8.02 0 0 0-.86-.17c-.31-.05-.64-.1-.99-.18a2.92 2.92 0 0 1-1.56-.74c-.34-.35-.51-.8-.51-1.37 0-.65.28-1.18.84-1.59a3.51 3.51 0 0 1 2.14-.62 7.06 7.06 0 0 1 2.77.54v1.21h-.08a4.74 4.74 0 0 0-2.7-.87 2.4 2.4 0 0 0-1.36.35c-.34.23-.51.52-.51.88 0 .32.08.57.25.76.17.18.47.32.9.42l.97.17c.42.07.78.14 1.07.22.59.15 1.03.38 1.33.69.3.3.45.73.45 1.29zm6.88-3.19a2.28 2.28 0 0 1-.7 1.71c-.27.27-.6.47-.97.6-.37.14-.84.2-1.41.2h-1.05v2.88h-1.06v-7.72h2.15c.48 0 .88.04 1.21.12.33.07.63.2.88.36.3.2.54.44.7.74.17.3.25.66.25 1.11zm-1.1.03c0-.27-.05-.5-.14-.7-.1-.2-.24-.35-.44-.48a2 2 0 0 0-.58-.23 3.9 3.9 0 0 0-.83-.07h-1.04v3.09h.89c.42 0 .77-.04 1.03-.12a1.48 1.48 0 0 0 1-.87c.08-.19.11-.4.11-.62z" fill="#333"/>
    <path fill="#666" d="M369 27h40v40h-40zm0 41h40v40h-40zm0 41h40v40h-40zm0 41h40v40h-40zm0 41h40v40h-40zm0 41h40v40h-40zm0 41h40v40h-40z"/>
    <path fill="#444" d="M369 314h40v40h-40zm0 41h40v40h-40z"/>
    <path fill="#666" d="M369 396h40v40h-40z"/>
    <path fill="#00FFF2" d="M392 51h-1.04v-3.92h-3.92V51H386v-8h1.04v3.14h3.92V43H392zm0 41h-1.04v-3.92h-3.92V92H386v-8h1.04v3.14h3.92V84H392zm0 41h-1.04v-3.92h-3.92V133H386v-8h1.04v3.14h3.92V125H392zm0 40h-1.04v-3.92h-3.92V173H386v-8h1.04v3.14h3.92V165H392zm0 42h-1.04v-3.92h-3.92V215H386v-8h1.04v3.14h3.92V207H392zm0 40h-1.04v-3.92h-3.92V255H386v-8h1.04v3.14h3.92V247H392zm0 41h-1.04v-3.92h-3.92V296H386v-8h1.04v3.14h3.92V288H392zm0 38.66a2.12 2.12 0 0 1-.8 1.64c-.28.22-.6.39-.98.51-.37.13-.82.19-1.34.19a6.73 6.73 0 0 1-2.88-.62v-1.28h.07a4.54 4.54 0 0 0 2.82 1.01c.64 0 1.14-.12 1.5-.35.35-.24.53-.56.53-.96 0-.34-.08-.6-.25-.76a1.73 1.73 0 0 0-.77-.37 7.74 7.74 0 0 0-.85-.17c-.3-.05-.63-.1-.97-.18a2.82 2.82 0 0 1-1.53-.74c-.34-.35-.5-.8-.5-1.37 0-.65.27-1.18.82-1.59a3.4 3.4 0 0 1 2.1-.62 6.8 6.8 0 0 1 2.72.54v1.21h-.08a4.57 4.57 0 0 0-2.65-.87c-.55 0-1 .12-1.33.35-.34.23-.5.52-.5.88 0 .32.08.57.24.76.17.18.47.32.89.42.22.05.54.1.95.17.41.07.76.14 1.04.22.58.15 1.02.38 1.31.69.3.3.44.73.44 1.29zm-1 41a2.12 2.12 0 0 1-.8 1.64c-.28.22-.6.39-.98.51-.37.13-.82.19-1.34.19a6.73 6.73 0 0 1-2.88-.62v-1.28h.07a4.54 4.54 0 0 0 2.82 1.01c.64 0 1.14-.12 1.5-.35.35-.24.53-.56.53-.96 0-.34-.08-.6-.25-.76a1.73 1.73 0 0 0-.77-.37 7.74 7.74 0 0 0-.85-.17c-.3-.05-.63-.1-.97-.18a2.82 2.82 0 0 1-1.53-.74c-.34-.35-.5-.8-.5-1.37 0-.65.27-1.18.82-1.59a3.4 3.4 0 0 1 2.1-.62 6.8 6.8 0 0 1 2.72.54v1.21h-.08a4.57 4.57 0 0 0-2.65-.87c-.55 0-1 .12-1.33.35-.34.23-.5.52-.5.88 0 .32.08.57.24.76.17.18.47.32.89.42.22.05.54.1.95.17.41.07.76.14 1.04.22.58.15 1.02.38 1.31.69.3.3.44.73.44 1.29zm0 43.34h-1.04v-3.92h-3.92V419H385v-8h1.04v3.14h3.92V411H391z"/>
    <path d="M310 4.43c0 .83-.1 1.6-.3 2.28-.2.69-.49 1.27-.89 1.75-.4.5-.9.87-1.51 1.14a5.27 5.27 0 0 1-3.34.25V8.62h.07a3.26 3.26 0 0 0 1.33.27c.98 0 1.74-.29 2.3-.86.55-.57.88-1.35.97-2.36a4.33 4.33 0 0 1-2.35.67c-.41 0-.78-.04-1.11-.11a3.02 3.02 0 0 1-1-.45 2.6 2.6 0 0 1-.87-1c-.2-.41-.3-.9-.3-1.46 0-.98.33-1.78 1-2.4a3.44 3.44 0 0 1 2.43-.92c.48 0 .92.07 1.33.22a3 3 0 0 1 1.06.65c.38.35.67.81.87 1.37.2.57.31 1.3.31 2.19zm-1.34-.28c0-.67-.07-1.2-.21-1.61a2.3 2.3 0 0 0-.59-.94c-.2-.2-.43-.34-.67-.42a2.2 2.2 0 0 0-.78-.13c-.63 0-1.14.2-1.5.58-.38.4-.56.94-.56 1.64 0 .4.06.74.18 1a1.74 1.74 0 0 0 1.26.95 4.3 4.3 0 0 0 2.84-.47 10.26 10.26 0 0 1 .03-.6zm37.49 5.65H341v-.98h1.98V2.38H341V1.5c.27 0 .56-.02.86-.06.3-.05.54-.12.7-.2.2-.1.35-.25.46-.41.12-.17.18-.39.2-.67h.99v8.66h1.94v.98zM355 5c0 1.72-.27 2.98-.8 3.79-.54.8-1.37 1.21-2.5 1.21s-1.97-.4-2.5-1.23c-.52-.81-.78-2.07-.78-3.76 0-1.71.26-2.97.8-3.79.53-.81 1.36-1.22 2.49-1.22 1.14 0 1.97.41 2.5 1.24.53.83.79 2.08.79 3.75zm-1.68 2.92c.15-.35.25-.76.3-1.23a15.75 15.75 0 0 0 0-3.4 4.02 4.02 0 0 0-.3-1.23 1.69 1.69 0 0 0-.62-.74 1.79 1.79 0 0 0-1-.26c-.4 0-.72.09-.98.26a1.7 1.7 0 0 0-.63.76c-.14.32-.24.73-.3 1.24a16.35 16.35 0 0 0 0 3.37c.04.45.14.86.3 1.21.14.34.34.6.6.77.25.18.6.27 1.02.27.4 0 .73-.09 1-.26.26-.16.46-.42.6-.76zM393 10h-1.4l-.98-2.5h-4.3l-.98 2.5H384l3.62-9h1.76l3.62 9zm-2.8-3.54l-1.73-4.41-1.75 4.41h3.49z" fill="#E4E4E4"/>
  </g>
</svg>
