<svg width="409" height="436" viewBox="0 0 409 436" xmlns="http://www.w3.org/2000/svg">
  <g fill="none" fill-rule="evenodd">
    <path d="M22.29 10h-6.4V8.67l1.34-1.14a23.29 23.29 0 0 0 2.91-3.01c.3-.46.45-.96.45-1.5 0-.5-.16-.88-.48-1.15a2.02 2.02 0 0 0-1.36-.42 5.09 5.09 0 0 0-2.56.83h-.07V.93c.3-.15.7-.28 1.2-.4.5-.13 1-.19 1.46-.19.97 0 1.73.24 2.28.7.55.47.83 1.1.83 1.9a3.57 3.57 0 0 1-.54 1.9c-.17.26-.36.52-.58.77a30.09 30.09 0 0 1-2.21 2.14L17.2 8.9h5.09V10zm40.17-4.55a2.15 2.15 0 0 1 .7 1.75 2.82 2.82 0 0 1-2.02 2.78c-.43.15-.9.22-1.41.22a7.28 7.28 0 0 1-2.8-.6V8.27h.1a5.18 5.18 0 0 0 2.67.83 3 3 0 0 0 .85-.13 1.82 1.82 0 0 0 1.17-1.01c.1-.23.14-.51.14-.85 0-.34-.05-.62-.16-.85a1.3 1.3 0 0 0-.45-.52 1.75 1.75 0 0 0-.7-.27 4.96 4.96 0 0 0-.87-.07h-.57V4.34h.45a2.6 2.6 0 0 0 1.53-.4c.39-.27.58-.66.58-1.18 0-.22-.05-.42-.15-.6a1.2 1.2 0 0 0-.4-.42 1.83 1.83 0 0 0-.59-.23 4.24 4.24 0 0 0-1.99.15c-.45.15-.87.35-1.28.61h-.06V.95c.3-.15.7-.29 1.2-.41a6.02 6.02 0 0 1 2.68-.06 3 3 0 0 1 .95.4c.3.2.54.45.7.74.15.29.23.63.23 1.01 0 .53-.19.98-.56 1.37-.37.4-.8.64-1.3.74v.1a3.3 3.3 0 0 1 1.36.6zm43.04 1.89h-1.4V10h-1.22V7.34h-4.52V5.88l4.57-5.33h1.17v5.77h1.4v1.02zm-2.62-1.02V2.06l-3.66 4.26h3.66zm43.33.68c0 .44-.08.86-.24 1.26a2.93 2.93 0 0 1-1.75 1.7c-.42.16-.9.24-1.46.24a6.76 6.76 0 0 1-2.7-.56V8.31h.08a5.5 5.5 0 0 0 2.6.79c.3 0 .58-.04.87-.13a1.84 1.84 0 0 0 1.17-1.1 2.5 2.5 0 0 0-.02-1.7 1.4 1.4 0 0 0-.47-.54 2.05 2.05 0 0 0-.8-.34 7.38 7.38 0 0 0-2.13-.02l-.9.15V.55h5.69v1.1h-4.46v2.52a11.59 11.59 0 0 1 1.05-.05c.51 0 .96.05 1.35.13.38.09.73.24 1.06.46.33.24.6.54.78.9.19.37.28.83.28 1.39z" fill="#E4E4E4"/>
    <path fill="#666" d="M0 27h40v40H0z"/>
    <path fill="#00FFF2" d="M22.06 51H21v-3.92h-4V51h-1.06v-8H17v3.14h4V43h1.06z"/>
    <path fill="#666" d="M0 68h40v40H0z"/>
    <path fill="#555" d="M0 109h40v40H0zm0 41h40v40H0z"/>
    <path fill="#666" d="M0 191h40v40H0z"/>
    <path fill="#444" d="M0 232h40v40H0zm0 41h40v40H0zm0 41h40v40H0zm0 41h40v40H0zm0 41h40v40H0z"/>
    <path fill="#666" d="M41 27h40v40H41z"/>
    <path fill="#00FFF2" d="M22.06 92H21v-3.92h-4V92h-1.06v-8H17v3.14h4V84h1.06zm1 123H22v-3.92h-4V215h-1.06v-8H18v3.14h4V207h1.06z"/>
    <path fill="#555" d="M41 68h40v40H41zm0 41h40v40H41zm0 41h40v40H41z"/>
    <path fill="#666" d="M41 191h40v40H41z"/>
    <path fill="#00FFF2" d="M63.06 51H62v-3.92h-4V51h-1.06v-8H58v3.14h4V43h1.06zm1 164H63v-3.92h-4V215h-1.06v-8H59v3.14h4V207h1.06z"/>
    <path fill="#444" d="M41 232h40v40H41zm0 41h40v40H41zm0 41h40v40H41zm0 41h40v40H41zm0 41h40v40H41z"/>
    <path fill="#666" d="M82 27h40v40H82z"/>
    <path fill="#555" d="M82 68h40v40H82zm0 41h40v40H82zm0 41h40v40H82z"/>
    <path fill="#444" d="M82 191h40v40H82zm0 41h40v40H82zm0 41h40v40H82zm0 41h40v40H82zm0 41h40v40H82zm0 41h40v40H82z"/>
    <path fill="#666" d="M123 27h40v40h-40z"/>
    <path fill="#555" d="M123 68h40v40h-40zm0 41h40v40h-40zm0 41h40v40h-40z"/>
    <path fill="#444" d="M123 191h40v40h-40zm0 41h40v40h-40zm0 41h40v40h-40zm0 41h40v40h-40zm0 41h40v40h-40zm0 41h40v40h-40z"/>
    <path fill="#666" d="M164 27h40v40h-40z"/>
    <path fill="#555" d="M164 68h40v40h-40zm0 41h40v40h-40zm0 41h40v40h-40z"/>
    <path fill="#444" d="M164 191h40v40h-40zm0 41h40v40h-40zm0 41h40v40h-40zm0 41h40v40h-40zm0 41h40v40h-40zm0 41h40v40h-40z"/>
    <path fill="#666" d="M205 27h40v40h-40zm0 41h40v40h-40z"/>
    <path fill="#555" d="M205 109h40v40h-40zm0 41h40v40h-40z"/>
    <path fill="#666" d="M205 191h40v40h-40zm0 41h40v40h-40zm0 41h40v40h-40zm0 41h40v40h-40zm0 41h40v40h-40z"/>
    <path fill="#444" d="M205 396h40v40h-40z"/>
    <path fill="#666" d="M246 27h40v40h-40zm0 41h40v40h-40z"/>
    <path fill="#555" d="M246 109h40v40h-40zm0 41h40v40h-40z"/>
    <path fill="#666" d="M246 191h40v40h-40zm0 41h40v40h-40zm0 41h40v40h-40zm0 41h40v40h-40zm0 41h40v40h-40z"/>
    <path fill="#444" d="M246 396h40v40h-40z"/>
    <path d="M187.43 6.93a3.15 3.15 0 0 1-3.28 3.26c-.46 0-.89-.07-1.27-.2a2.91 2.91 0 0 1-1-.65 3.43 3.43 0 0 1-.85-1.4 8.35 8.35 0 0 1-.03-4.32 4.9 4.9 0 0 1 .87-1.73c.37-.47.85-.85 1.44-1.12a4.9 4.9 0 0 1 3.2-.25v1.2h-.07a3.14 3.14 0 0 0-1.27-.27c-.9.01-1.63.3-2.17.87a3.73 3.73 0 0 0-.95 2.3 3.87 3.87 0 0 1 2.25-.66c.4 0 .75.04 1.06.11a2.82 2.82 0 0 1 1.79 1.43c.18.4.28.87.28 1.43zm-1.3.05c0-.39-.05-.71-.17-.97a1.68 1.68 0 0 0-1.22-.94 4.22 4.22 0 0 0-1.74.06c-.31.09-.63.22-.96.4a6.46 6.46 0 0 0 .19 2.18c.13.38.32.69.56.91a1.9 1.9 0 0 0 1.38.54c.6 0 1.1-.19 1.44-.56.35-.37.53-.91.53-1.62zm42.18-5.02L224.04 10h-1.36l4.55-8.34h-5.38V.55h6.46zm41.05 5.41c0 .81-.32 1.5-.96 2.03-.63.54-1.44.82-2.4.82a3.6 3.6 0 0 1-2.45-.8c-.6-.53-.9-1.2-.9-2.03 0-.52.14-1 .45-1.42.3-.43.73-.77 1.29-1.02v-.03a3.37 3.37 0 0 1-1.13-.9 1.94 1.94 0 0 1-.36-1.2c0-.71.29-1.3.87-1.78a3.42 3.42 0 0 1 2.23-.7c.94 0 1.7.22 2.26.67.56.45.84 1.03.84 1.73 0 .43-.13.85-.4 1.26-.26.41-.65.73-1.17.97V5c.6.26 1.05.57 1.36.94.31.38.47.85.47 1.43zm-1.5-4.62c0-.45-.18-.81-.53-1.08-.35-.27-.8-.4-1.34-.4-.53 0-.97.12-1.3.38-.35.25-.52.6-.52 1.02 0 .3.09.57.26.8.17.22.43.42.78.59a13.76 13.76 0 0 0 1.53.6c.42-.28.71-.57.87-.87.16-.3.24-.65.24-1.04zm.19 4.74c0-.4-.09-.7-.26-.94-.17-.23-.5-.47-1-.7-.2-.1-.42-.19-.66-.27l-.94-.33c-.38.2-.69.48-.92.84-.23.36-.35.76-.35 1.2 0 .58.2 1.05.6 1.42.39.37.89.56 1.5.56a2.2 2.2 0 0 0 1.47-.48c.38-.31.56-.75.56-1.3z" fill="#E4E4E4"/>
    <path fill="#00FFF2" d="M105.06 51H104v-3.92h-4V51h-1.06v-8H100v3.14h4V43h1.06zm41 0H145v-3.92h-4V51h-1.06v-8H141v3.14h4V43h1.06zm41 0H186v-3.92h-4V51h-1.06v-8H182v3.14h4V43h1.06zm41 0H227v-3.92h-4V51h-1.06v-8H223v3.14h4V43h1.06zM59.36 88c0 .74-.16 1.4-.48 1.99a3.55 3.55 0 0 1-2.49 1.86c-.45.1-1.04.15-1.77.15H52.6v-8h2c.78 0 1.4.06 1.86.17A3.57 3.57 0 0 1 58.9 86c.3.57.46 1.24.46 2.02zm-1.12 0c0-.63-.1-1.16-.32-1.6a2.4 2.4 0 0 0-.98-1 3.13 3.13 0 0 0-1-.38c-.36-.07-.78-.1-1.28-.1h-1v6.17h1a7 7 0 0 0 1.34-.12 3 3 0 0 0 1.05-.41c.4-.26.7-.6.9-1 .2-.42.3-.94.3-1.57zm9.6 0c0 .74-.17 1.4-.48 1.99a3.55 3.55 0 0 1-2.5 1.86c-.44.1-1.03.15-1.77.15h-2.02v-8h2c.78 0 1.4.06 1.86.17A3.57 3.57 0 0 1 67.37 86c.3.57.46 1.24.46 2.02zm-1.12 0c0-.63-.11-1.16-.33-1.6a2.4 2.4 0 0 0-.98-1c-.31-.19-.65-.31-1-.38s-.78-.1-1.27-.1h-1v6.17h1a7 7 0 0 0 1.34-.12 3 3 0 0 0 1.05-.41c.4-.26.7-.6.9-1 .19-.42.29-.94.29-1.57zm34.64 0c0 .74-.16 1.4-.48 1.99a3.55 3.55 0 0 1-2.49 1.86c-.45.1-1.04.15-1.77.15H94.6v-8h2c.78 0 1.4.06 1.86.17A3.57 3.57 0 0 1 100.9 86c.3.57.46 1.24.46 2.02zm-1.12 0c0-.63-.1-1.16-.32-1.6a2.4 2.4 0 0 0-.98-1 3.13 3.13 0 0 0-1-.38c-.36-.07-.78-.1-1.28-.1h-1v6.17h1a7 7 0 0 0 1.34-.12 3 3 0 0 0 1.05-.41c.4-.26.7-.6.9-1 .2-.42.3-.94.3-1.57zm9.6 0c0 .74-.17 1.4-.48 1.99a3.55 3.55 0 0 1-2.5 1.86c-.44.1-1.03.15-1.77.15h-2.02v-8h2c.78 0 1.4.06 1.86.17a3.57 3.57 0 0 1 2.44 1.82c.3.57.46 1.24.46 2.02zm-1.12 0c0-.63-.11-1.16-.33-1.6a2.4 2.4 0 0 0-.98-1c-.31-.19-.65-.31-1-.38s-.78-.1-1.27-.1h-1v6.17h1a7 7 0 0 0 1.34-.12 3 3 0 0 0 1.05-.41c.4-.26.7-.6.9-1 .19-.42.29-.94.29-1.57zm33.64 0c0 .74-.16 1.4-.48 1.99a3.55 3.55 0 0 1-2.49 1.86c-.45.1-1.04.15-1.77.15h-2.02v-8h2c.78 0 1.4.06 1.86.17A3.57 3.57 0 0 1 141.9 86c.3.57.46 1.24.46 2.02zm-1.12 0c0-.63-.1-1.16-.32-1.6a2.4 2.4 0 0 0-.98-1 3.13 3.13 0 0 0-1-.38c-.36-.07-.78-.1-1.28-.1h-1v6.17h1a7 7 0 0 0 1.34-.12 3 3 0 0 0 1.05-.41c.4-.26.7-.6.9-1 .2-.42.3-.94.3-1.57zm9.6 0c0 .74-.17 1.4-.48 1.99a3.55 3.55 0 0 1-2.5 1.86c-.44.1-1.03.15-1.77.15h-2.02v-8h2c.78 0 1.4.06 1.86.17a3.57 3.57 0 0 1 2.44 1.82c.3.57.46 1.24.46 2.02zm-1.12 0c0-.63-.11-1.16-.33-1.6a2.4 2.4 0 0 0-.98-1c-.31-.19-.65-.31-1-.38s-.78-.1-1.27-.1h-1v6.17h1a7 7 0 0 0 1.34-.12 3 3 0 0 0 1.05-.41c.4-.26.7-.6.9-1 .19-.42.29-.94.29-1.57zm33.64 0c0 .74-.16 1.4-.48 1.99a3.55 3.55 0 0 1-2.49 1.86c-.45.1-1.04.15-1.77.15h-2.02v-8h2c.78 0 1.4.06 1.86.17A3.57 3.57 0 0 1 182.9 86c.3.57.46 1.24.46 2.02zm-1.12 0c0-.63-.1-1.16-.32-1.6a2.4 2.4 0 0 0-.98-1 3.13 3.13 0 0 0-1-.38c-.36-.07-.78-.1-1.28-.1h-1v6.17h1a7 7 0 0 0 1.34-.12 3 3 0 0 0 1.05-.41c.4-.26.7-.6.9-1 .2-.42.3-.94.3-1.57zm9.6 0c0 .74-.17 1.4-.48 1.99a3.55 3.55 0 0 1-2.5 1.86c-.44.1-1.03.15-1.77.15h-2.02v-8h2c.78 0 1.4.06 1.86.17a3.57 3.57 0 0 1 2.44 1.82c.3.57.46 1.24.46 2.02zm-1.12 0c0-.63-.11-1.16-.33-1.6a2.4 2.4 0 0 0-.98-1c-.31-.19-.65-.31-1-.38s-.78-.1-1.27-.1h-1v6.17h1a7 7 0 0 0 1.34-.12 3 3 0 0 0 1.05-.41c.4-.26.7-.6.9-1 .19-.42.29-.94.29-1.57zm37.34 4H227v-3.92h-4V92h-1.06v-8H223v3.14h4V84h1.06zm41-41H268v-3.92h-4V51h-1.06v-8H264v3.14h4V43h1.06zm0 41H268v-3.92h-4V92h-1.06v-8H264v3.14h4V84h1.06zm-250.7 37c0 .74-.16 1.4-.48 1.99a3.55 3.55 0 0 1-2.49 1.86c-.45.1-1.04.15-1.77.15H11.6v-8h2c.78 0 1.4.06 1.86.17A3.57 3.57 0 0 1 17.9 127c.3.57.46 1.24.46 2.02zm-1.12 0c0-.63-.1-1.16-.32-1.6a2.4 2.4 0 0 0-.98-1 3.13 3.13 0 0 0-1-.38c-.36-.07-.78-.1-1.28-.1h-1v6.17h1a7 7 0 0 0 1.34-.12 3 3 0 0 0 1.05-.41c.4-.26.7-.6.9-1 .2-.42.3-.94.3-1.57zm9.6 0c0 .74-.17 1.4-.48 1.99a3.55 3.55 0 0 1-2.5 1.86c-.44.1-1.03.15-1.77.15h-2.02v-8h2c.78 0 1.4.06 1.86.17a3.57 3.57 0 0 1 2.44 1.82c.3.57.46 1.24.46 2.02zm-1.12 0c0-.63-.11-1.16-.33-1.6a2.4 2.4 0 0 0-.98-1c-.31-.19-.65-.31-1-.38s-.78-.1-1.27-.1h-1v6.17h1a7 7 0 0 0 1.34-.12 3 3 0 0 0 1.05-.41c.4-.26.7-.6.9-1 .19-.42.29-.94.29-1.57zm33.64 0c0 .74-.16 1.4-.48 1.99a3.55 3.55 0 0 1-2.49 1.86c-.45.1-1.04.15-1.77.15H52.6v-8h2c.78 0 1.4.06 1.86.17A3.57 3.57 0 0 1 58.9 127c.3.57.46 1.24.46 2.02zm-1.12 0c0-.63-.1-1.16-.32-1.6a2.4 2.4 0 0 0-.98-1 3.13 3.13 0 0 0-1-.38c-.36-.07-.78-.1-1.28-.1h-1v6.17h1a7 7 0 0 0 1.34-.12 3 3 0 0 0 1.05-.41c.4-.26.7-.6.9-1 .2-.42.3-.94.3-1.57zm9.6 0c0 .74-.17 1.4-.48 1.99a3.55 3.55 0 0 1-2.5 1.86c-.44.1-1.03.15-1.77.15h-2.02v-8h2c.78 0 1.4.06 1.86.17a3.57 3.57 0 0 1 2.44 1.82c.3.57.46 1.24.46 2.02zm-1.12 0c0-.63-.11-1.16-.33-1.6a2.4 2.4 0 0 0-.98-1c-.31-.19-.65-.31-1-.38s-.78-.1-1.27-.1h-1v6.17h1a7 7 0 0 0 1.34-.12 3 3 0 0 0 1.05-.41c.4-.26.7-.6.9-1 .19-.42.29-.94.29-1.57zm34.64 0c0 .74-.16 1.4-.48 1.99a3.55 3.55 0 0 1-2.49 1.86c-.45.1-1.04.15-1.77.15H94.6v-8h2c.78 0 1.4.06 1.86.17a3.57 3.57 0 0 1 2.44 1.82c.3.57.46 1.24.46 2.02zm-1.12 0c0-.63-.1-1.16-.32-1.6a2.4 2.4 0 0 0-.98-1 3.13 3.13 0 0 0-1-.38c-.36-.07-.78-.1-1.28-.1h-1v6.17h1a7 7 0 0 0 1.34-.12 3 3 0 0 0 1.05-.41c.4-.26.7-.6.9-1 .2-.42.3-.94.3-1.57zm9.6 0c0 .74-.17 1.4-.48 1.99a3.55 3.55 0 0 1-2.5 1.86c-.44.1-1.03.15-1.77.15h-2.02v-8h2c.78 0 1.4.06 1.86.17a3.57 3.57 0 0 1 2.44 1.82c.3.57.46 1.24.46 2.02zm-1.12 0c0-.63-.11-1.16-.33-1.6a2.4 2.4 0 0 0-.98-1c-.31-.19-.65-.31-1-.38s-.78-.1-1.27-.1h-1v6.17h1a7 7 0 0 0 1.34-.12 3 3 0 0 0 1.05-.41c.4-.26.7-.6.9-1 .19-.42.29-.94.29-1.57zm33.64 0c0 .74-.16 1.4-.48 1.99a3.55 3.55 0 0 1-2.49 1.86c-.45.1-1.04.15-1.77.15h-2.02v-8h2c.78 0 1.4.06 1.86.17a3.57 3.57 0 0 1 2.44 1.82c.3.57.46 1.24.46 2.02zm-1.12 0c0-.63-.1-1.16-.32-1.6a2.4 2.4 0 0 0-.98-1 3.13 3.13 0 0 0-1-.38c-.36-.07-.78-.1-1.28-.1h-1v6.17h1a7 7 0 0 0 1.34-.12 3 3 0 0 0 1.05-.41c.4-.26.7-.6.9-1 .2-.42.3-.94.3-1.57zm9.6 0c0 .74-.17 1.4-.48 1.99a3.55 3.55 0 0 1-2.5 1.86c-.44.1-1.03.15-1.77.15h-2.02v-8h2c.78 0 1.4.06 1.86.17a3.57 3.57 0 0 1 2.44 1.82c.3.57.46 1.24.46 2.02zm-1.12 0c0-.63-.11-1.16-.33-1.6a2.4 2.4 0 0 0-.98-1c-.31-.19-.65-.31-1-.38s-.78-.1-1.27-.1h-1v6.17h1a7 7 0 0 0 1.34-.12 3 3 0 0 0 1.05-.41c.4-.26.7-.6.9-1 .19-.42.29-.94.29-1.57zm33.64 0c0 .74-.16 1.4-.48 1.99a3.55 3.55 0 0 1-2.49 1.86c-.45.1-1.04.15-1.77.15h-2.02v-8h2c.78 0 1.4.06 1.86.17a3.57 3.57 0 0 1 2.44 1.82c.3.57.46 1.24.46 2.02zm-1.12 0c0-.63-.1-1.16-.32-1.6a2.4 2.4 0 0 0-.98-1 3.13 3.13 0 0 0-1-.38c-.36-.07-.78-.1-1.28-.1h-1v6.17h1a7 7 0 0 0 1.34-.12 3 3 0 0 0 1.05-.41c.4-.26.7-.6.9-1 .2-.42.3-.94.3-1.57zm9.6 0c0 .74-.17 1.4-.48 1.99a3.55 3.55 0 0 1-2.5 1.86c-.44.1-1.03.15-1.77.15h-2.02v-8h2c.78 0 1.4.06 1.86.17a3.57 3.57 0 0 1 2.44 1.82c.3.57.46 1.24.46 2.02zm-1.12 0c0-.63-.11-1.16-.33-1.6a2.4 2.4 0 0 0-.98-1c-.31-.19-.65-.31-1-.38s-.78-.1-1.27-.1h-1v6.17h1a7 7 0 0 0 1.34-.12 3 3 0 0 0 1.05-.41c.4-.26.7-.6.9-1 .19-.42.29-.94.29-1.57zm33.64 0c0 .74-.16 1.4-.48 1.99a3.55 3.55 0 0 1-2.49 1.86c-.45.1-1.04.15-1.77.15h-2.02v-8h2c.78 0 1.4.06 1.86.17a3.57 3.57 0 0 1 2.44 1.82c.3.57.46 1.24.46 2.02zm-1.12 0c0-.63-.1-1.16-.32-1.6a2.4 2.4 0 0 0-.98-1 3.13 3.13 0 0 0-1-.38c-.36-.07-.78-.1-1.28-.1h-1v6.17h1a7 7 0 0 0 1.34-.12 3 3 0 0 0 1.05-.41c.4-.26.7-.6.9-1 .2-.42.3-.94.3-1.57zm9.6 0c0 .74-.17 1.4-.48 1.99a3.55 3.55 0 0 1-2.5 1.86c-.44.1-1.03.15-1.77.15h-2.02v-8h2c.78 0 1.4.06 1.86.17a3.57 3.57 0 0 1 2.44 1.82c.3.57.46 1.24.46 2.02zm-1.12 0c0-.63-.11-1.16-.33-1.6a2.4 2.4 0 0 0-.98-1c-.31-.19-.65-.31-1-.38s-.78-.1-1.27-.1h-1v6.17h1a7 7 0 0 0 1.34-.12 3 3 0 0 0 1.05-.41c.4-.26.7-.6.9-1 .19-.42.29-.94.29-1.57zm33.64 0c0 .74-.16 1.4-.48 1.99a3.55 3.55 0 0 1-2.49 1.86c-.45.1-1.04.15-1.77.15h-2.02v-8h2c.78 0 1.4.06 1.86.17a3.57 3.57 0 0 1 2.44 1.82c.3.57.46 1.24.46 2.02zm-1.12 0c0-.63-.1-1.16-.32-1.6a2.4 2.4 0 0 0-.98-1 3.13 3.13 0 0 0-1-.38c-.36-.07-.78-.1-1.28-.1h-1v6.17h1a7 7 0 0 0 1.34-.12 3 3 0 0 0 1.05-.41c.4-.26.7-.6.9-1 .2-.42.3-.94.3-1.57zm9.6 0c0 .74-.17 1.4-.48 1.99a3.55 3.55 0 0 1-2.5 1.86c-.44.1-1.03.15-1.77.15h-2.02v-8h2c.78 0 1.4.06 1.86.17a3.57 3.57 0 0 1 2.44 1.82c.3.57.46 1.24.46 2.02zm-1.12 0c0-.63-.11-1.16-.33-1.6a2.4 2.4 0 0 0-.98-1c-.31-.19-.65-.31-1-.38s-.78-.1-1.27-.1h-1v6.17h1a7 7 0 0 0 1.34-.12 3 3 0 0 0 1.05-.41c.4-.26.7-.6.9-1 .19-.42.29-.94.29-1.57zM18.36 169c0 .74-.16 1.4-.48 1.99a3.55 3.55 0 0 1-2.49 1.86c-.45.1-1.04.15-1.77.15H11.6v-8h2c.78 0 1.4.06 1.86.17A3.57 3.57 0 0 1 17.9 167c.3.57.46 1.24.46 2.02zm-1.12 0c0-.63-.1-1.16-.32-1.6a2.4 2.4 0 0 0-.98-1 3.13 3.13 0 0 0-1-.38c-.36-.07-.78-.1-1.28-.1h-1v6.17h1a7 7 0 0 0 1.34-.12 3 3 0 0 0 1.05-.41c.4-.26.7-.6.9-1 .2-.42.3-.94.3-1.57zm9.6 0c0 .74-.17 1.4-.48 1.99a3.55 3.55 0 0 1-2.5 1.86c-.44.1-1.03.15-1.77.15h-2.02v-8h2c.78 0 1.4.06 1.86.17a3.57 3.57 0 0 1 2.44 1.82c.3.57.46 1.24.46 2.02zm-1.12 0c0-.63-.11-1.16-.33-1.6a2.4 2.4 0 0 0-.98-1c-.31-.19-.65-.31-1-.38s-.78-.1-1.27-.1h-1v6.17h1a7 7 0 0 0 1.34-.12 3 3 0 0 0 1.05-.41c.4-.26.7-.6.9-1 .19-.42.29-.94.29-1.57zm33.64 0c0 .74-.16 1.4-.48 1.99a3.55 3.55 0 0 1-2.49 1.86c-.45.1-1.04.15-1.77.15H52.6v-8h2c.78 0 1.4.06 1.86.17A3.57 3.57 0 0 1 58.9 167c.3.57.46 1.24.46 2.02zm-1.12 0c0-.63-.1-1.16-.32-1.6a2.4 2.4 0 0 0-.98-1 3.13 3.13 0 0 0-1-.38c-.36-.07-.78-.1-1.28-.1h-1v6.17h1a7 7 0 0 0 1.34-.12 3 3 0 0 0 1.05-.41c.4-.26.7-.6.9-1 .2-.42.3-.94.3-1.57zm9.6 0c0 .74-.17 1.4-.48 1.99a3.55 3.55 0 0 1-2.5 1.86c-.44.1-1.03.15-1.77.15h-2.02v-8h2c.78 0 1.4.06 1.86.17a3.57 3.57 0 0 1 2.44 1.82c.3.57.46 1.24.46 2.02zm-1.12 0c0-.63-.11-1.16-.33-1.6a2.4 2.4 0 0 0-.98-1c-.31-.19-.65-.31-1-.38s-.78-.1-1.27-.1h-1v6.17h1a7 7 0 0 0 1.34-.12 3 3 0 0 0 1.05-.41c.4-.26.7-.6.9-1 .19-.42.29-.94.29-1.57zm34.64 0c0 .74-.16 1.4-.48 1.99a3.55 3.55 0 0 1-2.49 1.86c-.45.1-1.04.15-1.77.15H94.6v-8h2c.78 0 1.4.06 1.86.17a3.57 3.57 0 0 1 2.44 1.82c.3.57.46 1.24.46 2.02zm-1.12 0c0-.63-.1-1.16-.32-1.6a2.4 2.4 0 0 0-.98-1 3.13 3.13 0 0 0-1-.38c-.36-.07-.78-.1-1.28-.1h-1v6.17h1a7 7 0 0 0 1.34-.12 3 3 0 0 0 1.05-.41c.4-.26.7-.6.9-1 .2-.42.3-.94.3-1.57zm9.6 0c0 .74-.17 1.4-.48 1.99a3.55 3.55 0 0 1-2.5 1.86c-.44.1-1.03.15-1.77.15h-2.02v-8h2c.78 0 1.4.06 1.86.17a3.57 3.57 0 0 1 2.44 1.82c.3.57.46 1.24.46 2.02zm-1.12 0c0-.63-.11-1.16-.33-1.6a2.4 2.4 0 0 0-.98-1c-.31-.19-.65-.31-1-.38s-.78-.1-1.27-.1h-1v6.17h1a7 7 0 0 0 1.34-.12 3 3 0 0 0 1.05-.41c.4-.26.7-.6.9-1 .19-.42.29-.94.29-1.57zm33.64 0c0 .74-.16 1.4-.48 1.99a3.55 3.55 0 0 1-2.49 1.86c-.45.1-1.04.15-1.77.15h-2.02v-8h2c.78 0 1.4.06 1.86.17a3.57 3.57 0 0 1 2.44 1.82c.3.57.46 1.24.46 2.02zm-1.12 0c0-.63-.1-1.16-.32-1.6a2.4 2.4 0 0 0-.98-1 3.13 3.13 0 0 0-1-.38c-.36-.07-.78-.1-1.28-.1h-1v6.17h1a7 7 0 0 0 1.34-.12 3 3 0 0 0 1.05-.41c.4-.26.7-.6.9-1 .2-.42.3-.94.3-1.57zm9.6 0c0 .74-.17 1.4-.48 1.99a3.55 3.55 0 0 1-2.5 1.86c-.44.1-1.03.15-1.77.15h-2.02v-8h2c.78 0 1.4.06 1.86.17a3.57 3.57 0 0 1 2.44 1.82c.3.57.46 1.24.46 2.02zm-1.12 0c0-.63-.11-1.16-.33-1.6a2.4 2.4 0 0 0-.98-1c-.31-.19-.65-.31-1-.38s-.78-.1-1.27-.1h-1v6.17h1a7 7 0 0 0 1.34-.12 3 3 0 0 0 1.05-.41c.4-.26.7-.6.9-1 .19-.42.29-.94.29-1.57zm33.64 0c0 .74-.16 1.4-.48 1.99a3.55 3.55 0 0 1-2.49 1.86c-.45.1-1.04.15-1.77.15h-2.02v-8h2c.78 0 1.4.06 1.86.17a3.57 3.57 0 0 1 2.44 1.82c.3.57.46 1.24.46 2.02zm-1.12 0c0-.63-.1-1.16-.32-1.6a2.4 2.4 0 0 0-.98-1 3.13 3.13 0 0 0-1-.38c-.36-.07-.78-.1-1.28-.1h-1v6.17h1a7 7 0 0 0 1.34-.12 3 3 0 0 0 1.05-.41c.4-.26.7-.6.9-1 .2-.42.3-.94.3-1.57zm9.6 0c0 .74-.17 1.4-.48 1.99a3.55 3.55 0 0 1-2.5 1.86c-.44.1-1.03.15-1.77.15h-2.02v-8h2c.78 0 1.4.06 1.86.17a3.57 3.57 0 0 1 2.44 1.82c.3.57.46 1.24.46 2.02zm-1.12 0c0-.63-.11-1.16-.33-1.6a2.4 2.4 0 0 0-.98-1c-.31-.19-.65-.31-1-.38s-.78-.1-1.27-.1h-1v6.17h1a7 7 0 0 0 1.34-.12 3 3 0 0 0 1.05-.41c.4-.26.7-.6.9-1 .19-.42.29-.94.29-1.57zm33.64 0c0 .74-.16 1.4-.48 1.99a3.55 3.55 0 0 1-2.49 1.86c-.45.1-1.04.15-1.77.15h-2.02v-8h2c.78 0 1.4.06 1.86.17a3.57 3.57 0 0 1 2.44 1.82c.3.57.46 1.24.46 2.02zm-1.12 0c0-.63-.1-1.16-.32-1.6a2.4 2.4 0 0 0-.98-1 3.13 3.13 0 0 0-1-.38c-.36-.07-.78-.1-1.28-.1h-1v6.17h1a7 7 0 0 0 1.34-.12 3 3 0 0 0 1.05-.41c.4-.26.7-.6.9-1 .2-.42.3-.94.3-1.57zm9.6 0c0 .74-.17 1.4-.48 1.99a3.55 3.55 0 0 1-2.5 1.86c-.44.1-1.03.15-1.77.15h-2.02v-8h2c.78 0 1.4.06 1.86.17a3.57 3.57 0 0 1 2.44 1.82c.3.57.46 1.24.46 2.02zm-1.12 0c0-.63-.11-1.16-.33-1.6a2.4 2.4 0 0 0-.98-1c-.31-.19-.65-.31-1-.38s-.78-.1-1.27-.1h-1v6.17h1a7 7 0 0 0 1.34-.12 3 3 0 0 0 1.05-.41c.4-.26.7-.6.9-1 .19-.42.29-.94.29-1.57zm33.64 0c0 .74-.16 1.4-.48 1.99a3.55 3.55 0 0 1-2.49 1.86c-.45.1-1.04.15-1.77.15h-2.02v-8h2c.78 0 1.4.06 1.86.17a3.57 3.57 0 0 1 2.44 1.82c.3.57.46 1.24.46 2.02zm-1.12 0c0-.63-.1-1.16-.32-1.6a2.4 2.4 0 0 0-.98-1 3.13 3.13 0 0 0-1-.38c-.36-.07-.78-.1-1.28-.1h-1v6.17h1a7 7 0 0 0 1.34-.12 3 3 0 0 0 1.05-.41c.4-.26.7-.6.9-1 .2-.42.3-.94.3-1.57zm9.6 0c0 .74-.17 1.4-.48 1.99a3.55 3.55 0 0 1-2.5 1.86c-.44.1-1.03.15-1.77.15h-2.02v-8h2c.78 0 1.4.06 1.86.17a3.57 3.57 0 0 1 2.44 1.82c.3.57.46 1.24.46 2.02zm-1.12 0c0-.63-.11-1.16-.33-1.6a2.4 2.4 0 0 0-.98-1c-.31-.19-.65-.31-1-.38s-.78-.1-1.27-.1h-1v6.17h1a7 7 0 0 0 1.34-.12 3 3 0 0 0 1.05-.41c.4-.26.7-.6.9-1 .19-.42.29-.94.29-1.57zm-3.66 46H268v-3.92h-4V215h-1.06v-8H264v3.14h4V207h1.06zm0 40H268v-3.92h-4V255h-1.06v-8H264v3.14h4V247h1.06zm0 41H268v-3.92h-4V296h-1.06v-8H264v3.14h4V288h1.06zm0 41H268v-3.92h-4V337h-1.06v-8H264v3.14h4V329h1.06zm0 41H268v-3.92h-4V378h-1.06v-8H264v3.14h4V370h1.06zM105.13 212.72a2.2 2.2 0 0 1-.83 1.7c-.29.22-.62.4-1 .53s-.84.2-1.38.2a6.86 6.86 0 0 1-2.96-.64v-1.34h.08a4.6 4.6 0 0 0 2.9 1.05 2.8 2.8 0 0 0 1.53-.36c.37-.25.55-.58.55-1 0-.35-.09-.6-.26-.78a1.8 1.8 0 0 0-.8-.39 7.9 7.9 0 0 0-.87-.18c-.3-.04-.64-.1-1-.17a2.97 2.97 0 0 1-1.57-.77 1.99 1.99 0 0 1-.51-1.42c0-.67.28-1.22.85-1.65a3.47 3.47 0 0 1 2.15-.64 6.93 6.93 0 0 1 2.8.56v1.25h-.08a4.66 4.66 0 0 0-2.72-.9 2.4 2.4 0 0 0-1.38.36c-.34.24-.52.54-.52.91 0 .34.1.6.26.79.17.19.48.33.91.43l.98.19c.42.07.78.14 1.07.22.6.15 1.04.4 1.34.71.3.32.46.76.46 1.34zm41 0a2.2 2.2 0 0 1-.83 1.7c-.29.22-.62.4-1 .53s-.84.2-1.38.2a6.86 6.86 0 0 1-2.96-.64v-1.34h.08a4.6 4.6 0 0 0 2.9 1.05 2.8 2.8 0 0 0 1.53-.36c.37-.25.55-.58.55-1 0-.35-.09-.6-.26-.78a1.8 1.8 0 0 0-.8-.39 7.9 7.9 0 0 0-.87-.18c-.3-.04-.64-.1-1-.17a2.97 2.97 0 0 1-1.57-.77 1.99 1.99 0 0 1-.51-1.42c0-.67.28-1.22.85-1.65a3.47 3.47 0 0 1 2.15-.64 6.93 6.93 0 0 1 2.8.56v1.25h-.08a4.66 4.66 0 0 0-2.72-.9 2.4 2.4 0 0 0-1.38.36c-.34.24-.52.54-.52.91 0 .34.1.6.26.79.17.19.48.33.91.43l.98.19c.42.07.78.14 1.07.22.6.15 1.04.4 1.34.71.3.32.46.76.46 1.34zm41 0a2.2 2.2 0 0 1-.83 1.7c-.29.22-.62.4-1 .53s-.84.2-1.38.2a6.86 6.86 0 0 1-2.96-.64v-1.34h.08a4.6 4.6 0 0 0 2.9 1.05 2.8 2.8 0 0 0 1.53-.36c.37-.25.55-.58.55-1 0-.35-.09-.6-.26-.78a1.8 1.8 0 0 0-.8-.39 7.9 7.9 0 0 0-.87-.18c-.3-.04-.64-.1-1-.17a2.97 2.97 0 0 1-1.57-.77 1.99 1.99 0 0 1-.51-1.42c0-.67.28-1.22.85-1.65a3.47 3.47 0 0 1 2.15-.64 6.93 6.93 0 0 1 2.8.56v1.25h-.08a4.66 4.66 0 0 0-2.72-.9 2.4 2.4 0 0 0-1.38.36c-.34.24-.52.54-.52.91 0 .34.1.6.26.79.17.19.48.33.91.43l.98.19c.42.07.78.14 1.07.22.6.15 1.04.4 1.34.71.3.32.46.76.46 1.34zm40.93 2.28H227v-3.92h-4V215h-1.06v-8H223v3.14h4V207h1.06zm-122.93 37.72a2.2 2.2 0 0 1-.83 1.7c-.29.22-.62.4-1 .53s-.84.2-1.38.2a6.86 6.86 0 0 1-2.96-.64v-1.34h.08a4.6 4.6 0 0 0 2.9 1.05 2.8 2.8 0 0 0 1.53-.36c.37-.25.55-.58.55-1 0-.35-.09-.6-.26-.78a1.8 1.8 0 0 0-.8-.39 7.9 7.9 0 0 0-.87-.18c-.3-.04-.64-.1-1-.17a2.97 2.97 0 0 1-1.57-.77 1.99 1.99 0 0 1-.51-1.42c0-.67.28-1.22.85-1.65a3.47 3.47 0 0 1 2.15-.64 6.93 6.93 0 0 1 2.8.56v1.25h-.08a4.66 4.66 0 0 0-2.72-.9 2.4 2.4 0 0 0-1.38.36c-.34.24-.52.54-.52.91 0 .34.1.6.26.79.17.19.48.33.91.43l.98.19c.42.07.78.14 1.07.22.6.15 1.04.4 1.34.71.3.32.46.76.46 1.34zm-41 0a2.2 2.2 0 0 1-.83 1.7c-.29.22-.62.4-1 .53s-.84.2-1.38.2a6.86 6.86 0 0 1-2.96-.64v-1.34h.08a4.6 4.6 0 0 0 2.9 1.05 2.8 2.8 0 0 0 1.53-.36c.37-.25.55-.58.55-1 0-.35-.09-.6-.26-.78a1.8 1.8 0 0 0-.8-.39 7.9 7.9 0 0 0-.87-.18c-.3-.04-.64-.1-1-.17a2.97 2.97 0 0 1-1.57-.77 1.99 1.99 0 0 1-.51-1.42c0-.67.28-1.22.85-1.65a3.47 3.47 0 0 1 2.15-.64 6.93 6.93 0 0 1 2.8.56v1.25h-.08a4.66 4.66 0 0 0-2.72-.9 2.4 2.4 0 0 0-1.38.36c-.34.24-.52.54-.52.91 0 .34.1.6.26.79.17.19.48.33.91.43l.98.19c.42.07.78.14 1.07.22.6.15 1.04.4 1.34.71.3.32.46.76.46 1.34zm-41 0a2.2 2.2 0 0 1-.83 1.7c-.29.22-.62.4-1 .53s-.84.2-1.38.2a6.86 6.86 0 0 1-2.96-.64v-1.34h.08a4.6 4.6 0 0 0 2.9 1.05 2.8 2.8 0 0 0 1.53-.36c.37-.25.55-.58.55-1 0-.35-.09-.6-.26-.78a1.8 1.8 0 0 0-.8-.39 7.9 7.9 0 0 0-.87-.18c-.3-.04-.64-.1-1-.17a2.97 2.97 0 0 1-1.57-.77 1.99 1.99 0 0 1-.51-1.42c0-.67.28-1.22.85-1.65a3.47 3.47 0 0 1 2.15-.64 6.93 6.93 0 0 1 2.8.56v1.25h-.08a4.66 4.66 0 0 0-2.72-.9 2.4 2.4 0 0 0-1.38.36c-.34.24-.52.54-.52.91 0 .34.1.6.26.79.17.19.48.33.91.43l.98.19c.42.07.78.14 1.07.22.6.15 1.04.4 1.34.71.3.32.46.76.46 1.34zm123 0a2.2 2.2 0 0 1-.83 1.7c-.29.22-.62.4-1 .53s-.84.2-1.38.2a6.86 6.86 0 0 1-2.96-.64v-1.34h.08a4.6 4.6 0 0 0 2.9 1.05 2.8 2.8 0 0 0 1.53-.36c.37-.25.55-.58.55-1 0-.35-.09-.6-.26-.78a1.8 1.8 0 0 0-.8-.39 7.9 7.9 0 0 0-.87-.18c-.3-.04-.64-.1-1-.17a2.97 2.97 0 0 1-1.57-.77 1.99 1.99 0 0 1-.51-1.42c0-.67.28-1.22.85-1.65a3.47 3.47 0 0 1 2.15-.64 6.93 6.93 0 0 1 2.8.56v1.25h-.08a4.66 4.66 0 0 0-2.72-.9 2.4 2.4 0 0 0-1.38.36c-.34.24-.52.54-.52.91 0 .34.1.6.26.79.17.19.48.33.91.43l.98.19c.42.07.78.14 1.07.22.6.15 1.04.4 1.34.71.3.32.46.76.46 1.34zm41 0a2.2 2.2 0 0 1-.83 1.7c-.29.22-.62.4-1 .53s-.84.2-1.38.2a6.86 6.86 0 0 1-2.96-.64v-1.34h.08a4.6 4.6 0 0 0 2.9 1.05 2.8 2.8 0 0 0 1.53-.36c.37-.25.55-.58.55-1 0-.35-.09-.6-.26-.78a1.8 1.8 0 0 0-.8-.39 7.9 7.9 0 0 0-.87-.18c-.3-.04-.64-.1-1-.17a2.97 2.97 0 0 1-1.57-.77 1.99 1.99 0 0 1-.51-1.42c0-.67.28-1.22.85-1.65a3.47 3.47 0 0 1 2.15-.64 6.93 6.93 0 0 1 2.8.56v1.25h-.08a4.66 4.66 0 0 0-2.72-.9 2.4 2.4 0 0 0-1.38.36c-.34.24-.52.54-.52.91 0 .34.1.6.26.79.17.19.48.33.91.43l.98.19c.42.07.78.14 1.07.22.6.15 1.04.4 1.34.71.3.32.46.76.46 1.34zm40.93 2.28H227v-3.92h-4V255h-1.06v-8H223v3.14h4V247h1.06zm-122.93 38.72a2.2 2.2 0 0 1-.83 1.7c-.29.22-.62.4-1 .53s-.84.2-1.38.2a6.86 6.86 0 0 1-2.96-.64v-1.34h.08a4.6 4.6 0 0 0 2.9 1.05 2.8 2.8 0 0 0 1.53-.36c.37-.25.55-.58.55-1 0-.35-.09-.6-.26-.78a1.8 1.8 0 0 0-.8-.39 7.9 7.9 0 0 0-.87-.18c-.3-.04-.64-.1-1-.17a2.97 2.97 0 0 1-1.57-.77 1.99 1.99 0 0 1-.51-1.42c0-.67.28-1.22.85-1.65a3.47 3.47 0 0 1 2.15-.64 6.93 6.93 0 0 1 2.8.56v1.25h-.08a4.66 4.66 0 0 0-2.72-.9 2.4 2.4 0 0 0-1.38.36c-.34.24-.52.54-.52.91 0 .34.1.6.26.79.17.19.48.33.91.43l.98.19c.42.07.78.14 1.07.22.6.15 1.04.4 1.34.71.3.32.46.76.46 1.34zm-41 0a2.2 2.2 0 0 1-.83 1.7c-.29.22-.62.4-1 .53s-.84.2-1.38.2a6.86 6.86 0 0 1-2.96-.64v-1.34h.08a4.6 4.6 0 0 0 2.9 1.05 2.8 2.8 0 0 0 1.53-.36c.37-.25.55-.58.55-1 0-.35-.09-.6-.26-.78a1.8 1.8 0 0 0-.8-.39 7.9 7.9 0 0 0-.87-.18c-.3-.04-.64-.1-1-.17a2.97 2.97 0 0 1-1.57-.77 1.99 1.99 0 0 1-.51-1.42c0-.67.28-1.22.85-1.65a3.47 3.47 0 0 1 2.15-.64 6.93 6.93 0 0 1 2.8.56v1.25h-.08a4.66 4.66 0 0 0-2.72-.9 2.4 2.4 0 0 0-1.38.36c-.34.24-.52.54-.52.91 0 .34.1.6.26.79.17.19.48.33.91.43l.98.19c.42.07.78.14 1.07.22.6.15 1.04.4 1.34.71.3.32.46.76.46 1.34zm-41 0a2.2 2.2 0 0 1-.83 1.7c-.29.22-.62.4-1 .53s-.84.2-1.38.2a6.86 6.86 0 0 1-2.96-.64v-1.34h.08a4.6 4.6 0 0 0 2.9 1.05 2.8 2.8 0 0 0 1.53-.36c.37-.25.55-.58.55-1 0-.35-.09-.6-.26-.78a1.8 1.8 0 0 0-.8-.39 7.9 7.9 0 0 0-.87-.18c-.3-.04-.64-.1-1-.17a2.97 2.97 0 0 1-1.57-.77 1.99 1.99 0 0 1-.51-1.42c0-.67.28-1.22.85-1.65a3.47 3.47 0 0 1 2.15-.64 6.93 6.93 0 0 1 2.8.56v1.25h-.08a4.66 4.66 0 0 0-2.72-.9 2.4 2.4 0 0 0-1.38.36c-.34.24-.52.54-.52.91 0 .34.1.6.26.79.17.19.48.33.91.43l.98.19c.42.07.78.14 1.07.22.6.15 1.04.4 1.34.71.3.32.46.76.46 1.34zm123 0a2.2 2.2 0 0 1-.83 1.7c-.29.22-.62.4-1 .53s-.84.2-1.38.2a6.86 6.86 0 0 1-2.96-.64v-1.34h.08a4.6 4.6 0 0 0 2.9 1.05 2.8 2.8 0 0 0 1.53-.36c.37-.25.55-.58.55-1 0-.35-.09-.6-.26-.78a1.8 1.8 0 0 0-.8-.39 7.9 7.9 0 0 0-.87-.18c-.3-.04-.64-.1-1-.17a2.97 2.97 0 0 1-1.57-.77 1.99 1.99 0 0 1-.51-1.42c0-.67.28-1.22.85-1.65a3.47 3.47 0 0 1 2.15-.64 6.93 6.93 0 0 1 2.8.56v1.25h-.08a4.66 4.66 0 0 0-2.72-.9 2.4 2.4 0 0 0-1.38.36c-.34.24-.52.54-.52.91 0 .34.1.6.26.79.17.19.48.33.91.43l.98.19c.42.07.78.14 1.07.22.6.15 1.04.4 1.34.71.3.32.46.76.46 1.34zm41 0a2.2 2.2 0 0 1-.83 1.7c-.29.22-.62.4-1 .53s-.84.2-1.38.2a6.86 6.86 0 0 1-2.96-.64v-1.34h.08a4.6 4.6 0 0 0 2.9 1.05 2.8 2.8 0 0 0 1.53-.36c.37-.25.55-.58.55-1 0-.35-.09-.6-.26-.78a1.8 1.8 0 0 0-.8-.39 7.9 7.9 0 0 0-.87-.18c-.3-.04-.64-.1-1-.17a2.97 2.97 0 0 1-1.57-.77 1.99 1.99 0 0 1-.51-1.42c0-.67.28-1.22.85-1.65a3.47 3.47 0 0 1 2.15-.64 6.93 6.93 0 0 1 2.8.56v1.25h-.08a4.66 4.66 0 0 0-2.72-.9 2.4 2.4 0 0 0-1.38.36c-.34.24-.52.54-.52.91 0 .34.1.6.26.79.17.19.48.33.91.43l.98.19c.42.07.78.14 1.07.22.6.15 1.04.4 1.34.71.3.32.46.76.46 1.34zm40.93 2.28H227v-3.92h-4V296h-1.06v-8H223v3.14h4V288h1.06zm-122.93 38.72a2.2 2.2 0 0 1-.83 1.7c-.29.22-.62.4-1 .53s-.84.2-1.38.2a6.86 6.86 0 0 1-2.96-.64v-1.34h.08a4.6 4.6 0 0 0 2.9 1.05 2.8 2.8 0 0 0 1.53-.36c.37-.25.55-.58.55-1 0-.35-.09-.6-.26-.78a1.8 1.8 0 0 0-.8-.39 7.9 7.9 0 0 0-.87-.18c-.3-.04-.64-.1-1-.17a2.97 2.97 0 0 1-1.57-.77 1.99 1.99 0 0 1-.51-1.42c0-.67.28-1.22.85-1.65a3.47 3.47 0 0 1 2.15-.64 6.93 6.93 0 0 1 2.8.56v1.25h-.08a4.66 4.66 0 0 0-2.72-.9 2.4 2.4 0 0 0-1.38.36c-.34.24-.52.54-.52.91 0 .34.1.6.26.79.17.19.48.33.91.43l.98.19c.42.07.78.14 1.07.22.6.15 1.04.4 1.34.71.3.32.46.76.46 1.34zm-41 0a2.2 2.2 0 0 1-.83 1.7c-.29.22-.62.4-1 .53s-.84.2-1.38.2a6.86 6.86 0 0 1-2.96-.64v-1.34h.08a4.6 4.6 0 0 0 2.9 1.05 2.8 2.8 0 0 0 1.53-.36c.37-.25.55-.58.55-1 0-.35-.09-.6-.26-.78a1.8 1.8 0 0 0-.8-.39 7.9 7.9 0 0 0-.87-.18c-.3-.04-.64-.1-1-.17a2.97 2.97 0 0 1-1.57-.77 1.99 1.99 0 0 1-.51-1.42c0-.67.28-1.22.85-1.65a3.47 3.47 0 0 1 2.15-.64 6.93 6.93 0 0 1 2.8.56v1.25h-.08a4.66 4.66 0 0 0-2.72-.9 2.4 2.4 0 0 0-1.38.36c-.34.24-.52.54-.52.91 0 .34.1.6.26.79.17.19.48.33.91.43l.98.19c.42.07.78.14 1.07.22.6.15 1.04.4 1.34.71.3.32.46.76.46 1.34zm-41 0a2.2 2.2 0 0 1-.83 1.7c-.29.22-.62.4-1 .53s-.84.2-1.38.2a6.86 6.86 0 0 1-2.96-.64v-1.34h.08a4.6 4.6 0 0 0 2.9 1.05 2.8 2.8 0 0 0 1.53-.36c.37-.25.55-.58.55-1 0-.35-.09-.6-.26-.78a1.8 1.8 0 0 0-.8-.39 7.9 7.9 0 0 0-.87-.18c-.3-.04-.64-.1-1-.17a2.97 2.97 0 0 1-1.57-.77 1.99 1.99 0 0 1-.51-1.42c0-.67.28-1.22.85-1.65a3.47 3.47 0 0 1 2.15-.64 6.93 6.93 0 0 1 2.8.56v1.25h-.08a4.66 4.66 0 0 0-2.72-.9 2.4 2.4 0 0 0-1.38.36c-.34.24-.52.54-.52.91 0 .34.1.6.26.79.17.19.48.33.91.43l.98.19c.42.07.78.14 1.07.22.6.15 1.04.4 1.34.71.3.32.46.76.46 1.34zm123 0a2.2 2.2 0 0 1-.83 1.7c-.29.22-.62.4-1 .53s-.84.2-1.38.2a6.86 6.86 0 0 1-2.96-.64v-1.34h.08a4.6 4.6 0 0 0 2.9 1.05 2.8 2.8 0 0 0 1.53-.36c.37-.25.55-.58.55-1 0-.35-.09-.6-.26-.78a1.8 1.8 0 0 0-.8-.39 7.9 7.9 0 0 0-.87-.18c-.3-.04-.64-.1-1-.17a2.97 2.97 0 0 1-1.57-.77 1.99 1.99 0 0 1-.51-1.42c0-.67.28-1.22.85-1.65a3.47 3.47 0 0 1 2.15-.64 6.93 6.93 0 0 1 2.8.56v1.25h-.08a4.66 4.66 0 0 0-2.72-.9 2.4 2.4 0 0 0-1.38.36c-.34.24-.52.54-.52.91 0 .34.1.6.26.79.17.19.48.33.91.43l.98.19c.42.07.78.14 1.07.22.6.15 1.04.4 1.34.71.3.32.46.76.46 1.34zm41 0a2.2 2.2 0 0 1-.83 1.7c-.29.22-.62.4-1 .53s-.84.2-1.38.2a6.86 6.86 0 0 1-2.96-.64v-1.34h.08a4.6 4.6 0 0 0 2.9 1.05 2.8 2.8 0 0 0 1.53-.36c.37-.25.55-.58.55-1 0-.35-.09-.6-.26-.78a1.8 1.8 0 0 0-.8-.39 7.9 7.9 0 0 0-.87-.18c-.3-.04-.64-.1-1-.17a2.97 2.97 0 0 1-1.57-.77 1.99 1.99 0 0 1-.51-1.42c0-.67.28-1.22.85-1.65a3.47 3.47 0 0 1 2.15-.64 6.93 6.93 0 0 1 2.8.56v1.25h-.08a4.66 4.66 0 0 0-2.72-.9 2.4 2.4 0 0 0-1.38.36c-.34.24-.52.54-.52.91 0 .34.1.6.26.79.17.19.48.33.91.43l.98.19c.42.07.78.14 1.07.22.6.15 1.04.4 1.34.71.3.32.46.76.46 1.34zm40.93 2.28H227v-3.92h-4V337h-1.06v-8H223v3.14h4V329h1.06zm-122.93 38.72a2.2 2.2 0 0 1-.83 1.7c-.29.22-.62.4-1 .53s-.84.2-1.38.2a6.86 6.86 0 0 1-2.96-.64v-1.34h.08a4.6 4.6 0 0 0 2.9 1.05 2.8 2.8 0 0 0 1.53-.36c.37-.25.55-.58.55-1 0-.35-.09-.6-.26-.78a1.8 1.8 0 0 0-.8-.39 7.9 7.9 0 0 0-.87-.18c-.3-.04-.64-.1-1-.17a2.97 2.97 0 0 1-1.57-.77 1.99 1.99 0 0 1-.51-1.42c0-.67.28-1.22.85-1.65a3.47 3.47 0 0 1 2.15-.64 6.93 6.93 0 0 1 2.8.56v1.25h-.08a4.66 4.66 0 0 0-2.72-.9 2.4 2.4 0 0 0-1.38.36c-.34.24-.52.54-.52.91 0 .34.1.6.26.79.17.19.48.33.91.43l.98.19c.42.07.78.14 1.07.22.6.15 1.04.4 1.34.71.3.32.46.76.46 1.34zm-41 0a2.2 2.2 0 0 1-.83 1.7c-.29.22-.62.4-1 .53s-.84.2-1.38.2a6.86 6.86 0 0 1-2.96-.64v-1.34h.08a4.6 4.6 0 0 0 2.9 1.05 2.8 2.8 0 0 0 1.53-.36c.37-.25.55-.58.55-1 0-.35-.09-.6-.26-.78a1.8 1.8 0 0 0-.8-.39 7.9 7.9 0 0 0-.87-.18c-.3-.04-.64-.1-1-.17a2.97 2.97 0 0 1-1.57-.77 1.99 1.99 0 0 1-.51-1.42c0-.67.28-1.22.85-1.65a3.47 3.47 0 0 1 2.15-.64 6.93 6.93 0 0 1 2.8.56v1.25h-.08a4.66 4.66 0 0 0-2.72-.9 2.4 2.4 0 0 0-1.38.36c-.34.24-.52.54-.52.91 0 .34.1.6.26.79.17.19.48.33.91.43l.98.19c.42.07.78.14 1.07.22.6.15 1.04.4 1.34.71.3.32.46.76.46 1.34zm-41 0a2.2 2.2 0 0 1-.83 1.7c-.29.22-.62.4-1 .53s-.84.2-1.38.2a6.86 6.86 0 0 1-2.96-.64v-1.34h.08a4.6 4.6 0 0 0 2.9 1.05 2.8 2.8 0 0 0 1.53-.36c.37-.25.55-.58.55-1 0-.35-.09-.6-.26-.78a1.8 1.8 0 0 0-.8-.39 7.9 7.9 0 0 0-.87-.18c-.3-.04-.64-.1-1-.17a2.97 2.97 0 0 1-1.57-.77 1.99 1.99 0 0 1-.51-1.42c0-.67.28-1.22.85-1.65a3.47 3.47 0 0 1 2.15-.64 6.93 6.93 0 0 1 2.8.56v1.25h-.08a4.66 4.66 0 0 0-2.72-.9 2.4 2.4 0 0 0-1.38.36c-.34.24-.52.54-.52.91 0 .34.1.6.26.79.17.19.48.33.91.43l.98.19c.42.07.78.14 1.07.22.6.15 1.04.4 1.34.71.3.32.46.76.46 1.34zm123 0a2.2 2.2 0 0 1-.83 1.7c-.29.22-.62.4-1 .53s-.84.2-1.38.2a6.86 6.86 0 0 1-2.96-.64v-1.34h.08a4.6 4.6 0 0 0 2.9 1.05 2.8 2.8 0 0 0 1.53-.36c.37-.25.55-.58.55-1 0-.35-.09-.6-.26-.78a1.8 1.8 0 0 0-.8-.39 7.9 7.9 0 0 0-.87-.18c-.3-.04-.64-.1-1-.17a2.97 2.97 0 0 1-1.57-.77 1.99 1.99 0 0 1-.51-1.42c0-.67.28-1.22.85-1.65a3.47 3.47 0 0 1 2.15-.64 6.93 6.93 0 0 1 2.8.56v1.25h-.08a4.66 4.66 0 0 0-2.72-.9 2.4 2.4 0 0 0-1.38.36c-.34.24-.52.54-.52.91 0 .34.1.6.26.79.17.19.48.33.91.43l.98.19c.42.07.78.14 1.07.22.6.15 1.04.4 1.34.71.3.32.46.76.46 1.34zm41 0a2.2 2.2 0 0 1-.83 1.7c-.29.22-.62.4-1 .53s-.84.2-1.38.2a6.86 6.86 0 0 1-2.96-.64v-1.34h.08a4.6 4.6 0 0 0 2.9 1.05 2.8 2.8 0 0 0 1.53-.36c.37-.25.55-.58.55-1 0-.35-.09-.6-.26-.78a1.8 1.8 0 0 0-.8-.39 7.9 7.9 0 0 0-.87-.18c-.3-.04-.64-.1-1-.17a2.97 2.97 0 0 1-1.57-.77 1.99 1.99 0 0 1-.51-1.42c0-.67.28-1.22.85-1.65a3.47 3.47 0 0 1 2.15-.64 6.93 6.93 0 0 1 2.8.56v1.25h-.08a4.66 4.66 0 0 0-2.72-.9 2.4 2.4 0 0 0-1.38.36c-.34.24-.52.54-.52.91 0 .34.1.6.26.79.17.19.48.33.91.43l.98.19c.42.07.78.14 1.07.22.6.15 1.04.4 1.34.71.3.32.46.76.46 1.34zm40.93 2.28H227v-3.92h-4V378h-1.06v-8H223v3.14h4V370h1.06zm-122.93 38.72a2.2 2.2 0 0 1-.83 1.7c-.29.22-.62.4-1 .53s-.84.2-1.38.2a6.86 6.86 0 0 1-2.96-.64v-1.34h.08a4.6 4.6 0 0 0 2.9 1.05 2.8 2.8 0 0 0 1.53-.36c.37-.25.55-.58.55-1 0-.35-.09-.6-.26-.78a1.8 1.8 0 0 0-.8-.39 7.9 7.9 0 0 0-.87-.18c-.3-.04-.64-.1-1-.17a2.97 2.97 0 0 1-1.57-.77 1.99 1.99 0 0 1-.51-1.42c0-.67.28-1.22.85-1.65a3.47 3.47 0 0 1 2.15-.64 6.93 6.93 0 0 1 2.8.56v1.25h-.08a4.66 4.66 0 0 0-2.72-.9 2.4 2.4 0 0 0-1.38.36c-.34.24-.52.54-.52.91 0 .34.1.6.26.79.17.19.48.33.91.43l.98.19c.42.07.78.14 1.07.22.6.15 1.04.4 1.34.71.3.32.46.76.46 1.34zm-41 0a2.2 2.2 0 0 1-.83 1.7c-.29.22-.62.4-1 .53s-.84.2-1.38.2a6.86 6.86 0 0 1-2.96-.64v-1.34h.08a4.6 4.6 0 0 0 2.9 1.05 2.8 2.8 0 0 0 1.53-.36c.37-.25.55-.58.55-1 0-.35-.09-.6-.26-.78a1.8 1.8 0 0 0-.8-.39 7.9 7.9 0 0 0-.87-.18c-.3-.04-.64-.1-1-.17a2.97 2.97 0 0 1-1.57-.77 1.99 1.99 0 0 1-.51-1.42c0-.67.28-1.22.85-1.65a3.47 3.47 0 0 1 2.15-.64 6.93 6.93 0 0 1 2.8.56v1.25h-.08a4.66 4.66 0 0 0-2.72-.9 2.4 2.4 0 0 0-1.38.36c-.34.24-.52.54-.52.91 0 .34.1.6.26.79.17.19.48.33.91.43l.98.19c.42.07.78.14 1.07.22.6.15 1.04.4 1.34.71.3.32.46.76.46 1.34zm-41 0a2.2 2.2 0 0 1-.83 1.7c-.29.22-.62.4-1 .53s-.84.2-1.38.2a6.86 6.86 0 0 1-2.96-.64v-1.34h.08a4.6 4.6 0 0 0 2.9 1.05 2.8 2.8 0 0 0 1.53-.36c.37-.25.55-.58.55-1 0-.35-.09-.6-.26-.78a1.8 1.8 0 0 0-.8-.39 7.9 7.9 0 0 0-.87-.18c-.3-.04-.64-.1-1-.17a2.97 2.97 0 0 1-1.57-.77 1.99 1.99 0 0 1-.51-1.42c0-.67.28-1.22.85-1.65a3.47 3.47 0 0 1 2.15-.64 6.93 6.93 0 0 1 2.8.56v1.25h-.08a4.66 4.66 0 0 0-2.72-.9 2.4 2.4 0 0 0-1.38.36c-.34.24-.52.54-.52.91 0 .34.1.6.26.79.17.19.48.33.91.43l.98.19c.42.07.78.14 1.07.22.6.15 1.04.4 1.34.71.3.32.46.76.46 1.34zm123 0a2.2 2.2 0 0 1-.83 1.7c-.29.22-.62.4-1 .53s-.84.2-1.38.2a6.86 6.86 0 0 1-2.96-.64v-1.34h.08a4.6 4.6 0 0 0 2.9 1.05 2.8 2.8 0 0 0 1.53-.36c.37-.25.55-.58.55-1 0-.35-.09-.6-.26-.78a1.8 1.8 0 0 0-.8-.39 7.9 7.9 0 0 0-.87-.18c-.3-.04-.64-.1-1-.17a2.97 2.97 0 0 1-1.57-.77 1.99 1.99 0 0 1-.51-1.42c0-.67.28-1.22.85-1.65a3.47 3.47 0 0 1 2.15-.64 6.93 6.93 0 0 1 2.8.56v1.25h-.08a4.66 4.66 0 0 0-2.72-.9 2.4 2.4 0 0 0-1.38.36c-.34.24-.52.54-.52.91 0 .34.1.6.26.79.17.19.48.33.91.43l.98.19c.42.07.78.14 1.07.22.6.15 1.04.4 1.34.71.3.32.46.76.46 1.34zm41 0a2.2 2.2 0 0 1-.83 1.7c-.29.22-.62.4-1 .53s-.84.2-1.38.2a6.86 6.86 0 0 1-2.96-.64v-1.34h.08a4.6 4.6 0 0 0 2.9 1.05 2.8 2.8 0 0 0 1.53-.36c.37-.25.55-.58.55-1 0-.35-.09-.6-.26-.78a1.8 1.8 0 0 0-.8-.39 7.9 7.9 0 0 0-.87-.18c-.3-.04-.64-.1-1-.17a2.97 2.97 0 0 1-1.57-.77 1.99 1.99 0 0 1-.51-1.42c0-.67.28-1.22.85-1.65a3.47 3.47 0 0 1 2.15-.64 6.93 6.93 0 0 1 2.8.56v1.25h-.08a4.66 4.66 0 0 0-2.72-.9 2.4 2.4 0 0 0-1.38.36c-.34.24-.52.54-.52.91 0 .34.1.6.26.79.17.19.48.33.91.43l.98.19c.42.07.78.14 1.07.22.6.15 1.04.4 1.34.71.3.32.46.76.46 1.34zm41 0a2.2 2.2 0 0 1-.83 1.7c-.29.22-.62.4-1 .53s-.84.2-1.38.2a6.86 6.86 0 0 1-2.96-.64v-1.34h.08a4.6 4.6 0 0 0 2.9 1.05 2.8 2.8 0 0 0 1.53-.36c.37-.25.55-.58.55-1 0-.35-.09-.6-.26-.78a1.8 1.8 0 0 0-.8-.39 7.9 7.9 0 0 0-.87-.18c-.3-.04-.64-.1-1-.17a2.97 2.97 0 0 1-1.57-.77 1.99 1.99 0 0 1-.51-1.42c0-.67.28-1.22.85-1.65a3.47 3.47 0 0 1 2.15-.64 6.93 6.93 0 0 1 2.8.56v1.25h-.08a4.66 4.66 0 0 0-2.72-.9 2.4 2.4 0 0 0-1.38.36c-.34.24-.52.54-.52.91 0 .34.1.6.26.79.17.19.48.33.91.43l.98.19c.42.07.78.14 1.07.22.6.15 1.04.4 1.34.71.3.32.46.76.46 1.34zm40 0a2.2 2.2 0 0 1-.83 1.7c-.29.22-.62.4-1 .53s-.84.2-1.38.2a6.86 6.86 0 0 1-2.96-.64v-1.34h.08a4.6 4.6 0 0 0 2.9 1.05 2.8 2.8 0 0 0 1.53-.36c.37-.25.55-.58.55-1 0-.35-.09-.6-.26-.78a1.8 1.8 0 0 0-.8-.39 7.9 7.9 0 0 0-.87-.18c-.3-.04-.64-.1-1-.17a2.97 2.97 0 0 1-1.57-.77 1.99 1.99 0 0 1-.51-1.42c0-.67.28-1.22.85-1.65a3.47 3.47 0 0 1 2.15-.64 6.93 6.93 0 0 1 2.8.56v1.25h-.08a4.66 4.66 0 0 0-2.72-.9 2.4 2.4 0 0 0-1.38.36c-.34.24-.52.54-.52.91 0 .34.1.6.26.79.17.19.48.33.91.43l.98.19c.42.07.78.14 1.07.22.6.15 1.04.4 1.34.71.3.32.46.76.46 1.34z"/>
    <path fill="#666" d="M287 27h40v40h-40zm0 41h40v40h-40z"/>
    <path fill="#555" d="M287 109h40v40h-40zm0 41h40v40h-40z"/>
    <path fill="#666" d="M287 191h40v40h-40zm0 41h40v40h-40zm0 41h40v40h-40zm0 41h40v40h-40zm0 41h40v40h-40z"/>
    <path fill="#444" d="M287 396h40v40h-40z"/>
    <path fill="#00FFF2" d="M310.06 51H309v-3.92h-4V51h-1.06v-8H305v3.14h4V43h1.06zm0 41H309v-3.92h-4V92h-1.06v-8H305v3.14h4V84h1.06zm-3.7 37c0 .74-.16 1.4-.48 1.99a3.55 3.55 0 0 1-2.49 1.86c-.45.1-1.04.15-1.77.15h-2.02v-8h2c.78 0 1.4.06 1.86.17a3.57 3.57 0 0 1 2.44 1.82c.3.57.46 1.24.46 2.02zm-1.12 0c0-.63-.1-1.16-.32-1.6a2.4 2.4 0 0 0-.98-1 3.13 3.13 0 0 0-1-.38c-.36-.07-.78-.1-1.28-.1h-1v6.17h1a7 7 0 0 0 1.34-.12 3 3 0 0 0 1.05-.41c.4-.26.7-.6.9-1 .2-.42.3-.94.3-1.57zm9.6 0c0 .74-.17 1.4-.48 1.99a3.55 3.55 0 0 1-2.5 1.86c-.44.1-1.03.15-1.77.15h-2.02v-8h2c.78 0 1.4.06 1.86.17a3.57 3.57 0 0 1 2.44 1.82c.3.57.46 1.24.46 2.02zm-1.12 0c0-.63-.11-1.16-.33-1.6a2.4 2.4 0 0 0-.98-1c-.31-.19-.65-.31-1-.38s-.78-.1-1.27-.1h-1v6.17h1a7 7 0 0 0 1.34-.12 3 3 0 0 0 1.05-.41c.4-.26.7-.6.9-1 .19-.42.29-.94.29-1.57zm-7.36 40c0 .74-.16 1.4-.48 1.99a3.55 3.55 0 0 1-2.49 1.86c-.45.1-1.04.15-1.77.15h-2.02v-8h2c.78 0 1.4.06 1.86.17a3.57 3.57 0 0 1 2.44 1.82c.3.57.46 1.24.46 2.02zm-1.12 0c0-.63-.1-1.16-.32-1.6a2.4 2.4 0 0 0-.98-1 3.13 3.13 0 0 0-1-.38c-.36-.07-.78-.1-1.28-.1h-1v6.17h1a7 7 0 0 0 1.34-.12 3 3 0 0 0 1.05-.41c.4-.26.7-.6.9-1 .2-.42.3-.94.3-1.57zm9.6 0c0 .74-.17 1.4-.48 1.99a3.55 3.55 0 0 1-2.5 1.86c-.44.1-1.03.15-1.77.15h-2.02v-8h2c.78 0 1.4.06 1.86.17a3.57 3.57 0 0 1 2.44 1.82c.3.57.46 1.24.46 2.02zm-1.12 0c0-.63-.11-1.16-.33-1.6a2.4 2.4 0 0 0-.98-1c-.31-.19-.65-.31-1-.38s-.78-.1-1.27-.1h-1v6.17h1a7 7 0 0 0 1.34-.12 3 3 0 0 0 1.05-.41c.4-.26.7-.6.9-1 .19-.42.29-.94.29-1.57zm-3.66 46H309v-3.92h-4V215h-1.06v-8H305v3.14h4V207h1.06zm0 40H309v-3.92h-4V255h-1.06v-8H305v3.14h4V247h1.06zm0 41H309v-3.92h-4V296h-1.06v-8H305v3.14h4V288h1.06zm0 41H309v-3.92h-4V337h-1.06v-8H305v3.14h4V329h1.06zm0 41H309v-3.92h-4V378h-1.06v-8H305v3.14h4V370h1.06zm-.93 38.72a2.2 2.2 0 0 1-.83 1.7c-.29.22-.62.4-1 .53s-.84.2-1.38.2a6.86 6.86 0 0 1-2.96-.64v-1.34h.08a4.6 4.6 0 0 0 2.9 1.05 2.8 2.8 0 0 0 1.53-.36c.37-.25.55-.58.55-1 0-.35-.09-.6-.26-.78a1.8 1.8 0 0 0-.8-.39 7.9 7.9 0 0 0-.87-.18c-.3-.04-.64-.1-1-.17a2.97 2.97 0 0 1-1.57-.77 1.99 1.99 0 0 1-.51-1.42c0-.67.28-1.22.85-1.65a3.47 3.47 0 0 1 2.15-.64 6.93 6.93 0 0 1 2.8.56v1.25h-.08a4.66 4.66 0 0 0-2.72-.9 2.4 2.4 0 0 0-1.38.36c-.34.24-.52.54-.52.91 0 .34.1.6.26.79.17.19.48.33.91.43l.98.19c.42.07.78.14 1.07.22.6.15 1.04.4 1.34.71.3.32.46.76.46 1.34z"/>
    <path d="M310.28 4.7c0 .83-.1 1.58-.29 2.25a4.75 4.75 0 0 1-.85 1.72 3.8 3.8 0 0 1-1.45 1.12 4.92 4.92 0 0 1-3.18.25V8.83h.06a3.04 3.04 0 0 0 1.27.27 2.9 2.9 0 0 0 2.2-.85 3.7 3.7 0 0 0 .92-2.32 4.03 4.03 0 0 1-2.25.66 4.5 4.5 0 0 1-1.05-.11 2.85 2.85 0 0 1-1.8-1.43c-.18-.4-.28-.88-.28-1.43a3.2 3.2 0 0 1 3.28-3.26c.46 0 .88.07 1.27.21.39.14.73.35 1.02.64.36.35.64.8.83 1.35.2.56.3 1.27.3 2.15zm-1.29-.27c0-.65-.06-1.18-.2-1.58a2.2 2.2 0 0 0-.56-.92c-.2-.2-.41-.33-.64-.41a2.17 2.17 0 0 0-.74-.13c-.61 0-1.1.2-1.45.57a2.3 2.3 0 0 0-.53 1.61c0 .4.06.73.17.98a1.67 1.67 0 0 0 1.21.93 4 4 0 0 0 2.72-.45 10.37 10.37 0 0 1 .02-.6z" fill="#E4E4E4"/>
    <path fill="#666" d="M328 27h40v40h-40zm0 41h40v40h-40zm0 41h40v40h-40z"/>
    <path fill="#555" d="M328 150h40v40h-40z"/>
    <path fill="#666" d="M328 191h40v40h-40zm0 41h40v40h-40zm0 41h40v40h-40zm0 41h40v40h-40z"/>
    <path fill="#999" d="M328 355h40v40h-40z"/>
    <path fill="#444" d="M328 396h40v40h-40z"/>
    <path fill="#00FFF2" d="M351.06 51H350v-3.92h-4V51h-1.06v-8H346v3.14h4V43h1.06zm0 41H350v-3.92h-4V92h-1.06v-8H346v3.14h4V84h1.06zm0 41H350v-3.92h-4V133h-1.06v-8H346v3.14h4V125h1.06zm-3.7 36c0 .74-.16 1.4-.48 1.99a3.55 3.55 0 0 1-2.49 1.86c-.45.1-1.04.15-1.77.15h-2.02v-8h2c.78 0 1.4.06 1.86.17a3.57 3.57 0 0 1 2.44 1.82c.3.57.46 1.24.46 2.02zm-1.12 0c0-.63-.1-1.16-.32-1.6a2.4 2.4 0 0 0-.98-1 3.13 3.13 0 0 0-1-.38c-.36-.07-.78-.1-1.28-.1h-1v6.17h1a7 7 0 0 0 1.34-.12 3 3 0 0 0 1.05-.41c.4-.26.7-.6.9-1 .2-.42.3-.94.3-1.57zm9.6 0c0 .74-.17 1.4-.48 1.99a3.55 3.55 0 0 1-2.5 1.86c-.44.1-1.03.15-1.77.15h-2.02v-8h2c.78 0 1.4.06 1.86.17a3.57 3.57 0 0 1 2.44 1.82c.3.57.46 1.24.46 2.02zm-1.12 0c0-.63-.11-1.16-.33-1.6a2.4 2.4 0 0 0-.98-1c-.31-.19-.65-.31-1-.38s-.78-.1-1.27-.1h-1v6.17h1a7 7 0 0 0 1.34-.12 3 3 0 0 0 1.05-.41c.4-.26.7-.6.9-1 .19-.42.29-.94.29-1.57zm-3.66 46H350v-3.92h-4V215h-1.06v-8H346v3.14h4V207h1.06zm0 40H350v-3.92h-4V255h-1.06v-8H346v3.14h4V247h1.06zm0 41H350v-3.92h-4V296h-1.06v-8H346v3.14h4V288h1.06zm0 41H350v-3.92h-4V337h-1.06v-8H346v3.14h4V329h1.06z"/>
    <path fill="#333" d="M351.06 378H350v-3.92h-4V378h-1.06v-8H346v3.14h4V370h1.06z"/>
    <path d="M350.13 416.72a2.2 2.2 0 0 1-.83 1.7c-.29.22-.62.4-1 .53s-.84.2-1.38.2a6.86 6.86 0 0 1-2.96-.64v-1.34h.08a4.6 4.6 0 0 0 2.9 1.05 2.8 2.8 0 0 0 1.53-.36c.37-.25.55-.58.55-1 0-.35-.09-.6-.26-.78a1.8 1.8 0 0 0-.8-.39 7.9 7.9 0 0 0-.87-.18c-.3-.04-.64-.1-1-.17a2.97 2.97 0 0 1-1.57-.77 1.99 1.99 0 0 1-.51-1.42c0-.67.28-1.22.85-1.65a3.47 3.47 0 0 1 2.15-.64 6.93 6.93 0 0 1 2.8.56v1.25h-.08a4.66 4.66 0 0 0-2.72-.9 2.4 2.4 0 0 0-1.38.36c-.34.24-.52.54-.52.91 0 .34.1.6.26.79.17.19.48.33.91.43l.98.19c.42.07.78.14 1.07.22.6.15 1.04.4 1.34.71.3.32.46.76.46 1.34z" fill="#00FFF2"/>
    <path d="M346.62 10h-5.12v-.96h1.97V2.7h-1.97v-.86c.27 0 .55-.03.86-.07.3-.04.53-.1.69-.2.2-.1.35-.23.46-.4.11-.16.18-.38.2-.65h.98v8.52h1.93V10zm8.79-4.73c0 1.7-.27 2.94-.8 3.74-.53.79-1.35 1.19-2.47 1.19-1.14 0-1.96-.4-2.49-1.2-.52-.81-.78-2.05-.78-3.72 0-1.68.26-2.92.8-3.72.52-.8 1.35-1.2 2.47-1.2 1.13 0 1.96.4 2.48 1.22.53.81.79 2.04.79 3.7zm-1.67 2.88c.15-.34.25-.74.3-1.2a15.35 15.35 0 0 0 0-3.35 3.92 3.92 0 0 0-.3-1.21 1.67 1.67 0 0 0-.61-.74 1.8 1.8 0 0 0-1-.24c-.39 0-.72.08-.98.24a1.8 1.8 0 0 0-.62.75c-.14.32-.24.72-.3 1.23a15.93 15.93 0 0 0 0 3.31c.04.44.14.84.3 1.2.14.32.33.58.59.75.26.17.6.26 1.02.26.4 0 .73-.08.99-.25.26-.16.46-.41.6-.75z" fill="#E4E4E4"/>
    <path fill="#666" d="M369 27h40v40h-40zm0 41h40v40h-40zm0 41h40v40h-40zm0 41h40v40h-40zm0 41h40v40h-40zm0 41h40v40h-40zm0 41h40v40h-40zm0 41h40v40h-40zm0 41h40v40h-40z"/>
    <path fill="#444" d="M369 396h40v40h-40z"/>
    <path fill="#00FFF2" d="M392.06 51H391v-3.92h-4V51h-1.06v-8H387v3.14h4V43h1.06zm0 41H391v-3.92h-4V92h-1.06v-8H387v3.14h4V84h1.06zm0 41H391v-3.92h-4V133h-1.06v-8H387v3.14h4V125h1.06zm0 40H391v-3.92h-4V173h-1.06v-8H387v3.14h4V165h1.06zm0 42H391v-3.92h-4V215h-1.06v-8H387v3.14h4V207h1.06zm0 40H391v-3.92h-4V255h-1.06v-8H387v3.14h4V247h1.06zm0 41H391v-3.92h-4V296h-1.06v-8H387v3.14h4V288h1.06zm0 41H391v-3.92h-4V337h-1.06v-8H387v3.14h4V329h1.06zm0 41H391v-3.92h-4V378h-1.06v-8H387v3.14h4V370h1.06zm-.93 38.72a2.2 2.2 0 0 1-.83 1.7c-.29.22-.62.4-1 .53s-.84.2-1.38.2a6.86 6.86 0 0 1-2.96-.64v-1.34h.08a4.6 4.6 0 0 0 2.9 1.05 2.8 2.8 0 0 0 1.53-.36c.37-.25.55-.58.55-1 0-.35-.09-.6-.26-.78a1.8 1.8 0 0 0-.8-.39 7.9 7.9 0 0 0-.87-.18c-.3-.04-.64-.1-1-.17a2.97 2.97 0 0 1-1.57-.77 1.99 1.99 0 0 1-.51-1.42c0-.67.28-1.22.85-1.65a3.47 3.47 0 0 1 2.15-.64 6.93 6.93 0 0 1 2.8.56v1.25h-.08a4.66 4.66 0 0 0-2.72-.9 2.4 2.4 0 0 0-1.38.36c-.34.24-.52.54-.52.91 0 .34.1.6.26.79.17.19.48.33.91.43l.98.19c.42.07.78.14 1.07.22.6.15 1.04.4 1.34.71.3.32.46.76.46 1.34z"/>
    <path d="M393.28 10h-1.34L391 7.37h-4.09L386 10h-1.28l3.44-9.45h1.68l3.44 9.45zm-2.65-3.71l-1.66-4.64-1.66 4.64h3.31z" fill="#E4E4E4"/>
  </g>
</svg>
