<svg width="540" height="320" viewBox="0 0 540 320" xmlns="http://www.w3.org/2000/svg"><g fill="none" fill-rule="evenodd"><path fill="#444" d="M213.34 245.831l29.26 18.88-29.26 18.878-29.262-18.879z"/><path fill="#666" d="M285.996 246.116l29.262 18.88-29.262 18.878-29.26-18.879z"/><path fill="#666" fill-rule="nonzero" d="M107.736 234.735h1v61h-1zM249 235h1v60h-1zm144 0h1v59.932h-1zM36 58v-1h464v1zm0 59v-1h464.336v1z"/><path fill="#666" fill-rule="nonzero" d="M35.5 235.5v-1h428v1z"/><path d="M77.14 196.255H74l1.113-1.97h4.167v19.036h-2.14v-17.066zm17.123 7.106l-1.684.885c-.428-.8-.942-1.17-1.655-1.17-.77 0-1.427.599-1.427 1.312 0 .685.4 1.056 1.912 1.684 1.341.57 1.712.742 2.255 1.142.856.628 1.312 1.512 1.312 2.597 0 2.169-1.77 3.853-4.052 3.853-1.97 0-3.368-1.028-4.138-3.026l1.798-.742c.656 1.427 1.284 1.912 2.368 1.912 1.113 0 1.941-.799 1.941-1.883 0-.885-.428-1.313-1.912-1.94-2.74-1.17-3.425-1.884-3.425-3.454 0-1.884 1.484-3.31 3.453-3.31 1.456 0 2.512.684 3.254 2.14zm5.48 0v9.96h-2.027v-9.96H96.49v-1.884h1.227v-4.28h2.026v4.28h2.084v1.884h-2.084zm16.809-7.106h-3.14l1.114-1.97h4.166v19.036h-2.14v-17.066zm14.384 15.097h7.962v1.97h-12.272l6.907-8.02c2.54-2.94 3.31-4.253 3.31-5.708 0-2.027-1.683-3.653-3.824-3.653-1.284 0-2.54.656-3.168 1.655-.37.6-.542 1.113-.628 2.255h-2.14c.171-1.627.371-2.37.97-3.282 1.028-1.599 2.911-2.569 4.938-2.569 3.339 0 5.936 2.483 5.936 5.65 0 2.084-.742 3.397-4.11 7.25l-3.881 4.452zm-59.494 60.92v1.726l-1.083-.612v-2.292h10.47v1.178h-9.387zm5.54-4.578v-2.841h1.005v2.841h-1.005zm-5.54-6.807v1.727l-1.083-.612v-2.292h10.47v1.177h-9.387zm3.94-6.272c-.487.816-1.335 1.287-2.308 1.287-1.632 0-2.872-1.272-2.872-2.936 0-1.68 1.24-2.935 2.872-2.935.942 0 1.852.518 2.307 1.319.471-.958 1.397-1.523 2.528-1.523 1.773 0 3.092 1.35 3.092 3.14 0 1.82-1.319 3.202-3.061 3.202-1.162 0-2.025-.518-2.559-1.554zm-4.113-1.649c0 .99.816 1.821 1.79 1.821 1.035 0 1.852-.816 1.852-1.82a1.822 1.822 0 0 0-3.642 0zm4.63.032c0 1.099.91 2.025 1.978 2.025 1.13 0 2.04-.895 2.04-2.025 0-1.115-.91-2.025-2.008-2.025-1.115 0-2.01.91-2.01 2.025zm64.419 21.727v4.238h3.123v-4.128h1.084v4.128h4.096v-4.238h1.083v5.416h-10.47v-5.416h1.084zm-1.083-2.755l7.974-2.967-7.974-2.966v-1.272l11.082 4.254-11.082 4.238v-1.287zm1.083-14.654v4.239h3.123v-4.129h1.084v4.129h4.096v-4.239h1.083v5.416h-10.47v-5.416h1.084zm9.386-2.724h-10.909l8.555-8.146h-8.115v-1.177h10.94l-8.539 8.146h8.068v1.177zm203.483 19.249c0-2.966 2.448-5.43 5.415-5.43 2.998 0 5.415 2.464 5.415 5.493 0 1.491-.69 3.014-1.836 4.05-.99.879-2.23 1.35-3.642 1.35-2.888 0-5.352-2.512-5.352-5.463zm1.098.016c0 2.339 1.931 4.27 4.254 4.27 1.287 0 2.355-.456 3.187-1.335.753-.8 1.192-1.868 1.192-2.904a4.29 4.29 0 0 0-4.316-4.3c-2.386 0-4.317 1.899-4.317 4.269zm9.544-8.17h-10.47v-2.151c0-1.695.361-2.826 1.209-3.846.989-1.177 2.401-1.805 4.018-1.805 1.648 0 3.03.628 4.034 1.837.864 1.051 1.209 2.134 1.209 3.83v2.134zm-1.083-1.178v-1.02c0-1.287-.298-2.213-.973-2.998-.754-.91-1.9-1.429-3.171-1.429-1.272 0-2.449.518-3.202 1.413-.66.785-.958 1.727-.958 3.014v1.02h8.304zm1.083-9.332h-10.47v-2.15c0-1.696.361-2.826 1.209-3.846.989-1.178 2.401-1.805 4.018-1.805 1.648 0 3.03.627 4.034 1.836.864 1.052 1.209 2.135 1.209 3.83v2.135zm-1.083-1.178v-1.02c0-1.287-.298-2.213-.973-2.998-.754-.91-1.9-1.428-3.171-1.428-1.272 0-2.449.518-3.202 1.412-.66.785-.958 1.727-.958 3.014V254h8.304zm64.205 24.217v1.727l-1.083-.612v-2.292h10.47v1.177h-9.387zm9.638-6.995l-.644.864-3.359-2.402c.11.393.142.612.142.958 0 1.867-1.539 3.359-3.454 3.359-1.962 0-3.563-1.617-3.563-3.595 0-1.993 1.586-3.626 3.516-3.626.8 0 1.617.298 2.418.864l4.944 3.578zm-9.81-.832c0 1.35 1.098 2.465 2.433 2.465a2.462 2.462 0 0 0 2.48-2.465 2.459 2.459 0 0 0-2.465-2.464 2.455 2.455 0 0 0-2.448 2.464zm5.713-4.263v-2.841h1.005v2.84h-1.005zm-1.13-6.65h-1.02c-.016-.628-.079-.926-.267-1.24-.283-.518-.863-.847-1.523-.847-1.02 0-1.773.753-1.773 1.805 0 .612.25 1.146.675 1.428.235.173.455.251 1.004.345v1.146c-.753-.11-1.114-.235-1.538-.486-.77-.471-1.209-1.35-1.209-2.433 0-1.711 1.193-2.951 2.81-2.951 1.02 0 1.836.47 2.323 1.35.44-.958 1.381-1.507 2.527-1.507 1.805 0 3.14 1.381 3.14 3.249 0 1.161-.566 2.213-1.476 2.731-.392.236-.738.33-1.413.377v-1.13c.518-.079.754-.157 1.02-.361.471-.361.785-1.02.785-1.664 0-1.162-.926-2.056-2.103-2.056-.785 0-1.46.408-1.742 1.036-.157.345-.204.612-.22 1.208zm-5.76-9.993l.659-.879 3.359 2.418c-.126-.409-.157-.628-.157-.974 0-1.852 1.538-3.343 3.453-3.343a3.604 3.604 0 0 1 3.594 3.595c0 1.977-1.6 3.61-3.531 3.61-.8 0-1.648-.299-2.418-.864l-4.96-3.563zm4.897.817a2.459 2.459 0 0 0 2.464 2.464 2.459 2.459 0 0 0 2.464-2.464c0-1.335-1.114-2.45-2.433-2.45-1.397 0-2.495 1.084-2.495 2.45zm55.621-150.28v-4.378h1.083v6.75l-4.411-3.8c-1.617-1.396-2.339-1.82-3.14-1.82-1.114 0-2.008.926-2.008 2.103 0 .706.36 1.397.91 1.742.33.204.612.299 1.24.346v1.177c-.895-.094-1.303-.204-1.805-.534-.88-.565-1.413-1.6-1.413-2.715 0-1.837 1.366-3.265 3.108-3.265 1.146 0 1.868.408 3.987 2.26l2.449 2.135zm-4.395-11.493h5.478v1.114h-5.478v.675h-1.036v-.675h-2.355v-1.114h2.355V87.38h1.036v1.146zm-1.178-5.096c0-1.93 1.507-3.437 3.422-3.437 1.93 0 3.422 1.507 3.422 3.469 0 1.93-1.522 3.422-3.485 3.422-1.836 0-3.359-1.554-3.359-3.454zm1.02.016c0 1.303 1.021 2.292 2.37 2.292 1.414 0 2.434-.942 2.434-2.276 0-1.35-1.005-2.323-2.402-2.323-1.397 0-2.401.973-2.401 2.307zm-3.75-9.846v1.727l-1.084-.612v-2.292h10.47V73.6h-9.387zm8.751 83.782v-4.38h1.083v6.75l-4.41-3.799c-1.617-1.397-2.34-1.82-3.14-1.82-1.114 0-2.009.926-2.009 2.103 0 .706.361 1.397.91 1.742.33.204.613.298 1.24.345v1.178c-.894-.094-1.302-.204-1.805-.534-.879-.565-1.412-1.601-1.412-2.715 0-1.837 1.365-3.265 3.108-3.265 1.146 0 1.868.408 3.987 2.26l2.448 2.135zm-4.395-11.494h5.478v1.114h-5.478v.675h-1.036v-.675h-2.354v-1.114h2.354v-1.146h1.036v1.146zm-1.177-5.096c0-1.93 1.507-3.437 3.422-3.437 1.93 0 3.422 1.506 3.422 3.468 0 1.931-1.523 3.422-3.485 3.422-1.836 0-3.359-1.554-3.359-3.453zm1.02.016c0 1.303 1.02 2.291 2.37 2.291 1.413 0 2.433-.941 2.433-2.276 0-1.35-1.004-2.323-2.401-2.323-1.397 0-2.402.974-2.402 2.308zm-3.751-9.846v1.726l-1.083-.612v-2.291h10.47v1.177h-9.387zm7.855-88.943v-4.378h1.083v6.75l-4.411-3.8c-1.617-1.396-2.339-1.82-3.14-1.82-1.114 0-2.008.926-2.008 2.103 0 .706.36 1.397.91 1.742.33.204.612.299 1.24.346v1.177c-.895-.094-1.303-.204-1.805-.534-.88-.565-1.413-1.6-1.413-2.715 0-1.837 1.366-3.265 3.108-3.265 1.146 0 1.868.408 3.987 2.26l2.449 2.135zm-4.395-11.493h5.478v1.114h-5.478v.675h-1.036v-.675h-2.355v-1.114h2.355V29.38h1.036v1.146zm-1.178-5.096c0-1.93 1.507-3.437 3.422-3.437 1.93 0 3.422 1.507 3.422 3.469 0 1.93-1.522 3.422-3.485 3.422-1.836 0-3.359-1.554-3.359-3.454zm1.02.016c0 1.303 1.021 2.292 2.37 2.292 1.414 0 2.434-.942 2.434-2.276 0-1.35-1.005-2.323-2.402-2.323-1.397 0-2.401.973-2.401 2.307zm-3.75-9.846v1.727l-1.084-.612v-2.292h10.47V15.6h-9.387zM212.31 211.836h7.962v1.97H208l6.906-8.02c2.54-2.94 3.311-4.253 3.311-5.708 0-2.027-1.684-3.653-3.824-3.653-1.284 0-2.54.656-3.168 1.655-.371.6-.542 1.113-.628 2.255h-2.14c.17-1.627.37-2.37.97-3.282 1.027-1.599 2.911-2.569 4.937-2.569 3.34 0 5.936 2.483 5.936 5.65 0 2.084-.742 3.397-4.11 7.25l-3.88 4.452zm12.385-9.875h2.027v1.427c1.027-1.255 1.94-1.712 3.424-1.712 1.427 0 2.74.628 3.397 1.627.456.742.656 1.626.656 3.168v7.334h-2.026v-6.992c0-1.256-.086-1.827-.4-2.312-.37-.599-1.141-.97-2.112-.97-2.055 0-2.94 1.313-2.94 4.366v5.908h-2.026v-11.844zM247.127 193h2.027v20.805h-2.027v-1.627c-1.113 1.342-2.426 1.97-4.11 1.97-3.253 0-5.679-2.655-5.679-6.28 0-3.566 2.398-6.164 5.651-6.164 1.684 0 2.968.6 4.138 1.941V193zm-3.795 10.56c-2.226 0-3.91 1.855-3.91 4.252 0 2.597 1.626 4.48 3.881 4.48 2.34 0 3.967-1.826 3.967-4.423 0-2.54-1.627-4.31-3.938-4.31zm22.431-6.821h-3.139l1.113-1.97h4.167v19.036h-2.14V196.74zm14.384 15.097h7.963v1.97h-12.272l6.906-8.02c2.54-2.94 3.31-4.253 3.31-5.708 0-2.027-1.683-3.653-3.823-3.653-1.285 0-2.54.656-3.168 1.655-.371.6-.543 1.113-.628 2.255h-2.14c.17-1.627.37-2.37.97-3.282 1.027-1.599 2.91-2.569 4.937-2.569 3.34 0 5.936 2.483 5.936 5.65 0 2.084-.742 3.397-4.11 7.25l-3.88 4.452zm80.247-7.078v-1.855c1.141-.028 1.684-.143 2.255-.485.941-.514 1.54-1.57 1.54-2.768 0-1.855-1.37-3.225-3.281-3.225-1.113 0-2.084.456-2.597 1.227-.314.428-.457.828-.628 1.826h-2.084c.2-1.37.428-2.026.885-2.796.856-1.399 2.454-2.198 4.424-2.198 3.11 0 5.365 2.169 5.365 5.109 0 1.855-.856 3.339-2.454 4.223 1.74.8 2.74 2.512 2.74 4.595 0 3.282-2.512 5.708-5.908 5.708-2.112 0-4.024-1.027-4.966-2.683-.428-.713-.6-1.341-.685-2.568h2.055c.143.942.285 1.37.656 1.855.657.856 1.855 1.427 3.025 1.427 2.112 0 3.739-1.684 3.739-3.824 0-1.427-.742-2.655-1.884-3.168-.627-.286-1.113-.371-2.197-.4zm10.873-2.797h2.027v1.285c1.056-1.256 1.57-1.57 2.682-1.57.657 0 1.085.114 1.798.514l-.941 1.826c-.514-.314-.771-.4-1.2-.4-.77 0-1.54.429-1.883 1.085-.314.57-.456 1.427-.456 2.854v6.25h-2.027v-11.844zM388.733 193h2.027v20.805h-2.027v-1.627c-1.113 1.342-2.425 1.97-4.11 1.97-3.253 0-5.679-2.655-5.679-6.28 0-3.566 2.398-6.164 5.651-6.164 1.684 0 2.968.6 4.138 1.941V193zm-3.795 10.56c-2.226 0-3.91 1.855-3.91 4.252 0 2.597 1.627 4.48 3.881 4.48 2.34 0 3.967-1.826 3.967-4.423 0-2.54-1.627-4.31-3.938-4.31zm22.431-6.821h-3.139l1.113-1.97h4.167v19.036h-2.14V196.74zm14.384 15.097h7.963v1.97h-12.272l6.906-8.02c2.54-2.94 3.31-4.253 3.31-5.708 0-2.027-1.683-3.653-3.823-3.653-1.285 0-2.54.656-3.168 1.655-.371.6-.542 1.113-.628 2.255h-2.14c.17-1.627.37-2.37.97-3.282 1.027-1.599 2.91-2.569 4.937-2.569 3.34 0 5.936 2.483 5.936 5.65 0 2.084-.742 3.397-4.11 7.25l-3.88 4.452z" fill="#00FFF2"/><ellipse fill="#444" transform="rotate(90 54.225 28.966)" cx="54.225" cy="28.966" rx="24.258" ry="12.843"/><ellipse fill="#666" transform="rotate(90 89.899 28.966)" cx="89.899" cy="28.966" rx="24.258" ry="12.843"/><ellipse fill="#444" transform="rotate(90 125.573 28.966)" cx="125.573" cy="28.966" rx="24.258" ry="12.843"/><ellipse fill="#666" transform="rotate(90 161.247 28.966)" cx="161.247" cy="28.966" rx="24.258" ry="12.843"/><ellipse fill="#444" transform="rotate(90 196.92 28.966)" cx="196.921" cy="28.966" rx="24.258" ry="12.843"/><ellipse fill="#666" transform="rotate(90 232.595 28.966)" cx="232.595" cy="28.966" rx="24.258" ry="12.843"/><ellipse fill="#444" transform="rotate(90 268.269 28.966)" cx="268.269" cy="28.966" rx="24.258" ry="12.843"/><ellipse fill="#666" transform="rotate(90 303.943 28.966)" cx="303.943" cy="28.966" rx="24.258" ry="12.843"/><ellipse fill="#444" transform="rotate(90 339.617 28.966)" cx="339.617" cy="28.966" rx="24.258" ry="12.843"/><ellipse fill="#444" transform="rotate(90 410.965 28.966)" cx="410.965" cy="28.966" rx="24.258" ry="12.843"/><ellipse fill="#666" transform="rotate(90 54.225 87.472)" cx="54.225" cy="87.472" rx="24.258" ry="12.843"/><ellipse fill="#444" transform="rotate(90 89.899 87.472)" cx="89.899" cy="87.472" rx="24.258" ry="12.843"/><ellipse fill="#666" transform="rotate(90 125.573 87.472)" cx="125.573" cy="87.472" rx="24.258" ry="12.843"/><ellipse fill="#444" transform="rotate(90 161.247 87.472)" cx="161.247" cy="87.472" rx="24.258" ry="12.843"/><ellipse fill="#666" transform="rotate(90 196.92 87.472)" cx="196.921" cy="87.472" rx="24.258" ry="12.843"/><ellipse fill="#444" transform="rotate(90 232.595 87.472)" cx="232.595" cy="87.472" rx="24.258" ry="12.843"/><ellipse fill="#666" transform="rotate(90 268.269 87.472)" cx="268.269" cy="87.472" rx="24.258" ry="12.843"/><ellipse fill="#444" transform="rotate(90 303.943 87.472)" cx="303.943" cy="87.472" rx="24.258" ry="12.843"/><ellipse fill="#666" transform="rotate(90 339.617 87.472)" cx="339.617" cy="87.472" rx="24.258" ry="12.843"/><ellipse fill="#666" transform="rotate(90 410.965 87.472)" cx="410.965" cy="87.472" rx="24.258" ry="12.843"/><ellipse fill="#444" transform="rotate(90 54.225 145.977)" cx="54.225" cy="145.977" rx="24.258" ry="12.843"/><ellipse fill="#666" transform="rotate(90 89.899 145.977)" cx="89.899" cy="145.977" rx="24.258" ry="12.843"/><ellipse fill="#444" transform="rotate(90 125.573 145.977)" cx="125.573" cy="145.977" rx="24.258" ry="12.843"/><ellipse fill="#666" transform="rotate(90 161.247 145.977)" cx="161.247" cy="145.977" rx="24.258" ry="12.843"/><ellipse fill="#444" transform="rotate(90 196.92 145.977)" cx="196.921" cy="145.977" rx="24.258" ry="12.843"/><ellipse fill="#666" transform="rotate(90 232.595 145.977)" cx="232.595" cy="145.977" rx="24.258" ry="12.843"/><ellipse fill="#444" transform="rotate(90 268.269 145.977)" cx="268.269" cy="145.977" rx="24.258" ry="12.843"/><ellipse fill="#666" transform="rotate(90 303.943 145.977)" cx="303.943" cy="145.977" rx="24.258" ry="12.843"/><ellipse fill="#444" transform="rotate(90 339.617 145.977)" cx="339.617" cy="145.977" rx="24.258" ry="12.843"/><ellipse fill="#444" transform="rotate(90 410.965 145.977)" cx="410.965" cy="145.977" rx="24.258" ry="12.843"/><ellipse fill="#666" transform="rotate(90 375.29 28.966)" cx="375.291" cy="28.966" rx="24.258" ry="12.843"/><path d="M375.03 34.212h-1.02c-.015-.627-.078-.926-.267-1.24-.282-.518-.863-.847-1.522-.847-1.02 0-1.774.753-1.774 1.805 0 .612.251 1.146.675 1.428.236.173.455.251 1.005.346v1.145c-.754-.11-1.115-.235-1.539-.486-.769-.471-1.208-1.35-1.208-2.433 0-1.711 1.193-2.951 2.81-2.951 1.02 0 1.836.47 2.323 1.35.44-.958 1.38-1.507 2.527-1.507 1.805 0 3.14 1.381 3.14 3.25 0 1.16-.566 2.212-1.476 2.73-.393.236-.738.33-1.413.377v-1.13c.518-.079.753-.157 1.02-.361.471-.361.785-1.02.785-1.664 0-1.162-.926-2.056-2.103-2.056-.785 0-1.46.408-1.743 1.036-.157.345-.204.612-.22 1.208zm-5.65-8.856c0-2.12 2.323-3.736 5.368-3.736 1.491 0 2.81.361 3.83 1.036.973.66 1.601 1.711 1.601 2.7 0 1.036-.66 2.103-1.68 2.763-1.035.659-2.275.988-3.767.988-2.998 0-5.352-1.648-5.352-3.751zm1.067.016c0 1.46 1.884 2.59 4.301 2.59 2.511 0 4.348-1.1 4.348-2.606 0-1.444-1.915-2.59-4.317-2.59-2.464 0-4.332 1.13-4.332 2.606z" fill="#00FFF2"/><ellipse fill="#444" transform="rotate(90 375.29 87.472)" cx="375.291" cy="87.472" rx="24.258" ry="12.843"/><ellipse fill="#444" transform="rotate(90 446.639 87.472)" cx="446.639" cy="87.472" rx="24.258" ry="12.843"/><ellipse fill="#666" transform="rotate(90 446.639 145.977)" cx="446.639" cy="145.977" rx="24.258" ry="12.843"/><ellipse fill="#666" transform="rotate(90 375.29 145.977)" cx="375.291" cy="145.977" rx="24.258" ry="12.843"/><ellipse fill="#666" transform="rotate(90 446.639 28.966)" cx="446.639" cy="28.966" rx="24.258" ry="12.843"/><path d="M447.002 34.183h-1.02c-.016-.627-.08-.926-.267-1.24-.283-.518-.864-.847-1.523-.847-1.02 0-1.774.753-1.774 1.805 0 .612.251 1.146.675 1.428.236.173.455.251 1.005.346v1.146c-.754-.11-1.115-.236-1.538-.487-.77-.471-1.21-1.35-1.21-2.433 0-1.711 1.194-2.951 2.81-2.951 1.02 0 1.837.47 2.324 1.35.44-.958 1.381-1.507 2.527-1.507 1.805 0 3.14 1.381 3.14 3.25 0 1.16-.566 2.212-1.476 2.73-.393.236-.738.33-1.413.377v-1.13c.518-.078.753-.157 1.02-.361.471-.361.785-1.02.785-1.664 0-1.161-.926-2.056-2.103-2.056-.785 0-1.46.408-1.743 1.036-.157.345-.204.612-.22 1.208zm-5.761-9.646l.66-.879 3.358 2.418c-.125-.409-.157-.628-.157-.974 0-1.852 1.539-3.343 3.454-3.343a3.604 3.604 0 0 1 3.594 3.594c0 1.978-1.6 3.61-3.532 3.61-.8 0-1.648-.298-2.417-.863l-4.96-3.563zm4.897.816a2.459 2.459 0 0 0 2.465 2.465 2.459 2.459 0 0 0 2.464-2.465c0-1.334-1.114-2.448-2.433-2.448-1.397 0-2.496 1.083-2.496 2.448zM54.43 29.612h-1.02c-.016-.628-.08-.927-.267-1.24-.283-.518-.864-.848-1.523-.848-1.02 0-1.774.753-1.774 1.805 0 .612.251 1.146.675 1.428.236.173.455.252 1.005.346v1.146c-.754-.11-1.115-.236-1.538-.487-.77-.47-1.21-1.35-1.21-2.433 0-1.71 1.194-2.951 2.81-2.951 1.02 0 1.837.47 2.324 1.35.44-.958 1.381-1.507 2.527-1.507 1.805 0 3.14 1.381 3.14 3.25 0 1.16-.566 2.212-1.476 2.73-.393.236-.738.33-1.413.377v-1.13c.518-.078.753-.157 1.02-.361.471-.361.785-1.02.785-1.664 0-1.161-.926-2.056-2.103-2.056-.785 0-1.46.408-1.743 1.036-.157.345-.204.612-.22 1.209zm3.183 58.714v-4.38h1.083v6.75l-4.41-3.799c-1.618-1.397-2.34-1.82-3.14-1.82-1.115 0-2.01.926-2.01 2.103 0 .706.362 1.397.911 1.742.33.204.612.298 1.24.346v1.177c-.895-.094-1.303-.204-1.805-.534-.879-.565-1.413-1.601-1.413-2.715 0-1.837 1.366-3.265 3.108-3.265 1.146 0 1.868.408 3.987 2.26l2.449 2.135zM83.148 28.63l.66-.879 3.358 2.418c-.125-.408-.157-.628-.157-.973 0-1.853 1.538-3.344 3.453-3.344a3.604 3.604 0 0 1 3.595 3.595c0 1.977-1.601 3.61-3.532 3.61-.8 0-1.648-.298-2.417-.863l-4.96-3.564zm4.897.817a2.459 2.459 0 0 0 2.464 2.464 2.459 2.459 0 0 0 2.465-2.464c0-1.334-1.115-2.449-2.433-2.449-1.397 0-2.496 1.083-2.496 2.449z" fill="#00FFF2"/><text transform="rotate(-90 94.016 87.777)" font-family=".AppleSystemUIFont" font-size="18.551" fill="#00FFF2"><tspan x="88.509" y="96.777">5</tspan></text><path fill="#00FFF2" d="M48.3 144.96v1.727l-1.083-.612v-2.292h10.47v1.177zm43.363-2.064v-1.287h1.052v1.287h1.71v1.162h-1.71v5.368l-9.324-6.53h8.272zm0 1.162H86.94l4.724 3.312v-3.312zm29.023-.668v5.714h-1.083v-7.707l10.72 7.016-.611.91zm37.526 6.654v1.727l-1.083-.612v-2.292h10.47v1.177h-9.387zm-1.24-7.28c0-2.119 2.323-3.736 5.368-3.736 1.491 0 2.81.361 3.83 1.036.973.66 1.601 1.711 1.601 2.7 0 1.036-.66 2.103-1.68 2.763-1.036.659-2.276.989-3.767.989-2.998 0-5.352-1.649-5.352-3.752zm1.067.016c0 1.46 1.884 2.59 4.301 2.59 2.511 0 4.348-1.1 4.348-2.606 0-1.444-1.915-2.59-4.317-2.59-2.464 0-4.332 1.13-4.332 2.606zm-33.088-53.764c-.487.817-1.334 1.287-2.307 1.287-1.633 0-2.873-1.27-2.873-2.935 0-1.68 1.24-2.935 2.873-2.935.941 0 1.852.518 2.307 1.318.47-.957 1.397-1.522 2.527-1.522 1.774 0 3.092 1.35 3.092 3.14 0 1.82-1.318 3.201-3.06 3.201-1.162 0-2.025-.518-2.559-1.554zm-4.113-1.648c0 .99.817 1.821 1.79 1.821 1.036 0 1.852-.816 1.852-1.82a1.823 1.823 0 0 0-1.82-1.822 1.823 1.823 0 0 0-1.822 1.821zm4.63.032c0 1.098.911 2.024 1.979 2.024 1.13 0 2.04-.894 2.04-2.024 0-1.115-.91-2.025-2.009-2.025-1.114 0-2.01.91-2.01 2.025zm31.142 1.87v1.727l-1.082-.612v-2.292h10.47v1.178h-9.387zm0-4.62v1.726l-1.082-.612v-2.292h10.47v1.178h-9.387zm35.239 7.859v1.726l-1.083-.612v-2.291h10.47v1.177h-9.387zm6.624-10.423V80.8h1.052v1.287h1.71v1.162h-1.71v5.368l-9.324-6.53h8.272zm0 1.162h-4.725l4.725 3.312v-3.312zm30.172 9.308v1.727l-1.083-.613v-2.29h10.47v1.177h-9.387zm0-10.124v5.713h-1.083v-7.707l10.72 7.017-.612.91-9.025-5.933zm-36.282 66.764v1.727l-1.083-.613v-2.291h10.47v1.177h-9.387zm4.411-5.929h-1.02c-.016-.628-.079-.926-.267-1.24-.283-.518-.863-.848-1.523-.848-1.02 0-1.773.754-1.773 1.806 0 .612.25 1.145.675 1.428.235.173.455.251 1.004.345v1.146c-.753-.11-1.114-.235-1.538-.486-.77-.471-1.209-1.35-1.209-2.433 0-1.711 1.193-2.951 2.81-2.951 1.02 0 1.837.47 2.323 1.35.44-.958 1.381-1.507 2.527-1.507 1.805 0 3.14 1.38 3.14 3.249 0 1.161-.565 2.213-1.476 2.731-.392.235-.738.33-1.413.377v-1.13c.518-.079.754-.157 1.02-.361.472-.361.786-1.02.786-1.664 0-1.162-.927-2.057-2.104-2.057-.785 0-1.46.409-1.742 1.036-.157.346-.204.613-.22 1.21zm31.242 6.581v1.727l-1.084-.612v-2.292h10.47v1.177h-9.386zm-1.35-7.735l.659-.88 3.359 2.418c-.126-.408-.157-.628-.157-.973 0-1.852 1.538-3.344 3.453-3.344a3.604 3.604 0 0 1 3.595 3.595c0 1.978-1.601 3.61-3.532 3.61-.8 0-1.648-.298-2.417-.863l-4.96-3.563zm4.897.816a2.459 2.459 0 0 0 2.464 2.464 2.459 2.459 0 0 0 2.465-2.464c0-1.334-1.115-2.449-2.433-2.449-1.397 0-2.496 1.083-2.496 2.449zm40.735-49.745v-4.38h1.083v6.75l-4.41-3.799c-1.617-1.397-2.34-1.82-3.14-1.82-1.114 0-2.009.926-2.009 2.103 0 .706.361 1.397.91 1.742.33.204.613.299 1.24.346v1.177c-.894-.094-1.302-.204-1.805-.534-.879-.565-1.412-1.6-1.412-2.715 0-1.837 1.365-3.265 3.108-3.265 1.146 0 1.868.408 3.987 2.26l2.448 2.135zm-9.543-10.203c0-2.119 2.323-3.736 5.368-3.736 1.491 0 2.81.361 3.83 1.036.973.66 1.601 1.711 1.601 2.7 0 1.036-.66 2.103-1.68 2.763-1.036.659-2.276.989-3.767.989-2.998 0-5.352-1.649-5.352-3.752zm1.067.016c0 1.46 1.884 2.59 4.301 2.59 2.511 0 4.348-1.1 4.348-2.606 0-1.444-1.915-2.59-4.317-2.59-2.464 0-4.332 1.13-4.332 2.606z"/><text transform="rotate(-90 305.735 87.5)" font-family="Futura365-Boo, Futura 365" font-size="15.697" fill="#00FFF2"><tspan x="296.835" y="91">23</tspan></text><path d="M343.275 93.16v-4.38h1.083v6.75l-4.41-3.798c-1.618-1.397-2.34-1.82-3.14-1.82-1.115 0-2.01.925-2.01 2.102 0 .707.362 1.397.911 1.743.33.204.612.298 1.24.345v1.177c-.895-.094-1.303-.204-1.805-.533-.88-.565-1.413-1.601-1.413-2.716 0-1.836 1.366-3.265 3.108-3.265 1.146 0 1.868.408 3.987 2.26l2.449 2.135zm-9.654-11.003l.66-.879 3.359 2.417c-.126-.408-.157-.628-.157-.973 0-1.852 1.538-3.343 3.453-3.343a3.604 3.604 0 0 1 3.594 3.594c0 1.978-1.6 3.61-3.531 3.61-.8 0-1.648-.298-2.418-.863l-4.96-3.563zm4.898.816a2.459 2.459 0 0 0 2.464 2.465 2.459 2.459 0 0 0 2.464-2.465c0-1.334-1.114-2.448-2.433-2.448-1.397 0-2.495 1.083-2.495 2.448zm40.677 10.187v-4.38h1.083v6.75l-4.41-3.798c-1.617-1.397-2.34-1.82-3.14-1.82-1.114 0-2.009.925-2.009 2.102 0 .707.361 1.397.91 1.743.33.204.613.298 1.24.345v1.177c-.894-.094-1.302-.204-1.805-.533-.879-.565-1.412-1.601-1.412-2.716 0-1.836 1.365-3.265 3.108-3.265 1.145 0 1.868.408 3.987 2.26l2.448 2.135zm1.334-9.37l-.643.863-3.36-2.402c.11.393.142.612.142.958 0 1.868-1.538 3.359-3.453 3.359-1.962 0-3.563-1.617-3.563-3.595 0-1.993 1.585-3.626 3.516-3.626.8 0 1.617.299 2.417.864l4.944 3.578zm-9.81-.833c0 1.35 1.099 2.465 2.433 2.465a2.462 2.462 0 0 0 2.48-2.465 2.459 2.459 0 0 0-2.464-2.464 2.455 2.455 0 0 0-2.449 2.464z" fill="#00FFF2"/><text transform="rotate(-90 412.092 87.5)" font-family="Futura365-Boo, Futura 365" font-size="15.697" fill="#00FFF2"><tspan x="403.192" y="91">32</tspan></text><path d="M445.974 92.156h-1.02c-.016-.628-.079-.926-.267-1.24-.283-.518-.864-.848-1.523-.848-1.02 0-1.774.753-1.774 1.805 0 .612.252 1.146.675 1.429.236.172.456.25 1.005.345v1.146c-.753-.11-1.114-.236-1.538-.487-.77-.47-1.209-1.35-1.209-2.433 0-1.71 1.193-2.95 2.81-2.95 1.02 0 1.836.47 2.323 1.35.44-.958 1.381-1.508 2.527-1.508 1.805 0 3.14 1.382 3.14 3.25 0 1.161-.566 2.213-1.476 2.73-.393.236-.738.33-1.413.377v-1.13c.518-.078.754-.157 1.02-.36.471-.362.785-1.021.785-1.665 0-1.161-.926-2.056-2.103-2.056-.785 0-1.46.408-1.742 1.036-.157.345-.204.612-.22 1.209zm-4.41-12.4v3.343l2.244.69a2.858 2.858 0 0 1-.063-.596c0-2.025 1.538-3.516 3.626-3.516 2.15 0 3.751 1.632 3.751 3.846 0 1.365-.628 2.433-1.868 3.202l-.659-.926c.99-.628 1.444-1.366 1.444-2.37 0-1.46-1.161-2.606-2.652-2.606-1.476 0-2.606 1.13-2.606 2.59 0 .659.173 1.177.706 2.025l-5.007-1.523v-4.16h1.083z" fill="#00FFF2" opacity=".99"/><path d="M263.953 149.864v1.726l-1.083-.612v-2.291h10.47v1.177h-9.387zm9.637-6.135l-.643.864-3.36-2.402c.11.393.142.612.142.958 0 1.868-1.538 3.359-3.453 3.359-1.962 0-3.563-1.617-3.563-3.595 0-1.993 1.585-3.626 3.516-3.626.8 0 1.617.298 2.417.864l4.944 3.578zm-9.81-.832c0 1.35 1.099 2.465 2.433 2.465a2.462 2.462 0 0 0 2.48-2.465 2.459 2.459 0 0 0-2.464-2.464 2.455 2.455 0 0 0-2.449 2.464zm43.283 7.879v-4.38h1.083v6.75l-4.41-3.799c-1.618-1.397-2.34-1.82-3.14-1.82-1.115 0-2.01.926-2.01 2.103 0 .706.362 1.397.911 1.742.33.204.612.298 1.24.345v1.178c-.895-.094-1.303-.204-1.805-.534-.879-.565-1.413-1.601-1.413-2.715 0-1.837 1.366-3.265 3.108-3.265 1.146 0 1.868.408 3.987 2.26l2.449 2.135zm0-8.9v-4.38h1.083v6.75l-4.41-3.799c-1.618-1.397-2.34-1.82-3.14-1.82-1.115 0-2.01.926-2.01 2.103 0 .706.362 1.397.911 1.742.33.204.612.298 1.24.346v1.177c-.895-.094-1.303-.204-1.805-.534-.879-.565-1.413-1.601-1.413-2.715 0-1.837 1.366-3.265 3.108-3.265 1.146 0 1.868.408 3.987 2.26l2.449 2.135zm35.921 8.994v-4.38h1.083v6.75l-4.41-3.799c-1.617-1.397-2.34-1.82-3.14-1.82-1.114 0-2.009.926-2.009 2.103 0 .706.361 1.397.91 1.742.33.204.613.299 1.24.346v1.177c-.894-.094-1.302-.204-1.804-.534-.88-.565-1.413-1.6-1.413-2.715 0-1.837 1.365-3.265 3.108-3.265 1.146 0 1.868.408 3.987 2.26l2.448 2.135zm-8.303-13.232v3.343l2.244.69a2.858 2.858 0 0 1-.062-.596c0-2.025 1.538-3.516 3.626-3.516 2.15 0 3.751 1.633 3.751 3.846 0 1.365-.628 2.433-1.868 3.202l-.66-.926c.99-.628 1.445-1.366 1.445-2.37 0-1.46-1.162-2.606-2.653-2.606-1.475 0-2.605 1.13-2.605 2.59 0 .66.172 1.177.706 2.025l-5.007-1.523v-4.16h1.083zm44.359 13.287v-4.38h1.082v6.75l-4.41-3.799c-1.617-1.397-2.34-1.82-3.14-1.82-1.114 0-2.009.926-2.009 2.103 0 .706.361 1.397.91 1.742.33.204.613.299 1.24.346v1.177c-.894-.094-1.302-.204-1.805-.534-.879-.565-1.412-1.6-1.412-2.715 0-1.837 1.365-3.265 3.108-3.265 1.146 0 1.868.408 3.987 2.26l2.448 2.135zm-4.364-8.633c-.487.816-1.335 1.287-2.308 1.287-1.632 0-2.872-1.272-2.872-2.935 0-1.68 1.24-2.936 2.872-2.936.942 0 1.852.518 2.308 1.319.47-.958 1.397-1.523 2.527-1.523 1.773 0 3.092 1.35 3.092 3.14 0 1.82-1.319 3.202-3.06 3.202-1.162 0-2.026-.518-2.56-1.554zm-4.113-1.648c0 .988.816 1.82 1.79 1.82 1.036 0 1.852-.816 1.852-1.82a1.822 1.822 0 0 0-3.642 0zm4.63.031c0 1.099.911 2.025 1.978 2.025 1.13 0 2.04-.895 2.04-2.025 0-1.115-.91-2.025-2.008-2.025-1.115 0-2.01.91-2.01 2.025zm34.921 7.621h-1.02c-.016-.628-.079-.926-.267-1.24-.283-.518-.864-.848-1.523-.848-1.02 0-1.774.753-1.774 1.805 0 .612.252 1.146.675 1.428.236.173.456.252 1.005.346v1.146c-.753-.11-1.115-.236-1.538-.487-.77-.47-1.209-1.35-1.209-2.433 0-1.71 1.193-2.95 2.81-2.95 1.02 0 1.836.47 2.323 1.35.44-.958 1.381-1.508 2.527-1.508 1.805 0 3.14 1.381 3.14 3.25 0 1.16-.566 2.213-1.476 2.73-.393.236-.738.33-1.413.377v-1.13c.518-.078.754-.157 1.02-.36.471-.362.785-1.021.785-1.665 0-1.161-.926-2.056-2.103-2.056-.785 0-1.46.408-1.742 1.036-.157.345-.204.612-.22 1.209zm-4.41-7.582v1.727l-1.084-.612v-2.292h10.47v1.177h-9.387zm41.646 8.818h-1.02c-.015-.627-.078-.926-.267-1.24-.282-.518-.863-.847-1.522-.847-1.02 0-1.774.753-1.774 1.805 0 .612.251 1.146.675 1.428.236.173.455.251 1.005.346v1.145c-.754-.11-1.115-.235-1.539-.486-.769-.471-1.208-1.35-1.208-2.433 0-1.711 1.193-2.951 2.81-2.951 1.02 0 1.836.47 2.323 1.35.44-.958 1.38-1.507 2.527-1.507 1.805 0 3.14 1.381 3.14 3.25 0 1.16-.566 2.212-1.476 2.73-.393.236-.738.33-1.413.377v-1.13c.518-.079.753-.157 1.02-.361.471-.361.785-1.02.785-1.664 0-1.162-.926-2.056-2.103-2.056-.785 0-1.46.408-1.743 1.036-.157.345-.204.612-.22 1.208zm2.214-11.537v-1.287h1.051v1.287h1.711v1.162h-1.71v5.368l-9.324-6.53h8.272zm0 1.162h-4.725l4.725 3.312v-3.312zM131.05 30.27l-.644.864-3.36-2.401c.11.392.142.612.142.957 0 1.868-1.539 3.36-3.454 3.36-1.962 0-3.563-1.618-3.563-3.595 0-1.994 1.586-3.626 3.516-3.626.8 0 1.617.298 2.418.863l4.944 3.579zm-9.811-.831c0 1.35 1.098 2.464 2.433 2.464a2.462 2.462 0 0 0 2.48-2.464 2.459 2.459 0 0 0-2.465-2.464 2.455 2.455 0 0 0-2.448 2.464zm36.541 4.001v1.726l-1.084-.612v-2.292h10.47v1.177h-9.387zm8.303-5.584v-4.38h1.083v6.75l-4.41-3.799c-1.618-1.397-2.34-1.82-3.14-1.82-1.115 0-2.01.926-2.01 2.103 0 .706.362 1.397.911 1.742.33.204.612.299 1.24.346v1.177c-.895-.094-1.303-.204-1.805-.534-.88-.565-1.413-1.6-1.413-2.715 0-1.837 1.366-3.265 3.108-3.265 1.146 0 1.868.408 3.987 2.26l2.449 2.135z" fill="#00FFF2"/><text transform="rotate(-90 199.061 30.045)" font-family="Futura365-Boo, Futura 365" font-size="15.697" letter-spacing="-1.032" fill="#00FFF2"><tspan x="191.821" y="33.545">15</tspan></text><path d="M271.967 32.455v-4.38h1.083v6.75l-4.411-3.799c-1.617-1.397-2.339-1.82-3.14-1.82-1.114 0-2.008.925-2.008 2.103 0 .706.36 1.397.91 1.742.33.204.612.298 1.24.345v1.178c-.895-.095-1.303-.204-1.805-.534-.88-.565-1.413-1.601-1.413-2.716 0-1.836 1.366-3.264 3.108-3.264 1.146 0 1.868.408 3.987 2.26l2.449 2.135zm-8.304-7.442v1.727l-1.083-.613v-2.291h10.47v1.177h-9.387zm45.197 9.559v-4.379h1.083v6.75l-4.411-3.8c-1.617-1.396-2.339-1.82-3.14-1.82-1.114 0-2.009.926-2.009 2.103 0 .707.361 1.397.91 1.743.33.204.613.298 1.24.345v1.177c-.894-.094-1.302-.204-1.804-.533-.88-.565-1.413-1.601-1.413-2.716 0-1.836 1.366-3.265 3.108-3.265 1.146 0 1.868.408 3.987 2.26l2.448 2.135zm-1.68-11.193v-1.287h1.052v1.287h1.71v1.162h-1.71v5.368l-9.324-6.53h8.272zm0 1.162h-4.725l4.725 3.312V24.54zm104.442 9.263h-1.02c-.016-.628-.079-.926-.267-1.24-.282-.518-.863-.848-1.522-.848-1.02 0-1.774.754-1.774 1.805 0 .613.25 1.146.675 1.429.235.173.455.251 1.004.345v1.146c-.753-.11-1.114-.235-1.538-.487-.77-.47-1.209-1.35-1.209-2.433 0-1.71 1.193-2.95 2.81-2.95 1.02 0 1.837.47 2.323 1.35.44-.958 1.382-1.507 2.527-1.507 1.805 0 3.14 1.38 3.14 3.249 0 1.161-.565 2.213-1.476 2.731-.392.235-.738.33-1.412.377v-1.13c.517-.079.753-.157 1.02-.362.47-.36.785-1.02.785-1.663 0-1.162-.926-2.057-2.104-2.057-.785 0-1.46.409-1.742 1.036-.157.346-.204.613-.22 1.209zm0-8.385h-1.02c-.016-.628-.079-.926-.267-1.24-.282-.518-.863-.848-1.522-.848-1.02 0-1.774.754-1.774 1.805 0 .613.25 1.146.675 1.429.235.173.455.251 1.004.345v1.146c-.753-.11-1.114-.235-1.538-.487-.77-.47-1.209-1.35-1.209-2.433 0-1.71 1.193-2.95 2.81-2.95 1.02 0 1.837.47 2.323 1.35.44-.958 1.382-1.507 2.527-1.507 1.805 0 3.14 1.38 3.14 3.249 0 1.161-.565 2.213-1.476 2.731-.392.235-.738.33-1.412.377v-1.13c.517-.079.753-.157 1.02-.361.47-.362.785-1.02.785-1.664 0-1.162-.926-2.057-2.104-2.057-.785 0-1.46.409-1.742 1.036-.157.346-.204.613-.22 1.209zm-67.361 9.806v-4.38h1.083v6.75l-4.41-3.798c-1.617-1.397-2.34-1.821-3.14-1.821-1.114 0-2.009.926-2.009 2.103 0 .707.361 1.397.91 1.743.33.204.613.298 1.24.345v1.177c-.894-.094-1.302-.204-1.805-.533-.879-.566-1.412-1.602-1.412-2.716 0-1.836 1.365-3.265 3.108-3.265 1.145 0 1.867.408 3.986 2.26l2.45 2.135zm-8.303-11.95v5.714h-1.083v-7.707l10.72 7.017-.612.91-9.025-5.933z" fill="#00FFF2"/><text transform="rotate(-90 20.141 86.96)" font-family="Futura365-Boo, Futura 365" font-size="15.697" fill="#29FFEC"><tspan x="15.691" y="90.459">0</tspan></text><path d="M1 175.943h498.864V1H1v174.943zM0 0h500.864v176.943H0V0z" fill="#666" fill-rule="nonzero"/><path d="M36 295h427V177H36v118zm-1-119h429v120H35V176z" fill="#666" fill-rule="nonzero"/><ellipse fill="#E8E8E8" cx="73.541" cy="295.189" rx="22.245" ry="22.189"/><path d="M73.54 318.378c-12.836 0-23.244-10.382-23.244-23.19 0-12.807 10.408-23.188 23.245-23.188 12.837 0 23.244 10.381 23.244 23.189 0 12.807-10.407 23.189-23.244 23.189zm0-2c11.735 0 21.245-9.488 21.245-21.19 0-11.7-9.51-21.188-21.244-21.188s-21.245 9.487-21.245 21.189c0 11.701 9.511 21.189 21.245 21.189z" fill="#333" fill-rule="nonzero"/><path d="M75.077 286.381l1.69 1.256-3.63 4.954c.387-.045.547-.068.821-.068 2.489 0 4.544 2.169 4.544 4.772 0 2.808-2.284 5.091-5.069 5.091s-5.16-2.283-5.16-4.954c0-1.21.502-2.466 1.484-3.836l5.32-7.215zm-1.69 8.174c-1.575 0-2.876 1.278-2.876 2.854a2.88 2.88 0 0 0 2.876 2.876c1.576 0 2.877-1.3 2.877-2.83 0-1.622-1.278-2.9-2.877-2.9z" fill="#333"/><circle fill="#E8E8E8" cx="143.826" cy="295.118" r="22.118"/><path d="M143.826 317.236c12.215 0 22.118-9.903 22.118-22.118 0-12.215-9.903-22.118-22.118-22.118-12.216 0-22.118 9.903-22.118 22.118 0 12.215 9.902 22.118 22.118 22.118zm0 2c-13.32 0-24.118-10.798-24.118-24.118 0-13.32 10.798-24.118 24.118-24.118 13.32 0 24.118 10.798 24.118 24.118 0 13.32-10.798 24.118-24.118 24.118z" fill="#333" fill-rule="nonzero"/><path fill="#333" d="M146.606 290.48h-7.512v-2.147h11.347l-9.612 15.754-1.826-1.165z"/><ellipse fill="#E8E8E8" cx="215.541" cy="295.189" rx="22.245" ry="22.189"/><path d="M215.54 317.378c12.286 0 22.245-9.935 22.245-22.19 0-12.254-9.959-22.188-22.244-22.188s-22.245 9.934-22.245 22.189c0 12.254 9.96 22.189 22.245 22.189zm0 2c-13.388 0-24.244-10.829-24.244-24.19 0-13.36 10.856-24.188 24.245-24.188 13.389 0 24.244 10.829 24.244 24.189s-10.855 24.189-24.244 24.189z" fill="#333" fill-rule="nonzero"/><ellipse fill="#E8E8E8" cx="515.245" cy="144.189" rx="22.245" ry="22.189"/><path d="M515.245 166.378c12.285 0 22.244-9.935 22.244-22.19 0-12.254-9.96-22.188-22.244-22.188-12.286 0-22.245 9.934-22.245 22.189 0 12.254 9.96 22.189 22.245 22.189zm0 2c-13.39 0-24.245-10.829-24.245-24.19 0-13.36 10.856-24.188 24.245-24.188 13.388 0 24.244 10.829 24.244 24.189s-10.856 24.189-24.244 24.189z" fill="#333" fill-rule="nonzero"/><path d="M212.436 295.53c-1.073-.753-1.667-1.895-1.667-3.219 0-2.466 1.918-4.338 4.453-4.338 2.534 0 4.406 1.85 4.406 4.361 0 1.301-.548 2.352-1.667 3.196 1.233.64 1.987 1.987 1.987 3.562 0 2.694-1.964 4.612-4.704 4.612-2.785 0-4.863-1.963-4.863-4.59 0-1.643.754-2.944 2.055-3.584zm2.763-5.48a2.28 2.28 0 0 0-2.26 2.261c0 1.279 1.004 2.306 2.26 2.306 1.255 0 2.26-1.027 2.26-2.283s-1.005-2.283-2.26-2.283zm-.046 6.508c-1.37 0-2.511 1.141-2.511 2.488a2.534 2.534 0 0 0 2.534 2.558c1.37 0 2.511-1.142 2.511-2.535 0-1.37-1.141-2.511-2.534-2.511z" fill="#333"/><path fill="#666" d="M71 0h1v176h-1zm36 0h1v176h-1zm36 0h1v176h-1zm35 1h1v294h-1zm36-1h1v176h-1zm36 0h1v176h-1z"/><ellipse fill="#E8E8E8" cx="90.541" cy="88.189" rx="22.245" ry="22.189"/><path d="M90.54 110.378c12.286 0 22.245-9.935 22.245-22.19 0-12.254-9.959-22.188-22.244-22.188s-22.245 9.934-22.245 22.189c0 12.254 9.96 22.189 22.245 22.189zm0 2c-13.388 0-24.244-10.829-24.244-24.19C66.296 74.829 77.152 64 90.541 64c13.389 0 24.244 10.829 24.244 24.189s-10.855 24.189-24.244 24.189z" fill="#333" fill-rule="nonzero"/><path d="M89.149 88.375v-1.963h.616c.845-.023 1.324-.206 1.712-.64.343-.41.525-.959.525-1.507 0-1.3-.958-2.214-2.328-2.214-.754 0-1.393.297-1.758.799-.206.274-.297.57-.457 1.256h-2.283c.205-1.21.388-1.736.799-2.375.753-1.141 2.078-1.758 3.744-1.758 2.649 0 4.52 1.735 4.52 4.201 0 1.393-.547 2.466-1.643 3.242 1.233.73 1.872 1.987 1.872 3.608 0 2.74-2.032 4.68-4.909 4.68-1.849 0-3.424-.845-4.223-2.26-.343-.594-.457-1.096-.548-2.124h2.214c.115.685.229 1.005.548 1.37.48.571 1.279.914 2.078.914 1.507 0 2.58-1.12 2.58-2.649 0-.959-.411-1.804-1.096-2.215-.434-.25-.913-.342-1.963-.365z" fill="#333"/><path fill="#666" d="M285 0h1v176h-1zm36 1h1v294h-1z"/><path d="M201.968 195.378c-12.837 0-23.245-10.382-23.245-23.19 0-12.807 10.408-23.188 23.245-23.188 12.837 0 23.244 10.381 23.244 23.189 0 12.807-10.407 23.189-23.244 23.189z" stroke="#333" stroke-width="2" fill="#E8E8E8"/><path d="M203.897 175.206h1.621v2.078h-1.62v2.169h-2.307v-2.17h-7.465l9.771-14.177v12.1zm-2.306 0v-5.091l-3.516 5.091h3.516z" fill="#333"/><path fill="#666" d="M357 0h1v176h-1zm35 0h1v176h-1z"/><circle fill="#E8E8E8" cx="392.826" cy="118.118" r="22.118"/><path d="M392.826 140.236c12.215 0 22.118-9.903 22.118-22.118 0-12.215-9.903-22.118-22.118-22.118-12.216 0-22.118 9.903-22.118 22.118 0 12.215 9.902 22.118 22.118 22.118zm0 2c-13.32 0-24.118-10.798-24.118-24.118 0-13.32 10.798-24.118 24.118-24.118 13.32 0 24.118 10.798 24.118 24.118 0 13.32-10.798 24.118-24.118 24.118z" fill="#333" fill-rule="nonzero"/><path d="M391.113 123.393h5.662v2.169h-10.229l5.297-6.393c2.123-2.58 2.671-3.516 2.671-4.475 0-1.416-1.141-2.511-2.602-2.511-.868 0-1.667.388-2.124 1.05-.296.434-.41.822-.525 1.667h-2.283c.16-1.302.365-1.987.89-2.763.868-1.324 2.26-2.055 3.973-2.055 2.786 0 4.909 2.01 4.909 4.612 0 1.644-.64 2.808-3.265 5.913l-2.374 2.786z" fill="#333"/><ellipse fill="#E8E8E8" cx="215.451" cy="29.928" rx="22.172" ry="21.928"/><path d="M215.45 51.856c12.246 0 22.172-9.817 22.172-21.928 0-12.11-9.926-21.928-22.171-21.928s-22.172 9.818-22.172 21.928c0 12.11 9.927 21.928 22.172 21.928zm0 2c-13.344 0-24.171-10.708-24.171-23.928S202.106 6 215.451 6c13.344 0 24.171 10.708 24.171 23.928s-10.827 23.928-24.171 23.928z" fill="#333" fill-rule="nonzero"/><path d="M214.377 38.879l-1.69-1.256 3.63-4.954c-.388.045-.548.068-.822.068-2.488 0-4.543-2.169-4.543-4.772 0-2.808 2.283-5.091 5.068-5.091 2.786 0 5.16 2.283 5.16 4.954 0 1.21-.502 2.466-1.484 3.813l-5.32 7.238zm1.69-13.927c-1.576 0-2.878 1.3-2.878 2.83 0 1.622 1.279 2.923 2.877 2.923a2.894 2.894 0 0 0 2.877-2.877 2.88 2.88 0 0 0-2.877-2.876z" fill="#333"/><path fill="#666" d="M428 0h1v176h-1z"/><ellipse fill="#E8E8E8" cx="357.541" cy="172.189" rx="22.245" ry="22.189"/><path d="M357.54 194.378c12.286 0 22.245-9.935 22.245-22.19 0-12.254-9.959-22.188-22.244-22.188s-22.245 9.934-22.245 22.189c0 12.254 9.96 22.189 22.245 22.189zm0 2c-13.388 0-24.244-10.829-24.244-24.19 0-13.36 10.856-24.188 24.245-24.188 13.389 0 24.244 10.829 24.244 24.189s-10.855 24.189-24.244 24.189z" fill="#333" fill-rule="nonzero"/><path d="M362.56 166.37h-4.68l-.754 2.535c.274-.046.41-.046.593-.046.754 0 1.599.16 2.192.434 1.735.776 2.877 2.717 2.877 4.886 0 3.196-2.397 5.525-5.685 5.525-2.1 0-3.585-.89-4.772-2.854l1.735-1.461c.434.73.64 1.027.96 1.324.593.57 1.438.89 2.282.89 1.827 0 3.242-1.484 3.242-3.379 0-1.917-1.392-3.356-3.242-3.356-1.118 0-1.849.366-2.67 1.37h-.754l2.374-8.014h6.302v2.146z" fill="#333"/><path fill="#666" d="M463 0h1v176h-1zM35 0h1v176h-1z"/><ellipse fill="#E8E8E8" cx="36.541" cy="205.189" rx="22.245" ry="22.189"/><path d="M36.54 227.378c12.286 0 22.245-9.935 22.245-22.19 0-12.254-9.959-22.188-22.244-22.188s-22.245 9.934-22.245 22.189c0 12.254 9.96 22.189 22.245 22.189zm0 2c-13.388 0-24.244-10.829-24.244-24.19 0-13.36 10.856-24.188 24.245-24.188 13.389 0 24.244 10.829 24.244 24.189s-10.855 24.189-24.244 24.189z" fill="#333" fill-rule="nonzero"/><path fill="#333" d="M35.4 199.37h-2.626l1.256-2.146h3.676v15.229H35.4zm472.206-59.932H505l1.246-2.183h3.649v15.49h-2.289v-13.307zM519.675 137c1.473 0 2.99.929 3.92 2.415.93 1.463 1.405 3.367 1.405 5.597 0 2.206-.476 4.11-1.405 5.573-.93 1.463-2.447 2.415-3.92 2.415-1.496 0-3.014-.929-3.943-2.415-.952-1.51-1.405-3.344-1.405-5.69 0-4.528 2.288-7.895 5.348-7.895zm-.023 2.113c-.884 0-1.609.534-2.13 1.533-.612 1.184-.952 2.717-.952 4.273 0 1.695.317 3.158.952 4.412.521.998 1.269 1.533 2.153 1.533.86 0 1.609-.535 2.13-1.533.612-1.23.952-2.717.952-4.343 0-1.625-.34-3.181-.952-4.342-.544-.999-1.27-1.533-2.153-1.533z"/></g></svg>