<?xml version="1.0" encoding="UTF-8"?>
<svg width="19px" height="19px" viewBox="0 0 19 19" version="1.1" xmlns="http://www.w3.org/2000/svg" xmlns:xlink="http://www.w3.org/1999/xlink">
    <!-- Generator: Sketch 46.2 (44496) - http://www.bohemiancoding.com/sketch -->
    <title>Group</title>
    <desc>Created with Sketch.</desc>
    <defs></defs>
    <g id="Page-1" stroke="none" stroke-width="1" fill="none" fill-rule="evenodd">
        <g id="Group" fill-rule="nonzero" fill="#666666">
            <g id="Info" transform="translate(7.000000, 4.000000)">
                <path d="M2.8918808,0.0714125 C3.1095902,0.0714125 3.2951352,0.14934141 3.4485214,0.30520156 C3.6019076,0.46106172 3.6785995,0.6478437 3.6785995,0.86555312 C3.6785995,1.09315843 3.6031446,1.28365132 3.4522324,1.4370375 C3.3013201,1.59042368 3.1145382,1.66711562 2.8918808,1.66711562 C2.6890152,1.66711562 2.50965502,1.58671278 2.35379486,1.42590469 C2.19793471,1.26509659 2.1200058,1.07831461 2.1200058,0.86555312 C2.1200058,0.65279164 2.19793471,0.46724662 2.35379486,0.3089125 C2.50965502,0.15057837 2.6890152,0.0714125 2.8918808,0.0714125 L2.8918808,0.0714125 Z M3.457074,10.729225 L2.51519165,10.729225 L2.51519165,3.8602217 L0.125,3.8602217 L0.125,2.99563125 L3.457074,2.99563125 L3.457074,10.729225 Z" id="i"></path>
            </g>
            <path d="M9.5,18 C14.1944204,18 18,14.1944204 18,9.5 C18,4.80557963 14.1944204,1 9.5,1 C4.80557963,1 1,4.80557963 1,9.5 C1,14.1944204 4.80557963,18 9.5,18 Z M9.5,19 C4.25329488,19 0,14.7467051 0,9.5 C0,4.25329488 4.25329488,0 9.5,0 C14.7467051,0 19,4.25329488 19,9.5 C19,14.7467051 14.7467051,19 9.5,19 Z" id="Oval"></path>
        </g>
    </g>
</svg>