<?xml version="1.0" encoding="UTF-8" standalone="no"?>
<svg width="14px" height="10px" viewBox="0 0 14 10" version="1.1" xmlns="http://www.w3.org/2000/svg" xmlns:xlink="http://www.w3.org/1999/xlink">
    <!-- Generator: Sketch 41 (35326) - http://www.bohemiancoding.com/sketch -->
    <title>Read messages rollover</title>
    <desc>Created with Sketch.</desc>
    <defs></defs>
    <g id="Header" stroke="none" stroke-width="1" fill="none" fill-rule="evenodd">
        <g id="Header-[Fonts-and-Colours]" transform="translate(-976.000000, -466.000000)" fill="#F0F0F0">
            <path d="M977.469856,467.147368 L977.469856,467.210526 C977.469856,467.364913 977.51547,467.538596 977.606699,467.731579 C977.697927,467.924562 977.803189,468.070175 977.922488,468.168421 L982.511962,471.957895 C982.60319,472.035088 982.718979,472.073684 982.85933,472.073684 C982.999682,472.073684 983.11547,472.035088 983.206699,471.957895 L987.785646,468.168421 C987.911962,468.070175 988.020733,467.924562 988.111962,467.731579 C988.20319,467.538596 988.248804,467.364913 988.248804,467.210526 L988.248804,467.147368 C988.248804,467.042105 988.210208,466.952632 988.133014,466.878947 C988.055821,466.805263 987.964594,466.768421 987.85933,466.768421 L977.85933,466.768421 C977.747049,466.768421 977.654067,466.805263 977.580383,466.878947 C977.506698,466.952632 977.469856,467.042105 977.469856,467.147368 Z M976.743541,467.6 C976.729506,467.649123 976.718979,467.701754 976.711962,467.757895 C976.704944,467.814035 976.701435,467.870175 976.701435,467.926316 L976.701435,474.073684 C976.701435,474.396493 976.813715,474.670174 977.038278,474.894737 C977.26284,475.119299 977.533013,475.231579 977.848804,475.231579 L987.85933,475.231579 C988.182139,475.231579 988.45582,475.119299 988.680383,474.894737 C988.904945,474.670174 989.017225,474.396493 989.017225,474.073684 L989.017225,467.926316 C989.017225,467.870175 989.013716,467.814035 989.006699,467.757895 C988.999681,467.701754 988.985646,467.649123 988.964593,467.6 C988.91547,467.817545 988.829506,468.033332 988.706699,468.247368 C988.583891,468.461405 988.441787,468.635087 988.280383,468.768421 L983.701435,472.547368 C983.462838,472.743861 983.182139,472.842105 982.85933,472.842105 C982.536522,472.842105 982.255823,472.743861 982.017225,472.547368 L977.438278,468.768421 C977.276873,468.635087 977.134769,468.461405 977.011962,468.247368 C976.889154,468.033332 976.799681,467.817545 976.743541,467.6 Z M976,467.926316 C976,467.39298 976.185963,466.938598 976.557895,466.563158 C976.929826,466.187717 977.382453,466 977.915789,466 L987.926316,466 C988.459652,466 988.914033,466.187717 989.289474,466.563158 C989.664914,466.938598 989.852632,467.39298 989.852632,467.926316 L989.852632,474.073684 C989.852632,474.60702 989.664914,475.061402 989.289474,475.436842 C988.914033,475.812283 988.459652,476 987.926316,476 L977.915789,476 C977.389471,476 976.938598,475.812283 976.563158,475.436842 C976.187717,475.061402 976,474.60702 976,474.073684 L976,467.926316 Z" id="Read-messages-rollover"></path>
        </g>
    </g>
</svg>