<?xml version="1.0" encoding="UTF-8" standalone="no"?>
<svg width="14px" height="14px" viewBox="0 0 14 14" version="1.1" xmlns="http://www.w3.org/2000/svg" xmlns:xlink="http://www.w3.org/1999/xlink">
    <!-- Generator: Sketch 41 (35326) - http://www.bohemiancoding.com/sketch -->
    <title>Refresh Hover New</title>
    <desc>Created with Sketch.</desc>
    <defs></defs>
    <g id="Page-1" stroke="none" stroke-width="1" fill="none" fill-rule="evenodd">
        <g id="Refresh-Hover-New" fill="#189970">
            <g id="Group">
                <path d="M6.80769231,12 C4.23857625,12 2,9.76142375 2,7 C2,4.23857625 4.23857625,2 7,2 C9.76142375,2 12,4.23857625 12,7 L11.1666667,7 C11.1666667,4.69881358 9.30118642,2.83333333 7,2.83333333 C4.69881358,2.83333333 2.83333333,4.69881358 2.83333333,7 C2.83333333,9.30118642 4.69881358,11.1666667 7,11.1666667 L7,12 L6.80769231,12 Z M12.1187339,7.47203892 C11.7384939,7.800912 11.2781101,7.8086325 10.897501,7.46557683 L9.61881188,6.28564208 L9,6.88102458 L10.2824158,8.064358 C11.0117948,8.72181133 12.0013243,8.70521717 12.7307099,8.073407 L14,6.87796117 L13.3746172,6.2887055 L12.1187339,7.47203892 Z" id="New-Refresh"></path>
            </g>
        </g>
    </g>
</svg>