<?xml version="1.0" encoding="UTF-8"?>
<svg width="19px" height="21px" viewBox="0 0 19 21" version="1.1" xmlns="http://www.w3.org/2000/svg" xmlns:xlink="http://www.w3.org/1999/xlink">
    <!-- Generator: Sketch 46.2 (44496) - http://www.bohemiancoding.com/sketch -->
    <title>Responsible</title>
    <desc>Created with Sketch.</desc>
    <defs></defs>
    <g id="Page-1" stroke="none" stroke-width="1" fill="none" fill-rule="evenodd">
        <g id="Responsible">
            <path d="M9,14.5 C10.3807119,14.5 11.5,13.3807119 11.5,12 C11.5,10.6192881 10.3807119,9.5 9,9.5 C7.61928813,9.5 6.5,10.6192881 6.5,12 C6.5,13.3807119 7.61928813,14.5 9,14.5 Z M9,15.5 C7.06700338,15.5 5.5,13.9329966 5.5,12 C5.5,10.0670034 7.06700338,8.5 9,8.5 C10.9329966,8.5 12.5,10.0670034 12.5,12 C12.5,13.9329966 10.9329966,15.5 9,15.5 Z" id="Oval" fill="#666666" fill-rule="nonzero"></path>
            <path d="M16.0704847,12.8422858 C17.1106006,10.1647511 17.3931329,7.33601004 17.2553443,4.97773951 C17.2454393,4.80821394 17.2359052,4.69414603 17.2303144,4.6416547 L17.2262887,4.47922325 C17.2340241,4.34258278 16.9255,4.12769307 15.7675208,3.73719068 C15.6224009,3.68825225 15.0301349,3.49307352 15.108218,3.51893344 C14.8245098,3.42497358 14.6084764,3.35118211 14.3946774,3.2740771 C13.9712857,3.12138408 13.602982,2.97128617 13.2580381,2.8059278 C12.7631251,2.56213898 10.6515612,1.3803648 10.1912526,1.20429755 C9.82696273,1.06495728 9.50425733,1 9.15455559,1 C8.81563545,1 8.48391829,1.06945136 8.1033512,1.21664689 C7.62183653,1.40288687 5.50698288,2.57336414 5.43031552,2.61245618 C5.29977916,2.67901556 5.17066824,2.74308299 5.04157615,2.8052248 C4.61297465,3.01154318 4.15494778,3.18769737 3.53407329,3.39753278 C3.35756773,3.45718592 2.7706152,3.65059867 2.74438248,3.65933257 C1.43567302,4.09505303 1.04439928,4.34838309 1.05260012,4.46645466 L1.0495943,4.63961524 C1.04430677,4.69024468 1.03526748,4.80062077 1.02586968,4.96490943 C0.891057353,7.32164465 1.1778453,10.1562284 2.22569351,12.8407763 C3.50933972,16.1294298 5.74114645,18.5617842 9.1544997,19.8510699 C12.5660263,18.5619953 14.793234,16.1302686 16.0704847,12.8422858 Z M13.690313,1.9041859 C15.736488,2.88507635 18.3088424,3.04926092 18.2246901,4.53574441 C18.2246901,4.53574441 19.5819123,17.2784986 9.15455559,20.9148615 C-1.27579774,17.2784986 0.0550035272,4.53574424 0.0550035272,4.53574424 C-0.0470361568,3.06662819 2.70259771,2.82132235 4.60783786,1.9041859 C6.513078,0.987049449 7.64320114,0 9.15455559,0 C10.66591,0 11.655179,0.901433938 13.690313,1.9041859 Z" id="path-1" fill="#666666" fill-rule="nonzero"></path>
            <path d="M0.31469727,8.43655632 C0.31469727,8.43655632 3.76377701,5.20258903 9,5.27876372 C13.6757369,5.20258903 16.1984063,7.55396745 17.5514138,8.28557746" id="Path-538" stroke="#666666"></path>
        </g>
    </g>
</svg>