<?xml version="1.0" encoding="UTF-8"?>
<svg width="20px" height="20px" viewBox="0 0 20 20" version="1.1" xmlns="http://www.w3.org/2000/svg" xmlns:xlink="http://www.w3.org/1999/xlink">
    <!-- Generator: Sketch 49 (51002) - http://www.bohemiancoding.com/sketch -->
    <title>Casino_20x20</title>
    <desc>Created with Sketch.</desc>
    <defs></defs>
    <g id="//Published-Mobile" stroke="none" stroke-width="1" fill="none" fill-rule="evenodd">
        <g id="1.2-|-Home" transform="translate(-117.000000, -746.000000)">
            <g id="Casino_20x20" transform="translate(117.000000, 746.000000)">
                <path d="M10,19 C14.9705627,19 19,14.9705627 19,10 C19,5.02943725 14.9705627,1 10,1 C5.02943725,1 1,5.02943725 1,10 C1,14.9705627 5.02943725,19 10,19 Z" id="Oval-378" stroke="#666666" stroke-dasharray="2.5,3.75"></path>
                <path d="M10,20 C4.4771525,20 0,15.5228475 0,10 C0,4.4771525 4.4771525,0 10,0 C15.5228475,0 20,4.4771525 20,10 C20,15.5228475 15.5228475,20 10,20 Z M10,19 C14.9705627,19 19,14.9705627 19,10 C19,5.02943725 14.9705627,1 10,1 C5.02943725,1 1,5.02943725 1,10 C1,14.9705627 5.02943725,19 10,19 Z" id="Combined-Shape" fill="#666666"></path>
                <path d="M10,15 C7.23857625,15 5,12.7614237 5,10 C5,7.23857625 7.23857625,5 10,5 C12.7614237,5 15,7.23857625 15,10 C15,12.7614237 12.7614237,15 10,15 Z M10,14 C12.209139,14 14,12.209139 14,10 C14,7.790861 12.209139,6 10,6 C7.790861,6 6,7.790861 6,10 C6,12.209139 7.790861,14 10,14 Z" id="Combined-Shape" fill="#666666"></path>
                <polygon id="Star" fill="#666666" points="10 11.5 8.23664424 12.427051 8.57341523 10.4635255 7.14683045 9.07294902 9.11832212 8.78647451 10 7 10.8816779 8.78647451 12.8531695 9.07294902 11.4265848 10.4635255 11.7633558 12.427051"></polygon>
                <polygon id="Star" fill="#FFFFFF" points="10 10.5 9.41221475 10.809017 9.52447174 10.1545085 9.04894348 9.69098301 9.70610737 9.5954915 10 9 10.2938926 9.5954915 10.9510565 9.69098301 10.4755283 10.1545085 10.5877853 10.809017"></polygon>
            </g>
        </g>
    </g>
</svg>