<svg width="40" height="17" xmlns="http://www.w3.org/2000/svg" xmlns:xlink="http://www.w3.org/1999/xlink"><defs><path id="a" d="M0 0h13.77v16.07H0z"/></defs><g fill="none" fill-rule="evenodd"><g transform="translate(25.25)"><mask id="b" fill="#fff"><use xlink:href="#a"/></mask><path d="M7.19 10.35h1.57l-1.5 1.82c.3-.13.48-.17.74-.17.97 0 1.72.8 1.72 1.87 0 1.2-.93 2.03-2.3 2.03-.7 0-1.29-.2-1.67-.6a1.95 1.95 0 0 1-.55-1.36c0-.6.3-1.36.8-2.02l1.19-1.57zm.24 2.7c-.49 0-.88.39-.88.88 0 .48.4.88.88.88a.88.88 0 1 0 0-1.76zM9.02 1.2H7.18l-.1.59c.2-.03.3-.04.43-.04 1.1 0 1.9.8 1.9 1.87 0 .6-.26 1.15-.73 1.5-.35.26-.9.41-1.5.41-.67 0-1.22-.15-1.75-.48l.2-1.3c.52.43.97.62 1.46.62.5 0 .9-.34.9-.8 0-.53-.5-.9-1.2-.9-.35 0-.65.06-1 .22L6.23.02h2.78V1.2z" fill="#3AB68F" mask="url(#b)"/></g><rect stroke="#3AB68F" stroke-width="1.4" x=".7" y=".7" width="37.62" height="14.67" rx="3"/><path fill="#3AB68F" d="M7.84 6.94H5.62V5.76H10L6.94 11.1H5.41zM20.47 6.94h-2.22V5.76h4.37l-3.05 5.34h-1.53z"/><path d="M13.2.57V15.5M25.82.57V15.5" stroke="#3AB68F" stroke-width=".5" stroke-linecap="square"/></g></svg>