<?xml version="1.0" encoding="UTF-8"?>
<svg width="44px" height="368px" viewBox="0 0 44 368" version="1.1" xmlns="http://www.w3.org/2000/svg" xmlns:xlink="http://www.w3.org/1999/xlink">
    <!-- Generator: Sketch 49.1 (51147) - http://www.bohemiancoding.com/sketch -->
    <title>Soft LHS Column</title>
    <desc>Created with Sketch.</desc>
    <defs></defs>
    <g id="Page-1" stroke="none" stroke-width="1" fill="none" fill-rule="evenodd">
        <g id="Soft-Table" transform="translate(-1.000000, 10.000000)" fill="#E4E4E4">
            <g id="Group">
                <path d="M8.49951172,14 L7.24267578,14 L7.24267578,9.37255859 L2.52636719,9.37255859 L2.52636719,14 L1.26953125,14 L1.26953125,4.54833984 L2.52636719,4.54833984 L2.52636719,8.25537109 L7.24267578,8.25537109 L7.24267578,4.54833984 L8.49951172,4.54833984 L8.49951172,14 Z M16.453125,14 L15.2661133,14 L15.2661133,13.2446289 C15.1603185,13.3165694 15.0174976,13.4170729 14.8376465,13.5461426 C14.6577953,13.6752122 14.4832365,13.7778317 14.3139648,13.8540039 C14.1150706,13.9513351 13.8865573,14.0327959 13.628418,14.0983887 C13.3702787,14.1639814 13.0677101,14.1967773 12.7207031,14.1967773 C12.0817025,14.1967773 11.5400413,13.9851909 11.0957031,13.5620117 C10.651365,13.1388325 10.4291992,12.5992871 10.4291992,11.9433594 C10.4291992,11.4059218 10.5445138,10.9711117 10.7751465,10.638916 C11.0057791,10.3067203 11.334796,10.0454111 11.762207,9.85498047 C12.1938498,9.66454983 12.7122366,9.53548211 13.3173828,9.46777344 C13.9225291,9.40006477 14.5720994,9.34928402 15.2661133,9.31542969 L15.2661133,9.13134766 C15.2661133,8.86051297 15.2185063,8.63623136 15.123291,8.45849609 C15.0280757,8.28076083 14.8916025,8.14111379 14.7138672,8.03955078 C14.5445955,7.94221957 14.3414725,7.87662777 14.1044922,7.84277344 C13.8675118,7.8089191 13.6199557,7.79199219 13.3618164,7.79199219 C13.0486638,7.79199219 12.6995462,7.83325154 12.3144531,7.91577148 C11.9293601,7.99829143 11.5315776,8.11783776 11.1210938,8.27441406 L11.0576172,8.27441406 L11.0576172,7.06201172 C11.2903657,6.99853484 11.6267882,6.92871132 12.0668945,6.85253906 C12.5070009,6.77636681 12.9407531,6.73828125 13.3681641,6.73828125 C13.8675155,6.73828125 14.3023256,6.7795406 14.6726074,6.86206055 C15.0428892,6.94458049 15.3634427,7.08528546 15.6342773,7.28417969 C15.9008802,7.47884212 16.1040032,7.73062997 16.2436523,8.03955078 C16.3833015,8.3484716 16.453125,8.73144303 16.453125,9.18847656 L16.453125,14 Z M15.2661133,12.2543945 L15.2661133,10.2802734 C14.9021792,10.3014324 14.4737167,10.3331704 13.9807129,10.3754883 C13.4877091,10.4178062 13.0973322,10.4791663 12.8095703,10.5595703 C12.4667952,10.6569015 12.1896169,10.8081858 11.9780273,11.0134277 C11.7664377,11.2186696 11.6606445,11.5011375 11.6606445,11.8608398 C11.6606445,12.2670919 11.7833647,12.5728343 12.0288086,12.7780762 C12.2742525,12.9833181 12.6487605,13.0859375 13.1523438,13.0859375 C13.5712912,13.0859375 13.9542626,13.0044767 14.3012695,12.8415527 C14.6482765,12.6786287 14.9698878,12.4829113 15.2661133,12.2543945 Z M24.6796875,14 L23.4863281,14 L23.4863281,9.96289062 C23.4863281,9.63704264 23.4672853,9.33130026 23.4291992,9.0456543 C23.3911131,8.76000834 23.3212896,8.53678466 23.2197266,8.37597656 C23.1139318,8.1982413 22.9615895,8.06599978 22.7626953,7.97924805 C22.5638011,7.89249631 22.3056656,7.84912109 21.9882812,7.84912109 C21.6624333,7.84912109 21.3217791,7.92952394 20.9663086,8.09033203 C20.6108381,8.25114013 20.2701839,8.45637896 19.9443359,8.70605469 L19.9443359,14 L18.7509766,14 L18.7509766,6.90966797 L19.9443359,6.90966797 L19.9443359,7.69677734 C20.3167336,7.38785653 20.7018209,7.146648 21.0996094,6.97314453 C21.4973978,6.79964106 21.9057596,6.71289062 22.324707,6.71289062 C23.0906614,6.71289062 23.6746399,6.94351983 24.0766602,7.40478516 C24.4786804,7.86605048 24.6796875,8.53043186 24.6796875,9.39794922 L24.6796875,14 Z M32.7285156,14 L31.5351562,14 L31.5351562,13.2573242 C31.1923811,13.5535497 30.8348,13.7841789 30.4624023,13.9492188 C30.0900046,14.1142586 29.6858746,14.1967773 29.25,14.1967773 C28.4036416,14.1967773 27.7318547,13.8709342 27.2346191,13.2192383 C26.7373836,12.5675423 26.4887695,11.6640683 26.4887695,10.5087891 C26.4887695,9.9078746 26.574462,9.37256094 26.7458496,8.90283203 C26.9172372,8.43310312 27.1489243,8.03320478 27.440918,7.703125 C27.7286798,7.38150881 28.0640443,7.13606855 28.4470215,6.96679688 C28.8299987,6.7975252 29.2267232,6.71289062 29.637207,6.71289062 C30.0096047,6.71289062 30.3396796,6.75203411 30.6274414,6.83032227 C30.9152033,6.90861042 31.2177719,7.03027261 31.5351562,7.1953125 L31.5351562,4.12304688 L32.7285156,4.12304688 L32.7285156,14 Z M31.5351562,12.2543945 L31.5351562,8.18554688 C31.2135401,8.04166595 30.9257825,7.94222033 30.671875,7.88720703 C30.4179675,7.83219374 30.1407893,7.8046875 29.840332,7.8046875 C29.1717089,7.8046875 28.6512063,8.03743257 28.2788086,8.50292969 C27.9064109,8.96842681 27.7202148,9.62857646 27.7202148,10.4833984 C27.7202148,11.325525 27.8640936,11.965574 28.1518555,12.4035645 C28.4396173,12.8415549 28.9008757,13.0605469 29.5356445,13.0605469 C29.8741879,13.0605469 30.2169579,12.9854337 30.5639648,12.8352051 C30.9109718,12.6849765 31.234699,12.4913749 31.5351562,12.2543945 Z" id="Hand"></path>
                <g id="Group-39" transform="translate(2.000000, 40.000000)">
                    <path d="M8.72167969,16 L7.38232422,16 L6.45556641,13.3657227 L2.36767578,13.3657227 L1.44091797,16 L0.165039062,16 L3.60546875,6.54833984 L5.28125,6.54833984 L8.72167969,16 Z M6.06835938,12.2866211 L4.41162109,7.64648438 L2.74853516,12.2866211 L6.06835938,12.2866211 Z M12.5366211,14.190918 L10.746582,18.3486328 L9.81982422,18.3486328 L10.9243164,14.190918 L12.5366211,14.190918 Z M21.0361328,16 L14.6376953,16 L14.6376953,14.6733398 C15.0820335,14.2924786 15.5274229,13.911623 15.973877,13.5307617 C16.420331,13.1499004 16.8360983,12.7711607 17.2211914,12.3945313 C18.0336955,11.6074179 18.5901678,10.9821801 18.890625,10.5187988 C19.1910822,10.0554176 19.3413086,9.55501571 19.3413086,9.01757813 C19.3413086,8.52669025 19.179445,8.14266089 18.8557129,7.86547852 C18.5319808,7.58829614 18.0802438,7.44970703 17.5004883,7.44970703 C17.1153952,7.44970703 16.69857,7.51741469 16.25,7.65283203 C15.80143,7.78824938 15.3634461,7.99560407 14.9360352,8.27490234 L14.8725586,8.27490234 L14.8725586,6.94189453 C15.1730158,6.79378181 15.5739721,6.6583665 16.0754395,6.53564453 C16.5769068,6.41292256 17.0624977,6.3515625 17.5322266,6.3515625 C18.5013069,6.3515625 19.2609022,6.5853655 19.8110352,7.05297852 C20.3611681,7.52059153 20.6362305,8.15429288 20.6362305,8.95410156 C20.6362305,9.31380388 20.5907394,9.64916837 20.4997559,9.96020508 C20.4087723,10.2712418 20.274415,10.5664049 20.0966797,10.8457031 C19.9316398,11.1080742 19.7380382,11.3662097 19.5158691,11.6201172 C19.2937001,11.8740247 19.0239274,12.1554347 18.706543,12.4643555 C18.2537412,12.9086936 17.7861352,13.339272 17.3037109,13.7561035 C16.8212867,14.172935 16.3706076,14.5590803 15.9516602,14.9145508 L21.0361328,14.9145508 L21.0361328,16 Z" id="A,2"></path>
                </g>
                <g id="Group-39" transform="translate(2.000000, 81.000000)">
                    <path d="M8.72167969,16 L7.38232422,16 L6.45556641,13.3657227 L2.36767578,13.3657227 L1.44091797,16 L0.165039062,16 L3.60546875,6.54833984 L5.28125,6.54833984 L8.72167969,16 Z M6.06835938,12.2866211 L4.41162109,7.64648438 L2.74853516,12.2866211 L6.06835938,12.2866211 Z M12.5366211,14.190918 L10.746582,18.3486328 L9.81982422,18.3486328 L10.9243164,14.190918 L12.5366211,14.190918 Z M20.2045898,11.4487305 C20.4077159,11.6306975 20.5748691,11.8592109 20.7060547,12.1342773 C20.8372402,12.4093438 20.902832,12.764809 20.902832,13.2006836 C20.902832,13.6323264 20.8245451,14.027993 20.6679688,14.3876953 C20.5113924,14.7473976 20.2913426,15.0605455 20.0078125,15.3271484 C19.6904281,15.6233739 19.3169781,15.8423658 18.8874512,15.9841309 C18.4579243,16.1258959 17.9871445,16.1967773 17.4750977,16.1967773 C16.9503554,16.1967773 16.4340846,16.1343593 15.9262695,16.0095215 C15.4184545,15.8846836 15.0016292,15.7482104 14.6757812,15.6000977 L14.6757812,14.2734375 L14.7709961,14.2734375 C15.1306984,14.5104179 15.5538713,14.7071932 16.0405273,14.8637695 C16.5271834,15.0203458 16.9969053,15.0986328 17.449707,15.0986328 C17.7163099,15.0986328 17.9998357,15.0541997 18.300293,14.965332 C18.6007502,14.8764644 18.8440746,14.7452808 19.0302734,14.5717773 C19.2249359,14.3855785 19.3698726,14.1803397 19.4650879,13.9560547 C19.5603032,13.7317697 19.6079102,13.4482439 19.6079102,13.1054688 C19.6079102,12.7669254 19.5539556,12.4865734 19.4460449,12.2644043 C19.3381342,12.0422352 19.1889658,11.8676764 18.9985352,11.7407227 C18.8081045,11.6095371 18.5774753,11.5196129 18.3066406,11.4709473 C18.0358059,11.4222817 17.7438167,11.3979492 17.4306641,11.3979492 L16.859375,11.3979492 L16.859375,10.3442383 L17.3037109,10.3442383 C17.9469433,10.3442383 18.4600404,10.2098809 18.8430176,9.94116211 C19.2259948,9.67244332 19.4174805,9.2799505 19.4174805,8.76367188 C19.4174805,8.53515511 19.3688156,8.33520594 19.2714844,8.16381836 C19.1741532,7.99243078 19.0387378,7.85172581 18.8652344,7.74169922 C18.6832673,7.63167263 18.4886078,7.55550151 18.28125,7.51318359 C18.0738922,7.47086567 17.8390313,7.44970703 17.5766602,7.44970703 C17.1746399,7.44970703 16.7472353,7.52164642 16.2944336,7.66552734 C15.8416319,7.80940827 15.4142273,8.01253124 15.012207,8.27490234 L14.9487305,8.27490234 L14.9487305,6.94824219 C15.2491877,6.80012947 15.650144,6.66365622 16.1516113,6.53881836 C16.6530787,6.4139805 17.1386695,6.3515625 17.6083984,6.3515625 C18.0696638,6.3515625 18.4759097,6.39387979 18.8271484,6.47851563 C19.1783872,6.56315146 19.4957668,6.69856678 19.7792969,6.88476563 C20.0839859,7.08789164 20.3146151,7.33333189 20.4711914,7.62109375 C20.6277677,7.90885561 20.7060547,8.24527802 20.7060547,8.63037109 C20.7060547,9.1551133 20.5209166,9.61319791 20.1506348,10.0046387 C19.780353,10.3960794 19.343427,10.6425776 18.8398438,10.7441406 L18.8398438,10.8330078 C19.0429698,10.8668621 19.2757148,10.9377436 19.5380859,11.0456543 C19.800457,11.153565 20.0226228,11.2879224 20.2045898,11.4487305 Z" id="A,3"></path>
                    <path d="M8.72167969,58 L7.38232422,58 L6.45556641,55.3657227 L2.36767578,55.3657227 L1.44091797,58 L0.165039062,58 L3.60546875,48.5483398 L5.28125,48.5483398 L8.72167969,58 Z M6.06835938,54.2866211 L4.41162109,49.6464844 L2.74853516,54.2866211 L6.06835938,54.2866211 Z M12.5366211,56.190918 L10.746582,60.3486328 L9.81982422,60.3486328 L10.9243164,56.190918 L12.5366211,56.190918 Z M21.2519531,55.340332 L19.8491211,55.340332 L19.8491211,58 L18.6303711,58 L18.6303711,55.340332 L14.1044922,55.340332 L14.1044922,53.8803711 L18.6811523,48.5483398 L19.8491211,48.5483398 L19.8491211,54.324707 L21.2519531,54.324707 L21.2519531,55.340332 Z M18.6303711,54.324707 L18.6303711,50.059082 L14.9677734,54.324707 L18.6303711,54.324707 Z" id="A,4"></path>
                    <path d="M8.72167969,97 L7.38232422,97 L6.45556641,94.3657227 L2.36767578,94.3657227 L1.44091797,97 L0.165039062,97 L3.60546875,87.5483398 L5.28125,87.5483398 L8.72167969,97 Z M6.06835938,93.2866211 L4.41162109,88.6464844 L2.74853516,93.2866211 L6.06835938,93.2866211 Z M12.5366211,95.190918 L10.746582,99.3486328 L9.81982422,99.3486328 L10.9243164,95.190918 L12.5366211,95.190918 Z M20.9599609,93.9975586 C20.9599609,94.437665 20.8795581,94.8587219 20.71875,95.2607422 C20.5579419,95.6627624 20.337892,96.0013007 20.0585938,96.2763672 C19.7539047,96.5725926 19.391034,96.800048 18.9699707,96.9587402 C18.5489074,97.1174324 18.0612007,97.1967773 17.5068359,97.1967773 C16.9905573,97.1967773 16.4933292,97.1428228 16.0151367,97.0349121 C15.5369442,96.9270014 15.1328142,96.7968758 14.8027344,96.6445312 L14.8027344,95.3051758 L14.8916016,95.3051758 C15.2386085,95.525229 15.6448544,95.712483 16.1103516,95.8669434 C16.5758487,96.0214038 17.0328754,96.0986328 17.4814453,96.0986328 C17.7819025,96.0986328 18.0728339,96.0563155 18.354248,95.9716797 C18.6356622,95.8870438 18.8863921,95.7389333 19.1064453,95.5273438 C19.2926442,95.3453767 19.4333491,95.1274427 19.5285645,94.8735352 C19.6237798,94.6196276 19.6713867,94.3255225 19.6713867,93.9912109 C19.6713867,93.665363 19.6153163,93.3903006 19.5031738,93.1660156 C19.3910313,92.9417306 19.2355153,92.7618822 19.0366211,92.6264648 C18.8165679,92.4656567 18.5489111,92.352458 18.2336426,92.2868652 C17.9183741,92.2212725 17.5660827,92.1884766 17.1767578,92.1884766 C16.8043601,92.1884766 16.4457211,92.2138669 16.1008301,92.2646484 C15.755939,92.3154299 15.4586601,92.3662107 15.2089844,92.4169922 L15.2089844,87.5483398 L20.8964844,87.5483398 L20.8964844,88.6591797 L16.434082,88.6591797 L16.434082,91.1728516 C16.6160491,91.1559244 16.8022451,91.1432292 16.9926758,91.1347656 C17.1831064,91.126302 17.3481438,91.1220703 17.487793,91.1220703 C17.9998398,91.1220703 18.448403,91.1654455 18.8334961,91.2521973 C19.2185892,91.338949 19.5719385,91.4923492 19.8935547,91.7124023 C20.232098,91.9451509 20.4944652,92.2456036 20.6806641,92.6137695 C20.8668629,92.9819354 20.9599609,93.4431938 20.9599609,93.9975586 Z" id="A,5"></path>
                    <path d="M8.72167969,139 L7.38232422,139 L6.45556641,136.365723 L2.36767578,136.365723 L1.44091797,139 L0.165039062,139 L3.60546875,129.54834 L5.28125,129.54834 L8.72167969,139 Z M6.06835938,135.286621 L4.41162109,130.646484 L2.74853516,135.286621 L6.06835938,135.286621 Z M12.5366211,137.190918 L10.746582,141.348633 L9.81982422,141.348633 L10.9243164,137.190918 L12.5366211,137.190918 Z M21.1757812,135.934082 C21.1757812,136.894699 20.8594595,137.678627 20.2268066,138.285889 C19.5941537,138.893151 18.8186895,139.196777 17.9003906,139.196777 C17.4348935,139.196777 17.0117207,139.124838 16.6308594,138.980957 C16.2499981,138.837076 15.9135757,138.623374 15.621582,138.339844 C15.2576479,137.988605 14.9772959,137.523115 14.7805176,136.943359 C14.5837393,136.363604 14.4853516,135.665369 14.4853516,134.848633 C14.4853516,134.010738 14.5752758,133.26807 14.755127,132.620605 C14.9349781,131.973141 15.2216777,131.397626 15.6152344,130.894043 C15.9876321,130.41585 16.4679333,130.0424 17.0561523,129.773682 C17.6443714,129.504963 18.3299115,129.370605 19.112793,129.370605 C19.3624687,129.370605 19.5719393,129.381185 19.7412109,129.402344 C19.9104826,129.423503 20.0818676,129.461588 20.2553711,129.516602 L20.2553711,130.729004 L20.1918945,130.729004 C20.0734044,130.665527 19.8946138,130.605225 19.6555176,130.548096 C19.4164213,130.490967 19.172039,130.462402 18.9223633,130.462402 C18.012528,130.462402 17.2867866,130.746986 16.7451172,131.316162 C16.2034478,131.885338 15.888184,132.654455 15.7993164,133.623535 C16.1547869,133.407714 16.5049625,133.243734 16.8498535,133.131592 C17.1947446,133.019449 17.593585,132.963379 18.0463867,132.963379 C18.448407,132.963379 18.8028142,133.000407 19.1096191,133.074463 C19.4164241,133.148519 19.7306299,133.297688 20.0522461,133.521973 C20.4246438,133.780112 20.7049958,134.105955 20.8933105,134.499512 C21.0816253,134.893068 21.1757812,135.371254 21.1757812,135.934082 Z M19.887207,135.984863 C19.887207,135.591307 19.8290208,135.265464 19.7126465,135.007324 C19.5962722,134.749185 19.4047865,134.524903 19.1381836,134.334473 C18.9435212,134.199055 18.727703,134.110189 18.4907227,134.067871 C18.2537423,134.025553 18.0061862,134.004395 17.7480469,134.004395 C17.3883446,134.004395 17.054038,134.046712 16.7451172,134.131348 C16.4361964,134.215983 16.1188167,134.347167 15.7929688,134.524902 C15.7845052,134.618002 15.7781576,134.707926 15.7739258,134.794678 C15.769694,134.881429 15.7675781,134.990396 15.7675781,135.121582 C15.7675781,135.790205 15.8363437,136.318113 15.973877,136.705322 C16.1114102,137.092531 16.30078,137.398274 16.5419922,137.622559 C16.7366546,137.808757 16.9471831,137.945231 17.173584,138.031982 C17.3999849,138.118734 17.646483,138.162109 17.9130859,138.162109 C18.5266958,138.162109 19.0091128,137.974855 19.3603516,137.600342 C19.7115903,137.225828 19.887207,136.687341 19.887207,135.984863 Z" id="A,6"></path>
                    <path d="M8.72167969,179 L7.38232422,179 L6.45556641,176.365723 L2.36767578,176.365723 L1.44091797,179 L0.165039062,179 L3.60546875,169.54834 L5.28125,169.54834 L8.72167969,179 Z M6.06835938,175.286621 L4.41162109,170.646484 L2.74853516,175.286621 L6.06835938,175.286621 Z M12.5366211,177.190918 L10.746582,181.348633 L9.81982422,181.348633 L10.9243164,177.190918 L12.5366211,177.190918 Z M21.0615234,170.963867 L16.7832031,179 L15.4248047,179 L19.9760742,170.65918 L14.5932617,170.65918 L14.5932617,169.54834 L21.0615234,169.54834 L21.0615234,170.963867 Z" id="A,7"></path>
                    <path d="M8.72167969,219 L7.38232422,219 L6.45556641,216.365723 L2.36767578,216.365723 L1.44091797,219 L0.165039062,219 L3.60546875,209.54834 L5.28125,209.54834 L8.72167969,219 Z M6.06835938,215.286621 L4.41162109,210.646484 L2.74853516,215.286621 L6.06835938,215.286621 Z M12.5366211,217.190918 L10.746582,221.348633 L9.81982422,221.348633 L10.9243164,217.190918 L12.5366211,217.190918 Z M21.105957,216.365723 C21.105957,217.182459 20.7875195,217.861651 20.1506348,218.40332 C19.5137501,218.94499 18.7128954,219.21582 17.7480469,219.21582 C16.7239532,219.21582 15.9082875,218.951337 15.3010254,218.422363 C14.6937632,217.893389 14.3901367,217.216313 14.3901367,216.391113 C14.3901367,215.866371 14.5424789,215.39136 14.847168,214.966064 C15.151857,214.540769 15.5813774,214.203289 16.1357422,213.953613 L16.1357422,213.915527 C15.6279271,213.644693 15.2523612,213.348472 15.0090332,213.026855 C14.7657052,212.705239 14.644043,212.303225 14.644043,211.820801 C14.644043,211.10986 14.9360322,210.517418 15.5200195,210.043457 C16.1040068,209.569496 16.8466752,209.33252 17.7480469,209.33252 C18.6917365,209.33252 19.4449842,209.558917 20.0078125,210.011719 C20.5706408,210.46452 20.8520508,211.040036 20.8520508,211.738281 C20.8520508,212.165692 20.7187513,212.585691 20.4521484,212.998291 C20.1855455,213.410891 19.7941107,213.73356 19.277832,213.966309 L19.277832,214.004395 C19.8702829,214.258302 20.3230779,214.57145 20.6362305,214.943848 C20.9493831,215.316245 21.105957,215.790199 21.105957,216.365723 Z M19.6015625,211.750977 C19.6015625,211.298175 19.4270037,210.93742 19.0778809,210.668701 C18.728758,210.399982 18.2833686,210.265625 17.7416992,210.265625 C17.2084934,210.265625 16.7715675,210.392577 16.4309082,210.646484 C16.0902489,210.900392 15.9199219,211.243162 15.9199219,211.674805 C15.9199219,211.979494 16.0056144,212.242919 16.177002,212.465088 C16.3483895,212.687257 16.6075829,212.88509 16.9545898,213.058594 C17.1111661,213.134766 17.3365057,213.234212 17.6306152,213.356934 C17.9247248,213.479656 18.2114244,213.581217 18.4907227,213.661621 C18.9096701,213.382323 19.1995435,213.092449 19.3603516,212.791992 C19.5211597,212.491535 19.6015625,212.144533 19.6015625,211.750977 Z M19.7983398,216.486328 C19.7983398,216.097003 19.7126473,215.784913 19.5412598,215.550049 C19.3698722,215.315184 19.0345077,215.079266 18.5351562,214.842285 C18.336262,214.749186 18.118328,214.662435 17.8813477,214.582031 C17.6443673,214.501627 17.3291035,214.389486 16.9355469,214.245605 C16.5546856,214.452963 16.2489432,214.734373 16.0183105,215.089844 C15.7876779,215.445314 15.6723633,215.847328 15.6723633,216.295898 C15.6723633,216.86719 15.8691387,217.339028 16.2626953,217.711426 C16.656252,218.083823 17.1555959,218.27002 17.7607422,218.27002 C18.3785838,218.27002 18.8726381,218.11133 19.2429199,217.793945 C19.6132017,217.476561 19.7983398,217.040693 19.7983398,216.486328 Z" id="A,8"></path>
                    <path d="M8.72167969,260 L7.38232422,260 L6.45556641,257.365723 L2.36767578,257.365723 L1.44091797,260 L0.165039062,260 L3.60546875,250.54834 L5.28125,250.54834 L8.72167969,260 Z M6.06835938,256.286621 L4.41162109,251.646484 L2.74853516,256.286621 L6.06835938,256.286621 Z M12.5366211,258.190918 L10.746582,262.348633 L9.81982422,262.348633 L10.9243164,258.190918 L12.5366211,258.190918 Z M21.0234375,254.706055 C21.0234375,255.531254 20.9292815,256.28027 20.7409668,256.953125 C20.5526521,257.62598 20.2680683,258.199379 19.887207,258.67334 C19.502114,259.155764 19.0196969,259.528156 18.4399414,259.790527 C17.8601859,260.052898 17.1788776,260.184082 16.3959961,260.184082 C16.1759429,260.184082 15.9685882,260.172445 15.7739258,260.14917 C15.5792633,260.125895 15.4057625,260.088867 15.253418,260.038086 L15.253418,258.825684 L15.3168945,258.825684 C15.4396165,258.88916 15.6131174,258.949463 15.8374023,259.006592 C16.0616873,259.063721 16.3113593,259.092285 16.5864258,259.092285 C17.5216518,259.092285 18.2547988,258.811933 18.7858887,258.251221 C19.3169786,257.690508 19.6248368,256.91716 19.7094727,255.931152 C19.315916,256.168133 18.9456398,256.337402 18.5986328,256.438965 C18.2516259,256.540528 17.8728862,256.591309 17.4624023,256.591309 C17.0730775,256.591309 16.7207861,256.553223 16.4055176,256.477051 C16.0902491,256.400879 15.7739274,256.252768 15.456543,256.032715 C15.0841453,255.774576 14.8037933,255.446617 14.6154785,255.048828 C14.4271638,254.65104 14.3330078,254.17497 14.3330078,253.620605 C14.3330078,252.655757 14.6503875,251.870771 15.2851562,251.265625 C15.919925,250.660479 16.6943314,250.35791 17.6083984,250.35791 C18.065432,250.35791 18.4886048,250.428792 18.8779297,250.570557 C19.2672546,250.712322 19.6079087,250.924966 19.8999023,251.208496 C20.2596047,251.559735 20.5367829,252.011472 20.7314453,252.563721 C20.9261077,253.11597 21.0234375,253.830074 21.0234375,254.706055 Z M19.7412109,254.433105 C19.7412109,253.777178 19.6735033,253.250328 19.5380859,252.852539 C19.4026686,252.454751 19.2164725,252.145834 18.9794922,251.925781 C18.780598,251.735351 18.5668957,251.598877 18.3383789,251.516357 C18.1098621,251.433837 17.862306,251.392578 17.5957031,251.392578 C16.9863251,251.392578 16.504966,251.583006 16.1516113,251.963867 C15.7982567,252.344728 15.621582,252.880042 15.621582,253.569824 C15.621582,253.971844 15.6787104,254.299803 15.7929688,254.553711 C15.9072271,254.807618 16.0997708,255.029784 16.3706055,255.220215 C16.5610361,255.3514 16.7705067,255.439209 16.9990234,255.483643 C17.2275402,255.528076 17.4814439,255.550293 17.7607422,255.550293 C18.090822,255.550293 18.4251285,255.50586 18.7636719,255.416992 C19.1022152,255.328125 19.4195949,255.199057 19.7158203,255.029785 C19.7200521,254.940918 19.7253418,254.853109 19.7316895,254.766357 C19.7380371,254.679606 19.7412109,254.568523 19.7412109,254.433105 Z" id="A,9"></path>
                </g>
            </g>
        </g>
    </g>
</svg>