<svg width="28" height="28" xmlns="http://www.w3.org/2000/svg"><g fill="none" fill-rule="evenodd"><path d="M14.033 1c7.114 0 12.88 5.854 12.88 13.076s-5.766 13.076-12.88 13.076c-7.113 0-12.88-5.854-12.88-13.076S6.92 1 14.034 1z" stroke="#3AB68F" stroke-width="1.4" fill="#FFF"/><path d="M3.398 21.29c1.115-.108 5.624-.759 5.948-1.023v-.778L2.993 20.54l.405.75zM10.22 26.5c.28-1.103.69-2.504.557-2.904l-.721-.265-.527 3.002s.237.088.444.137c.1.024.191.038.247.03zM1.637 16.293l3.076-7.956-.62-.443-2.696 7.513zM10.643 15.75L7.385 8.266l-.744.094 3.352 7.629zM4.889 6.455l-1.09-.193-.417.57 1.158.225zM14.876 16.836l6.068-5.781-.575-.372-5.954 5.673zM19.173 2.107c-.356-.207-.527-.19-.903-.362l3.775 3.746h1.01s-2.82-2.228-3.882-3.384zM10.219 1.606s-.865.738-1.41 1.683l.311.327 1.85-2.234-.751.224zM24.828 10.659l-.583.515-.625 8.889.67-.578zM22.527 22.756c.123-.132.244-.265.362-.401l-8.145-1.248-.137.64s7.499 1.217 7.92 1.009zM18.605 7.24s-.118-.386 0-.522L10.2 4.388l-.311.496 8.715 2.357z" fill="#3AB68F"/><path d="M15.06 16.17s-1.388-.224-2.92-.596c-1.534-.371-2.337-.594-2.337-.594s-.95 1.115-1.753 2.379c-.803 1.263-1.168 2.973-1.168 2.973l3.505 3.569 5.257-2.379-.584-5.353zM25.948 18.915l-1.997-.052-3.092 3.312s-.131 2.576.125 2.822c1.312-.552 4.085-3.27 4.964-6.082zM20.022 11.411l4.427 1.47s.855-1.559.995-2.187c.119-.54.398-1.733.398-1.733s-.566-1.484-1.76-2.988c-.221-.263-2.892-1.7-2.892-1.7l-2.92 2.38 1.752 4.758zM7.466 9.08L10.97 4.87l-1.169-2.38L6.184 3.8l-.982.902S4.326 5.91 3.961 6.653c-.365.743 0 2.379 0 2.379h3.505v.048zM3.825 22.04l-.902-3.492s-.376-.817-.887-2.229c-.172-.476-.639-.984-.813-1.518-.022 2.146.942 5.117 2.602 7.24z" fill="#3AB68F"/></g></svg>