<?xml version="1.0" encoding="UTF-8" standalone="no"?>
<svg width="21px" height="20px" viewBox="0 0 21 20" version="1.1" xmlns="http://www.w3.org/2000/svg" xmlns:xlink="http://www.w3.org/1999/xlink">
    <!-- Generator: Sketch 41 (35326) - http://www.bohemiancoding.com/sketch -->
    <title>Technical cog</title>
    <desc>Created with Sketch.</desc>
    <defs></defs>
    <g id="HELP-General" stroke="none" stroke-width="1" fill="none" fill-rule="evenodd">
        <g id="Common-Assets" transform="translate(-427.000000, -248.000000)" stroke="#666666">
            <g id="Technical-cog" transform="translate(428.000000, 249.000000)">
                <path d="M2.91084335,12.4373567 L2.03076203,13.6899376 C1.77163804,14.0587373 1.82306123,14.6234277 2.14869072,14.946837 L3.30600876,16.0962643 C3.63663648,16.4246377 4.19990699,16.4737732 4.5752725,16.2170991 L5.75940707,15.4073906 C6.29998198,15.7214639 6.88406447,15.9696866 7.50049713,16.1409776 L7.70618513,17.2482829 C7.78886669,17.6933927 8.22214162,18.0542254 8.68971982,18.0542254 L10.3264147,18.0542254 C10.7869243,18.0542254 11.2253236,17.6910428 11.3046663,17.2482829 L11.5024411,16.1446314 C12.0757381,15.9864662 12.6211646,15.7617905 13.1297654,15.4794983 L14.2084483,16.2170991 C14.5838138,16.4737732 15.1470843,16.4246377 15.477712,16.0962643 L16.63503,14.946837 C16.9606595,14.6234277 17.0120827,14.0587373 16.7529587,13.6899376 L16.0039378,12.6238892 C16.3448271,12.0175438 16.6021453,11.358542 16.7604142,10.6622567 L18.1885247,10.4005825 C18.6366901,10.3184647 19,9.88814389 19,9.42375372 L19,7.79821813 C19,7.34084832 18.6343241,6.90543812 18.1885247,6.82663638 L16.5217391,6.53200699 C16.5217391,6.53200699 16.1660967,5.70715504 15.9309201,5.30765547 L16.7529587,4.13768421 C17.0120827,3.76888449 16.9606595,3.20419404 16.63503,2.88078475 L15.477712,1.73135752 C15.1470843,1.40298408 14.5838138,1.35384862 14.2084483,1.61052268 L12.9405763,2.47749054 C12.4866666,2.24243526 12.005274,2.05254455 11.5024411,1.91381953 L11.3046663,0.810167959 C11.2253236,0.367408129 10.7869243,0.00422544788 10.3264147,0.00422544788 L8.68971982,0.00422544788 C8.22214162,0.00422544788 7.78886669,0.365058201 7.70618513,0.810167959 L7.50049713,1.91747333 C6.95386099,2.06936961 6.43266397,2.28176253 5.94468645,2.54692474 L4.5752725,1.61052268 C4.19990699,1.35384862 3.63663648,1.40298408 3.30600876,1.73135752 L2.14869072,2.88078475 C1.82306123,3.20419404 1.77163804,3.76888449 2.03076203,4.13768421 L2.98115647,5.4903386 C2.78327821,5.84957091 2.47826087,6.53200699 2.47826087,6.53200699 L0.811475298,6.82663638 C0.365675926,6.90543812 0,7.34084832 0,7.79821813 L0,9.42375372 C0,9.88814389 0.363309866,10.3184647 0.811475298,10.4005825 L2.25642227,10.6653416 C2.39863072,11.2897181 2.62049316,11.8840865 2.91084335,12.4373567 Z M12.3592773,8.73517783 C12.3592773,7.16116629 11.0832889,5.88517783 9.50927734,5.88517783 C7.93526581,5.88517783 6.65927734,7.16116629 6.65927734,8.73517783 C6.65927734,10.3091894 7.93526581,11.5851778 9.50927734,11.5851778 C11.0832889,11.5851778 12.3592773,10.3091894 12.3592773,8.73517783 Z" id="Technical"></path>
            </g>
        </g>
    </g>
</svg>