<?xml version="1.0" encoding="UTF-8"?>
<svg width="21px" height="20px" viewBox="0 0 21 20" version="1.1" xmlns="http://www.w3.org/2000/svg" xmlns:xlink="http://www.w3.org/1999/xlink">
    <!-- Generator: Sketch 46.2 (44496) - http://www.bohemiancoding.com/sketch -->
    <title>Technical_Selected</title>
    <desc>Created with Sketch.</desc>
    <defs></defs>
    <g id="Published-Mobile" stroke="none" stroke-width="1" fill="none" fill-rule="evenodd">
        <g id="2.7-|-New-Customers" transform="translate(-22.000000, -148.000000)" stroke="#14805E">
            <path d="M25.9108433,161.433131 L25.030762,162.685712 C24.771638,163.054512 24.8230612,163.619202 25.1486907,163.942612 L26.3060088,165.092039 C26.6366365,165.420412 27.199907,165.469548 27.5752725,165.212874 L28.7594071,164.403165 C29.299982,164.717238 29.8840645,164.965461 30.5004971,165.136752 L30.7061851,166.244057 C30.7888667,166.689167 31.2221416,167.05 31.6897198,167.05 L33.3264147,167.05 C33.7869243,167.05 34.2253236,166.686817 34.3046663,166.244057 L34.5024411,165.140406 C35.0757381,164.982241 35.6211646,164.757565 36.1297654,164.475273 L37.2084483,165.212874 C37.5838138,165.469548 38.1470843,165.420412 38.477712,165.092039 L39.63503,163.942612 C39.9606595,163.619202 40.0120827,163.054512 39.7529587,162.685712 L39.0039378,161.619664 C39.3448271,161.013318 39.6021453,160.354317 39.7604142,159.658031 L41.1885247,159.396357 C41.6366901,159.314239 42,158.883918 42,158.419528 L42,156.793993 C42,156.336623 41.6343241,155.901213 41.1885247,155.822411 L39.5217391,155.527782 C39.5217391,155.527782 39.1660967,154.70293 38.9309201,154.30343 L39.7529587,153.133459 C40.0120827,152.764659 39.9606595,152.199969 39.63503,151.876559 L38.477712,150.727132 C38.1470843,150.398759 37.5838138,150.349623 37.2084483,150.606297 L35.9405763,151.473265 C35.4866666,151.23821 35.005274,151.048319 34.5024411,150.909594 L34.3046663,149.805943 C34.2253236,149.363183 33.7869243,149 33.3264147,149 L31.6897198,149 C31.2221416,149 30.7888667,149.360833 30.7061851,149.805943 L30.5004971,150.913248 C29.953861,151.065144 29.432664,151.277537 28.9446864,151.542699 L27.5752725,150.606297 C27.199907,150.349623 26.6366365,150.398759 26.3060088,150.727132 L25.1486907,151.876559 C24.8230612,152.199969 24.771638,152.764659 25.030762,153.133459 L25.9811565,154.486113 C25.7832782,154.845345 25.4782609,155.527782 25.4782609,155.527782 L23.8114753,155.822411 C23.3656759,155.901213 23,156.336623 23,156.793993 L23,158.419528 C23,158.883918 23.3633099,159.314239 23.8114753,159.396357 L25.2564223,159.661116 C25.3986307,160.285493 25.6204932,160.879861 25.9108433,161.433131 Z M35.3592773,157.730952 C35.3592773,156.156941 34.0832889,154.880952 32.5092773,154.880952 C30.9352658,154.880952 29.6592773,156.156941 29.6592773,157.730952 C29.6592773,159.304964 30.9352658,160.580952 32.5092773,160.580952 C34.0832889,160.580952 35.3592773,159.304964 35.3592773,157.730952 Z" id="Technical_Selected"></path>
        </g>
    </g>
</svg>