<svg width="37" height="38" xmlns="http://www.w3.org/2000/svg" xmlns:xlink="http://www.w3.org/1999/xlink"><defs><ellipse id="a" cx="11.1" cy="11" rx="11.1" ry="10.7"/></defs><g fill="none" fill-rule="evenodd"><g stroke="#3AB68F" stroke-width="2"><path d="M1 6.9c0-7.7 22.7-8 22.7 0v16.3c0 5.7-22.7 5.6-22.7 0V7z"/><path d="M1 6.9c0-7.7 22.7-8 22.7 0v-.4c0 5.8-22.7 5.7-22.7 0V7z"/><path d="M23.7 11.8v-.3c0 5.7-22.7 5.6-22.7 0v.3M23.7 17.5v-.3c0 5.7-22.7 5.6-22.7 0v.3"/></g><g transform="translate(12.3 14.2)"><use fill="#FFF" xlink:href="#a"/><ellipse stroke="#FFF" stroke-width="2" cx="11.1" cy="11" rx="12.1" ry="11.7"/><use stroke="#3AB68F" stroke-width="2" xlink:href="#a"/></g><path d="M19.9 25.3h7.8" stroke="#BBB" stroke-width="2" stroke-linecap="round"/></g></svg>