<svg width="30" height="34" xmlns="http://www.w3.org/2000/svg" xmlns:xlink="http://www.w3.org/1999/xlink"><defs><path id="a" d="M0 0h5.9v4.2H0z"/></defs><g fill="none" fill-rule="evenodd"><path d="M4.4 27.5V14.6s0-9.5 10.4-9.5 10.4 9.5 10.4 9.5v13.2" stroke="#3AB68F" stroke-width="2" fill="#FFF"/><g transform="translate(12.1 30)"><mask id="b" fill="#fff"><use xlink:href="#a"/></mask><rect fill="#3AB68F" mask="url(#b)" y="-1.7" width="5.9" height="5" rx="2.5"/></g><path d="M2 26.8a56.6 56.6 0 0 0 26.2 0M2 28.5a56.6 56.6 0 0 0 26.2 0" stroke="#FFF" stroke-width="2" stroke-linecap="square"/><path d="M2 27.6a56.6 56.6 0 0 0 26.2 0" stroke="#3DB38D" stroke-width="2" stroke-linecap="square"/><path fill="#3AB68F" d="M13.3 0h2.1v5.1h-2.1z"/><path fill="#BBB" d="M14.4 24.7h8.3v1h-8.3zM18.5 21.6h4.2v1h-4.2zM21.6 18.5h1v1h-1z"/></g></svg>