<svg width="32" height="37" xmlns="http://www.w3.org/2000/svg"><g transform="translate(1 1)" fill="none" fill-rule="evenodd"><path d="M3.8 1.9h21.9v5c0 5.2-7.7 6.5-7.7 10.3 0 3.9 7.7 6.4 7.7 11.5v5H3.8v-5c0-6.3 7.7-8.3 7.7-11.5C11.5 14 3.8 12 3.8 7V1.9z" stroke="#41B590" stroke-width="2" fill="#FFF"/><path d="M12.2 23.5c0 4.4-5.9 1.8-5.9 9.2h17c0-7.4-6-4.8-6-9.2h-5.1z" fill="#BBB" opacity=".5"/><rect stroke="#FFF" fill="#41B590" x="-.5" y="-.5" width="30.6" height="2.9" rx="1.4"/><path d="M1 32.6h27.6a1.4 1.4 0 0 1 0 2.9H1a1.4 1.4 0 0 1 0-2.9z" stroke="#FFF" fill="#41B590"/></g></svg>