<?xml version="1.0" encoding="utf-8"?>
<!-- Generator: Adobe Illustrator 16.0.0, SVG Export Plug-In . SVG Version: 6.00 Build 0)  -->
<!DOCTYPE svg PUBLIC "-//W3C//DTD SVG 1.1//EN" "http://www.w3.org/Graphics/SVG/1.1/DTD/svg11.dtd" [
	<!ENTITY ns_extend "http://ns.adobe.com/Extensibility/1.0/">
	<!ENTITY ns_ai "http://ns.adobe.com/AdobeIllustrator/10.0/">
	<!ENTITY ns_graphs "http://ns.adobe.com/Graphs/1.0/">
	<!ENTITY ns_vars "http://ns.adobe.com/Variables/1.0/">
	<!ENTITY ns_imrep "http://ns.adobe.com/ImageReplacement/1.0/">
	<!ENTITY ns_sfw "http://ns.adobe.com/SaveForWeb/1.0/">
	<!ENTITY ns_custom "http://ns.adobe.com/GenericCustomNamespace/1.0/">
	<!ENTITY ns_adobe_xpath "http://ns.adobe.com/XPath/1.0/">
]>
<svg version="1.1" xmlns:x="&ns_extend;" xmlns:i="&ns_ai;" xmlns:graph="&ns_graphs;"
	 xmlns="http://www.w3.org/2000/svg" xmlns:xlink="http://www.w3.org/1999/xlink" x="0px" y="0px" width="750px" height="750px"
	 viewBox="0 0 750 750" enable-background="new 0 0 750 750" xml:space="preserve">
<metadata>
	<sfw  xmlns="&ns_sfw;">
		<slices></slices>
		<sliceSourceBounds  y="-1576" x="0" width="1572" height="2326" bottomLeftOrigin="true"></sliceSourceBounds>
	</sfw>
</metadata>
<g id="FILL-BACKGROUND">
	<rect fill="#FFFFFF" width="750" height="750"/>
</g>
<g id="N-DIMENSIONS">
</g>
<g id="N-TEXT">
</g>
<g id="AG-OUTLINE">
	<g id="POLYLINE_20_">
		
			<path fill="none" stroke="#E74C3C" stroke-width="3.5" stroke-linecap="round" stroke-linejoin="round" stroke-miterlimit="10" d="
			M630.542,375c-0.076-8.855-0.529-17.653-1.375-26.469c-0.835-8.703-2.316-17.343-4.055-25.906
			c-1.727-8.505-4.026-16.893-6.627-25.168c-2.59-8.244-5.672-16.338-9.109-24.264c-3.435-7.921-7.265-15.679-11.507-23.199
			c-4.252-7.537-8.816-14.912-13.831-21.969c-5.042-7.094-10.332-14.035-16.089-20.568c-5.806-6.589-11.814-13.029-18.278-18.982
			c-6.535-6.018-13.291-11.712-20.324-17.138c-6.958-5.368-14.322-10.2-21.796-14.812c-7.411-4.57-15.147-8.612-22.991-12.383
			c-7.801-3.75-15.842-7.006-23.989-9.922c-8.129-2.91-16.422-5.377-24.809-7.424c-8.394-2.049-16.891-3.718-25.454-4.88
			c-8.595-1.167-17.251-2.019-25.925-2.282c-8.734-0.266-17.5-0.266-26.22,0.38c-8.821,0.653-17.599,1.619-26.32,3.114
			c-8.722,1.494-17.32,3.506-25.856,5.826c-8.438,2.293-16.702,5.212-24.85,8.371c-8.091,3.137-15.97,6.82-23.687,10.782
			c-7.688,3.946-15.145,8.351-22.378,13.075c-7.227,4.722-14.225,9.811-20.922,15.26c-6.711,5.463-13.209,11.209-19.317,17.343
			c-6.141,6.167-12.089,12.554-17.556,19.331c-5.514,6.835-10.85,13.845-15.623,21.223c-4.826,7.458-9.299,15.077-13.459,22.926
			c-4.115,7.764-7.637,15.84-10.916,23.985c-3.252,8.077-5.932,16.384-8.324,24.751c-2.379,8.322-4.229,16.798-5.728,25.32
			c-1.495,8.504-2.527,17.094-3.128,25.707c-0.6,8.618-0.812,17.275-0.51,25.912c0.303,8.668,0.924,17.344,2.129,25.938
			c1.213,8.653,2.692,17.292,4.802,25.777c2.134,8.584,4.569,17.073,7.515,25.417s6.381,16.479,10.109,24.501
			c3.684,7.929,7.957,15.583,12.447,23.079c4.459,7.445,9.42,14.589,14.629,21.525c5.188,6.911,10.787,13.516,16.666,19.848
			c5.874,6.327,12.071,12.365,18.574,18.045c6.518,5.692,13.278,11.127,20.356,16.111c7.115,5.011,14.415,9.796,22.019,14.039
			c7.668,4.279,15.477,8.354,23.555,11.813c8.166,3.497,16.432,6.619,24.871,9.395c8.347,2.745,16.9,4.85,25.482,6.709
			c8.511,1.843,17.15,3.077,25.802,4.023c8.604,0.94,17.271,1.332,25.925,1.37c8.634,0.037,17.275-0.397,25.865-1.26
			c8.597-0.863,17.163-2.12,25.626-3.873c8.494-1.76,16.938-3.842,25.207-6.479c8.324-2.655,16.59-5.573,24.597-9.086
			c8.1-3.554,16.056-7.386,23.782-11.699c7.726-4.312,15.166-9.071,22.441-14.102c7.191-4.973,14.016-10.475,20.646-16.167
			c6.585-5.652,12.787-11.748,18.745-18.053c5.936-6.281,11.5-12.916,16.748-19.779c5.243-6.859,10.149-13.986,14.649-21.354
			c4.511-7.385,8.724-14.968,12.441-22.785c3.737-7.859,7.22-15.862,10.118-24.073c2.924-8.281,5.619-16.666,7.667-25.212
			c2.069-8.639,3.749-17.313,5.058-26.1c1.295-8.692,1.928-17.478,2.31-26.251C630.505,381.176,630.516,378.087,630.542,375z"/>
	</g>
</g>
<g id="AG-SPORTS">
	<g id="POLYLINE_15_">
		
			<path fill="none" stroke="#E74C3C" stroke-width="2.75" stroke-linecap="round" stroke-linejoin="round" stroke-miterlimit="10" d="
			M538.781,571.157c-7.913-2.099-15.573-5.124-22.723-9.127c-7.265-4.067-14.132-8.812-20.758-13.846
			c-7.046-5.354-13.869-10.958-20.618-16.679c-6.492-5.504-12.968-11.032-19.348-16.666c-7.237-6.391-14.456-12.796-21.632-19.256
			c-5.913-5.323-11.802-10.681-17.605-16.123c-7.27-6.819-14.501-13.669-21.696-20.566c-5.664-5.431-11.266-10.934-16.803-16.495
			c-6.681-6.711-13.349-13.427-19.888-20.275c-5.971-6.252-11.871-12.609-17.427-19.235c-5.774-6.888-11.325-13.924-16.494-21.28
			c-4.915-6.995-9.383-14.319-13.286-21.926c-3.686-7.184-6.777-14.724-8.977-22.499c-2.201-7.783-3.681-15.771-4.269-23.844
			c-0.63-8.648-0.274-17.291,0.838-25.885c0.067-0.519,0.146-1.035,0.218-1.552c0.039-0.276,0.044-1.435,0.242-1.581
			c0.283-0.209,1.719,0.115,2.054,0.139c3.042,0.203,6.083,0.406,9.124,0.61c4.345,0.291,8.683,0.679,13.021,1.034
			c8.127,0.666,16.268,1.5,24.361,2.488c9.025,1.102,18.042,2.243,27.037,3.577c9.208,1.365,18.386,2.884,27.557,4.481
			c8.208,1.429,16.416,2.984,24.566,4.713c8.551,1.814,17.1,3.635,25.605,5.652c9.137,2.166,18.242,4.436,27.326,6.814
			c8.687,2.275,17.315,4.744,25.943,7.225c8.297,2.386,16.51,5.06,24.697,7.793c8.108,2.708,16.188,5.656,24.082,8.939
			c8.167,3.395,16.264,6.924,24.172,10.89c7.857,3.94,15.649,8.126,23.01,12.944c7.264,4.754,14.067,10.059,20.294,16.116
			c3.066,2.983,5.982,6.105,8.852,9.276c0.093-2.188,0.17-4.374,0.225-6.562c0.017-0.66,0.356-2.228-0.078-2.68
			c-0.814-0.847-1.63-1.692-2.456-2.527c-2.991-3.025-6.092-5.959-9.351-8.694c-6.449-5.414-13.421-10.227-20.701-14.455
			c-7.659-4.448-15.485-8.542-23.479-12.356c-7.801-3.723-15.796-7.004-23.825-10.193c-7.992-3.174-16.151-6.033-24.337-8.668
			c-8.597-2.768-17.228-5.387-25.907-7.883c-8.72-2.508-17.483-4.844-26.262-7.143c-7.962-2.084-15.977-4.057-24.007-5.863
			c-8.541-1.92-17.081-3.836-25.666-5.55c-9.121-1.821-18.257-3.538-27.42-5.134c-8.771-1.528-17.573-2.854-26.381-4.159
			c-8.056-1.194-16.164-2.231-24.261-3.112c-8.982-0.976-17.965-1.914-26.972-2.65c-6.553-0.535-13.108-0.982-19.668-1.422
			c1.761-8.34,4.075-16.576,7.329-24.464c3.185-7.723,7.243-15.019,12.306-21.67c4.838-6.355,10.521-12.046,16.637-17.169
			c6.737-5.643,14.055-10.537,21.685-14.887c7.614-4.34,15.585-8.043,23.701-11.341c7.903-3.212,15.972-6.099,24.142-8.56
			c8.677-2.613,17.408-4.916,26.237-6.951c8.236-1.898,16.599-3.48,24.977-4.598c8.579-1.143,17.225-1.941,25.888-1.896
			c8.309,0.043,16.608,0.641,24.832,1.842c8.183,1.194,16.25,2.882,24.271,4.885c-3.365-2.57-6.742-5.127-10.227-7.535
			c-0.596-0.412-1.191-0.824-1.787-1.235c-0.291-0.2-0.777-0.705-1.132-0.771c-1.094-0.204-2.186-0.409-3.281-0.602
			c-2.104-0.37-4.214-0.724-6.331-1.022c-8.689-1.227-17.452-1.998-26.234-1.969c-8.87,0.029-17.686,0.771-26.475,1.945
			c-8.521,1.139-16.948,2.845-25.351,4.641c-8.525,1.821-16.973,4.09-25.319,6.596c-8.444,2.535-16.75,5.444-24.966,8.641
			c-7.935,3.088-15.703,6.697-23.187,10.752c-7.458,4.042-14.646,8.604-21.363,13.79c-6.693,5.167-12.951,10.944-18.43,17.394
			c-5.578,6.566-10.267,13.796-13.973,21.575c-3.503,7.354-6.193,15.089-8.25,22.966c-0.533,2.043-1.037,4.094-1.489,6.156
			c-0.099,0.449-0.2,0.896-0.294,1.347c-0.062,0.307-0.129,1.616-0.367,1.786c-0.14,0.1-0.773-0.035-0.936-0.043
			c-0.768-0.035-1.536-0.07-2.305-0.105c-4.319-0.199-8.641-0.363-12.964-0.477c-8.655-0.229-17.317-0.32-25.975-0.166
			c-3.761,0.067-7.519,0.17-11.279,0.283c1.776-8.562,3.702-17.089,5.98-25.534c2.358-8.743,5.023-17.382,7.943-25.953
			c2.763-8.112,5.897-16.131,9.337-23.979c3.598-8.209,7.48-16.291,11.898-24.092c4.334-7.652,9.146-15.058,14.58-21.976
			c5.435-6.917,11.436-13.346,17.866-19.345c4.06-3.787,8.315-7.343,12.664-10.79c-4.318,0.983-8.616,2.027-12.889,3.196
			c-0.422,0.115-1.024,0.168-1.407,0.385c-0.48,0.272-0.914,0.826-1.324,1.197c-0.742,0.67-1.472,1.354-2.2,2.039
			c-1.55,1.455-3.067,2.943-4.571,4.446c-5.846,5.837-11.252,12.147-16.137,18.808c-5.103,6.953-9.6,14.279-13.793,21.81
			c-4.154,7.458-7.83,15.242-11.155,23.103c-3.502,8.279-6.747,16.648-9.644,25.159c-2.893,8.503-5.432,17.107-7.76,25.78
			c-2.283,8.51-4.164,17.117-5.931,25.746c-0.13,0.637-2.012,0.387-2.573,0.416c-0.925,0.051-1.85,0.096-2.773,0.154
			c-2.365,0.15-4.729,0.305-7.092,0.479c-4.27,0.312-8.545,0.653-12.8,1.118c-5.793,0.633-11.565,1.351-17.336,2.161
			c1.548-8.495,3.127-16.99,4.182-25.564c1.077-8.755,1.925-17.543,1.989-26.371c0.062-8.479-0.58-16.922-2.264-25.238
			c-0.561-2.775-1.24-5.52-1.971-8.255c-1.59,1.644-3.169,3.294-4.734,4.962c-0.393,0.418-0.507,0.41-0.376,0.965
			c0.144,0.611,0.284,1.223,0.421,1.836c0.223,0.992,0.429,1.988,0.615,2.987c0.809,4.328,1.373,8.688,1.645,13.084
			c0.545,8.849,0.087,17.69-0.715,26.509c-0.789,8.671-2.166,17.277-3.627,25.856c-0.387,2.272-0.84,4.536-1.26,6.804
			c-0.206,1.111-0.412,2.223-0.617,3.334c-0.089,0.478-2.332,0.574-2.804,0.657c-4.259,0.751-8.496,1.634-12.714,2.591
			c-8.371,1.896-16.688,4.196-24.779,7.07c-3.433,1.219-6.839,2.496-10.209,3.877c-0.457,0.188-1.828,0.492-1.957,0.906
			c-0.327,1.057-0.654,2.115-0.982,3.173c-0.498,1.606-0.955,3.226-1.427,4.84c7.558-3.449,15.319-6.483,23.267-8.917
			c8.468-2.592,17.034-4.729,25.72-6.453c1.507-0.299,3.019-0.574,4.528-0.854c-1.84,8.907-3.783,17.78-5.868,26.634
			c-1.952,8.291-4.248,16.519-6.743,24.662c-2.529,8.256-5.345,16.43-8.525,24.458c-3.657,9.231-7.619,18.347-11.455,27.505
			c-3.098,7.394-6.083,14.812-8.795,22.359c-2.883,8.022-5.258,16.293-6.868,24.667c-0.807,4.195-1.386,8.428-1.747,12.685
			c-0.037,0.446-0.077,0.892-0.108,1.339c-0.032,0.462-0.265,1.297-0.116,1.734c0.408,1.203,0.818,2.405,1.227,3.607
			c0.623,1.829,1.283,3.648,1.968,5.455c0.917,2.424,1.862,4.833,2.821,7.24c0.035-8.383,0.078-16.808,1.309-25.119
			c1.218-8.227,3.246-16.294,5.811-24.201c2.435-7.5,5.225-14.896,8.273-22.167c4.061-9.682,8.121-19.363,12.182-29.044
			c3.043-7.255,5.752-14.702,8.146-22.195c2.674-8.369,5.134-16.792,7.316-25.303c2.207-8.606,4.127-17.277,6.009-25.96
			c0.499-2.301,0.941-4.614,1.412-6.92c0.12-0.593,0.241-1.186,0.362-1.777c0.031-0.15,0.046-0.684,0.162-0.795
			c0.228-0.217,1.267-0.191,1.572-0.237c0.529-0.081,1.058-0.165,1.588-0.241c4.521-0.641,9.046-1.207,13.584-1.71
			c8.59-0.952,17.21-1.571,25.838-2.056c-1.547,8.809-2.903,17.628-4.076,26.493c-1.164,8.792-1.924,17.638-2.62,26.476
			c-0.692,8.791-1.028,17.607-1.287,26.42c-0.258,8.771-0.211,17.552-0.067,26.325c0.143,8.788,0.547,17.571,1.08,26.343
			c0.529,8.728,1.35,17.432,2.285,26.124c0.922,8.563,2.133,17.106,3.533,25.604c1.411,8.563,3.033,17.101,4.959,25.563
			c2.012,8.84,4.306,17.594,6.887,26.284c2.411,8.123,5.156,16.198,8.297,24.07c3.278,8.218,6.768,16.343,10.842,24.204
			c4,7.718,8.454,15.176,13.454,22.29c4.958,7.053,10.403,13.79,16.242,20.135c1.436,1.561,2.865,3.127,4.335,4.655
			c0.734,0.765,1.463,1.536,2.204,2.294c0.448,0.458,0.896,0.916,1.345,1.374c0.266,0.271,0.588,0.781,0.965,0.894
			c4.178,1.25,8.373,2.412,12.598,3.499c-6.408-6.238-12.711-12.569-18.672-19.239c-5.832-6.526-11.17-13.453-16.092-20.686
			c-4.724-6.943-8.849-14.319-12.545-21.855c-3.891-7.933-7.263-16.082-10.397-24.339c-3.056-8.048-5.692-16.287-8.021-24.572
			c-2.461-8.752-4.583-17.573-6.492-26.461c-1.817-8.458-3.304-17.008-4.573-25.565c-1.334-8.984-2.443-17.992-3.328-27.031
			c-0.847-8.644-1.453-17.308-1.864-25.982c-0.43-9.056-0.679-18.112-0.726-27.178c-0.046-8.739,0.131-17.479,0.498-26.211
			c0.366-8.725,0.932-17.443,1.744-26.139c0.812-8.701,1.796-17.39,3.085-26.034c0.646-4.329,1.308-8.657,2.078-12.966
			c0.264-1.474,0.526-2.947,0.79-4.422c0.015-0.078,0.066-0.663,0.15-0.666c0.455-0.015,0.912-0.029,1.367-0.045
			c2.181-0.07,4.36-0.152,6.541-0.197c8.743-0.174,17.492-0.243,26.234-0.021c6.475,0.163,12.941,0.399,19.41,0.691
			c-1.211,8.113-1.834,16.312-1.554,24.518c0.29,8.492,1.403,16.957,3.413,25.215c1.987,8.16,4.75,16.15,8.318,23.758
			c3.83,8.162,8.306,15.945,13.252,23.479c4.676,7.121,9.822,13.94,15.201,20.542c5.65,6.933,11.605,13.588,17.686,20.146
			c5.572,6.01,11.289,11.889,17.076,17.692c7.016,7.037,14.073,14.021,21.172,20.976c5.646,5.531,11.383,10.977,17.148,16.385
			c7.085,6.646,14.213,13.239,21.362,19.814c5.375,4.944,10.813,9.827,16.295,14.653c7.651,6.736,15.302,13.474,22.953,20.21
			c6.487,5.713,13.11,11.298,19.886,16.664c6.869,5.441,13.961,10.638,21.432,15.227c7.455,4.58,15.226,8.649,23.431,11.716
			c0.81,0.303,1.627,0.592,2.447,0.865c0.338,0.112,0.805,0.438,1.104,0.198c0.468-0.372,0.936-0.744,1.402-1.116
			C535.714,573.678,537.247,572.418,538.781,571.157z"/>
	</g>
</g>
</svg>
