<?xml version="1.0" encoding="UTF-8" standalone="no"?>
<svg width="14px" height="10px" viewBox="0 0 14 10" version="1.1" xmlns="http://www.w3.org/2000/svg" xmlns:xlink="http://www.w3.org/1999/xlink">
    <!-- Generator: Sketch 41 (35326) - http://www.bohemiancoding.com/sketch -->
    <title>Unread message</title>
    <desc>Created with Sketch.</desc>
    <defs></defs>
    <g id="Header" stroke="none" stroke-width="1" fill="none" fill-rule="evenodd">
        <g id="Header-[Fonts-and-Colours]" transform="translate(-1196.000000, -436.000000)">
            <g id="Unread-message" transform="translate(1196.000000, 436.000000)">
                <rect id="Rectangle-3" fill="#F0F0F0" x="0" y="0" width="13.5" height="10" rx="2"></rect>
                <path d="M1.46985646,1.14736842 L1.46985646,1.21052632 C1.46985646,1.36491305 1.51547004,1.53859553 1.60669856,1.73157895 C1.69792709,1.92456237 1.8031892,2.07017495 1.92248804,2.16842105 L6.51196172,5.95789474 C6.60319025,6.03508811 6.71897856,6.07368421 6.85933014,6.07368421 C6.99968172,6.07368421 7.11547004,6.03508811 7.20669856,5.95789474 L11.7856459,2.16842105 C11.9119624,2.07017495 12.0207332,1.92456237 12.1119617,1.73157895 C12.2031902,1.53859553 12.2488038,1.36491305 12.2488038,1.21052632 L12.2488038,1.14736842 C12.2488038,1.04210474 12.2102077,0.952631947 12.1330144,0.878947368 C12.055821,0.805262789 11.9645938,0.768421053 11.8593301,0.768421053 L1.85933014,0.768421053 C1.74704888,0.768421053 1.65406735,0.805262789 1.58038278,0.878947368 C1.5066982,0.952631947 1.46985646,1.04210474 1.46985646,1.14736842 Z M0.74354067,1.6 C0.729505512,1.64912305 0.718979301,1.70175411 0.711961722,1.75789474 C0.704944144,1.81403537 0.701435407,1.87017516 0.701435407,1.92631579 L0.701435407,8.07368421 C0.701435407,8.39649284 0.813714986,8.67017432 1.03827751,8.89473684 C1.26284004,9.11929937 1.53301278,9.23157895 1.84880383,9.23157895 L11.8593301,9.23157895 C12.1821388,9.23157895 12.4558202,9.11929937 12.6803828,8.89473684 C12.9049453,8.67017432 13.0172249,8.39649284 13.0172249,8.07368421 L13.0172249,1.92631579 C13.0172249,1.87017516 13.0137161,1.81403537 13.0066986,1.75789474 C12.999681,1.70175411 12.985646,1.64912305 12.9645933,1.6 C12.9154702,1.81754495 12.8295062,2.03333226 12.7066986,2.24736842 C12.5838909,2.46140458 12.4417871,2.63508705 12.2803828,2.76842105 L7.70143541,6.54736842 C7.46283772,6.74386063 7.18213878,6.84210526 6.85933014,6.84210526 C6.53652151,6.84210526 6.25582256,6.74386063 6.01722488,6.54736842 L1.43827751,2.76842105 C1.2768732,2.63508705 1.13476935,2.46140458 1.01196172,2.24736842 C0.889154091,2.03333226 0.799681301,1.81754495 0.74354067,1.6 Z M0,1.92631579 C0,1.39297979 0.185963053,0.938598368 0.557894737,0.563157895 C0.929826421,0.187717421 1.38245347,0 1.91578947,0 L11.9263158,0 C12.4596518,0 12.9140332,0.187717421 13.2894737,0.563157895 C13.6649142,0.938598368 13.8526316,1.39297979 13.8526316,1.92631579 L13.8526316,8.07368421 C13.8526316,8.60702021 13.6649142,9.06140163 13.2894737,9.43684211 C12.9140332,9.81228258 12.4596518,10 11.9263158,10 L1.91578947,10 C1.38947105,10 0.938598368,9.81228258 0.563157895,9.43684211 C0.187717421,9.06140163 0,8.60702021 0,8.07368421 L0,1.92631579 Z" id="-copy" fill="#14805E"></path>
            </g>
        </g>
    </g>
</svg>