<svg width="32" height="320" xmlns="http://www.w3.org/2000/svg"><g fill="none" fill-rule="evenodd"><g transform="translate(0 90)"><circle stroke="#888" cx="8" cy="8" r="7.5"/><path fill="#666" d="M8.276 12H7.181v-1.133h1.095zM10.398 5.882c0 .351-.063.664-.188.938-.125.274-.29.516-.494.727-.2.204-.432.396-.693.575-.261.18-.539.353-.833.521v1.209H7.23V8.213c.233-.132.484-.277.755-.435.27-.157.491-.317.663-.478.208-.186.369-.378.483-.577.115-.199.172-.452.172-.76 0-.405-.137-.706-.41-.905-.275-.199-.628-.298-1.061-.298-.387 0-.753.06-1.099.182a4.235 4.235 0 0 0-.819.371H5.86V4.217c.251-.096.569-.183.954-.26.385-.077.749-.116 1.093-.116.77 0 1.377.187 1.823.562.446.374.669.867.669 1.48z"/></g><g transform="translate(0 60)"><circle fill="#DDD" cx="8" cy="8" r="8"/><path fill="#333" d="M8.276 12H7.181v-1.133h1.095zM10.398 5.882c0 .351-.063.664-.188.938-.125.274-.29.516-.494.727-.2.204-.432.396-.693.575-.261.18-.539.353-.833.521v1.209H7.23V8.213c.233-.132.484-.277.755-.435.27-.157.491-.317.663-.478.208-.186.369-.378.483-.577.115-.199.172-.452.172-.76 0-.405-.137-.706-.41-.905-.275-.199-.628-.298-1.061-.298-.387 0-.753.06-1.099.182a4.235 4.235 0 0 0-.819.371H5.86V4.217c.251-.096.569-.183.954-.26.385-.077.749-.116 1.093-.116.77 0 1.377.187 1.823.562.446.374.669.867.669 1.48z"/></g><path d="M0 131.662C0 125.222 5.374 120 12 120s12 5.222 12 11.662-5.374 11.662-12 11.662-12-5.222-12-11.662z" fill="#4ACFA5"/><path fill="#E4E4E4" d="M18.498 127.695l-8.458 9.81-4.68-4.466 1.501-1.61 3.002 2.811 6.781-8.09z"/><path fill="#14805E" d="M0 30h13v13H0z"/><path fill="#E4E4E4" d="M10.616 33.59l-5.478 7.36L2 37.505l1.007-1.241 2.013 2.167L9.372 32.4z"/><path d="M0 0h13v13H0z" fill="#D8D8D8"/><path d="M10 158c5.522 0 10 4.478 10 10s-4.478 10-10 10-10-4.478-10-10 4.478-10 10-10z" fill="#41B590"/><path fill="#E4E4E4" d="M15.69 164.509l-7.046 8.46-3.954-3.774 1.268-1.36 2.536 2.375 5.63-7.006z"/><path d="M0 203c0-5.522 4.478-10 10-10s10 4.478 10 10-4.478 10-10 10-10-4.478-10-10z" fill="#C2726B"/><path fill="#E4E4E4" d="M14 205.883l-1.101 1.1-2.89-2.89L7.1 207 6 205.897l2.908-2.904-2.892-2.892L7.117 199l2.892 2.892 2.89-2.887 1.1 1.102-2.888 2.886z"/><g transform="translate(0 233)"><rect fill="#545454" width="32" height="15" rx="7.5"/><rect fill="#54C7A4" x="1" y="1" width="13" height="13" rx="6.5"/></g><g transform="translate(0 258)"><rect fill="#E4E4E4" width="32" height="15" rx="7.5"/><rect fill="#116C4F" x="18" y="1" width="13" height="13" rx="6.5"/></g><g fill-rule="nonzero"><path fill="#14805E" d="M0 283h13v13H0z"/><path fill="#14805E" d="M0 283h13v13H0z"/><path fill="#E4E4E4" d="M10.566 286.614L5.12 293.5 2 290.278l1-1.161 2.002 2.028L9.33 285.5z"/></g><g fill-rule="nonzero"><path fill="#888" d="M0 307h13v13H0z"/><path fill="#C7C7C7" d="M10.566 310.614L5.12 317.5 2 314.278l1-1.161 2.002 2.028L9.33 309.5z"/></g></g></svg>