<?xml version="1.0" encoding="UTF-8"?>
<svg width="25px" height="17px" viewBox="0 0 25 17" version="1.1" xmlns="http://www.w3.org/2000/svg" xmlns:xlink="http://www.w3.org/1999/xlink">
    <!-- Generator: Sketch 49 (51002) - http://www.bohemiancoding.com/sketch -->
    <title>Vegas_24x17px</title>
    <desc>Created with Sketch.</desc>
    <defs></defs>
    <g id="//Published-Mobile" stroke="none" stroke-width="1" fill="none" fill-rule="evenodd">
        <g id="1.2-|-Home" transform="translate(-346.000000, -748.000000)">
            <g id="Vegas_24x17px" transform="translate(346.000000, 748.000000)">
                <g id="Oval-378-+-Oval-378-+-3-+-Group-+-Group" transform="translate(20.000000, 1.000000)">
                    <g id="Group">
                        <polyline id="Line" stroke="#666666" stroke-linecap="square" stroke-linejoin="round" points="0.504760742 8.53173828 2.49475098 8.53173828 2.49475098 4.05627441"></polyline>
                        <path d="M2.5,4 C1.3954305,4 0.5,3.1045695 0.5,2 C0.5,0.8954305 1.3954305,0 2.5,0 C3.6045695,0 4.5,0.8954305 4.5,2 C4.5,3.1045695 3.6045695,4 2.5,4 Z M2.5,2.66666667 C2.86818983,2.66666667 3.16666667,2.36818983 3.16666667,2 C3.16666667,1.63181017 2.86818983,1.33333333 2.5,1.33333333 C2.13181017,1.33333333 1.83333333,1.63181017 1.83333333,2 C1.83333333,2.36818983 2.13181017,2.66666667 2.5,2.66666667 Z" id="Combined-Shape" fill="#666666"></path>
                    </g>
                </g>
                <path d="M1.98474121,0 L16.9847412,0 C18.3064372,1.38126628 18.9672852,4.05786133 18.9672852,8.02978516 C18.9672852,12.001709 18.3064372,14.9917806 16.9847412,17 L1.98474121,17 C0.661580404,15.0144043 2.72900732e-16,12.0243327 0,8.02978516 C0,4.03523763 0.661580404,1.35864258 1.98474121,0 Z M2.50146484,1 C1.50048828,2.21772429 1,4.61670314 1,8.19693654 C1,11.7771699 1.59296134,14.3800832 2.77888403,16.0056763 L16.2230853,16.0056763 C17.4076951,14.359806 18,11.7568928 18,8.19693654 C18,4.63698031 17.5117798,2.23800146 16.5353394,1 L2.50146484,1 Z" id="Combined-Shape" fill="#666666"></path>
                <path d="M12,1 L13,1 C13.6879476,3.5 14.0319214,6 14.0319214,8.5 C14.0319214,11 13.6879476,13.5 13,16 L12,16 C12.6879476,13.5196225 13.0319214,11.027496 13.0319214,8.52362061 C13.0319214,6.01974521 12.6879476,3.51187167 12,1 Z" id="Rectangle-6-Copy" fill="#666666"></path>
                <path d="M5,1 L6,1 C6.68794759,3.5 7.03192139,6 7.03192139,8.5 C7.03192139,11 6.68794759,13.5 6,16 L5,16 C5.68794759,13.5196225 6.03192139,11.027496 6.03192139,8.52362061 C6.03192139,6.01974521 5.68794759,3.51187167 5,1 Z" id="Rectangle-6-Copy" fill="#666666" transform="translate(6.015961, 8.500000) scale(-1, 1) translate(-6.015961, -8.500000) "></path>
            </g>
        </g>
    </g>
</svg>