<svg width="18" height="23" viewBox="0 0 18 23" xmlns="http://www.w3.org/2000/svg"><path d="M.233 9l.983.22a9.517 9.517 0 0 0-.21 1.996c0 4.84 3.61 8.754 8.049 8.754 2.962 0 5.644-1.756 7.052-4.532l.893.475C15.423 19.022 12.402 21 9.055 21 4.047 21 0 16.613 0 11.216 0 10.463.079 9.72.233 9zm2.03-2h3.204v1h-5V3h1v3.395C3.08 3.702 5.917 2 9.051 2 14.001 2 18 6.203 18 11.374c0 .898-.12 1.78-.356 2.626l-.958-.262c.211-.761.32-1.555.32-2.364 0-4.638-3.568-8.387-7.955-8.387-2.81 0-5.36 1.552-6.788 4.013zm10.296 9v-1h5v5h-1v-4h-4z" fill="#FFB06B" fill-rule="nonzero"/></svg>