<svg width="24" height="23" viewBox="0 0 24 23" xmlns="http://www.w3.org/2000/svg"><g fill="none" fill-rule="evenodd"><path d="M19.048 7.923l2.923-1.49-2.923-1.49v-1.01l4.904 2.5-4.904 2.5v-1.01zM20 14h-1V3h1v11zm-.727 5.02c.959 0 1.727-.738 1.727-1.635 0-.898-.768-1.635-1.727-1.635-.96 0-1.728.737-1.728 1.635 0 .897.769 1.634 1.728 1.634zm0 .98c-1.507 0-2.728-1.17-2.728-2.615 0-1.445 1.221-2.616 2.728-2.616 1.506 0 2.727 1.171 2.727 2.616C22 18.829 20.779 20 19.273 20zM7 16.73h2v.981H7v-.98zm4 2.29c.959 0 1.727-.738 1.727-1.635 0-.898-.768-1.635-1.727-1.635-.959 0-1.727.737-1.727 1.635 0 .897.768 1.634 1.727 1.634zm0 .98c-1.506 0-2.727-1.17-2.727-2.615 0-1.445 1.22-2.616 2.727-2.616 1.506 0 2.727 1.171 2.727 2.616C13.727 18.829 12.507 20 11 20zm4-3.27h2v.981h-2v-.98zM2.727 19.02c.96 0 1.728-.738 1.728-1.635 0-.898-.769-1.635-1.728-1.635S1 16.487 1 17.385c0 .897.768 1.634 1.727 1.634zm0 .98C1.221 20 0 18.83 0 17.385c0-1.445 1.221-2.616 2.727-2.616 1.507 0 2.728 1.171 2.728 2.616C5.455 18.829 4.234 20 2.727 20z" fill="#F2D480" fill-rule="nonzero"/></g></svg>