<svg viewBox="0 0 100 100" xmlns="http://www.w3.org/2000/svg"><g><g fill-rule="evenodd" transform="matrix(1.3888951,0,0,1.3888956,-19.44458,-19.444785)" fill="#FFF"><path d="m 19.98,38.805 c -4.64,12.413 -0.928,26.866 9.118,35.525 10.142,8.743 25.144,10.158 36.8,3.492 C 77.556,71.156 83.928,57.437 81.48,44.248 79.04,31.083 68.34,20.57 55.157,18.408 42.092,16.261 28.584,22.744 22.084,34.281 c -0.818,1.452 -1.522,2.967 -2.104,4.525 z m -3.747,-1.4 C 16.887,35.653 17.68,33.949 18.599,32.318 25.923,19.315 41.085,12.042 55.805,14.461 70.672,16.9 82.67,28.718 85.413,43.52 88.173,58.393 81.007,73.79 67.883,81.294 54.783,88.786 37.935,87.229 26.487,77.36 15.179,67.614 11.002,51.394 16.233,37.406 Z"></path><path d="m 56.445,21.877 -6.342,-0.258 c -1.5,-0.064 -1.6,2.276 -0.095,2.337 l 6.342,0.26 c 1.502,0.062 1.597,-2.276 0.095,-2.34 z m -6.29,6.247 c -2.093,0.35 -1.568,3.596 0.538,3.25 l 8.82,-1.466 c 2.094,-0.344 1.566,-3.602 -0.54,-3.252 l -8.82,1.468 z m 3.13,8.582 c -2.02,0.643 -1.034,3.79 1,3.14 l 8.516,-2.716 c 2.023,-0.645 1.04,-3.79 -0.997,-3.14 l -8.518,2.716 z m 11.795,3.604 -7.542,4.8 c -1.79,1.137 -0.033,3.924 1.768,2.78 l 7.54,-4.8 c 1.794,-1.138 0.032,-3.927 -1.766,-2.78 z m 4.82,6.29 -6.263,6.374 c -1.487,1.514 0.853,3.835 2.35,2.31 l 6.266,-6.375 c 1.484,-1.517 -0.853,-3.835 -2.352,-2.31 z m 5.24,4.406 -3.13,8.373 c -0.742,1.984 2.337,3.153 3.087,1.153 l 3.132,-8.372 c 0.74,-1.987 -2.34,-3.153 -3.09,-1.154 z M 39.73,47.748 c -0.666,-0.615 -1.71,-0.573 -2.328,0.095 l -6.062,6.57 c -1.44,1.554 0.973,3.804 2.42,2.236 l 6.067,-6.57 c 0.615,-0.668 0.573,-1.71 -0.096,-2.332 -0.666,-0.615 0.67,0.62 0,0 z m 3.488,7.506 -7.538,4.8 c -1.79,1.142 -0.034,3.927 1.77,2.78 l 7.54,-4.8 c 1.788,-1.142 0.032,-3.927 -1.772,-2.78 z m -3.878,11.83 c -2,0.71 -0.917,3.823 1.097,3.11 l 8.427,-2.98 c 2.003,-0.706 0.914,-3.823 -1.098,-3.107 l -8.426,2.978 z m 1.776,6.614 c -2.114,-0.17 -2.388,3.12 -0.26,3.286 l 8.91,0.705 c 2.113,0.163 2.39,-3.117 0.262,-3.287 L 41.116,73.697 Z M 28.61,50.61 33.67,43.24 c 1.2,-1.747 -1.514,-3.623 -2.72,-1.862 l -5.057,7.37 c -1.197,1.746 1.507,3.622 2.718,1.863 z m -3.82,-5.272 2.45,-5.855 c 0.58,-1.388 -1.58,-2.294 -2.16,-0.904 l -2.447,5.855 c -0.58,1.387 1.577,2.29 2.158,0.903 z"></path></g></g></svg>