<svg viewBox="0 0 100 100" xmlns="http://www.w3.org/2000/svg"><g><g fill-rule="evenodd" transform="matrix(1.2500156,0,0,1.2500156,-12.498169,-12.500155)" fill="#FFF"><path d="m 56.416,15.23 c 2.118,-0.268 4.25,-0.4 6.4,-0.4 2.517,0 5.035,0.19 7.524,0.62 4.103,0.74 8.65,1.926 11.14,5.48 1.777,2.58 2.473,6.074 2.962,9.11 0.74,4.4 0.83,8.888 0.444,13.332 L 56.416,15.23 z m -39.64,36.185 c 1.63,-5.925 9.184,-27.21 34.025,-33.92 L 82.8,49.09 C 81.052,55.058 73.17,76.565 48.433,82.653 L 16.777,51.415 z M 29.41,84.46 c -4.043,-0.74 -8.22,-1.97 -10.753,-5.39 -1.866,-2.52 -2.563,-5.926 -3.08,-8.977 -0.742,-4.444 -0.845,-8.99 -0.475,-13.48 l 28.486,28.114 c -2.12,0.267 -4.296,0.415 -6.43,0.415 -2.606,0 -5.2,-0.208 -7.747,-0.682 z M 85.51,18.22 C 81.953,13.155 76,11.555 71.184,10.71 68.518,10.237 65.674,10 62.814,10 c -2.31,0 -4.68,0.148 -7.035,0.444 -1.423,0.208 -2.668,0.978 -3.408,2.118 -0.445,-0.148 -0.948,-0.192 -1.422,-0.074 -31.256,7.584 -38.514,35.935 -39.255,39.15 -0.12,0.488 -0.044,0.976 0.148,1.42 -0.918,0.815 -1.51,1.926 -1.63,3.185 -0.414,5.244 -0.222,10.176 0.55,14.71 0.62,3.554 1.48,7.627 3.97,11.004 3.613,4.888 9.272,6.473 13.804,7.302 2.756,0.488 5.66,0.74 8.636,0.74 2.31,0 4.696,-0.148 7.066,-0.444 1.288,-0.193 2.414,-0.86 3.2,-1.822 h 0.25 c 0.178,0 0.356,0 0.534,-0.045 31.107,-6.814 38.87,-35.505 39.655,-38.75 0.147,-0.547 0.043,-1.11 -0.194,-1.628 1.185,-0.785 1.97,-2.074 2.074,-3.555 0.444,-5.125 0.267,-10.013 -0.49,-14.486 -0.606,-3.6 -1.436,-7.717 -3.76,-11.05 z M 50.09,47.327 c -0.414,0.03 -1.925,-1.896 -2.222,-2.22 -0.888,-0.86 -1.88,-1.97 -3.23,-1.142 -2.77,1.718 1.57,4.888 2.756,6.073 l -8.665,8.65 c -0.92,-0.918 -1.823,-1.866 -2.77,-2.77 -1.334,-1.244 -4.03,-0.933 -3.512,1.437 0.193,0.844 1.037,1.48 1.63,2.074 l 3.2,3.2 3.258,3.258 c 0.593,0.592 1.304,1.57 2.148,1.777 2.4,0.652 2.755,-2.177 1.48,-3.51 -0.888,-0.948 -1.836,-1.852 -2.754,-2.77 1.392,-1.422 2.814,-2.814 4.207,-4.22 0.978,-0.98 1.926,-1.957 2.918,-2.92 0.267,-0.25 1.155,-1.48 1.526,-1.51 0.416,-0.045 1.704,1.63 2.045,1.985 1.007,0.992 2.37,2.518 3.792,1.08 1.926,-1.925 -1.88,-4.59 -3.11,-5.776 l 5.732,-5.717 c 0.784,-0.785 1.63,-2 2.59,-2.592 0.742,-0.445 0.712,-0.03 1.453,0.74 0.83,0.815 2.044,2.548 3.348,2.548 2.075,0 2.223,-2.25 1.156,-3.45 -1.733,-1.955 -3.747,-3.733 -5.63,-5.6 -1.154,-1.184 -3.85,-4.99 -5.776,-3.08 -1.926,1.925 1.926,4.592 3.11,5.777 L 54.43,43 51.542,45.89 c -0.222,0.207 -1.14,1.422 -1.452,1.436 z"></path></g></g></svg>