<svg width="25" height="75" viewBox="0 0 25 75" xmlns="http://www.w3.org/2000/svg"><title>Star_Desktop_Spritesheet</title><g fill="none" fill-rule="evenodd"><path fill="#FFDF1B" opacity=".75" d="M12.182 16.75l-3.82 2.01.73-4.256L6 11.49l4.272-.62L12.182 7l1.91 3.87 4.272.62-3.09 3.014L16 18.76"/><path fill="#FFDF1B" d="M12.182 41.75l-3.82 2.01.73-4.256L6 36.49l4.272-.62 1.91-3.87 1.91 3.87 4.272.62-3.09 3.014L16 43.76"/><path fill="#757575" d="M12.182 66.75l-3.82 2.01.73-4.256L6 61.49l4.272-.62 1.91-3.87 1.91 3.87 4.272.62-3.09 3.014L16 68.76"/></g></svg>