<?xml version="1.0" standalone="no"?>
<!DOCTYPE svg PUBLIC "-//W3C//DTD SVG 1.1//EN" "http://www.w3.org/Graphics/SVG/1.1/DTD/svg11.dtd" >
<svg xmlns="http://www.w3.org/2000/svg" xmlns:xlink="http://www.w3.org/1999/xlink" version="1.1">
<metadata>
Created by FontForge 20170731 at Fri May 25 16:43:54 2018
 By Aleksey,,,
</metadata>
<defs>
<font id="bet365UI" horiz-adv-x="1024" >
  <font-face 
    font-family="bet365UI"
    font-weight="400"
    font-stretch="normal"
    units-per-em="1024"
    panose-1="0 0 0 0 0 0 0 0 0 0"
    ascent="960"
    descent="-64"
    bbox="-40 -85 3922 1024"
    underline-thickness="0"
    underline-position="0"
    unicode-range="U+0001-FFFD"
  />
<missing-glyph 
 />
    <glyph glyph-name=".notdef" unicode="&#xfffd;" 
 />
    <glyph glyph-name="glyph1" horiz-adv-x="0" 
d="M0 0v0v0v0z" />
    <glyph glyph-name="glyph1" horiz-adv-x="0" 
d="M0 0v0v0v0z" />
    <glyph glyph-name="nonmarkingreturn" horiz-adv-x="341" 
 />
    <glyph glyph-name="uni0001" horiz-adv-x="0" 
d="M0 0v0v0v0z" />
    <glyph glyph-name="space" unicode=" " horiz-adv-x="512" 
d="M0 0v0v0v0z" />
    <glyph glyph-name="uniE000" unicode="&#xe000;" horiz-adv-x="1170" 
d="M1119 818l-724 -864l-388 381l125 137l248 -239l586 716z" />
    <glyph glyph-name="uniE001" unicode="&#xe001;" horiz-adv-x="1609" 
d="M0 521h439v-585h-439v585zM585 960h439v-1024h-439v1024zM1170 814h439v-878h-439v878v0z" />
    <glyph glyph-name="uniE600" unicode="&#xe600;" 
d="M61 578l455 -390l455 390l-111 130l-400 -342h112l-400 342l-111 -130v0z" />
    <glyph glyph-name="uniE601" unicode="&#xe601;" 
d="M646 903l-390 -455l390 -455l130 111l-342 400v-112l342 400z" />
    <glyph glyph-name="uniE602" unicode="&#xe602;" 
d="M386 -7l390 455l-390 455l-130 -111l342 -400v112l-342 -400l130 -111v0z" />
    <glyph glyph-name="uniE603" unicode="&#xe603;" 
d="M971 318l-455 390l-455 -390l111 -130l400 342h-112l400 -342z" />
    <glyph glyph-name="uniE604" unicode="&#xe604;" 
d="M394 334v630h-158v-630h-236l315 -394l315 394h-236zM1024 846q0 -49 -34.5 -84t-83.5 -35t-83.5 35t-34.5 84t34.5 83.5t83.5 34.5t83.5 -34.5t34.5 -83.5zM1024 58q0 -49 -34.5 -83.5t-83.5 -34.5t-83.5 34.5t-34.5 83.5t34.5 83.5t83.5 34.5t83.5 -34.5t34.5 -83.5z
M1024 452q0 -49 -34.5 -83.5t-83.5 -34.5t-83.5 34.5t-34.5 83.5t34.5 83.5t83.5 34.5t83.5 -34.5t34.5 -83.5z" />
    <glyph glyph-name="uniE606" unicode="&#xe606;" horiz-adv-x="551" 
d="M445 922l-448 -474l448 -474l86 81l-409 434v-82l409 434l-86 81v0z" />
    <glyph glyph-name="uniE607" unicode="&#xe607;" horiz-adv-x="1843" 
d="M34 893h1775l-34 34v-951l34 34h-1775l34 -34v951l-34 -34v0zM34 961h-34v-1019h1843v1019h-1809v0zM751 198v500l410 -261l-410 -239v0z" />
    <glyph glyph-name="uniE608" unicode="&#xe608;" horiz-adv-x="1252" 
d="M0 622h261l422 342v-1024l-422 341h-261v341v0zM915 668q2 -3 6 -7.5t9 -11.5q8 -11 17 -23.5t17 -26.5q23 -38 36 -75.5t13 -71.5q0 -35 -13 -72.5t-36 -75.5q-8 -13 -17 -26t-17 -24q-5 -7 -9 -11.5t-6 -6.5l25 -23q3 3 7 8t10 12q9 12 18 25.5t18 28.5q25 41 39.5 83
t14.5 82t-14.5 81.5t-39.5 83.5q-9 14 -18 27.5t-18 25.5q-6 7 -10 12.5t-7 8.5l-25 -23v0zM985 894q59 -48 101 -95q42 -46 69 -98.5t39 -112.5q12 -61 12 -136q0 -76 -12 -136q-12 -61 -39 -113t-69 -99q-42 -46 -101 -94l21 -27q63 50 107 100q44 49 72.5 104.5
t41.5 120.5q13 64 13 144q0 79 -13 144q-13 64 -41.5 119.5t-72.5 105.5q-44 49 -107 99l-21 -26v0z" />
    <glyph glyph-name="uniE609" unicode="&#xe609;" horiz-adv-x="1138" 
d="M57 -64h1081v114h-1138v-114h57v0zM57 391h1081v114h-1138v-114h57v0zM57 846h1081v114h-1138v-114h57v0z" />
    <glyph glyph-name="uniE60B" unicode="&#xe60b;" horiz-adv-x="979" 
d="M367 203q76 0 143 29q67 30 117 80.5t79 119.5q29 68 29 145q0 78 -29 146t-79 119t-117 81q-67 29 -143 29t-143 -29q-67 -30 -116.5 -81t-78.5 -119t-29 -146q0 -77 29 -145q29 -69 78.5 -119.5t116.5 -80.5q67 -29 143 -29v0zM367 269q-62 0 -117 25q-54 24 -95 65.5
t-65 98.5q-23 56 -23 119q0 64 23 120q24 56 65 98t95 66q55 24 117 24t117 -24t96 -66t64 -98q24 -56 24 -120q0 -63 -24 -119q-23 -57 -64 -98.5t-96 -65.5q-55 -25 -117 -25v0v0zM575 296l348 -357l48 47l-348 356z" />
    <glyph glyph-name="uniE610" unicode="&#xe610;" horiz-adv-x="1344" 
d="M750 416q0 -13 -5 -24.5t-14 -20.5q-10 -10 -21 -14.5t-25 -4.5q-13 0 -24.5 4.5t-21.5 14.5q-9 9 -14 20.5t-5 24.5t5 24.5t14 20.5q10 10 21.5 14.5t24.5 4.5q14 0 25 -4.5t21 -14.5q9 -9 14 -20.5t5 -24.5v0zM460 416q0 -23 4.5 -45t13.5 -42q9 -21 21 -38.5t27 -33.5
q15 -15 33 -27t38 -21q21 -8 43 -12.5t45 -4.5q24 0 45.5 4.5t42.5 12.5q20 9 38 21t33 27q15 16 27 33.5t21 38.5q9 20 14 42t5 45t-5 45t-14 42q-9 21 -21 38.5t-27 33.5q-15 15 -33 27t-38 21q-21 8 -42.5 12.5t-45.5 4.5q-23 0 -45 -4.5t-43 -12.5q-20 -9 -38 -21
t-33 -27q-15 -16 -27 -33.5t-21 -38.5q-9 -20 -13.5 -42t-4.5 -45zM395 416q0 30 6 58t17 54q12 26 27.5 49t35.5 43q19 19 42 34.5t49 26.5q27 12 55 17.5t58 5.5t58.5 -5.5t54.5 -17.5q26 -11 49 -26.5t43 -34.5q19 -20 34.5 -43t27.5 -49q11 -26 17 -54t6 -58t-6 -58
t-17 -54q-12 -26 -27.5 -49t-34.5 -43q-20 -19 -43 -34.5t-49 -26.5q-26 -12 -54.5 -17.5t-58.5 -5.5t-58 5.5t-55 17.5q-26 11 -49 26.5t-42 34.5q-20 20 -35.5 43t-27.5 49q-11 26 -17 54t-6 58zM95 354l1 -2q3 -3 8 -7.5t11 -10.5t13.5 -12.5t16.5 -14.5q14 -12 29.5 -25
t32.5 -25q16 -13 33 -25.5t35 -23.5q25 -18 50 -33t50 -28q26 -14 51 -25t50 -20q25 -10 50 -17t50 -11q24 -5 48 -7.5t48 -2.5t48 2.5t49 7.5q25 4 49.5 11t49.5 17q25 9 50.5 20t50.5 25q25 13 50.5 28t50.5 33q17 11 34 23.5t34 25.5q16 12 31.5 25t30.5 25
q9 8 16.5 14.5t13.5 12.5l11 11l9 9q14 13 21.5 29t7.5 35q1 19 -6.5 35t-22.5 30q-3 3 -7 7.5t-10 10.5q-6 5 -13 11.5t-15 14.5q-14 12 -28.5 24.5t-29.5 25.5q-16 13 -32.5 25t-34.5 24q-24 17 -49 32t-50 28t-50.5 24t-51.5 20q-25 10 -51 17t-52 11q-26 5 -52 7.5
t-52 2.5t-52 -2.5t-52 -7.5q-25 -4 -51 -11t-52 -17q-26 -9 -51 -20t-50 -24t-50 -28t-50 -32l-34 -24t-32 -25q-16 -13 -30.5 -25.5t-28.5 -24.5q-8 -8 -15 -14.5t-13 -12.5q-5 -6 -10 -10.5t-8 -8.5q-15 -14 -22 -30t-6 -35q0 -18 7.5 -33.5t22.5 -28.5v0zM50 307l1 -1
q-25 22 -37.5 49t-13.5 60t10.5 60.5t35.5 49.5l5 6q2 1 4 3.5t4 4.5l17 17q4 5 9 9t10 9q15 13 30.5 26.5t32.5 26.5l34 26t35 26q27 18 53.5 34t54.5 30q27 14 54.5 26t55.5 22t56 17.5t56 12.5q29 6 57.5 8.5t57.5 2.5t57.5 -2.5t57.5 -8.5q28 -5 56.5 -12.5t56.5 -17.5
q27 -10 54.5 -22t54.5 -26t54 -30t54 -34q18 -13 35.5 -26t34.5 -26q16 -13 32 -26.5t30 -26.5q5 -5 9.5 -9t9.5 -9q5 -4 9 -8.5t8 -8.5l4 -4l4 -4l3 -3q24 -23 36 -50.5t12 -60.5q0 -32 -12.5 -59.5t-36.5 -50.5q-2 0 -3.5 -1.5t-2.5 -3.5l-4 -4t-4 -5q-5 -4 -9.5 -8
t-8.5 -8q-5 -4 -10 -8.5t-11 -9.5q-15 -13 -31.5 -26.5t-33.5 -26.5t-35 -26l-36 -26q-28 -18 -55 -34t-54 -31q-27 -14 -54 -26t-54 -22q-28 -10 -55 -17.5t-54 -12.5q-27 -6 -54 -8.5t-54 -2.5t-53.5 2.5t-53.5 8.5q-28 5 -55 12.5t-54 17.5t-54.5 22t-54.5 26
q-27 15 -54 31t-54 34q-19 13 -36.5 26t-34.5 26q-18 13 -34 26.5t-32 26.5q-5 5 -10.5 9.5t-9.5 8.5q-5 4 -9.5 8t-8.5 8l-5 5l-4 4q-1 2 -2.5 3.5t-2.5 1.5v0z" />
    <glyph glyph-name="uniE611" unicode="&#xe611;" horiz-adv-x="1390" 
d="M183 814q0 15 10.5 25.5t26.5 10.5h950q15 0 26 -10.5t11 -25.5v-6q0 -22 -13 -49.5t-31 -41.5l-435 -360q-13 -11 -33 -11t-33 11l-436 360q-17 14 -30 41.5t-13 49.5v6v0zM114 771v0q8 -31 25.5 -61.5t40.5 -49.5l435 -359q34 -28 80 -28t80 28l435 359
q23 19 40.5 49.5t24.5 61.5q3 -7 4 -15t1 -16v-584q0 -46 -32 -78t-78 -32h-951q-45 0 -77 32t-32 78v584q0 8 1 16t3 15v0zM37 740v-584q0 -76 53.5 -129.5t128.5 -53.5h951q76 0 129.5 53.5t53.5 129.5v584q0 76 -53.5 129.5t-129.5 53.5h-951q-76 0 -129 -53.5
t-53 -129.5v0v0z" />
    <glyph glyph-name="uniE612" unicode="&#xe612;" horiz-adv-x="956" 
d="M811 917l98 -95l-806 -834l-98 94zM108 905l834 -806l-94 -98l-835 806l95 98v0z" />
    <glyph glyph-name="uniE613" unicode="&#xe613;" 
d="M845 448q0 69 -26 129t-71.5 105t-105.5 71q-61 26 -130 26t-129 -26q-61 -26 -106 -71t-71 -105t-26 -129q0 -68 26 -129q26 -60 71 -105t106 -71q60 -26 129 -26v56q-57 0 -108 21q-50 22 -87.5 59.5t-59.5 87.5t-22 107t22 107q22 51 59.5 88t87.5 59q51 22 108 22
q58 0 108 -22q51 -22 88.5 -59t59.5 -88q22 -50 22 -107h55v0zM616 510l104 -114q39 -42 95 -42t96 42l104 114l-41 37l-104 -113q-23 -25 -54.5 -25t-54.5 25l-105 113l-40 -37v0z" />
    <glyph glyph-name="uniE900" unicode="&#xe900;" 
d="M723 161q69 87 95 156.5t26 140.5q0 72 -26.5 145.5t-94.5 158.5l45 30l2.5 -2.5t2.5 -3.5q35 -45 60 -87t40.5 -83t22.5 -80q8 -39 8 -78t-8 -78q-7 -39 -23.5 -79t-41.5 -83q-26 -42 -63 -88zM602 280q43 49 63.5 86t20.5 95q0 59 -20 96t-64 85l55 30q1 -2 3 -4t3 -4
q44 -48 67 -93.5t23 -109.5q0 -69 -28 -117t-68 -94l-55 30v0zM241 611q18 15 49 45t60 60.5t51 52.5l21 23h60v-662h-60l-181 180h-181q-39 1 -49.5 16t-10.5 44v181q1 30 22 46t38 14q44 2 112.5 1l68.5 -1v0z" />
    <glyph glyph-name="uniE901" unicode="&#xe901;" horiz-adv-x="1563" 
d="M123 407q-15 17 -15 41t15 41l326 341q7 8 23.5 15t28.5 7h856q23 0 39 -15.5t16 -38.5v-700q0 -23 -16 -38.5t-39 -15.5h-856q-12 0 -28.5 7t-23.5 15l-326 341v0zM45 333l325 -341q24 -24 60.5 -40t70.5 -16h856q68 0 115 47.5t47 114.5v700q0 67 -47 114.5t-115 47.5
h-856q-34 0 -70.5 -16t-60.5 -40l-325 -341q-45 -48 -45 -115t45 -115v0v0zM975 448l129 129l-86 85l-129 -128l-128 128l-86 -85l129 -129l-129 -129l86 -85l128 128l129 -128l86 85l-129 129v0z" />
    <glyph glyph-name="uniE902" unicode="&#xe902;" horiz-adv-x="551" 
d="M106 -26l448 474l-448 474l-86 -81l409 -434v82l-409 -434l86 -81v0z" />
    <glyph glyph-name="uniE903" unicode="&#xe903;" horiz-adv-x="3209" 
d="M886 831v45l3 -1t-4 -1l-1 4h-150v-2q-64 0 -99 -25q-35 -26 -51 -57t-19 -57l-3 -25v-117h-93l1 -157h92l2 -434l183 1l2 432h119l16 160l-140 -2v77q0 42 17.5 47l17.5 5h105l2 106v0v1v0zM0 956h1024v-1024h-1024v1024zM2057 171h-376v595h79v-525h297v-70zM2211 692
h-84v78h84v-78zM2207 171h-76v446h76v-446zM2761 171h-99l-179 195l-49 -46v-149h-75v622h75v-399l217 223h95l-208 -206l223 -240v0zM3206 386h-329q0 -20 3 -38t9 -34q7 -15 15.5 -27.5t18.5 -22.5q11 -9 23.5 -16.5t26.5 -12.5q14 -4 30 -6.5t33 -2.5q23 0 46 4.5
t46 13.5t39.5 18t25.5 18h4v-82q-19 -8 -38 -15t-39 -12t-41 -8t-42 -3q-56 0 -99.5 15t-74.5 45q-31 31 -46.5 73.5t-15.5 97.5t15 98.5t44 75.5q30 33 69.5 49t88.5 16q45 0 80 -13.5t59 -39.5q25 -26 37 -63.5t12 -86.5v-41v0zM3133 444q0 29 -7.5 52t-22.5 39
q-14 17 -36.5 25t-52.5 8t-54 -9t-42 -27t-28.5 -40t-12.5 -48h256z" />
    <glyph glyph-name="uniE904" unicode="&#xe904;" 
d="M512 -68q106 0 199 40q94 40 163.5 109.5t109.5 162.5q40 94 40 200t-40 199t-109.5 162.5t-163.5 109.5q-93 41 -199 41t-199 -41q-94 -40 -163.5 -109.5t-109.5 -162.5t-40 -199t40 -200q40 -93 109.5 -162.5t163.5 -109.5q93 -40 199 -40zM454 241h121v-117h-121v117z
M387 698q24 15 53.5 23t64.5 8q46 0 84 -11t68 -33q31 -22 46 -54.5t15 -75.5q0 -27 -6.5 -49t-20.5 -40q-7 -11 -22 -25t-37 -31l-29 -23q-11 -9 -19 -19.5t-12 -22.5q-2 -8 -3.5 -20t-1.5 -28h-110q1 34 4.5 58t8.5 37t19 28t36 32l29 23q7 6 13 12t11 12q8 11 12 23.5
t4 25.5q0 16 -4.5 30t-13.5 27q-9 12 -25.5 18.5t-40.5 6.5t-40.5 -8t-26.5 -23q-10 -16 -15 -32.5t-5 -32.5h-117q2 58 22.5 99t58.5 65v0z" />
    <glyph glyph-name="uniE905" unicode="&#xe905;" horiz-adv-x="1654" 
d="M0 877v-867q0 -32 23 -55t56 -23h1496q34 0 56.5 23t22.5 55v867q0 33 -23 56t-56 23h-1496q-33 0 -56 -23t-23 -56v0zM626 168h-404v85q23 17 46 35t47 37q23 18 41.5 34.5t32.5 30.5q21 20 36 37.5t24 32.5q8 15 12.5 30t4.5 30q0 17 -5.5 31t-16.5 23q-12 10 -28 14.5
t-38 4.5q-16 0 -32.5 -3t-34.5 -10q-17 -6 -33.5 -14.5t-31.5 -18.5h-11v114q12 6 30.5 11t42.5 11q24 5 48 8t48 3q48 0 85 -10.5t62 -30.5q26 -21 38.5 -49.5t12.5 -65.5q0 -25 -6 -48t-18 -45t-31 -44.5t-44 -46.5q-15 -14 -31 -27.5t-32 -25.5t-27.5 -20.5t-17.5 -13.5
h231v-99v0zM964 347h-264v100h264v-100zM1438 168h-344v90h109v272h-109v85q12 0 24 0.5t24 2.5q11 1 20.5 3.5t17.5 6.5q9 4 15.5 9.5t11.5 12.5q4 7 6.5 15.5t3.5 19.5h115v-427h106v-90v0z" />
    <glyph glyph-name="uniE906" unicode="&#xe906;" 
d="M512 60l144 -108l64 169l179 -13l-38 176l158 87l-127 127l86 158l-176 39l-13 179l-169 -62l-108 144l-108 -144l-169 62l-13 -179l-176 -39l86 -158l-127 -127l158 -87l-38 -176l179 13l64 -169l144 108v0zM693 391q0 -27 -11.5 -50t-33.5 -42q-23 -19 -52.5 -30
t-66.5 -13v-115h-55v113q-18 0 -38.5 2t-43.5 6t-41.5 9.5t-31.5 11.5v92h15q14 -8 31 -14t35 -11q19 -5 38 -8t37 -4v86l-30 7q-15 3 -28.5 7t-25.5 8q-12 5 -22.5 11t-19.5 13t-16 16t-11 20q-5 10 -7.5 23.5t-2.5 28.5q0 24 10.5 44t32.5 37q21 17 51 27t68 13v74h55v-73
q14 -1 31 -3t37 -5q19 -4 34.5 -8t26.5 -8v-91h-14q-11 6 -24 11.5t-28 9.5t-30.5 7t-32.5 4v-80l25 -5q36 -7 62 -18t43 -25t25.5 -33.5t8.5 -44.5v0zM479 524v73q-11 -1 -20 -3.5t-18 -7.5q-8 -4 -12 -10.5t-4 -14.5t2.5 -13.5t8.5 -9.5q5 -4 16 -7.5t27 -6.5v0zM578 378
q0 9 -4 16t-13 12q-8 4 -16.5 7t-17.5 4v-78q11 1 20 4t16 8q8 5 11.5 11.5t3.5 15.5v0z" />
    <glyph glyph-name="uniE907" unicode="&#xe907;" horiz-adv-x="3968" 
d="M1981 744h-282v-157h242v-66h-242v-269h-74v558h356v-66zM2399 461q0 -51 -13.5 -91.5t-39.5 -70.5q-26 -29 -61 -44t-80 -15q-44 0 -79.5 15t-61.5 44q-26 30 -39 70.5t-13 91.5t13 91.5t39 70.5t61.5 44.5t79.5 14.5q45 0 80 -14.5t61 -44.5t39.5 -70.5t13.5 -91.5v0z
M2326 461q0 41 -8 71t-24 50t-38 29.5t-51 9.5q-28 0 -50.5 -9.5t-38.5 -29.5q-15 -20 -23 -50t-8 -71q0 -39 8 -69t24 -50q15 -21 37.5 -31t50.5 -10q29 0 51 10t38 30t24 50t8 70v0v0zM2579 252h-71v583h71v-583zM2790 252h-71v583h71v-583zM3286 461q0 -51 -13 -91.5
t-39 -70.5q-27 -29 -62 -44t-79 -15t-79.5 15t-61.5 44q-26 30 -39 70.5t-13 91.5t13 91.5t39 70.5t61.5 44.5t79.5 14.5t79 -14.5t62 -44.5q26 -30 39 -70.5t13 -91.5v0zM3213 461q0 41 -8 71t-23 50q-16 20 -38.5 29.5t-50.5 9.5q-29 0 -51 -9.5t-38 -29.5t-24 -50t-8 -71
q0 -39 8 -69t24 -50q16 -21 38.5 -31t50.5 -10t50 10t38 30t24 50t8 70v0v0zM3922 671l-109 -419h-65l-108 323l-107 -323h-65l-110 419h74l77 -325l104 325h58l108 -325l72 325h71zM94 855l51 -55t154 -107q53 -28 120 -49t149 -27l-5 39t9 89t58 95q44 46 141 59
l59.5 -2.5t129.5 -71.5l63 20.5t81 35.5l-15.5 -40t-82.5 -87l51 11.5t77 24.5l-34.5 -45.5t-77.5 -72.5l-1 -25q0 -24 -2.5 -57t-7.5 -66q-4 -33 -13 -51l-23.5 -72t-60.5 -119l-26.5 -40t-66.5 -75l-59 -49q-59 -50 -165.5 -89.5t-253.5 -39.5q-147 1 -323 101l31 -2
t80 4.5t109 27.5q59 20 116 65l-26 3q-27 3 -62 18.5t-71 48.5t-54 92l31 -3t72 6l-29 8q-29 9 -63.5 33.5t-63.5 69.5q-29 44 -29 116l28.5 -14t75.5 -14l-21 16q-20 16 -42 47.5t-34 77.5q-13 46 3 106z" />
    <glyph glyph-name="uniE908" unicode="&#xe908;" horiz-adv-x="896" 
d="M46 404l450 409l-87 1l439 -417l88 93l-482 458l-494 -449zM512 -74v896h-128v-896h128z" />
    <glyph glyph-name="uniE909" unicode="&#xe909;" 
d="M512 -73q106 0 199 40q94 40 163.5 109.5t109.5 163.5q40 93 40 199t-40 199t-109.5 162.5t-163.5 110.5q-93 40 -199 40t-199 -40q-94 -41 -163.5 -110.5t-109.5 -162.5t-40 -199t40 -199q40 -94 109.5 -163.5t163.5 -109.5q93 -40 199 -40z" />
    <glyph glyph-name="uniE90A" unicode="&#xe90a;" 
d="M512 73v0q76 0 142 29q67 29 116.5 78.5t78.5 116.5q29 66 29 142t-29 142q-29 67 -78.5 116.5t-116.5 78.5q-66 29 -142 29t-142 -29q-67 -29 -116.5 -78.5t-78.5 -116.5q-29 -66 -29 -142t29 -142q29 -67 78.5 -116.5t116.5 -78.5q66 -29 142 -29v0v0zM512 -73v0
q-106 0 -199 40q-94 40 -163.5 109.5t-109.5 163.5q-40 93 -40 199t40 199t109.5 162.5t163.5 110.5q93 40 199 40t199 -40q94 -41 163.5 -110.5t109.5 -162.5t40 -199t-40 -199q-40 -94 -109.5 -163.5t-163.5 -109.5q-93 -40 -199 -40v0z" />
    <glyph glyph-name="uniE90B" unicode="&#xe90b;" horiz-adv-x="796" 
d="M249 625q48 34 73.5 69.5t-31.5 137.5q-56 103 -113.5 74.5t-104.5 -61.5q-27 -19 -36 -70t5 -125t53 -166q40 -91 109 -190t142 -167q72 -69 137 -107t116 -48q52 -9 78 10q47 33 93.5 77t-30.5 132q-77 89 -119 77t-90 -45q-34 -24 -89 32.5t-107 130.5
q-51 73 -85.5 144.5t-0.5 94.5v0z" />
    <glyph glyph-name="uniE90C" unicode="&#xe90c;" horiz-adv-x="2560" 
d="M756 290q0 -66 -2 -123q-1 -57 -30 -101.5t-96 -75.5q-68 -31 -199 -45q-132 -15 -196 20q-64 34 -88 94t-23 134q2 73 2 137q0 74 83 157q83 82 237.5 152t373.5 116t491 46t491 -46q220 -46 374 -116t237 -152q84 -83 84 -157q0 -64 1 -138q2 -73 -22.5 -133t-88.5 -94
q-64 -35 -195 -20q-132 14 -199 45q-68 31 -96.5 75.5t-30.5 101.5t-2 123q0 46 -49 75q-48 29 -126.5 45.5t-177.5 23.5q-99 6 -200 6t-200 -6q-98 -6 -176.5 -23t-127.5 -46t-49 -75v0z" />
    <glyph glyph-name="uniE90D" unicode="&#xe90d;" horiz-adv-x="887" 
d="M290 77q18 -50 56.5 -79t97.5 -29v68q-36 0 -57.5 16.5t-32.5 47.5q-7 19 -10 38t-2 34q0 1 0.5 19l0.5 18l-28 -1h-66.5h-78.5h-65q4 12 12 21t22 20q2 2 5 4t7 6q4 3 7.5 5.5t6.5 5.5q44 38 66 95.5t22 157.5q0 85 16 131.5t46 70.5q4 3 9 6.5t11 7.5q3 1 11.5 6
t11.5 7q22 13 33.5 29t11.5 41q1 14 5.5 21t11.5 10q5 2 10 3t11 1h1.5h1.5v68h-2q-12 0 -24 -1.5t-25 -7.5q-25 -11 -40.5 -34t-17.5 -58q0 -5 -2 -7t-11 -7q-2 -1 -10 -6t-11 -7q-8 -4 -15 -9l-14 -10q-43 -34 -65.5 -95t-22.5 -160q0 -86 -15.5 -130t-47.5 -71
q-3 -2 -5.5 -4.5t-6.5 -4.5q-4 -4 -7 -6.5t-5 -3.5q-33 -26 -48.5 -54.5t-15.5 -74.5v-34h30q29 0 69 -0.5t80 -0.5h63q2 -15 5.5 -31t9.5 -32v0zM544 210l2 -37q0 -15 -2.5 -34t-9.5 -38q-12 -31 -33.5 -47.5t-56.5 -16.5v-68q58 0 96.5 29t57.5 79q6 16 9.5 32t5.5 31h62
q41 0 80.5 0.5t69.5 0.5h29v34q0 46 -15 74.5t-49 54.5q-1 1 -4 3.5t-8 6.5q-3 2 -6 4.5t-5 4.5q-33 27 -48.5 71t-15.5 130q0 99 -22.5 160t-65.5 95q-6 5 -13 10t-15 9q-3 2 -11.5 7t-10.5 6q-8 5 -10 7t-2 5q-2 36 -17.5 59.5t-40.5 34.5q-13 5 -25 7t-25 2h-1v-68h1.5
h0.5q6 0 11.5 -1t9.5 -3q8 -3 12.5 -10.5t5.5 -23.5q0 -22 11.5 -38t33.5 -29q3 -2 11.5 -7t10.5 -6q6 -4 11 -7.5t10 -6.5q29 -24 45.5 -70.5t16.5 -131.5q0 -100 21.5 -157.5t65.5 -95.5q4 -3 7 -5.5t7 -5.5q5 -4 8 -6t4 -4q14 -11 22 -20t12 -21h-64h-78.5h-67.5l-28 1v0
zM296 141l296 -1v69h-295z" />
    <glyph glyph-name="uniE90E" unicode="&#xe90e;" horiz-adv-x="1092" 
d="M950 564q-6 21 -15.5 41.5t-20.5 40.5q21 22 37.5 41t30.5 35l16 19l-151 141l-20 -15q-17 -13 -37.5 -28.5t-44.5 -34.5q-21 11 -43 19t-44 14q-2 30 -4.5 54.5t-4.5 44.5l-2 24h-213l-4 -23l-4.5 -45t-4.5 -53q-23 -7 -45 -15.5t-43 -18.5q-23 19 -43.5 35t-37.5 28
l-20 15l-149 -143l16 -19q14 -16 30.5 -35t37.5 -41q-12 -20 -21 -40.5t-15 -41.5q-32 -2 -58 -4t-47 -5l-26 -1v-199l25 -4q21 -2 47.5 -4t56.5 -4q7 -21 16.5 -42t20.5 -40q-21 -23 -38 -42t-30 -35l-16 -19l151 -141l20 15q17 12 37.5 28t43.5 35q22 -11 43.5 -19
t44.5 -15q2 -29 4.5 -53.5t4.5 -44.5l4 -23h212l4 23l4.5 45t4.5 53q23 7 45 15.5t43 18.5q23 -19 43.5 -35t37.5 -28l20 -15l151 141l-16 19q-13 16 -30 35t-37 42q11 19 20 40t16 42q31 2 57 4t47 4l25 4v199l-25 3q-22 2 -48.5 4t-58.5 4v0v0zM926 393l-22 -1l-3 -19
q-7 -27 -18.5 -53t-26.5 -50l-11 -17l13 -15q19 -19 34.5 -36.5t28.5 -32.5l-79 -74q-16 12 -34.5 27t-39.5 32l-15 14l-18 -11q-25 -15 -52.5 -25.5t-56.5 -16.5l-20 -4l-1 -21q-2 -26 -4 -49t-4 -42h-113q-1 19 -3.5 42t-4.5 49l-1 21l-20 4q-29 6 -56.5 17t-52.5 25
l-18 11l-16 -13q-21 -17 -39.5 -32t-34.5 -27l-79 74q13 15 29 32.5t34 36.5l13 15l-11 17q-16 24 -27 50t-18 53l-4 19l-22 1q-28 1 -52.5 3t-45.5 4v105q21 1 45.5 3.5t52.5 3.5l22 1l4 19q7 27 18.5 53t26.5 50l11 17l-13 14q-19 20 -35 37.5t-28 32.5l79 74
q16 -13 34.5 -27.5t39.5 -31.5l16 -13l18 11q25 15 52.5 25.5t56.5 16.5l20 4l1 20q2 26 4 49t4 43h113q1 -20 3.5 -43t4.5 -49l1 -20l20 -4q29 -6 56.5 -17t52.5 -25l18 -11l16 13q21 17 39.5 32t34.5 27l79 -74q-13 -15 -29 -32.5t-34 -37.5l-14 -14l11 -17q16 -24 27 -50
t18 -53l4 -19l22 -1q28 -1 52.5 -3t45.5 -4v-106q-21 -2 -46 -4t-53 -3v0zM541 610q-70 0 -119 -46t-49 -111t49 -111.5t119 -46.5q69 0 118 46.5t49 111.5t-49 111t-118 46v0v0zM541 348q-46 0 -79 30.5t-33 74.5q0 43 32.5 73.5t79.5 30.5q46 0 78.5 -30.5t32.5 -73.5
q0 -44 -33 -74.5t-78 -30.5v0z" />
    <glyph glyph-name="uniE90F" unicode="&#xe90f;" horiz-adv-x="967" 
d="M10 629l473 -448l474 448l-81 86l-433 -410h81l-433 410l-81 -86v0z" />
    <glyph glyph-name="uniE910" unicode="&#xe910;" horiz-adv-x="1195" 
d="M0 1024h1195l-598 -1024z" />
    <glyph glyph-name="uniE911" unicode="&#xe911;" 
d="M800 879q-25 -31 -23 -71t30 -69q29 -29 69.5 -30.5t71.5 23.5q27 -41 46.5 -87.5t29.5 -96.5q-40 -4 -67 -34t-27 -70q0 -41 27 -70.5t67 -33.5q-10 -51 -29.5 -97t-46.5 -88q-31 25 -71.5 23.5t-69.5 -30.5q-28 -28 -30 -68.5t23 -71.5q-41 -27 -87.5 -46.5
t-96.5 -29.5q-4 39 -33.5 66.5t-70.5 27.5t-70.5 -27.5t-33.5 -66.5q-50 10 -96.5 29.5t-87.5 46.5q25 31 23 71.5t-30 68.5q-29 29 -69.5 30.5t-71.5 -23.5q-27 42 -46.5 88t-29.5 97q40 4 67 33.5t27 70.5q0 40 -27 70t-67 34q10 50 29.5 96.5t46.5 87.5
q31 -25 71.5 -23.5t69.5 30.5q28 29 30 69t-23 71q41 28 87.5 47.5t96.5 29.5q4 -40 33.5 -67t70.5 -27t70.5 27t33.5 67q50 -10 96.5 -29.5t87.5 -47.5v0zM512 205q49 0 93 19q44 18 76 50.5t51 76.5q19 43 19 93q0 49 -19 93q-19 43 -51 75.5t-76 51.5t-93 19t-93 -19
t-76 -51.5t-51 -75.5q-19 -44 -19 -93q0 -50 19 -93q19 -44 51 -76.5t76 -50.5q44 -19 93 -19z" />
    <glyph glyph-name="uniE912" unicode="&#xe912;" 
d="M512 -64q-106 0 -199 40q-94 40 -163.5 109.5t-109.5 163.5q-40 93 -40 199t40 199q40 94 109.5 163.5t163.5 109.5q93 40 199 40t199 -40q94 -40 163.5 -109.5t109.5 -163.5q40 -93 40 -199t-40 -199q-40 -94 -109.5 -163.5t-163.5 -109.5q-93 -40 -199 -40zM512 0
q93 0 174 35q82 35 143 96t96 143q35 81 35 174t-35 174q-35 82 -96 143t-143 96q-81 35 -174 35t-174 -35q-82 -35 -143 -96t-96 -143q-35 -81 -35 -174t35 -174q35 -82 96 -143t143 -96q81 -35 174 -35zM343 548h93q1 28 19.5 45t48.5 17q29 0 47 -15.5t18 -39.5
t-12.5 -39.5t-45.5 -35.5q-35 -20 -50 -46t-12 -67l1 -19h91v18q0 25 12 40.5t46 35.5q37 21 55.5 49.5t18.5 66.5q0 60 -45 97t-118 37q-79 0 -122.5 -40t-44.5 -104v0zM499 182q29 0 45.5 15.5t16.5 42.5t-16.5 43t-45.5 16t-46 -16t-17 -43t17 -42.5t46 -15.5v0z" />
    <glyph glyph-name="uniE913" unicode="&#xe913;" horiz-adv-x="1344" 
d="M896 722q-4 2 -8 3.5t-9 2.5q-25 9 -51 16t-52 12t-52 7.5t-52 2.5t-52 -2.5t-52 -7.5q-25 -5 -51 -12t-52 -16t-51 -20t-50 -24t-50 -28t-50 -32l-34 -24t-32 -25q-16 -13 -30.5 -25t-28.5 -25q-8 -8 -15 -14.5t-13 -12.5q-5 -6 -10 -10.5t-8 -8.5q-15 -14 -22 -30
t-6 -34q0 -19 7.5 -34.5t22.5 -28.5l9 -9l11 -11t13.5 -12.5t16.5 -13.5q14 -13 29.5 -25.5t32.5 -25.5q16 -13 33 -25t35 -24q15 -11 31 -21t32 -19l99 99l-10 18t-9 19q-11 26 -17 54t-6 58t6 58t17 54q12 26 27.5 49t35.5 43q19 19 42 34.5t49 26.5q27 12 55 17.5t58 5.5
t58.5 -5.5t54.5 -17.5q10 -4 19 -8.5t18 -9.5l61 61v0zM239 152q-19 13 -36.5 26t-34.5 26q-18 13 -34 26.5t-32 27.5q-5 4 -10.5 8.5t-9.5 8.5q-5 5 -9.5 9t-8.5 8q-3 2 -5 4.5t-4 3.5q-1 2 -2.5 3.5l-2.5 2.5q-24 20 -36.5 47t-13.5 60t10.5 60.5t35.5 50.5l5 5l4 4t4 5
l17 16q4 5 9 9t10 9q15 13 30.5 26.5t32.5 26.5l34 26t35 26q27 18 53.5 34t54.5 30q27 14 54.5 26t55.5 22t56 17.5t56 12.5q29 6 57.5 8.5t57.5 2.5t57.5 -2.5t57.5 -8.5q28 -5 56.5 -12.5t56.5 -17.5q11 -4 22.5 -8.5t23.5 -9.5l187 189l51 -41l-992 -983l-44 41l143 143
q-17 10 -30.5 18.5t-21.5 13.5v0zM788 614q-4 2 -7.5 3.5t-7.5 3.5q-21 8 -42.5 12.5t-45.5 4.5q-23 0 -45 -4.5t-43 -12.5q-20 -9 -38 -21t-33 -27q-15 -16 -27 -33.5t-21 -38.5q-9 -20 -13.5 -42t-4.5 -45t4.5 -45t13.5 -42q2 -4 3.5 -7.5t3.5 -7.5l303 302v0zM1019 663
l47 46q12 -7 25 -15.5t26 -16.5q18 -13 35.5 -26t34.5 -26q16 -13 32 -26.5t30 -26.5q5 -5 9.5 -9t9.5 -9q5 -4 9 -8.5t8 -7.5q2 -3 4 -5l4 -4l3 -3q24 -23 36 -50.5t12 -60.5q0 -32 -12.5 -59.5t-36.5 -49.5q-2 -1 -3.5 -2.5t-2.5 -3.5q-2 -1 -4 -3.5t-4 -4.5
q-5 -4 -9.5 -8t-8.5 -9q-5 -4 -10 -8.5t-11 -8.5q-15 -14 -31.5 -27.5t-33.5 -26.5t-35 -26t-36 -25q-28 -18 -55 -34.5t-54 -30.5q-27 -15 -54 -27t-54 -22q-28 -10 -55 -17.5t-54 -12.5t-54 -7.5t-54 -2.5t-53.5 2.5t-53.5 7.5q-28 5 -55 12.5t-54 17.5q-11 4 -22.5 8.5
t-23.5 9.5l50 49q4 -1 8 -2.5t8 -3.5q25 -9 50 -16t50 -12q24 -5 48 -7.5t48 -2.5t48 2.5t49 7.5t49.5 12t49.5 16t50.5 20.5t50.5 24.5t50.5 28.5t50.5 32.5l34 24t34 25q16 13 31.5 25.5t30.5 25.5q9 7 16.5 13.5t13.5 12.5l11 11l9 9q14 13 21.5 29t7.5 35q1 19 -6.5 35
t-22.5 30q-3 3 -7 7.5t-10 10.5q-6 5 -13 11.5t-15 14.5q-14 13 -28.5 25t-29.5 25q-16 13 -32.5 25t-34.5 24q-15 10 -30.5 20t-30.5 19v0v0zM527 174l47 45q6 -3 11.5 -6t11.5 -5q21 -9 43 -13.5t45 -4.5q24 0 45.5 4.5t42.5 13.5q20 8 38 20t33 28q15 15 27 33t21 38
t14 42t5 45t-5 45t-14 42q-2 6 -5 12t-7 12l47 46q7 -10 13.5 -21.5t11.5 -23.5q11 -26 17 -54t6 -58t-6 -58t-17 -54q-12 -26 -27.5 -49t-34.5 -42q-20 -20 -43 -35.5t-49 -26.5t-54.5 -17t-58.5 -6t-58 6t-55 17q-12 5 -23.5 11.5t-21.5 13.5v0z" />
    <glyph glyph-name="uniE914" unicode="&#xe914;" 
d="M0 -64h1024v1024h-1024v-1024zM276 724h118l236 -315v315h118v-552h-118l-236 355v-355h-118v552z" />
    <glyph glyph-name="uniE915" unicode="&#xe915;" horiz-adv-x="945" 
d="M687 802h258v-866h-258v866zM0 409h258v-473h-258v473zM344 960h258v-1024h-258v1024z" />
    <glyph glyph-name="uniE916" unicode="&#xe916;" horiz-adv-x="683" 
d="M0 447l493 513l76 -79l-417 -434l415 -432l-75 -79z" />
    <glyph glyph-name="uniE917" unicode="&#xe917;" 
d="M478 960h68v-1024h-68v1024zM0 482h1024v-68h-1024v68z" />
    <glyph glyph-name="uniE918" unicode="&#xe918;" 
d="M1014 896l-63 64l-439 -443l-439 443l-63 -64l439 -443l-449 -453l63 -64l449 453l449 -453l63 64l-449 453z" />
    <glyph glyph-name="uniE919" unicode="&#xe919;" horiz-adv-x="1103" 
d="M237 671l-154 -118l-83 234l237 158l38 -0.5t93 -0.5q0 -71 55.5 -113.5t127.5 -43.5q72 0 128 44.5t56 112.5l66 -0.5l66 -0.5l236 -156l-79 -235l-157 116v-274h-185t-207 0.5t-169 0.5h-69v276v0zM696 -79l-145 235l-159 -235h-234l78 394h630l79 -394h-249z" />
    <glyph glyph-name="uniE91A" unicode="&#xe91a;" horiz-adv-x="1280" 
d="M939 -85l341 298l-341 299v-256h-427v-85h427v-256zM341 683v256l-341 -299l341 -299v256h427v86h-427z" />
    <glyph glyph-name="uniE91B" unicode="&#xe91b;" horiz-adv-x="2194" 
d="M0 1024h2194v-146h-2194v146zM0 146h2194v-146h-2194v146v0z" />
    <glyph glyph-name="uniE91C" unicode="&#xe91c;" horiz-adv-x="640" 
d="M422 448l-422 -435l77 -77l512 512l-512 512l-77 -90z" />
    <glyph glyph-name="uniE91D" unicode="&#xe91d;" horiz-adv-x="1536" 
d="M1536 841l-119 119l-649 -649l-649 649l-119 -119l768 -768z" />
    <glyph glyph-name="uniE91E" unicode="&#xe91e;" horiz-adv-x="1755" 
d="M1741 843l-117 117l-746 -761l-746 761l-117 -117l760 -746l103 -117l102 117z" />
    <glyph glyph-name="uniE91F" unicode="&#xe91f;" 
d="M1024 676l-78 79l-434 -436l-434 436l-78 -79l512 -515z" />
    <glyph glyph-name="uniE920" unicode="&#xe920;" horiz-adv-x="597" 
d="M16 448l517 -512l64 63l-453 449l453 449l-64 63l-453 -449z" />
    <glyph glyph-name="uniE921" unicode="&#xe921;" 
d="M385 445l434 436l-78 79l-512 -515l506 -509l78 79z" />
    <glyph glyph-name="uniE922" unicode="&#xe922;" 
d="M419 447l434 434l-79 79l-512 -513l511 -511l79 79z" />
    <glyph glyph-name="uniE923" unicode="&#xe923;" 
d="M405 448l427 427l-85 85l-512 -512l512 -512l85 85z" />
    <glyph glyph-name="uniE924" unicode="&#xe924;" horiz-adv-x="597" 
d="M581 448l-517 512l-64 -63l453 -449l-453 -449l64 -63l453 449z" />
    <glyph glyph-name="uniE925" unicode="&#xe925;" 
d="M284 960l-79 -78l436 -434l-436 -434l79 -78l515 512z" />
    <glyph glyph-name="uniE926" unicode="&#xe926;" 
d="M762 447l-513 513l-78 -79l434 -434l-433 -432l79 -79z" />
    <glyph glyph-name="uniE927" unicode="&#xe927;" 
d="M512 747l-512 -517l63 -64l449 453l449 -453l63 64l-449 453z" />
    <glyph glyph-name="uniE928" unicode="&#xe928;" 
d="M512 728l-506 -508l78 -79l428 430l428 -430l78 79z" />
    <glyph glyph-name="uniE929" unicode="&#xe929;" 
d="M513 697l-511 -512l78 -78l433 432l432 -432l79 78z" />
    <glyph glyph-name="uniE92A" unicode="&#xe92a;" horiz-adv-x="838" 
d="M419 242l279 261l84 -93l-363 -336l-363 345l84 84zM363 931h121v-736h-121v736z" />
    <glyph glyph-name="uniE92B" unicode="&#xe92b;" horiz-adv-x="1339" 
d="M436 -19l-400 399l56 56l344 -343l811 811l55 -56z" />
    <glyph glyph-name="uniE92C" unicode="&#xe92c;" horiz-adv-x="1365" 
d="M580 39l-81 -80l-442 443l80 80l362 -362l770 770l80 -81l-769 -770v0z" />
    <glyph glyph-name="uniE92D" unicode="&#xe92d;" horiz-adv-x="1317" 
d="M0 577l476 -476l819 820l-103 103l-716 -716l-373 372z" />
  </font>
</defs>
</svg>
