<svg xmlns="http://www.w3.org/2000/svg" viewBox="0 0 40 42"><polygon class="colorcode7" fill="#F0F0F0" points="9.5,26.5 30.55,26.5 33.55,41.5 22.5,41.45 20,35.95 17.55,41.5 6.55,41.45"></polygon><path class="colorcode2" fill="#881319" d="M25.551,0.5L31,1.5l8.45,9.45L34,16.5L30.45,13l0.101,13.5H9.5L9.6,13L6,16.45L0.6,11l8.45-9.5l5.5-1.05L15.8,2c1.133,1,2.533,1.5,4.2,1.5c1.7,0,3.133-0.5,4.301-1.5L25.551,0.5z"></path><path class="colorcode3" fill="#881319" d="M34,16l-3.55-3.625l0.1,14.125H20V3.55c1.7,0,3.133-0.5,4.3-1.5C24.9,1.517,25.316,1,25.55,0.5l5.2,1.625L38.625,11L34,16z"></path><polygon class="colorcode4" fill="#79ADE2" points="39.4,11.062 34.125,16.375 30,12 30,1.4 31.125,1.75 	"></polygon><polygon class="colorcode1" fill="#79ADE2" points="10,1.4 10,12.75 6,16.65 0.55,11.15 8.8,1.95 		"></polygon><path class="colorcode8" fill="{7}" fill-opacity="0" d="M2.2,9.45L7.75,15L6.1,16.55L0.7,11.1L2.2,9.45z M24.45,2.3c-1.3,1-2.767,1.5-4.399,1.5c-1.701,0-3.167-0.5-4.4-1.5l-1.4-1.55L12.85,1l1.75,2.05c1.567,1.333,3.383,2,5.451,2c2.1,0,3.899-0.633,5.399-1.9c0.733-0.667,1.267-1.316,1.601-1.95L25.9,0.75C25.6,1.25,25.117,1.767,24.45,2.3z M37.9,9.3l-5.551,5.55L34,16.4l5.4-5.45L37.9,9.3z"></path><path fill="#272727" d="M16.05,1.5c0.967,1,2.3,1.5,4,1.5c1.667,0,3-0.5,4-1.5l1-1.5L31,1l9,10l-6,6.25L31.05,14v13h-22V14l-3,3.2L0,11.05L9.05,1l6-1L16.05,1.5z M20.05,4c-1.667,0-3.167-0.5-4.5-1.5L14.05,1l-5,1l-8.1,9l5.1,5l4-4v14h20V12L34,16l5.05-5l-8-9l-5-1l-1.5,1.5C23.217,3.5,21.717,4,20.05,4z"></path><path fill="#272727" d="M17.05,41l3-7L23,41h10.05l-3-14h-20l-3,14H17.05z M6.05,42l3-16h22L34,42H22.05l-2-5l-2,5H6.05z"></path><g id="shadows"><rect opacity="0.2" x="11" y="28" width="18" height="1"></rect><rect opacity="0.2" x="20" y="29" width="1" height="5"></rect><rect opacity="0.2" x="10" y="5" width="1" height="10"></rect><rect opacity="0.2" x="29" y="5" width="1" height="10"></rect></g></svg>