<svg xmlns="http://www.w3.org/2000/svg" viewBox="0 0 40 42"><polygon class="colorcode7" fill="#F0F0F0" points="9.5,26.5 30.55,26.5 33.55,41.5 22.5,41.45 20,35.95 17.55,41.5 6.55,41.45"></polygon><path class="colorcode1" fill="#0046A8" d="M27.9,0.9L9.45,26.449l0.1-13.5l-3.6,3.45l-5.4-5.45L9,1.45l5.5-1.05l1.25,1.55c1.133,1,2.533,1.5,4.2,1.5c1.701,0,3.133-0.5,4.3-1.5c0.6-0.5,1.017-1,1.25-1.5L27.9,0.9z"></path><polygon class="colorcode3" fill="#0046A8" points="30.5,26.449 9.45,26.449 27.9,0.9 30.95,1.45 39.4,10.9 33.95,16.45 30.4,12.95"></polygon><path class="colorcode2" fill="#0046A8" d="M22.85,2.8C24.117,2.233,25,1.45,25.5,0.45l5.45,1L31.1,1.6L13.2,26.45H9.45l0.05-5.149L22.85,2.8z"></path><path fill="#272727" d="M16.05,1.5c0.967,1,2.3,1.5,4,1.5c1.667,0,3-0.5,4-1.5l1-1.5L31,1l9,10l-6,6.25L31.05,14v13h-22V14l-3,3.2L0,11.05L9.05,1l6-1L16.05,1.5z M20.05,4c-1.667,0-3.167-0.5-4.5-1.5L14.05,1l-5,1l-8.1,9l5.1,5l4-4v14h20V12L34,16l5.05-5l-8-9l-5-1l-1.5,1.5C23.217,3.5,21.717,4,20.05,4z"></path><path fill="#272727" d="M17.05,41l3-7L23,41h10.05l-3-14h-20l-3,14H17.05z M6.05,42l3-16h22L34,42H22.05l-2-5l-2,5H6.05z"></path><g id="shadows"><rect opacity="0.2" x="11" y="28" width="18" height="1"></rect><rect opacity="0.2" x="20" y="29" width="1" height="5"></rect><rect opacity="0.2" x="10" y="5" width="1" height="10"></rect><rect opacity="0.2" x="29" y="5" width="1" height="10"></rect></g><g id="highlights"><path opacity="0.05" fill="#FFFFFF" d="M30.5,2.9l-4.1-0.8c-1.733,1.933-3.85,2.9-6.35,2.9c-2.534,0-4.667-0.967-6.4-2.9l-4.1,0.8l-7.2,8.05l3.7,3.6l5-5V25h18V9.55l4.949,5l3.65-3.6L30.5,2.9z M24.551,2.5c0.666-0.5,1.166-1,1.5-1.5l5,1l8,9L34,16l-3.949-4v14h-20V12l-4,4l-5.1-5l8.1-9l5-1l1.5,1.5c1.333,1,2.833,1.5,4.5,1.5C21.684,4,23.184,3.5,24.551,2.5z"></path><path opacity="0.05" fill="#FFFFFF" d="M31.8,40l-2.7-12H10.85l-2.6,12h8.1l3.7-8.55L23.65,40H31.8zM30.05,27l3,14H23l-2.95-7l-3,7h-10l3-14H30.05z"></path></g></svg>