<svg xmlns="http://www.w3.org/2000/svg" viewBox="0 0 40 42"><polygon class="colorcode7" fill="#0A0A0A" points="9.5,26.5 30.55,26.5 33.55,41.5 22.5,41.45 20,35.95 17.55,41.5 6.55,41.45"></polygon><path class="colorcode1" fill="#FBED32" d="M25.551,0.5l5.499,1.199l8.301,9.351L34,16.5L30.45,13l0.101,13.5H9.5L9.6,13L6,16.45L0.6,11l8.45-9.5l5.5-1.05L15.8,2c1.133,1,2.533,1.5,4.2,1.5c1.7,0,3.133-0.5,4.301-1.5L25.551,0.5z"></path><path class="colorcode2" fill="#0A0A0A" d="M34,16.4l-3.75-3.85V26.6L26,26.3V0.65l4.949,0.751l8.503,9.7l-1.902,2L30,5.05v3.8l5.6,6L34,16.4z M19.95,3.8L22,3.4v22.9h-4V3.8H19.95z M9.049,1.451L14,0.85V26.3h-4V12.25L6,16.4l-1.65-1.55L10,8.8V5.05l-7.451,7.901l-2.051-1.95L9.049,1.451z"></path><path fill="#272727" d="M16.05,1.5c0.967,1,2.3,1.5,4,1.5c1.667,0,3-0.5,4-1.5l1-1.5L31,1l9,10l-6,6.25L31.05,14v13h-22V14l-3,3.2L0,11.05L9.05,1l6-1L16.05,1.5z M20.05,4c-1.667,0-3.167-0.5-4.5-1.5L14.05,1l-5,1l-8.1,9l5.1,5l4-4v14h20V12L34,16l5.05-5l-8-9l-5-1l-1.5,1.5C23.217,3.5,21.717,4,20.05,4z"></path><path fill="#272727" d="M17.05,41l3-7L23,41h10.05l-3-14h-20l-3,14H17.05z M6.05,42l3-16h22L34,42H22.05l-2-5l-2,5H6.05z"></path><g id="shadows"><rect opacity="0.2" x="11" y="28" width="18" height="1"></rect><rect opacity="0.2" x="20" y="29" width="1" height="5"></rect><rect opacity="0.2" x="10" y="5" width="1" height="10"></rect><rect opacity="0.2" x="29" y="5" width="1" height="10"></rect></g><g id="highlights"><path opacity="0.05" fill="#FFFFFF" d="M30.5,2.9l-4.1-0.8c-1.733,1.933-3.85,2.9-6.35,2.9c-2.534,0-4.667-0.967-6.4-2.9l-4.1,0.8l-7.2,8.05l3.7,3.6l5-5V25h18V9.55l4.949,5l3.65-3.6L30.5,2.9z M24.551,2.5c0.666-0.5,1.166-1,1.5-1.5l5,1l8,9L34,16l-3.949-4v14h-20V12l-4,4l-5.1-5l8.1-9l5-1l1.5,1.5c1.333,1,2.833,1.5,4.5,1.5C21.684,4,23.184,3.5,24.551,2.5z"></path><path opacity="0.05" fill="#FFFFFF" d="M31.8,40l-2.7-12H10.85l-2.6,12h8.1l3.7-8.55L23.65,40H31.8zM30.05,27l3,14H23l-2.95-7l-3,7h-10l3-14H30.05z"></path></g></svg>